<?xml version="1.0" encoding="UTF-8" standalone="no"?>
<svg width="26px" height="26px" viewBox="0 0 26 26" version="1.1" xmlns="http://www.w3.org/2000/svg" xmlns:xlink="http://www.w3.org/1999/xlink" xmlns:sketch="http://www.bohemiancoding.com/sketch/ns">
    <!-- Generator: Sketch 3.4 (15575) - http://www.bohemiancoding.com/sketch -->
    <title>Group</title>
    <desc>Created with Sketch.</desc>
    <defs></defs>
    <g id="Careers-i3" stroke="none" stroke-width="1" fill="none" fill-rule="evenodd" sketch:type="MSPage">
        <g sketch:type="MSArtboardGroup" transform="translate(-57.000000, -2312.000000)" id="Group" stroke="#71B342">
            <g sketch:type="MSLayerGroup" transform="translate(58.000000, 2313.000000)">
                <circle id="Oval-44" sketch:type="MSShapeGroup" cx="12" cy="12" r="6"></circle>
                <path d="M12,6 C12,2.6862915 9.3137085,0 6,0 C2.6862915,0 0,2.6862915 0,6 C0,9.3137085 2.6862915,12 6,12 L6,12" id="Oval-44" sketch:type="MSShapeGroup"></path>
                <path d="M18,12 C21.3137085,12 24,9.3137085 24,6 C24,2.6862915 21.3137085,0 18,0 C14.6862915,0 12,2.6862915 12,6" id="Oval-44" sketch:type="MSShapeGroup"></path>
                <path d="M6,12 C2.6862915,12 0,14.6862915 0,18 C0,21.3137085 2.6862915,24 6,24 L6,24 C9.3137085,24 12,21.3137085 12,18" id="Oval-44" sketch:type="MSShapeGroup"></path>
                <path d="M12,18 C12,21.3137085 14.6862915,24 18,24 L18,24 C21.3137085,24 24,21.3137085 24,18 C24,14.6862915 21.3137085,12 18,12" id="Oval-44" sketch:type="MSShapeGroup"></path>
            </g>
        </g>
    </g>
</svg>