<?xml version="1.0" encoding="utf-8"?>
<!-- Generator: Adobe Illustrator 17.0.0, SVG Export Plug-In . SVG Version: 6.00 Build 0)  -->
<!DOCTYPE svg PUBLIC "-//W3C//DTD SVG 1.1//EN" "http://www.w3.org/Graphics/SVG/1.1/DTD/svg11.dtd">
<svg version="1.1" id="Layer_1" xmlns:sketch="http://www.bohemiancoding.com/sketch/ns"
	 xmlns="http://www.w3.org/2000/svg" xmlns:xlink="http://www.w3.org/1999/xlink" x="0px" y="0px" width="31px" height="29px"
	 viewBox="0 0 31 29" enable-background="new 0 0 31 29" xml:space="preserve">
<title>Oval 42 + Oval 43 + Line</title>
<desc>Created with Sketch.</desc>
<g id="Careers-i3" sketch:type="MSPage">
	<g id="Oval-42-_x2B_-Oval-43-_x2B_-Line" transform="translate(-52.000000, -2150.000000)" sketch:type="MSArtboardGroup">
		
			<g transform="translate(67.500000, 2166.500000) rotate(-315.000000) translate(-67.500000, -2166.500000) translate(55.000000, 2149.000000)" sketch:type="MSLayerGroup">
			<path id="Oval-42" sketch:type="MSShapeGroup" fill="none" stroke="#71B342" d="M20.487,7.431
				c-1.669-4.103-5.307-6.947-9.527-6.947c-5.799,0-10.5,5.373-10.5,12c0,5.841,3.651,10.707,8.487,11.78v9.218
				c0,0.547,0.452,1.002,1.009,1.002h1.981c0.566,0,1.009-0.449,1.009-1.002v-9.212l0,0c4.288-0.939,7.65-4.858,8.37-9.799"/>
			<circle id="Oval-43" sketch:type="MSShapeGroup" fill="none" stroke="#71B342" cx="20.963" cy="10.968" r="3.5">
			</circle>
			<path id="Line" sketch:type="MSShapeGroup" fill="none" stroke="#71B342" stroke-linecap="round" stroke-linejoin="round" d="
				M1.447,17.484h19"/>
		</g>
	</g>
</g>
</svg>
