<?xml version="1.0" encoding="UTF-8" standalone="no"?>
<svg width="18px" height="31px" viewBox="0 0 18 31" version="1.1" xmlns="http://www.w3.org/2000/svg" xmlns:xlink="http://www.w3.org/1999/xlink" xmlns:sketch="http://www.bohemiancoding.com/sketch/ns">
    <!-- Generator: Sketch 3.4 (15575) - http://www.bohemiancoding.com/sketch -->
    <title>Group</title>
    <desc>Created with Sketch.</desc>
    <defs></defs>
    <g id="Careers-i3" stroke="none" stroke-width="1" fill="none" fill-rule="evenodd" sketch:type="MSPage">
        <g sketch:type="MSArtboardGroup" transform="translate(-672.000000, -2148.000000)" id="Group" stroke="#71B342">
            <g sketch:type="MSLayerGroup" transform="translate(672.000000, 2148.000000)">
                <path d="M0.5,0.5 L0.5,10 C0.5,11.9603282 1.75348993,13.6278882 3.50267641,14.2448865 M6.52725349,14.2342093 C8.26079119,13.6088255 9.5,11.9491291 9.5,10 L9.5,0.5" id="Oval-45" stroke-linecap="round" stroke-linejoin="round" sketch:type="MSShapeGroup"></path>
                <path d="M6.5,0.5 L6.5,10" id="Line" stroke-linecap="round" stroke-linejoin="round" sketch:type="MSShapeGroup"></path>
                <path d="M3.5,0.5 L3.5,10" id="Line" stroke-linecap="round" stroke-linejoin="round" sketch:type="MSShapeGroup"></path>
                <path d="M3.5,29 C3.5,29.8284271 4.17157288,30.5 5,30.5 L5,30.5 C5.82842712,30.5 6.5,29.8284271 6.5,29" id="Oval-45" sketch:type="MSShapeGroup"></path>
                <path d="M6.5,14.2332153 L6.5,29" id="Line" stroke-linecap="round" stroke-linejoin="round" sketch:type="MSShapeGroup"></path>
                <path d="M3.5,14.2307739 L3.5,29" id="Line" stroke-linecap="round" stroke-linejoin="round" sketch:type="MSShapeGroup"></path>
                <path d="M14.5,29 C14.5,29.8284271 15.1715729,30.5 16,30.5 L16,30.5 C16.8284271,30.5 17.5,29.8284271 17.5,29" id="Oval-45" sketch:type="MSShapeGroup"></path>
                <path d="M17.5,3 L17.5,29" id="Line" stroke-linecap="round" stroke-linejoin="round" sketch:type="MSShapeGroup"></path>
                <path d="M14.5,15 L14.5,29" id="Line" stroke-linecap="round" stroke-linejoin="round" sketch:type="MSShapeGroup"></path>
                <path d="M12.5,0.5 C12.5,1.88071187 13.6192881,3 15,3 L15,3 C16.3807119,3 17.5,1.88071187 17.5,0.5" id="Oval-45" sketch:type="MSShapeGroup" transform="translate(15.000000, 1.750000) scale(1, -1) translate(-15.000000, -1.750000) "></path>
                <path d="M12.5,3 L12.5,13" id="Line" stroke-linecap="round" stroke-linejoin="round" sketch:type="MSShapeGroup"></path>
                <path d="M12.5,13 C12.5,14.1045695 13.3954305,15 14.5,15 L14.5,15" id="Oval-45" sketch:type="MSShapeGroup"></path>
            </g>
        </g>
    </g>
</svg>