<?xml version="1.0" encoding="utf-8"?>
<!-- Generator: Adobe Illustrator 17.0.0, SVG Export Plug-In . SVG Version: 6.00 Build 0)  -->
<!DOCTYPE svg PUBLIC "-//W3C//DTD SVG 1.1//EN" "http://www.w3.org/Graphics/SVG/1.1/DTD/svg11.dtd">
<svg version="1.1" id="Layer_1" xmlns:sketch="http://www.bohemiancoding.com/sketch/ns"
	 xmlns="http://www.w3.org/2000/svg" xmlns:xlink="http://www.w3.org/1999/xlink" x="0px" y="0px" width="29px" height="29px"
	 viewBox="0 0 29 29" enable-background="new 0 0 29 29" xml:space="preserve">
<title>Rectangle 60</title>
<desc>Created with Sketch.</desc>
<g id="Careers-i3" sketch:type="MSPage">
	<g id="Rectangle-60" transform="translate(-668.000000, -2313.000000)" sketch:type="MSArtboardGroup">
		<path sketch:type="MSShapeGroup" fill="none" stroke="#71B342" stroke-linecap="round" stroke-linejoin="round" d="
			M691.152,2322.01l4.789,4.789c0.387,0.387,0.379,1.023,0,1.403l-12.74,12.74c-0.387,0.387-1.023,0.379-1.403,0l-12.74-12.74
			c-0.387-0.387-0.379-1.023,0-1.403l4.789-4.789c-0.711-0.039-1.411-0.331-1.954-0.874c-1.172-1.171-1.172-3.071,0-4.243
			c1.172-1.171,3.071-1.171,4.243,0c0.543,0.543,0.835,1.243,0.874,1.955l4.789-4.789c0.387-0.387,1.023-0.379,1.403,0l4.789,4.789
			c-0.711,0.039-1.411,0.331-1.954,0.874c-1.172,1.171-1.172,3.071,0,4.242c1.172,1.172,3.071,1.172,4.243,0
			C690.821,2323.421,691.113,2322.721,691.152,2322.01z"/>
	</g>
</g>
</svg>
