<?xml version="1.0" encoding="UTF-8" standalone="no"?>
<svg width="30px" height="30px" viewBox="0 0 30 30" version="1.1" xmlns="http://www.w3.org/2000/svg" xmlns:xlink="http://www.w3.org/1999/xlink" xmlns:sketch="http://www.bohemiancoding.com/sketch/ns">
    <!-- Generator: Sketch 3.4 (15575) - http://www.bohemiancoding.com/sketch -->
    <title>Group</title>
    <desc>Created with Sketch.</desc>
    <defs></defs>
    <g id="Careers-i3" stroke="none" stroke-width="1" fill="none" fill-rule="evenodd" sketch:type="MSPage">
        <g sketch:type="MSArtboardGroup" transform="translate(-55.000000, -2229.000000)" id="Group" stroke="#71B342">
            <g sketch:type="MSLayerGroup" transform="translate(56.000000, 2230.000000)">
                <circle id="Oval-43" sketch:type="MSShapeGroup" cx="14" cy="14" r="14"></circle>
                <path d="M8.21875,1.25 C8.40625,1.71875 8.5625,2.5 9.53125,2.6875 C10.5,2.875 11.71875,2.3125 12,2.5625 C12.28125,2.8125 12.7521973,3.71875 14.2521973,3.71875 C15.7521973,3.71875 16.4709473,1.5 17.2209473,1.5 C17.9709473,1.5 19.1584473,1.59375 19.3459473,1.15625" id="Path-991" sketch:type="MSShapeGroup"></path>
                <path d="M3.47094727,4.78125 C3.78344727,5.28125 4.47094727,6.15625 5.03344727,6.28125 C5.59594727,6.40625 8.28125,5.96875 8.84375,6.21875 C9.40625,6.46875 11.96875,6.21875 12.09375,6.875 C12.21875,7.53125 12.6875,10.3125 12.15625,10.625 C11.625,10.9375 10.3125,11.34375 10.125,12.125 C9.9375,12.90625 9.40625,17.96875 8.59375,17.96875 C7.78125,17.96875 6.96655273,14.9375 6,15.53125 C5.03344727,16.125 2.71875,17.78125 2.5,18.5625 C2.28125,19.34375 4.21875,19.875 5.03125,20.5625 C5.84375,21.25 7.40624979,20.875 7.40625,21.8125 C7.40625021,22.75 7.62499979,25.90625 7.40625,26.28125" id="Path-992" sketch:type="MSShapeGroup"></path>
                <path d="M20.0625,5.0625 C20.6875,4.78125 22.625,6.09375 22.1875,6.90625 C21.75,7.71875 21.25,9.09374989 20.90625,8.71875 C20.5625,8.34375011 19.0625,7.00122071 19.0625,6.5637207 C19.0625,6.1262207 19.4375,5.34375 20.0625,5.0625 Z" id="Path-993" sketch:type="MSShapeGroup"></path>
                <path d="M26.0949707,7.0324707 C25.7824707,7.6887207 24.9074707,9.1574707 24.4699707,9.4387207 C24.0324707,9.7199707 21.0949707,10.6574707 21.0949707,11.2512207 C21.0949707,11.8449707 20.2824707,14.0324707 20.9387207,14.2199707 C21.5949707,14.4074707 24.1887207,14.7824707 24.4387207,14.3137207 C24.6887207,13.8449707 24.3137207,12.0012207 25.0324707,12.0012207 C25.7512207,12.0012207 27.2824707,12.3449707 27.7824707,12.0949707" id="Path-994" sketch:type="MSShapeGroup"></path>
                <path d="M27.6875,17.0012207 C27.03125,16.8449707 25.7200928,16.4713135 25.09375,16.4713135 C24.4674072,16.4713135 20.3424072,16.9088135 20.1549072,17.4713135 C19.9674072,18.0338135 18.2486572,21.2838135 18.7799072,22.5650635 C19.3111572,23.8463135 21.7799072,24.9400635 22.1861572,25.2213135" id="Path-995" sketch:type="MSShapeGroup"></path>
            </g>
        </g>
    </g>
</svg>