<?xml version="1.0" encoding="UTF-8" standalone="no"?>
<svg width="123px" height="49px" viewBox="0 0 123 49" version="1.1" xmlns="http://www.w3.org/2000/svg" xmlns:xlink="http://www.w3.org/1999/xlink" xmlns:sketch="http://www.bohemiancoding.com/sketch/ns">
    <!-- Generator: Sketch 3.4 (15575) - http://www.bohemiancoding.com/sketch -->
    <title>Page 1</title>
    <desc>Created with Sketch.</desc>
    <defs>
        <path id="path-1" d="M0,0.139204545 L122.047864,0.139204545 L122.047864,49 L0,49 L0,0.139204545 Z"></path>
        <path id="path-3" d="M0,0.139204545 L122.047864,0.139204545 L122.047864,49 L0,49 L0,0.139204545 Z"></path>
    </defs>
    <g id="Careers-i3" stroke="none" stroke-width="1" fill="none" fill-rule="evenodd" sketch:type="MSPage">
        <g sketch:type="MSArtboardGroup" transform="translate(-680.000000, -3258.000000)" id="Page-1">
            <g sketch:type="MSLayerGroup" transform="translate(680.000000, 3257.939488)">
                <g id="Group-3">
                    <mask id="mask-2" sketch:name="Clip 2" fill="white">
                        <use xlink:href="#path-1"></use>
                    </mask>
                    <g id="Clip-2"></g>
                    <path d="M78.5462205,26.2400568 L78.5462205,26.8313977 C78.5462205,27.9016023 78.5851977,28.8025341 78.0595614,29.7546932 C77.6330386,30.5286705 76.9681977,31.0075341 76.2142659,31.0075341 C75.1886068,31.0075341 74.5783341,30.1767614 74.5783341,28.989625 C74.5783341,26.649875 76.6096068,26.2400568 78.5462205,26.2400568 L78.5462205,26.2400568 Z M43.466675,26.2400568 L43.466675,26.8313977 C43.466675,27.9016023 43.5056523,28.8025341 42.9800159,29.7546932 C42.5534932,30.5286705 41.8853114,31.0075341 41.1347205,31.0075341 C40.110175,31.0075341 39.4987886,30.1767614 39.4987886,28.989625 C39.4987886,26.649875 41.5322886,26.2400568 43.466675,26.2400568 L43.466675,26.2400568 Z M102.941539,21.0894886 C103.79013,21.0894886 104.415993,21.468125 104.716675,22.4470114 C105.065243,23.575125 105.099766,24.9827614 105.099766,26.1710114 C105.099766,27.9784432 105.01513,30.9730114 102.941539,30.9730114 C100.844561,30.9730114 100.85347,27.2668295 100.85347,25.5440341 C100.85347,23.8256932 100.969289,21.0894886 102.941539,21.0894886 L102.941539,21.0894886 Z M86.0632659,18.4446023 C85.7915386,18.4446023 85.5777205,18.6606477 85.5754932,18.9668977 L85.5754932,20.9848068 C85.5777205,21.2866023 85.7848568,21.504875 86.0632659,21.5071023 L90.6570159,21.5071023 L85.4017659,29.2680341 C85.0810386,29.7680568 85.0543114,30.3348977 85.0543114,30.6600795 L85.0543114,32.7125114 C85.0543114,33.007625 85.3750386,33.3305795 85.680175,33.1657614 C88.6747432,31.5309432 92.2639932,31.6768295 94.9723568,33.130125 C95.3008795,33.3094205 95.6338568,32.9731023 95.6338568,32.6779886 L95.6338568,30.520875 C95.6071295,30.2324432 95.4935386,29.9540341 95.1460841,29.7546932 C93.6092659,28.8704659 91.8252205,28.5998523 90.1347205,28.6410568 L94.6939477,21.9592386 C95.1160159,21.3589886 95.3521068,20.9970568 95.3554477,20.7063977 L95.3554477,18.9668977 C95.3554477,18.6673295 95.1505386,18.4446023 94.867675,18.4446023 L86.0632659,18.4446023 Z M118.219516,18.2007159 C116.369766,18.2007159 115.312925,19.1261477 114.565675,21.0549659 L114.531152,21.0549659 L114.531152,18.8967386 C114.483266,18.6784659 114.277243,18.5270114 114.04338,18.5147614 L111.57222,18.5147614 C111.30272,18.5147614 111.075539,18.7096477 111.051039,18.9668977 L111.051039,33.0610795 C111.051039,33.3272386 111.269311,33.5655568 111.537698,33.583375 L114.182584,33.583375 C114.467675,33.583375 114.700425,33.3461705 114.70488,33.0610795 L114.70488,25.4749886 C114.70488,24.5228295 114.785061,23.6553068 115.157016,22.7944659 C115.456584,22.1118068 116.037902,21.6808295 116.688266,21.6808295 C118.534675,21.6808295 118.35872,23.930375 118.35872,25.4749886 L118.35872,33.130125 C118.385448,33.3695568 118.601493,33.5677841 118.846493,33.583375 L121.525902,33.583375 C121.789834,33.583375 122.017016,33.3818068 122.048198,33.130125 L122.048198,24.2566705 C122.048198,22.8924659 122.051539,20.9970568 121.352175,19.8711705 C120.602698,18.6539659 119.415561,18.2007159 118.219516,18.2007159 L118.219516,18.2007159 Z M102.941539,18.2007159 C99.069425,18.2007159 96.9212205,21.6051023 96.9212205,25.9961705 C96.9212205,30.3571705 99.0460386,33.8617841 102.941539,33.8617841 C106.688925,33.8617841 109.066539,30.4373523 109.066539,26.135375 C109.066539,21.6875114 106.912766,18.2007159 102.941539,18.2007159 L102.941539,18.2007159 Z M57.3871295,18.2007159 C55.741175,18.2007159 54.5206295,19.0314886 53.8724932,20.8110795 L53.8379705,20.8110795 L53.8379705,18.9668977 C53.8212659,18.7096477 53.6107886,18.4924886 53.3501977,18.479125 L50.8445159,18.479125 C50.5605386,18.479125 50.3222205,18.7196705 50.3222205,19.0014205 L50.3222205,33.0956023 C50.3433795,33.3461705 50.5549705,33.5655568 50.8099932,33.583375 L53.4894023,33.583375 C53.7756068,33.583375 54.0105841,33.3450568 54.0116977,33.0610795 L54.0116977,25.5785568 C54.0116977,23.9470795 53.9326295,21.7164659 55.8558795,21.7164659 C57.7546295,21.7164659 57.4918114,24.0083295 57.4918114,25.5785568 L57.4918114,33.0610795 C57.4918114,33.3272386 57.7089705,33.5655568 57.9784705,33.583375 L60.6589932,33.583375 C60.9429705,33.583375 61.180175,33.3450568 61.180175,33.0610795 L61.180175,25.5785568 C61.180175,24.7778523 61.1478795,23.611875 61.4240614,22.8991477 C61.6991295,22.1864205 62.3751068,21.7164659 63.0243568,21.7164659 C63.7994477,21.7164659 64.3919023,21.9859659 64.5912432,22.9336705 C64.7159705,23.4971705 64.6602886,24.9861023 64.6602886,25.5785568 L64.6602886,33.0610795 C64.6602886,33.3272386 64.8785614,33.5655568 65.1480614,33.583375 L67.8274705,33.583375 C68.1125614,33.583375 68.3497659,33.3450568 68.3497659,33.0610795 L68.3497659,24.1519886 C68.3497659,22.6385568 68.5023341,20.9202159 67.6537432,19.7319659 C66.9042659,18.6651023 65.6781523,18.2007159 64.5556068,18.2007159 C62.980925,18.2007159 61.5164932,19.0314886 60.8672432,20.8110795 C60.1177659,19.0326023 59.060925,18.2007159 57.3871295,18.2007159 L57.3871295,18.2007159 Z M77.1196523,18.0615114 C74.5716523,18.0615114 71.7307659,19.042625 71.1338568,22.2721705 C71.0703795,22.6151705 71.2964477,22.7799886 71.5169477,22.8289886 L74.1261977,23.1430341 C74.3678568,23.1307841 74.532675,22.8679659 74.5783341,22.6207386 C74.8032886,21.5093295 75.7164705,20.9848068 76.7365614,20.9848068 C77.288925,20.9848068 77.9069932,21.174125 78.2332886,21.6808295 C78.6063568,22.2454432 78.5462205,23.0127386 78.5462205,23.6642159 L78.5462205,24.0473068 C76.994925,24.2254886 74.9870386,24.3335114 73.5348568,24.9872159 C71.8577205,25.7322386 70.6817205,27.2478977 70.6817205,29.4762841 C70.6817205,32.3316477 72.4312432,33.7571023 74.6830159,33.7571023 C76.5828795,33.7571023 77.6341523,33.3105341 79.1030386,31.7737159 C79.5874705,32.4975795 79.7456068,32.8261023 80.6342886,33.583375 C80.8336295,33.6902841 81.0841977,33.6791477 81.2612659,33.5132159 L81.2612659,33.5477386 C81.796925,33.0621932 82.7669023,32.1735114 83.3136977,31.7035568 C83.5319705,31.5209205 83.4818568,31.2213523 83.3136977,30.9730114 C82.8248114,30.2803295 82.3047432,29.7212841 82.3047432,28.4328068 L82.3047432,24.1519886 C82.3047432,22.3389886 82.421675,20.6674205 81.1220614,19.4190341 C80.0952886,18.4089659 78.4203795,18.0615114 77.1196523,18.0615114 L77.1196523,18.0615114 Z M42.0401068,18.0615114 C39.4932205,18.0615114 36.6501068,19.042625 36.0543114,22.2721705 C35.9908341,22.6151705 36.2180159,22.7799886 36.4362886,22.8289886 L39.0466523,23.1430341 C39.2883114,23.1307841 39.4531295,22.8679659 39.4987886,22.6207386 C39.7215159,21.5093295 40.636925,20.9848068 41.6570159,20.9848068 C42.2082659,20.9848068 42.8274477,21.174125 43.1537432,21.6808295 C43.527925,22.2454432 43.5011977,23.0127386 43.5011977,23.6642159 L43.5011977,24.0473068 C41.9499023,24.2254886 39.9074932,24.3335114 38.4553114,24.9872159 C36.7792886,25.7322386 35.6010614,27.2478977 35.6010614,29.4762841 C35.6010614,32.3316477 37.3505841,33.7571023 39.6034705,33.7571023 C41.5055614,33.7571023 42.5568341,33.3105341 44.0234932,31.7737159 C44.5101523,32.4975795 44.6660614,32.8261023 45.5547432,33.583375 C45.7529705,33.6902841 46.0046523,33.6791477 46.1817205,33.5132159 L46.1817205,33.5477386 C46.7151523,33.0621932 47.6873568,32.1735114 48.2341523,31.7035568 C48.452425,31.5209205 48.4045386,31.2213523 48.2341523,30.9730114 C47.7452659,30.2803295 47.2251977,29.7212841 47.2251977,28.4328068 L47.2251977,24.1519886 C47.2251977,22.3389886 47.3788795,20.6674205 46.0770386,19.4190341 C45.0513795,18.4089659 43.3408341,18.0615114 42.0401068,18.0615114 L42.0401068,18.0615114 Z" id="Fill-1" fill="#1F1C1D" sketch:type="MSShapeGroup" mask="url(#mask-2)"></path>
                </g>
                <g id="Group-6">
                    <mask id="mask-4" sketch:name="Clip 5" fill="white">
                        <use xlink:href="#path-3"></use>
                    </mask>
                    <g id="Clip-5"></g>
                    <path d="M59.9275568,39.5689477 C60.5311477,39.5689477 61.0445341,39.9041523 61.4588068,40.5433795 C61.8730795,41.1837205 62.0501477,42.1715159 62.0501477,43.5368341 C62.0501477,44.8676295 61.8541477,45.8598795 61.4242841,46.529175 C60.9944205,47.1984705 60.4821477,47.5381295 59.9275568,47.5381295 C59.5199659,47.5381295 59.149125,47.4011523 58.8139205,47.1205159 C58.4776023,46.8398795 58.2314886,46.4367432 58.0488523,45.9021977 C57.8651023,45.3665386 57.7704432,44.5435614 57.7704432,43.466675 C57.7704432,42.1993568 57.9953977,41.2471977 58.4308295,40.5779023 C58.8662614,39.9086068 59.3729659,39.5689477 59.9275568,39.5689477 L59.9275568,39.5689477 Z M51.296875,39.5689477 C51.9650568,39.5689477 52.5018295,39.8963568 52.9328068,40.5433795 C53.2301477,40.9877205 53.428375,41.6603568 53.489625,42.5624023 L49.0696023,42.5624023 C49.1119205,41.6481068 49.3379886,40.9086523 49.765625,40.3696523 C50.1910341,39.8306523 50.6943977,39.5689477 51.296875,39.5689477 L51.296875,39.5689477 Z M110.354125,39.1858568 C111.027875,39.1858568 111.588034,39.5132659 112.02458,40.1602886 C112.324148,40.6046295 112.520148,41.2783795 112.581398,42.1793114 L108.09233,42.1793114 C108.134648,41.2650159 108.391898,40.5600841 108.822875,40.0210841 C109.251625,39.4820841 109.74608,39.1858568 110.354125,39.1858568 L110.354125,39.1858568 Z M77.7112159,39.1858568 C78.3871932,39.1858568 78.945125,39.5132659 79.3816705,40.1602886 C79.6823523,40.6046295 79.8772386,41.2783795 79.9384886,42.1793114 L75.4494205,42.1793114 C75.4917386,41.2650159 75.7501023,40.5600841 76.1799659,40.0210841 C76.6098295,39.4820841 77.1042841,39.1858568 77.7112159,39.1858568 L77.7112159,39.1858568 Z M36.0188977,38.3506295 L38.4555341,48.7564477 L39.8821023,48.7564477 L41.4835114,40.7516295 L41.7619205,42.5267659 L43.0492841,48.7564477 L44.4413295,48.7564477 L46.911375,38.3506295 L45.6240114,38.3506295 L44.2664886,44.3709477 L43.8143523,46.3899705 L43.3967386,44.3709477 L42.2140568,38.3506295 L40.8220114,38.3506295 L39.5691705,44.4411068 L39.1515568,46.5982205 L38.6637841,44.3709477 L37.4109432,38.3506295 L36.0188977,38.3506295 Z M51.296875,38.1078568 C50.2199886,38.1078568 49.3535795,38.591175 48.6519886,39.534425 C47.9492841,40.477675 47.572875,41.8452205 47.572875,43.6404023 C47.572875,45.3698795 47.9214432,46.6917659 48.6174659,47.6082886 C49.3134886,48.5248114 50.2422614,49.0003341 51.3670341,49.0003341 C52.2601705,49.0003341 52.9896023,48.6951977 53.5943068,48.1294705 C54.1978977,47.5648568 54.6155114,46.7340841 54.8471477,45.6237886 L53.489625,45.4155386 C53.0942841,46.8387659 52.3759886,47.5359023 51.3670341,47.5381295 C50.7222386,47.5381295 50.1810114,47.2619477 49.7311023,46.6683795 C49.2811932,46.0736977 49.0194886,45.1916977 48.9649205,44.0234932 L54.8816705,44.0234932 L54.9161932,43.5368341 C54.9161932,41.7806295 54.5598295,40.4264477 53.8727159,39.4999023 C53.1844886,38.5711295 52.3236477,38.1078568 51.296875,38.1078568 L51.296875,38.1078568 Z M95.9124886,48.3733568 L97.2700114,48.3733568 L97.2700114,37.9675386 L95.9124886,37.9675386 L95.9124886,48.3733568 Z M87.385375,37.9686523 L90.4133523,48.3733568 L91.7007159,48.3733568 L94.7286932,37.9686523 L93.3366477,37.9686523 L91.5615114,44.336425 C91.3465795,45.1070614 91.1572614,45.7719023 91.0392159,46.3198114 C90.8922159,45.6282432 90.7496705,44.9021523 90.5525568,44.1972205 L88.8119432,37.9686523 L87.385375,37.9686523 Z M118.427989,37.7592886 C117.482511,37.7592886 116.734148,38.0388114 116.200716,38.5945159 C115.66617,39.1491068 115.401125,39.865175 115.401125,40.7516295 C115.401125,41.2672432 115.48242,41.7037886 115.679534,42.1091523 C115.875534,42.5145159 116.158398,42.841925 116.514761,43.0835841 C116.870011,43.3252432 117.581625,43.6426295 118.637352,43.9889705 C119.366784,44.2239477 119.838966,44.4232886 120.029398,44.5803114 C120.30558,44.8086068 120.447011,45.108175 120.447011,45.5202205 C120.447011,45.9968568 120.28108,46.3933114 119.959239,46.7029023 C119.638511,47.0136068 119.189716,47.1550386 118.60283,47.1550386 C118.013716,47.1550386 117.530398,46.9913341 117.175148,46.6338568 C116.821011,46.2763795 116.592716,45.732925 116.514761,44.997925 L115.157239,45.2763341 C115.463489,47.509175 116.576011,48.6183568 118.498148,48.6172432 C119.523807,48.6172432 120.341216,48.3276977 120.93367,47.7118568 C121.526125,47.0971295 121.839057,46.2708114 121.839057,45.2763341 C121.839057,44.7395614 121.744398,44.2729477 121.560648,43.8842886 C121.376898,43.4956295 121.090693,43.2060841 120.759943,42.9800159 C120.430307,42.7550614 119.727602,42.4543795 118.60283,42.0746295 C117.78542,41.788425 117.27092,41.5790614 117.106102,41.4476523 C116.828807,41.2282659 116.688489,40.9275841 116.688489,40.5433795 C116.688489,40.1524932 116.852193,39.8184023 117.140625,39.5689477 C117.429057,39.3194932 117.875625,39.1858568 118.463625,39.1858568 C119.499307,39.1858568 120.080625,39.754925 120.203125,40.8908341 L121.526125,40.6825841 C121.433693,39.9642886 121.278898,39.3974477 121.038352,39.0121295 C120.79892,38.6268114 120.445898,38.3016295 119.994875,38.0722205 C119.543852,37.843925 119.02267,37.7592886 118.427989,37.7592886 L118.427989,37.7592886 Z M110.389761,37.7592886 C109.302852,37.7592886 108.384102,38.2080841 107.674716,39.1513341 C106.96533,40.0945841 106.631239,41.4632432 106.631239,43.258425 C106.631239,44.9867886 106.972011,46.3420841 107.674716,47.2597205 C108.378534,48.1762432 109.288375,48.6172432 110.424284,48.6172432 C111.325216,48.6172432 112.074693,48.3466295 112.68608,47.7820159 C113.296352,47.2174023 113.73958,46.3866295 113.973443,45.2763341 L112.581398,45.0324477 C112.181602,46.455675 111.47667,47.153925 110.458807,47.1550386 C109.808443,47.1550386 109.242716,46.8788568 108.788352,46.2852886 C108.333989,45.6906068 108.078966,44.8086068 108.023284,43.6404023 L114.00908,43.6404023 L114.00908,43.1537432 C114.00908,41.3975386 113.658284,40.0789932 112.964489,39.1513341 C112.271807,38.223675 111.42767,37.7592886 110.389761,37.7592886 L110.389761,37.7592886 Z M102.62883,37.7592886 C101.55417,37.7592886 100.66883,38.2125386 99.9839432,39.1168114 C99.3001705,40.0210841 98.9393523,41.3797205 98.9393523,43.1882659 C98.9393523,44.9834477 99.3057386,46.3420841 99.9839432,47.2597205 C100.663261,48.1762432 101.509625,48.6172432 102.55867,48.6172432 C103.423966,48.6172432 104.168989,48.2954023 104.785943,47.6428114 C105.404011,46.9902205 105.78042,46.0291523 105.935216,44.7885614 L104.612216,44.5803114 C104.514216,45.4678795 104.28258,46.1059932 103.916193,46.529175 C103.549807,46.9501295 103.108807,47.1550386 102.594307,47.1550386 C101.937261,47.1550386 101.378216,46.8499023 100.958375,46.2162432 C100.538534,45.5836977 100.331398,44.5702886 100.331398,43.1537432 C100.331398,41.7817432 100.554125,40.7906068 100.992898,40.1602886 C101.43167,39.5299705 101.994057,39.1858568 102.663352,39.1858568 C103.111034,39.1858568 103.493011,39.3606977 103.811511,39.7081523 C104.132239,40.0556068 104.344943,40.6068568 104.473011,41.3084477 L105.796011,41.0300386 C105.636761,39.9331068 105.284852,39.1079023 104.716898,38.5599932 C104.14783,38.0109705 103.457375,37.7592886 102.62883,37.7592886 L102.62883,37.7592886 Z M85.9933295,37.7592886 C85.6681477,37.7592886 85.3841705,37.868425 85.1235795,38.1078568 C84.8629886,38.346175 84.5667614,38.8372886 84.2538295,39.5689477 L84.2538295,37.9686523 L83.0355114,37.9686523 L83.0355114,48.3733568 L84.3930341,48.3733568 L84.3930341,42.9443795 C84.3930341,42.1871068 84.4643068,41.4599023 84.6358068,40.7872659 C84.7338068,40.4019477 84.9186705,40.0968114 85.1581023,39.8818795 C85.3975341,39.6669477 85.670375,39.5689477 85.9588068,39.5689477 C86.2784205,39.5689477 86.5958068,39.6970159 86.9332386,39.9520386 L87.385375,38.3161068 C86.9120795,37.9374705 86.4476932,37.7592886 85.9933295,37.7592886 L85.9933295,37.7592886 Z M77.7457386,37.7592886 C76.6588295,37.7592886 75.7400795,38.2080841 75.0318068,39.1513341 C74.3224205,40.0945841 73.9872159,41.4632432 73.9872159,43.258425 C73.9872159,44.9867886 74.3291023,46.3420841 75.0318068,47.2597205 C75.7333977,48.1762432 76.6443523,48.6172432 77.7802614,48.6172432 C78.6823068,48.6172432 79.4328977,48.3466295 80.0420568,47.7820159 C80.6545568,47.2174023 81.0977841,46.3866295 81.3305341,45.2763341 L79.9384886,45.0324477 C79.5386932,46.455675 78.8003523,47.153925 77.7802614,47.1550386 C77.1298977,47.1550386 76.5998068,46.8788568 76.1454432,46.2852886 C75.6910795,45.6906068 75.4338295,44.8086068 75.3792614,43.6404023 L81.3650568,43.6404023 L81.3650568,43.1537432 C81.3650568,41.3975386 81.015375,40.0789932 80.3204659,39.1513341 C79.6266705,38.223675 78.7836477,37.7592886 77.7457386,37.7592886 L77.7457386,37.7592886 Z M69.4279886,37.7592886 C68.483625,37.7592886 67.7341477,38.0388114 67.2007159,38.5945159 C66.6672841,39.1491068 66.4000114,39.865175 66.4000114,40.7516295 C66.4000114,41.2672432 66.5169432,41.7037886 66.7140568,42.1091523 C66.9111705,42.5145159 67.1940341,42.841925 67.5492841,43.0835841 C67.9056477,43.3252432 68.6161477,43.6426295 69.671875,43.9889705 C70.4024205,44.2239477 70.8389659,44.4232886 71.0293977,44.5803114 C71.3055795,44.8086068 71.4470114,45.108175 71.4470114,45.5202205 C71.4470114,45.9968568 71.2810795,46.3933114 70.9592386,46.7029023 C70.6373977,47.0136068 70.1897159,47.1550386 69.6028295,47.1550386 C69.0148295,47.1550386 68.5303977,46.9913341 68.1751477,46.6338568 C67.8198977,46.2763795 67.6294659,45.732925 67.5492841,44.997925 L66.1917614,45.2763341 C66.499125,47.509175 67.6127614,48.6183568 69.5326705,48.6172432 C70.5572159,48.6172432 71.3412159,48.3276977 71.9336705,47.7118568 C72.526125,47.0971295 72.8390568,46.2708114 72.8390568,45.2763341 C72.8390568,44.7395614 72.7443977,44.2740614 72.5606477,43.8842886 C72.3768977,43.4956295 72.1241023,43.2060841 71.7944659,42.9800159 C71.4637159,42.7550614 70.7276023,42.4543795 69.6028295,42.0746295 C68.7854205,41.788425 68.3065568,41.5790614 68.140625,41.4476523 C67.8633295,41.2282659 67.7230114,40.9275841 67.7230114,40.5433795 C67.7230114,40.1524932 67.8521932,39.8195159 68.140625,39.5689477 C68.4290568,39.3194932 68.8745114,39.1858568 69.463625,39.1858568 C70.5015341,39.1858568 71.080625,39.754925 71.203125,40.8908341 L72.526125,40.6825841 C72.4336932,39.9642886 72.2777841,39.3974477 72.0383523,39.0121295 C71.7989205,38.6268114 71.4447841,38.3016295 70.994875,38.0722205 C70.5427386,37.843925 70.0237841,37.7592886 69.4279886,37.7592886 L69.4279886,37.7592886 Z M56.552125,34.3838568 L56.552125,48.7564477 L57.8049659,48.7564477 L57.8049659,47.4690841 C58.0722386,47.9791295 58.3762614,48.3599932 58.744875,48.6172432 C59.112375,48.8744932 59.5333295,49.0003341 59.9966023,49.0003341 C60.9175795,49.0003341 61.7116023,48.5292659 62.3987159,47.5726523 C63.0858295,46.6160386 63.4421932,45.2295614 63.4421932,43.466675 C63.4421932,42.3118341 63.2940795,41.3541068 62.9900568,40.5433795 C62.6860341,39.7337659 62.2795568,39.1324023 61.7717386,38.7337205 C61.2639205,38.3361523 60.6870568,38.1078568 60.0667614,38.1078568 C59.6235341,38.1078568 59.2092614,38.223675 58.8484432,38.4553114 C58.4865114,38.6869477 58.193625,39.0644705 57.9096477,39.534425 L57.9096477,34.3838568 L56.552125,34.3838568 Z M95.9124886,36.0543114 L97.2700114,36.0543114 L97.2700114,34.0364023 L95.9124886,34.0364023 L95.9124886,36.0543114 Z" id="Fill-4" fill="#000000" sketch:type="MSShapeGroup" mask="url(#mask-4)"></path>
                </g>
                <path d="M24.3085659,31.3210227 L17.4530205,33.9313864 L17.4530205,43.74475 L24.3085659,40.9606591 L24.3085659,31.3210227 Z M8.71765682,31.3210227 L8.54392955,41.34375 L16.1300205,44.6846591 L16.1300205,34.2788409 L8.71765682,31.3210227 Z M16.5131114,28.5369318 L11.3280205,30.7642045 L16.1300205,32.81775 L21.6982023,30.7642045 L16.5131114,28.5369318 Z" id="Fill-7" fill="#F8A80D" sketch:type="MSShapeGroup"></path>
                <path d="M39.725525,3.65406364 L33.600525,6.26442727 L33.600525,16.1134273 L39.725525,13.3293364 L39.725525,3.65406364 Z M25.2482523,3.09724545 L25.2482523,13.1199727 L31.7218205,14.9997909 L31.9300705,5.88133636 L25.2482523,3.09724545 Z M32.4868886,0.139427273 L27.2661614,2.3667 L32.1037977,4.41913182 L37.6719795,2.3667 L32.4868886,0.139427273 Z" id="Fill-9" fill="#F8A80D" sketch:type="MSShapeGroup"></path>
                <path d="M15.7648591,17.0297273 L8.90931364,19.6400909 L8.90931364,29.4534545 L15.7648591,26.6693636 L15.7648591,17.0297273 Z M0.17395,17.0297273 L0.000222727273,27.0524545 L7.58631364,30.3933636 L7.58631364,19.9875455 L0.17395,17.0297273 Z M7.96940455,14.2456364 L2.78431364,16.4729091 L7.58631364,18.5264545 L13.1544955,16.4729091 L7.96940455,14.2456364 Z" id="Fill-11" fill="#F8A80D" sketch:type="MSShapeGroup"></path>
                <path d="M32.4692932,16.6594432 L25.6137477,19.2698068 L25.6137477,29.0831705 L32.4692932,26.2990795 L32.4692932,16.6594432 Z M16.8783841,16.6594432 L16.7046568,26.6821705 L24.2907477,30.0230795 L24.2907477,19.6172614 L16.8783841,16.6594432 Z M24.6738386,13.8753523 L19.4887477,16.102625 L24.2907477,18.1561705 L29.8589295,16.102625 L24.6738386,13.8753523 Z" id="Fill-13" fill="#F8A80D" sketch:type="MSShapeGroup"></path>
                <path d="M56.598675,2.92329545 L49.7431295,5.53365909 L49.7431295,15.3470227 L56.598675,12.5629318 L56.598675,2.92329545 Z M41.0077659,2.92329545 L40.8340386,12.9460227 L48.4201295,16.2869318 L48.4201295,5.88111364 L41.0077659,2.92329545 Z M48.8032205,0.139204545 L43.6181295,2.36647727 L48.4201295,4.42002273 L53.9883114,2.36647727 L48.8032205,0.139204545 Z" id="Fill-15" fill="#F8A80D" sketch:type="MSShapeGroup"></path>
            </g>
        </g>
    </g>
</svg>