<?xml version="1.0" encoding="UTF-8" standalone="no"?>
<svg width="63px" height="60px" viewBox="0 0 63 60" version="1.1" xmlns="http://www.w3.org/2000/svg" xmlns:xlink="http://www.w3.org/1999/xlink" xmlns:sketch="http://www.bohemiancoding.com/sketch/ns">
    <!-- Generator: Sketch 3.4 (15575) - http://www.bohemiancoding.com/sketch -->
    <title>Page 1</title>
    <desc>Created with Sketch.</desc>
    <defs></defs>
    <g id="Careers-i3" stroke="none" stroke-width="1" fill="none" fill-rule="evenodd" sketch:type="MSPage">
        <g sketch:type="MSArtboardGroup" transform="translate(-1116.000000, -3255.000000)" id="Page-1" fill="#444444">
            <g sketch:type="MSLayerGroup" transform="translate(1116.000000, 3255.000000)">
                <path d="M14.302053,0.0936968839 L-1.78470255e-05,22.8788159 L5.85220028,59.9660057 L15.913104,59.9660057 L15.0912484,51.3516034 L20.2533221,51.3516034 L20.910628,59.9660057 L41.9861805,59.9660057 L42.6434864,51.3516034 L47.7729,51.3516034 L46.9510445,59.9660057 L57.0772683,59.9660057 L62.8641663,22.8788159 L48.5617385,0.0936968839 L14.302053,0.0936968839 Z M37.1200105,15.710915 L36.5282031,11.4367309 L45.7999113,11.4367309 L51.4550983,22.8788159 L48.6602541,45.762272 L14.302053,45.762272 L11.4088717,22.8788159 L17.1955912,11.4367309 L26.3027499,11.4367309 L25.809815,15.710915 L37.1200105,15.710915 Z" id="Fill-1" sketch:type="MSShapeGroup"></path>
                <g id="Group-6" transform="translate(21.237960, 27.484419)" sketch:type="MSShapeGroup">
                    <path d="M19.505728,0.105475921 C20.2826091,0.105475921 20.9122521,2.46164023 20.9122521,5.36802833 C20.9122521,8.2745949 20.2826091,10.6307592 19.505728,10.6307592 C18.728847,10.6307592 18.099204,8.2745949 18.099204,5.36802833 C18.099204,2.46164023 18.728847,0.105475921 19.505728,0.105475921" id="Fill-2"></path>
                    <path d="M1.46466969,0.523952975 C2.24155071,0.523952975 2.87119377,2.88011728 2.87119377,5.78650538 C2.87119377,8.69307195 2.24155071,11.0492363 1.46466969,11.0492363 C0.687788669,11.0492363 0.0581456091,8.69307195 0.0581456091,5.78650538 C0.0581456091,2.88011728 0.687788669,0.523952975 1.46466969,0.523952975" id="Fill-4"></path>
                </g>
            </g>
        </g>
    </g>
</svg>