<?xml version="1.0" encoding="UTF-8" standalone="no"?>
<svg width="60px" height="59px" viewBox="0 0 60 59" version="1.1" xmlns="http://www.w3.org/2000/svg" xmlns:xlink="http://www.w3.org/1999/xlink" xmlns:sketch="http://www.bohemiancoding.com/sketch/ns">
    <!-- Generator: Sketch 3.4 (15575) - http://www.bohemiancoding.com/sketch -->
    <title>Page 1</title>
    <desc>Created with Sketch.</desc>
    <defs>
        <path id="path-1" d="M0,0.06703125 L59.7677344,0.06703125 L59.7677344,58.359375 L0,58.359375"></path>
    </defs>
    <g id="Careers-i3" stroke="none" stroke-width="1" fill="none" fill-rule="evenodd" sketch:type="MSPage">
        <g sketch:type="MSArtboardGroup" transform="translate(-100.000000, -2990.000000)" id="Page-1">
            <g sketch:type="MSLayerGroup" transform="translate(100.000000, 2990.000000)">
                <g id="Group-3">
                    <mask id="mask-2" sketch:name="Clip 2" fill="white">
                        <use xlink:href="#path-1"></use>
                    </mask>
                    <g id="Clip-2"></g>
                    <path d="M29.8840547,0.0670546875 C13.3817109,0.0670546875 7.03125e-05,13.4463516 7.03125e-05,29.9510391 C7.03125e-05,43.1547891 8.56272656,54.3565078 20.4366328,58.3080703 C21.9300703,58.5846328 22.4782734,57.6597891 22.4782734,56.8704141 C22.4782734,56.1579141 22.4506172,53.8036172 22.4377266,51.3065859 C14.1239766,53.1143203 12.3696797,47.7806484 12.3696797,47.7806484 C11.0103047,44.3264297 9.05163281,43.4081484 9.05163281,43.4081484 C6.34014844,41.5533047 9.25600781,41.5912734 9.25600781,41.5912734 C12.2569453,41.8022109 13.8371016,44.6709609 13.8371016,44.6709609 C16.5024141,49.2396328 20.8280391,47.9186953 22.5333516,47.1551016 C22.8014766,45.2236172 23.5760859,43.9054922 24.4306172,43.1592422 C17.7928828,42.4033828 10.8153047,39.8409609 10.8153047,28.3903359 C10.8153047,25.1276016 11.9827266,22.4618203 13.8942891,20.3690859 C13.5842109,19.6162734 12.5611641,16.5768984 14.1839766,12.4605703 C14.1839766,12.4605703 16.6934297,11.6573672 22.4042109,15.5238516 C24.7878047,14.8615078 27.3443672,14.5296328 29.8840547,14.5181484 C32.4237422,14.5296328 34.9821797,14.8615078 37.3704609,15.5238516 C43.0742109,11.6573672 45.5801484,12.4605703 45.5801484,12.4605703 C47.2069453,16.5768984 46.1834297,19.6162734 45.8731172,20.3690859 C47.7893672,22.4618203 48.9488203,25.1276016 48.9488203,28.3903359 C48.9488203,39.8681484 41.9578828,42.3956484 35.3032734,43.1353359 C36.3753047,44.0627578 37.3303828,45.8815078 37.3303828,48.6693984 C37.3303828,52.6680703 37.2956953,55.8860391 37.2956953,56.8704141 C37.2956953,57.6656484 37.8335859,58.5975234 39.3483516,58.3040859 C51.2159297,54.3480703 59.7675703,43.1503359 59.7675703,29.9510391 C59.7675703,13.4463516 46.3878047,0.0670546875 29.8840547,0.0670546875" id="Fill-1" fill="#800080" sketch:type="MSShapeGroup" mask="url(#mask-2)"></path>
                </g>
                <path d="M11.1925547,42.6375234 C11.1266953,42.7858828 10.8932578,42.8304141 10.6804453,42.7286953 C10.4636484,42.6311953 10.3417734,42.4286953 10.4120859,42.2796328 C10.4765391,42.1268203 10.7104453,42.0841641 10.9267734,42.1865859 C11.1440391,42.2840859 11.2677891,42.4884609 11.1925547,42.6375234" id="Fill-4" fill="#800080" sketch:type="MSShapeGroup"></path>
                <path d="M12.6625078,43.9491562 C12.5200078,44.0813437 12.2413359,44.0199375 12.0524297,43.8111094 C11.8569609,43.60275 11.8201641,43.3240781 11.9647734,43.1900156 C12.1117266,43.0578281 12.3819609,43.1197031 12.5778984,43.3280625 C12.7733672,43.539 12.8115703,43.8155625 12.6625078,43.9491562" id="Fill-6" fill="#800080" sketch:type="MSShapeGroup"></path>
                <path d="M13.6709766,45.6273516 C13.4879297,45.7546172 13.1883984,45.6353203 13.0034766,45.3695391 C12.8201953,45.1037578 12.8201953,44.7850078 13.0074609,44.6575078 C13.1928516,44.5297734 13.4879297,44.6446172 13.6754297,44.9082891 C13.8580078,45.1785234 13.8580078,45.4972734 13.6709766,45.6273516" id="Fill-8" fill="#800080" sketch:type="MSShapeGroup"></path>
                <path d="M15.3764766,47.5709063 C15.2126484,47.7516094 14.8638984,47.7030938 14.6084297,47.4565313 C14.3471016,47.2155938 14.2744453,46.8736406 14.4387422,46.6929375 C14.6044453,46.512 14.9553047,46.5628594 15.2126484,46.8073125 C15.4721016,47.0477813 15.5510859,47.3923125 15.3764766,47.5709063" id="Fill-10" fill="#800080" sketch:type="MSShapeGroup"></path>
                <path d="M17.5806797,48.2270391 C17.5084922,48.4611797 17.1723984,48.5675859 16.8339609,48.4679766 C16.4959922,48.3655547 16.2747422,48.0913359 16.3429453,47.8548516 C16.4132578,47.6193047 16.7507578,47.5084453 17.0917734,47.6148516 C17.4292734,47.7168047 17.6509922,47.9889141 17.5806797,48.2270391" id="Fill-12" fill="#800080" sketch:type="MSShapeGroup"></path>
                <path d="M20.0891484,48.5053594 C20.0975859,48.7516875 19.8104766,48.9562969 19.4551641,48.96075 C19.0979766,48.9684844 18.8089922,48.7690313 18.8050078,48.5266875 C18.8050078,48.2777813 19.0855547,48.0752813 19.4427422,48.0694219 C19.7980547,48.0623906 20.0891484,48.2604375 20.0891484,48.5053594" id="Fill-14" fill="#800080" sketch:type="MSShapeGroup"></path>
                <path d="M22.5534375,48.4108828 C22.5960938,48.6513516 22.3490625,48.8983828 21.9963281,48.9642422 C21.6492188,49.0275234 21.328125,48.8789297 21.2840625,48.6405703 C21.2409375,48.3940078 21.4924219,48.1472109 21.8388281,48.0832266 C22.1922656,48.0218203 22.5084375,48.1664297 22.5534375,48.4108828" id="Fill-16" fill="#800080" sketch:type="MSShapeGroup"></path>
            </g>
        </g>
    </g>
</svg>