<?xml version="1.0" encoding="UTF-8" standalone="no"?>
<svg width="41px" height="91px" viewBox="0 0 41 91" version="1.1" xmlns="http://www.w3.org/2000/svg" xmlns:xlink="http://www.w3.org/1999/xlink" xmlns:sketch="http://www.bohemiancoding.com/sketch/ns">
    <!-- Generator: Sketch 3.4 (15575) - http://www.bohemiancoding.com/sketch -->
    <title>Page 1</title>
    <desc>Created with Sketch.</desc>
    <defs>
        <path id="path-1" d="M0,0.0574 L40.953051,0.0574 L40.953051,91.0039216 L0,91.0039216"></path>
    </defs>
    <g id="Careers-i3" stroke="none" stroke-width="1" fill="none" fill-rule="evenodd" sketch:type="MSPage">
        <g sketch:type="MSArtboardGroup" transform="translate(-313.000000, -2968.000000)" id="Page-1">
            <g sketch:type="MSLayerGroup" transform="translate(313.000000, 2968.000000)">
                <path d="M31.5958863,88.2622275 L32.4684627,73.722502 L34.8778157,69.6096392 C34.8778157,69.6096392 29.3941059,71.852902 20.2134824,71.852902 C11.032698,71.852902 5.63211373,69.6511216 5.63211373,69.6511216 L8.33232549,74.1376471 L9.2875451,88.2622275 C9.2875451,89.7764941 14.2813451,91.0039216 20.4417961,91.0039216 C26.6019255,91.0039216 31.5958863,89.7764941 31.5958863,88.2622275" id="Fill-1" fill="#D34A47" sketch:type="MSShapeGroup"></path>
                <path d="M28.8434196,20.3638157 L30.6749137,13.124502 L40.817349,2.45228235 L38.144149,0.175415686 L27.4063294,11.5439922 L25.2797961,20.1930627 C23.739,20.1409686 22.1309961,20.1131529 20.4766863,20.1131529 C9.16776078,20.1131529 0,21.402 0,22.9915137 C0,24.5811882 9.16776078,25.8698745 20.4766863,25.8698745 C31.785451,25.8698745 40.953051,24.5811882 40.953051,22.9915137 C40.953051,21.8210039 35.9809569,20.8135294 28.8434196,20.3638157" id="Fill-3" fill="#D34A47" sketch:type="MSShapeGroup"></path>
                <path d="M27.7780627,24.4179922 C27.7780627,24.4179922 27.3814078,24.5069059 26.2145961,24.5118902 C25.0474627,24.5167137 24.2187804,24.5043333 23.8886902,24.2036667 C23.7999373,24.1229529 23.7513804,23.962651 23.7518627,23.8541216 C23.7528275,23.6475137 23.8994627,23.5258 24.0862941,23.4495882 L24.2629961,23.7267804 C24.1861412,23.7533098 24.1422471,23.7846627 24.1420863,23.8181059 C24.1414431,23.9750314 25.3354275,24.0824353 26.2486824,24.0708588 C27.162098,24.0596039 28.2657216,23.9843569 28.2666863,23.8296824 C28.2666863,23.7828941 28.1832392,23.7388392 28.038051,23.7041098 L28.213949,23.4288471 C28.4506235,23.5023255 28.6572314,23.644298 28.656749,23.8899765 C28.654498,24.3076941 28.1229451,24.3712039 27.7780627,24.4179922" id="Fill-5" fill="#FFFFFF" sketch:type="MSShapeGroup"></path>
                <g id="Group-9">
                    <mask id="mask-2" sketch:name="Clip 8" fill="white">
                        <use xlink:href="#path-1"></use>
                    </mask>
                    <g id="Clip-8"></g>
                    <path d="M40.7974118,2.4733451 C41.0524157,2.17878824 40.6654078,1.42535294 39.9330353,0.790737255 C39.2003412,0.156443137 38.3996353,-0.119141176 38.144149,0.175415686 C37.8889843,0.469972549 38.2761529,1.22340784 39.0088471,1.85770196 C39.7412196,2.49215686 40.5422471,2.76806275 40.7974118,2.4733451" id="Fill-7" fill="#D34A47" sketch:type="MSShapeGroup" mask="url(#mask-2)"></path>
                </g>
                <path d="M31.1080667,52.7475451 C30.8676941,50.4348235 36.1666627,47.0853647 34.806749,46.9781216 C31.8791882,47.145498 30.4221608,50.4089373 28.9492157,53.8268902 C28.4094627,55.0795608 26.5625333,60.4211373 25.3511843,59.7635294 C24.1401569,59.1062431 26.9212431,54.7137765 27.7007255,52.1052118 C26.801298,52.764749 23.5028078,55.3274902 22.6527412,52.9274627 C21.2860745,54.0881647 18.365749,54.7169922 18.6951961,51.6680392 C17.9681294,52.9559216 16.3363294,54.7539725 14.3776549,54.0068078 C11.8054275,53.0258627 15.8681255,44.8321333 16.8783333,45.2455098 C17.888702,45.6587255 16.6744588,47.5252706 16.3564275,48.2500863 C15.6570157,49.8452275 14.8490745,51.8505294 15.3888275,52.2610118 C16.313498,52.9642824 18.8297725,49.6005137 18.8857255,49.5265529 C19.3563412,48.9048 20.6971216,44.8371176 21.7777529,45.3041961 C22.8583843,45.7712745 19.0823647,51.1419529 20.4942118,52.2077922 C20.7789608,52.4229216 21.9440039,52.0751451 22.6527412,51.3083647 C23.111298,50.8123451 22.9535686,49.7137059 24.4821451,46.0684039 C26.0107216,42.4232627 27.3730471,37.8836784 28.4213608,38.2295255 C29.4696745,38.5752118 28.6056196,40.9051373 28.2295451,41.7736941 C26.4647765,45.8502196 23.4130902,52.5849922 24.8522706,52.0751451 C26.291451,51.5654588 27.0408667,51.5355529 28.4501412,49.8863882 C29.8594157,48.2372235 29.7944588,45.5207725 30.7337608,45.5784941 C31.6733843,45.6363765 31.5156549,46.5073451 31.2878235,47.1705804 C32.2123333,46.1126196 35.6701608,43.8844706 36.5049529,46.0912353 C37.4937765,48.7038196 31.5577804,52.4775882 33.0378,52.2851294 C34.4808392,52.0974941 36.8186431,50.6168314 37.8167922,49.2705843 L40.5642745,24.5699333 C40.5642745,24.5699333 37.7995882,26.8578941 20.210749,26.8578941 C2.62174902,26.8578941 0.143098039,24.6175255 0.143098039,24.6175255 L2.48218824,47.1633451 C3.72376471,43.6346118 6.67206667,36.4970745 11.3193765,36.7366431 C13.4333686,36.8456549 16.2554549,40.9162314 13.8380627,41.0541843 C12.8148314,41.1123882 12.7109647,39.0223529 11.4992941,38.7154157 C10.624949,38.4938549 9.40765098,39.2046824 8.62093333,39.9748392 C7.052,41.5103294 3.67761961,47.5685216 4.12347451,50.5888549 C4.69152549,54.4394784 9.43707451,49.2508078 10.2400314,47.7103333 C10.8055098,46.6252 11.1875333,43.4101569 12.4242863,43.7474824 C13.6612,44.0848078 12.3164,47.4027529 11.4198667,50.3362627 C10.4127137,53.630251 9.88325098,57.1049608 8.62093333,56.705251 C7.3584549,56.3058627 9.41488627,52.0534392 9.34044314,51.3083647 C8.1538549,52.4031451 5.96783137,55.1747451 3.17114902,53.8029333 L4.62383529,67.8037098 C4.62383529,67.8037098 8.48474902,70.8542706 20.1154039,70.8542706 C31.7460588,70.8542706 35.7499098,67.851302 35.7499098,67.851302 L37.553749,51.6350784 C36.0779098,53.0721686 31.4071255,55.6241373 31.1080667,52.7475451" id="Fill-10" fill="#D34A47" sketch:type="MSShapeGroup"></path>
            </g>
        </g>
    </g>
</svg>