<?xml version="1.0" encoding="UTF-8" standalone="no"?>
<svg width="46px" height="87px" viewBox="0 0 46 87" version="1.1" xmlns="http://www.w3.org/2000/svg" xmlns:xlink="http://www.w3.org/1999/xlink" xmlns:sketch="http://www.bohemiancoding.com/sketch/ns">
    <!-- Generator: Sketch 3.4 (15575) - http://www.bohemiancoding.com/sketch -->
    <title>Page 1</title>
    <desc>Created with Sketch.</desc>
    <defs></defs>
    <g id="Careers-i3" stroke="none" stroke-width="1" fill="none" fill-rule="evenodd" sketch:type="MSPage">
        <g sketch:type="MSArtboardGroup" transform="translate(-513.000000, -3105.000000)" id="Page-1">
            <g sketch:type="MSLayerGroup" transform="translate(514.000000, 3105.000000)">
                <path d="M29.0378962,0.0351086262 C30.3890463,1.57344728 30.8350208,3.7731278 30.4466981,5.75715335 C30.0296214,7.98558786 28.7933435,9.95523642 27.3412668,11.651722 C26.1768738,13.0175367 24.8396693,14.2252045 23.4452444,15.3466102 C21.8205,16.6549169 20.2246534,18.0638626 19.2038866,19.9041182 C18.3412668,21.3993259 18.1399888,23.2395815 18.7294457,24.8641821 C19.6927045,27.6533195 21.935516,29.723607 23.1575607,32.3545974 C21.806123,31.1613067 20.4834393,29.924885 19.2470176,28.6165783 C17.9530879,27.2363866 16.7310431,25.7699329 15.9259313,24.0446933 C15.3796054,22.8370256 15.1351965,21.4280799 15.5521294,20.1485272 C15.9690623,18.8402204 16.9035671,17.7906997 17.8380719,16.8130639 C20.4403083,14.2108275 23.6465224,12.2986869 26.191107,9.65331949 C27.6001965,8.20124281 28.7647332,6.4616262 29.1670016,4.46322364 C29.4978163,2.99676997 29.3398131,1.4871853 29.0378962,0.0351086262" id="Fill-1" fill="#E92E2F" sketch:type="MSShapeGroup"></path>
                <path d="M29.0378962,0.0351086262 C30.3890463,1.57344728 30.8350208,3.7731278 30.4466981,5.75715335 C30.0296214,7.98558786 28.7933435,9.95523642 27.3412668,11.651722 C26.1768738,13.0175367 24.8396693,14.2252045 23.4452444,15.3466102 C21.8205,16.6549169 20.2246534,18.0638626 19.2038866,19.9041182 C18.3412668,21.3993259 18.1399888,23.2395815 18.7294457,24.8641821 C19.6927045,27.6533195 21.935516,29.723607 23.1575607,32.3545974 C21.806123,31.1613067 20.4834393,29.924885 19.2470176,28.6165783 C17.9530879,27.2363866 16.7310431,25.7699329 15.9259313,24.0446933 C15.3796054,22.8370256 15.1351965,21.4280799 15.5521294,20.1485272 C15.9690623,18.8402204 16.9035671,17.7906997 17.8380719,16.8130639 C20.4403083,14.2108275 23.6465224,12.2986869 26.191107,9.65331949 C27.6001965,8.20124281 28.7647332,6.4616262 29.1670016,4.46322364 C29.4978163,2.99676997 29.3398131,1.4871853 29.0378962,0.0351086262 L29.0378962,0.0351086262 Z" id="Stroke-3" stroke="#E92E2F" stroke-width="0.094" sketch:type="MSShapeGroup"></path>
                <path d="M26.9099856,16.4105511 C29.699123,14.3546406 32.9627013,13.0463339 36.2694105,12.0974521 C33.6527971,13.7651837 30.9211677,15.2891454 28.6638355,17.4313179 C27.8444904,18.2220527 27.0681326,19.1278035 26.7087077,20.2348323 C26.435401,21.0543211 26.5505607,21.9600719 26.8813754,22.7364297 C27.4850655,24.1166214 28.5058323,25.2380272 29.2821901,26.5032029 C29.9435319,27.5814776 30.0585479,28.9616693 29.555353,30.1262061 C28.7933722,31.8370687 27.2980208,33.0878674 25.7454489,34.0798802 C25.5441709,34.1948962 25.3717907,34.4105511 25.127238,34.4393051 C26.1625256,33.5048003 26.9674936,32.1821166 26.9385958,30.7587939 C26.9099856,29.6948962 26.3205288,28.7603914 25.6304329,27.9984105 C24.2069665,26.3019249 23.0138195,24.1453754 23.2582284,21.8594329 C23.5027812,19.5734904 25.1414712,17.7332348 26.9099856,16.4105511" id="Fill-5" fill="#E92E2F" sketch:type="MSShapeGroup"></path>
                <path d="M26.9099856,16.4105511 C29.699123,14.3546406 32.9627013,13.0463339 36.2694105,12.0974521 C33.6527971,13.7651837 30.9211677,15.2891454 28.6638355,17.4313179 C27.8444904,18.2220527 27.0681326,19.1278035 26.7087077,20.2348323 C26.435401,21.0543211 26.5505607,21.9600719 26.8813754,22.7364297 C27.4850655,24.1166214 28.5058323,25.2380272 29.2821901,26.5032029 C29.9435319,27.5814776 30.0585479,28.9616693 29.555353,30.1262061 C28.7933722,31.8370687 27.2980208,33.0878674 25.7454489,34.0798802 C25.5441709,34.1948962 25.3717907,34.4105511 25.127238,34.4393051 C26.1625256,33.5048003 26.9674936,32.1821166 26.9385958,30.7587939 C26.9099856,29.6948962 26.3205288,28.7603914 25.6304329,27.9984105 C24.2069665,26.3019249 23.0138195,24.1453754 23.2582284,21.8594329 C23.5027812,19.5734904 25.1414712,17.7332348 26.9099856,16.4105511 L26.9099856,16.4105511 Z" id="Stroke-7" stroke="#E92E2F" stroke-width="0.094" sketch:type="MSShapeGroup"></path>
                <path d="M36.8014744,33.0303163 C37.4051645,32.2970895 38.3682796,32.1101885 39.2455639,31.9951725 C40.7695256,31.7938946 42.3938387,32.1820735 43.5439984,33.2315942 C44.4931677,34.0798371 45.0249728,35.4025208 44.8236949,36.6820735 C44.6080399,38.1629042 43.6158834,39.3993259 42.4947652,40.3338307 C40.4676086,41.9584313 37.9660112,42.9073131 35.46427,43.5400447 C35.6080399,43.3816102 35.7661869,43.2378403 35.9532316,43.1231118 C37.8508514,42.1022013 39.7340942,40.9089105 41.1289505,39.2411789 C41.9771933,38.2060351 42.6385351,36.8545974 42.3652284,35.4887827 C42.0776885,33.9073131 40.5394936,32.7571534 38.972401,32.6708914 C38.2245096,32.5990064 37.5203243,32.8865463 36.8014744,33.0303163" id="Fill-9" fill="#0774BB" sketch:type="MSShapeGroup"></path>
                <path d="M36.8014744,33.0303163 C37.4051645,32.2970895 38.3682796,32.1101885 39.2455639,31.9951725 C40.7695256,31.7938946 42.3938387,32.1820735 43.5439984,33.2315942 C44.4931677,34.0798371 45.0249728,35.4025208 44.8236949,36.6820735 C44.6080399,38.1629042 43.6158834,39.3993259 42.4947652,40.3338307 C40.4676086,41.9584313 37.9660112,42.9073131 35.46427,43.5400447 C35.6080399,43.3816102 35.7661869,43.2378403 35.9532316,43.1231118 C37.8508514,42.1022013 39.7340942,40.9089105 41.1289505,39.2411789 C41.9771933,38.2060351 42.6385351,36.8545974 42.3652284,35.4887827 C42.0776885,33.9073131 40.5394936,32.7571534 38.972401,32.6708914 C38.2245096,32.5990064 37.5203243,32.8865463 36.8014744,33.0303163 L36.8014744,33.0303163 Z" id="Stroke-11" stroke="#0774BB" stroke-width="0.094" sketch:type="MSShapeGroup"></path>
                <path d="M7.90356709,34.338623 C10.5489345,33.2028403 13.4243339,32.4696134 16.3141102,32.5127444 C14.6320016,33.0015623 12.906762,33.4184952 11.3252923,34.166099 C10.9514904,34.367377 10.5201805,34.554278 10.3045256,34.9424569 C10.1895096,35.2443738 10.5058035,35.4456518 10.7358355,35.5462907 C11.7134712,35.9488466 12.791746,36.0063546 13.8412668,36.1069936 C17.521778,36.3514026 21.2166661,36.2076326 24.8829441,35.9776006 C28.5058035,35.7475687 32.1000527,35.2587508 35.6799249,34.6836709 C34.8891901,35.0574728 34.084222,35.4312748 33.3509952,35.9057157 C32.9769058,36.1645016 32.5169856,36.2363866 32.1000527,36.3370256 C27.7006917,37.3146613 23.1863147,37.6165783 18.7006917,37.6884633 C16.9610751,37.7028403 15.2358355,37.6740863 13.5105958,37.5590703 C11.5840783,37.4296773 9.64318371,37.2859073 7.75979712,36.7827125 C7.21347125,36.6245655 6.63839137,36.4520415 6.20708147,36.0638626 C5.99142652,35.8913387 5.99142652,35.5462907 6.17832748,35.3450128 C6.65276837,34.8561949 7.31411022,34.6261629 7.90356709,34.338623" id="Fill-13" fill="#0774BB" sketch:type="MSShapeGroup"></path>
                <path d="M7.90356709,34.338623 C10.5489345,33.2028403 13.4243339,32.4696134 16.3141102,32.5127444 C14.6320016,33.0015623 12.906762,33.4184952 11.3252923,34.166099 C10.9514904,34.367377 10.5201805,34.554278 10.3045256,34.9424569 C10.1895096,35.2443738 10.5058035,35.4456518 10.7358355,35.5462907 C11.7134712,35.9488466 12.791746,36.0063546 13.8412668,36.1069936 C17.521778,36.3514026 21.2166661,36.2076326 24.8829441,35.9776006 C28.5058035,35.7475687 32.1000527,35.2587508 35.6799249,34.6836709 C34.8891901,35.0574728 34.084222,35.4312748 33.3509952,35.9057157 C32.9769058,36.1645016 32.5169856,36.2363866 32.1000527,36.3370256 C27.7006917,37.3146613 23.1863147,37.6165783 18.7006917,37.6884633 C16.9610751,37.7028403 15.2358355,37.6740863 13.5105958,37.5590703 C11.5840783,37.4296773 9.64318371,37.2859073 7.75979712,36.7827125 C7.21347125,36.6245655 6.63839137,36.4520415 6.20708147,36.0638626 C5.99142652,35.8913387 5.99142652,35.5462907 6.17832748,35.3450128 C6.65276837,34.8561949 7.31411022,34.6261629 7.90356709,34.338623 L7.90356709,34.338623 Z" id="Stroke-15" stroke="#0774BB" stroke-width="0.094" sketch:type="MSShapeGroup"></path>
                <path d="M11.2965671,40.4776294 C12.0441709,39.8881725 12.9355447,39.5575016 13.8269185,39.2412077 C13.5393786,39.5862556 13.1368227,39.9169265 13.1080687,40.3913674 C13.0936917,40.6932843 13.3381006,40.9233163 13.5825096,41.0670863 C14.0569505,41.3114952 14.5888994,41.3977572 15.1208482,41.4696422 C17.8812316,41.7571821 20.670369,41.9153291 23.4595064,41.7284281 C26.0040911,41.5990351 28.53473,41.1821022 31.0507045,40.7364153 C31.7406565,41.3833802 32.5602891,41.8290671 33.4229089,42.217246 C30.3890751,43.1086198 27.2694105,43.6261917 24.1350815,43.8706006 C21.1735639,44.0718786 18.1687716,44.0575016 15.2214872,43.5830607 C14.0569505,43.3674058 12.8636597,43.1229968 11.799762,42.5766709 C11.3684521,42.346639 10.8796342,42.044722 10.7502412,41.5415272 C10.6639792,41.1102173 10.9802732,40.7220383 11.2965671,40.4776294" id="Fill-17" fill="#0774BB" sketch:type="MSShapeGroup"></path>
                <path d="M11.2965671,40.4776294 C12.0441709,39.8881725 12.9355447,39.5575016 13.8269185,39.2412077 C13.5393786,39.5862556 13.1368227,39.9169265 13.1080687,40.3913674 C13.0936917,40.6932843 13.3381006,40.9233163 13.5825096,41.0670863 C14.0569505,41.3114952 14.5888994,41.3977572 15.1208482,41.4696422 C17.8812316,41.7571821 20.670369,41.9153291 23.4595064,41.7284281 C26.0040911,41.5990351 28.53473,41.1821022 31.0507045,40.7364153 C31.7406565,41.3833802 32.5602891,41.8290671 33.4229089,42.217246 C30.3890751,43.1086198 27.2694105,43.6261917 24.1350815,43.8706006 C21.1735639,44.0718786 18.1687716,44.0575016 15.2214872,43.5830607 C14.0569505,43.3674058 12.8636597,43.1229968 11.799762,42.5766709 C11.3684521,42.346639 10.8796342,42.044722 10.7502412,41.5415272 C10.6639792,41.1102173 10.9802732,40.7220383 11.2965671,40.4776294 L11.2965671,40.4776294 Z" id="Stroke-19" stroke="#0774BB" stroke-width="0.094" sketch:type="MSShapeGroup"></path>
                <path d="M12.9643131,46.7459569 C13.625655,46.2141518 14.4451438,45.940845 15.2502556,45.7109569 C14.9914696,45.955222 14.5314058,46.257139 14.7326837,46.6740719 C15.1208626,47.1772668 15.8397125,47.2347748 16.4147923,47.3643115 C18.8445048,47.6660847 21.3029712,47.8675064 23.7326837,47.6804617 C25.5727955,47.5655895 27.3845847,47.2347748 29.1817093,46.9186246 C30.2167093,47.5223147 31.294984,48.0398866 32.401869,48.5000942 C30.7055272,49.2619313 28.8795048,49.7507492 27.05377,50.0959409 C23.9770927,50.642123 20.7997764,50.714008 17.708722,50.2253339 C16.3429073,49.9807812 14.9483387,49.664631 13.7119169,48.9887684 C13.237476,48.7157492 12.7342812,48.3993115 12.5330032,47.8675064 C12.3748562,47.4504297 12.6336422,47.0048866 12.9643131,46.7459569" id="Fill-21" fill="#0774BB" sketch:type="MSShapeGroup"></path>
                <path d="M12.9643131,46.7459569 C13.625655,46.2141518 14.4451438,45.940845 15.2502556,45.7109569 C14.9914696,45.955222 14.5314058,46.257139 14.7326837,46.6740719 C15.1208626,47.1772668 15.8397125,47.2347748 16.4147923,47.3643115 C18.8445048,47.6660847 21.3029712,47.8675064 23.7326837,47.6804617 C25.5727955,47.5655895 27.3845847,47.2347748 29.1817093,46.9186246 C30.2167093,47.5223147 31.294984,48.0398866 32.401869,48.5000942 C30.7055272,49.2619313 28.8795048,49.7507492 27.05377,50.0959409 C23.9770927,50.642123 20.7997764,50.714008 17.708722,50.2253339 C16.3429073,49.9807812 14.9483387,49.664631 13.7119169,48.9887684 C13.237476,48.7157492 12.7342812,48.3993115 12.5330032,47.8675064 C12.3748562,47.4504297 12.6336422,47.0048866 12.9643131,46.7459569 L12.9643131,46.7459569 Z" id="Stroke-23" stroke="#0774BB" stroke-width="0.094" sketch:type="MSShapeGroup"></path>
                <path d="M4.98507987,50.8147476 C6.30776358,50.3690607 7.67357827,50.0096358 9.06814696,49.9665048 C9.62884984,49.9521278 10.2039297,49.980738 10.6927476,50.268278 C9.02501597,50.3690607 7.35728435,50.7858498 5.86207668,51.5479744 C5.53140575,51.7348754 5.15760383,51.9505304 5.02821086,52.3387093 C5.02821086,52.7842524 5.53140575,52.9280224 5.86207668,53.0717923 C7.94674121,53.8482939 10.1751757,54.0925591 12.3604792,54.3227348 C18.8732588,54.8689169 25.4290256,54.725147 31.9419489,54.1358339 C34.4004153,53.8625272 36.8734026,53.5893642 39.2598403,52.9137891 C40.0216773,52.6548594 40.8842971,52.3962173 41.387492,51.7203546 C41.6896965,51.3179425 41.4882748,50.8147476 41.1865016,50.4696997 C41.6750319,50.7428626 42.3652716,51.0879105 42.2647764,51.7492524 C42.0777316,52.4392045 41.3732588,52.7986294 40.7981789,53.1294441 C38.9580671,54.0639489 36.930623,54.5383898 34.9178435,54.9551789 C29.0665495,56.1053387 23.0713419,56.3642684 17.1192652,56.1917444 C12.6336422,56.0334537 8.14801917,55.6021438 3.71990415,54.8403067 C2.92916933,54.653262 2.03779553,54.4952588 1.46271565,53.8769042 C1.08891374,53.4455942 1.41958466,52.8419042 1.77900958,52.5256102 C2.68476038,51.6917444 3.84929712,51.2316805 4.98507987,50.8147476" id="Fill-25" fill="#0774BB" sketch:type="MSShapeGroup"></path>
                <path d="M4.98507987,50.8147476 C6.30776358,50.3690607 7.67357827,50.0096358 9.06814696,49.9665048 C9.62884984,49.9521278 10.2039297,49.980738 10.6927476,50.268278 C9.02501597,50.3690607 7.35728435,50.7858498 5.86207668,51.5479744 C5.53140575,51.7348754 5.15760383,51.9505304 5.02821086,52.3387093 C5.02821086,52.7842524 5.53140575,52.9280224 5.86207668,53.0717923 C7.94674121,53.8482939 10.1751757,54.0925591 12.3604792,54.3227348 C18.8732588,54.8689169 25.4290256,54.725147 31.9419489,54.1358339 C34.4004153,53.8625272 36.8734026,53.5893642 39.2598403,52.9137891 C40.0216773,52.6548594 40.8842971,52.3962173 41.387492,51.7203546 C41.6896965,51.3179425 41.4882748,50.8147476 41.1865016,50.4696997 C41.6750319,50.7428626 42.3652716,51.0879105 42.2647764,51.7492524 C42.0777316,52.4392045 41.3732588,52.7986294 40.7981789,53.1294441 C38.9580671,54.0639489 36.930623,54.5383898 34.9178435,54.9551789 C29.0665495,56.1053387 23.0713419,56.3642684 17.1192652,56.1917444 C12.6336422,56.0334537 8.14801917,55.6021438 3.71990415,54.8403067 C2.92916933,54.653262 2.03779553,54.4952588 1.46271565,53.8769042 C1.08891374,53.4455942 1.41958466,52.8419042 1.77900958,52.5256102 C2.68476038,51.6917444 3.84929712,51.2316805 4.98507987,50.8147476 L4.98507987,50.8147476 Z" id="Stroke-27" stroke="#0774BB" stroke-width="0.094" sketch:type="MSShapeGroup"></path>
                <path d="M40.8124409,55.7315799 C42.2648051,55.228385 43.8172332,54.6965799 44.895508,53.5464201 C44.7088946,54.7970751 43.6306198,55.6596949 42.5665783,56.2203978 C40.524901,57.2844393 38.239246,57.7732572 35.9675367,58.1756693 C31.165476,58.9377939 26.2916741,59.1245511 21.418016,59.0382891 C18.0967859,58.9377939 14.7470895,58.8082572 11.4833674,58.1181613 C10.7071534,57.9025064 9.87328754,57.7587364 9.19756869,57.2986725 C12.101722,57.7876342 15.0490064,57.9889121 17.9962907,58.1037843 C22.8411949,58.2475543 27.7007636,58.0607971 32.5170575,57.4568195 C35.3061949,57.0687843 38.1097093,56.5941997 40.8124409,55.7315799" id="Fill-29" fill="#0774BB" sketch:type="MSShapeGroup"></path>
                <path d="M40.8124409,55.7315799 C42.2648051,55.228385 43.8172332,54.6965799 44.895508,53.5464201 C44.7088946,54.7970751 43.6306198,55.6596949 42.5665783,56.2203978 C40.524901,57.2844393 38.239246,57.7732572 35.9675367,58.1756693 C31.165476,58.9377939 26.2916741,59.1245511 21.418016,59.0382891 C18.0967859,58.9377939 14.7470895,58.8082572 11.4833674,58.1181613 C10.7071534,57.9025064 9.87328754,57.7587364 9.19756869,57.2986725 C12.101722,57.7876342 15.0490064,57.9889121 17.9962907,58.1037843 C22.8411949,58.2475543 27.7007636,58.0607971 32.5170575,57.4568195 C35.3061949,57.0687843 38.1097093,56.5941997 40.8124409,55.7315799 L40.8124409,55.7315799 Z" id="Stroke-31" stroke="#0774BB" stroke-width="0.094" sketch:type="MSShapeGroup"></path>
                <path d="M2.92911182,77.0527668 C2.94348882,72.3369681 2.91473482,67.6214569 2.94348882,62.8914249 C3.9211246,62.9200351 4.89876038,62.8914249 5.87639617,62.9200351 C5.86201917,68.1965367 5.87639617,73.4871278 5.86201917,78.7780064 C5.83326518,80.2586933 5.80451118,81.8115527 5.08566134,83.1340927 C4.29492652,84.5431821 2.88598083,85.5351949 1.39077316,86.1102748 C0.916332268,85.5927029 0.485022364,85.046377 0.0105814696,84.5288051 C1.2182492,83.8243323 2.42591693,82.8179425 2.71345687,81.3658658 C2.98661981,79.9425431 2.90035783,78.4904665 2.92911182,77.0527668" id="Fill-33" fill="#E92E2F" sketch:type="MSShapeGroup"></path>
                <path d="M2.92911182,77.0527668 C2.94348882,72.3369681 2.91473482,67.6214569 2.94348882,62.8914249 C3.9211246,62.9200351 4.89876038,62.8914249 5.87639617,62.9200351 C5.86201917,68.1965367 5.87639617,73.4871278 5.86201917,78.7780064 C5.83326518,80.2586933 5.80451118,81.8115527 5.08566134,83.1340927 C4.29492652,84.5431821 2.88598083,85.5351949 1.39077316,86.1102748 C0.916332268,85.5927029 0.485022364,85.046377 0.0105814696,84.5288051 C1.2182492,83.8243323 2.42591693,82.8179425 2.71345687,81.3658658 C2.98661981,79.9425431 2.90035783,78.4904665 2.92911182,77.0527668 L2.92911182,77.0527668 Z" id="Stroke-35" stroke="#E92E2F" stroke-width="0.094" sketch:type="MSShapeGroup"></path>
                <path d="M12.1591869,75.2413227 C11.526599,75.4423131 10.9371422,75.9026645 10.7646182,76.5638626 C10.5633403,77.2970895 10.6208482,78.1597093 11.0952891,78.7780639 C11.555353,79.381754 12.3892188,79.525524 13.1080687,79.439262 C14.1144585,79.3241022 14.9914553,78.7490224 15.7678131,78.131099 C15.7678131,77.0528243 15.7534361,75.9887827 15.7678131,74.910508 C14.5601454,74.910508 13.3237236,74.838623 12.1591869,75.2413227 M8.59369169,68.5703962 C10.5345863,67.7363866 12.6911358,67.3050767 14.8045543,67.5351086 C15.8972061,67.6645016 17.0329888,68.0672013 17.7374617,68.9440543 C18.3269185,69.6915144 18.5425735,70.6550607 18.5281965,71.5895655 L18.5281965,81.2363866 L16.35727,81.2363866 C16.285385,80.7618019 16.2135,80.2732716 16.155992,79.7844537 C15.3365032,80.4314185 14.4595064,81.0493419 13.4387396,81.3082716 C12.2742029,81.6101885 10.9946502,81.5815783 9.85886741,81.1358914 C8.98187061,80.7764665 8.29177476,79.9857316 8.04736581,79.0656038 C7.68794089,77.7283994 7.87484185,76.1611629 8.82372364,75.0828882 C9.67196645,74.0911629 10.9515192,73.602345 12.2166949,73.3723131 C13.3812316,73.1419936 14.5745224,73.1419936 15.7678131,73.1419936 C15.7390591,72.2365304 15.9115831,71.2443738 15.3940112,70.4394058 C14.9770783,69.8210511 14.2150974,69.5767859 13.5106246,69.5335112 C11.9722859,69.4039744 10.4483243,69.7924409 8.9962476,70.2956358 C8.85247764,69.7205559 8.72308466,69.145476 8.59369169,68.5703962" id="Fill-37" fill="#E92E2F" sketch:type="MSShapeGroup"></path>
                <path d="M12.1591869,75.2413227 C11.526599,75.4423131 10.9371422,75.9026645 10.7646182,76.5638626 C10.5633403,77.2970895 10.6208482,78.1597093 11.0952891,78.7780639 C11.555353,79.381754 12.3892188,79.525524 13.1080687,79.439262 C14.1144585,79.3241022 14.9914553,78.7490224 15.7678131,78.131099 C15.7678131,77.0528243 15.7534361,75.9887827 15.7678131,74.910508 C14.5601454,74.910508 13.3237236,74.838623 12.1591869,75.2413227 L12.1591869,75.2413227 Z M8.59369169,68.5703962 C10.5345863,67.7363866 12.6911358,67.3050767 14.8045543,67.5351086 C15.8972061,67.6645016 17.0329888,68.0672013 17.7374617,68.9440543 C18.3269185,69.6915144 18.5425735,70.6550607 18.5281965,71.5895655 L18.5281965,81.2363866 L16.35727,81.2363866 C16.285385,80.7618019 16.2135,80.2732716 16.155992,79.7844537 C15.3365032,80.4314185 14.4595064,81.0493419 13.4387396,81.3082716 C12.2742029,81.6101885 10.9946502,81.5815783 9.85886741,81.1358914 C8.98187061,80.7764665 8.29177476,79.9857316 8.04736581,79.0656038 C7.68794089,77.7283994 7.87484185,76.1611629 8.82372364,75.0828882 C9.67196645,74.0911629 10.9515192,73.602345 12.2166949,73.3723131 C13.3812316,73.1419936 14.5745224,73.1419936 15.7678131,73.1419936 C15.7390591,72.2365304 15.9115831,71.2443738 15.3940112,70.4394058 C14.9770783,69.8210511 14.2150974,69.5767859 13.5106246,69.5335112 C11.9722859,69.4039744 10.4483243,69.7924409 8.9962476,70.2956358 C8.85247764,69.7205559 8.72308466,69.145476 8.59369169,68.5703962 L8.59369169,68.5703962 Z" id="Stroke-39" stroke="#E92E2F" stroke-width="0.094" sketch:type="MSShapeGroup"></path>
                <path d="M37.3908738,75.2556422 C36.7868962,75.4569201 36.2263371,75.916984 36.0394361,76.5495719 C35.8380144,77.2827987 35.8956661,78.1454185 36.3555863,78.7780064 C36.8301709,79.3960735 37.6784137,79.5254665 38.4116406,79.4393482 C39.4036534,79.2955783 40.3092604,78.7491086 41.057008,78.0877668 C41.0281102,77.0383898 41.042631,75.974492 41.042631,74.9105942 C39.8205863,74.9105942 38.5696438,74.8387093 37.3908738,75.2556422 M33.8685096,68.5703387 C35.8237812,67.7363291 37.9803307,67.2907859 40.1081262,67.5350511 C41.1718802,67.6644441 42.2646757,68.0527668 42.9690048,68.8864888 C43.6304904,69.6772236 43.8316246,70.7268882 43.8172476,71.733278 C43.8030144,74.9105942 43.8316246,78.0735335 43.7886374,81.2507061 C43.0697875,81.2220958 42.3509377,81.2650831 41.6320879,81.2220958 C41.5602029,80.733278 41.5026949,80.2586933 41.4164329,79.7843962 C40.4100431,80.647016 39.2023754,81.3514888 37.8365607,81.466361 C36.585762,81.5815208 35.1768163,81.4233738 34.1990367,80.5318562 C33.17827,79.5831182 33.0058898,78.0447796 33.2645319,76.7363291 C33.5090847,75.5288051 34.4146917,74.5367923 35.5074872,74.0046997 C37.2182061,73.1709776 39.1736214,73.1277029 41.042631,73.1420799 C41.0137332,72.2650831 41.1718802,71.3305783 40.7261933,70.5398435 C40.3811454,69.9072556 39.6479185,69.6197157 38.9579665,69.5478307 C37.361976,69.3754505 35.7661294,69.7780064 34.2709217,70.2955783 C34.1416725,69.7204984 33.9979026,69.1454185 33.8685096,68.5703387" id="Fill-41" fill="#E92E2F" sketch:type="MSShapeGroup"></path>
                <path d="M37.3908738,75.2556422 C36.7868962,75.4569201 36.2263371,75.916984 36.0394361,76.5495719 C35.8380144,77.2827987 35.8956661,78.1454185 36.3555863,78.7780064 C36.8301709,79.3960735 37.6784137,79.5254665 38.4116406,79.4393482 C39.4036534,79.2955783 40.3092604,78.7491086 41.057008,78.0877668 C41.0281102,77.0383898 41.042631,75.974492 41.042631,74.9105942 C39.8205863,74.9105942 38.5696438,74.8387093 37.3908738,75.2556422 L37.3908738,75.2556422 Z M33.8685096,68.5703387 C35.8237812,67.7363291 37.9803307,67.2907859 40.1081262,67.5350511 C41.1718802,67.6644441 42.2646757,68.0527668 42.9690048,68.8864888 C43.6304904,69.6772236 43.8316246,70.7268882 43.8172476,71.733278 C43.8030144,74.9105942 43.8316246,78.0735335 43.7886374,81.2507061 C43.0697875,81.2220958 42.3509377,81.2650831 41.6320879,81.2220958 C41.5602029,80.733278 41.5026949,80.2586933 41.4164329,79.7843962 C40.4100431,80.647016 39.2023754,81.3514888 37.8365607,81.466361 C36.585762,81.5815208 35.1768163,81.4233738 34.1990367,80.5318562 C33.17827,79.5831182 33.0058898,78.0447796 33.2645319,76.7363291 C33.5090847,75.5288051 34.4146917,74.5367923 35.5074872,74.0046997 C37.2182061,73.1709776 39.1736214,73.1277029 41.042631,73.1420799 C41.0137332,72.2650831 41.1718802,71.3305783 40.7261933,70.5398435 C40.3811454,69.9072556 39.6479185,69.6197157 38.9579665,69.5478307 C37.361976,69.3754505 35.7661294,69.7780064 34.2709217,70.2955783 C34.1416725,69.7204984 33.9979026,69.1454185 33.8685096,68.5703387 L33.8685096,68.5703387 Z" id="Stroke-43" stroke="#E92E2F" stroke-width="0.094" sketch:type="MSShapeGroup"></path>
                <path d="M20.1671885,67.7077188 L23.1863578,67.7077188 C23.7756709,69.6053387 24.3507508,71.4887252 24.9404952,73.3866326 C25.2852556,74.5511693 25.7165655,75.7013291 25.9611182,76.8946198 C26.090655,77.4265687 26.2053834,77.9728946 26.3635304,78.4904665 C27.6002396,74.9967125 28.5489776,71.38823 29.0379393,67.7077188 L31.9705591,67.7077188 C31.1226038,72.3658658 29.7853994,76.951984 27.7726198,81.2364728 L24.3221406,81.2364728 C22.9419489,76.7219521 21.5473802,72.2220958 20.1671885,67.7077188" id="Fill-45" fill="#E92E2F" sketch:type="MSShapeGroup"></path>
                <path d="M20.1671885,67.7077188 L23.1863578,67.7077188 C23.7756709,69.6053387 24.3507508,71.4887252 24.9404952,73.3866326 C25.2852556,74.5511693 25.7165655,75.7013291 25.9611182,76.8946198 C26.090655,77.4265687 26.2053834,77.9728946 26.3635304,78.4904665 C27.6002396,74.9967125 28.5489776,71.38823 29.0379393,67.7077188 L31.9705591,67.7077188 C31.1226038,72.3658658 29.7853994,76.951984 27.7726198,81.2364728 L24.3221406,81.2364728 C22.9419489,76.7219521 21.5473802,72.2220958 20.1671885,67.7077188 L20.1671885,67.7077188 Z" id="Stroke-47" stroke="#E92E2F" stroke-width="0.094" sketch:type="MSShapeGroup"></path>
            </g>
        </g>
    </g>
</svg>