<?xml version="1.0" encoding="UTF-8" standalone="no"?>
<svg width="60px" height="60px" viewBox="0 0 60 60" version="1.1" xmlns="http://www.w3.org/2000/svg" xmlns:xlink="http://www.w3.org/1999/xlink" xmlns:sketch="http://www.bohemiancoding.com/sketch/ns">
    <!-- Generator: Sketch 3.4 (15575) - http://www.bohemiancoding.com/sketch -->
    <title>Page 1</title>
    <desc>Created with Sketch.</desc>
    <defs></defs>
    <g id="Careers-i3" stroke="none" stroke-width="1" fill="none" fill-rule="evenodd" sketch:type="MSPage">
        <g sketch:type="MSArtboardGroup" transform="translate(-101.000000, -2854.000000)" id="Page-1">
            <g sketch:type="MSLayerGroup" transform="translate(101.000000, 2854.000000)">
                <path d="M0,60 L60,60 L60,0 L0,0 L0,60 Z" id="Fill-1" fill="#F0DB4F" sketch:type="MSShapeGroup"></path>
                <path d="M32.6178707,27.5760456 L27.0057034,27.5760456 C27.0057034,32.4239544 26.9829468,37.2376426 26.9829468,42.0855513 C26.9829468,45.1711027 27.1426426,48 26.6407414,48.8669202 C25.8194487,50.5721863 23.6920722,50.3612167 22.7224905,50.0303612 C21.7357985,49.5455703 21.2338973,48.8554563 20.6521483,47.8802281 C20.4924525,47.6007605 20.3726806,47.3840304 20.3326996,47.3669202 C18.809943,48.2965779 17.2927757,49.2318821 15.769962,50.161597 C16.5285741,51.7186312 17.6463878,53.0703422 19.0779468,53.9486122 C21.21673,55.2318821 24.0912548,55.6254183 27.0970152,54.9353042 C29.053289,54.364962 30.7414449,53.1844106 31.6254753,51.3878327 C32.9030418,49.0323194 32.6292776,46.1806084 32.6178707,43.026616 C32.6463878,37.8821293 32.6178707,32.7376426 32.6178707,27.5760456 M55.0893536,45.6901141 C54.6501901,42.9524715 52.865019,40.6539924 47.5779468,38.5095057 C45.7414449,37.6653992 43.6939163,37.0608935 43.0836502,35.6692015 C42.8669202,34.8593156 42.838403,34.4030418 42.9752852,33.9125475 C43.3688213,32.3212928 45.2680608,31.8250951 46.7737643,32.2813688 C47.743346,32.6064639 48.661597,33.3536692 49.2148289,34.5456274 C51.8041825,32.8688783 51.7984791,32.8802281 53.6064639,31.7281939 C52.9448669,30.7015779 52.5912548,30.2281369 52.1577947,29.7890304 C50.6007605,28.0494867 48.4790875,27.1540494 45.0855513,27.2224905 C44.4980989,27.296635 43.905,27.3764259 43.3174905,27.4506274 C41.6236312,27.878384 40.0095057,28.7681179 39.0627376,29.9601331 C36.2224335,33.1825665 37.0323194,38.8231939 40.4885932,41.1445437 C43.8935361,43.6996768 48.8954373,44.2814259 49.5342205,46.6711597 C50.1558935,49.5970152 47.3840875,50.5437262 44.6292776,50.2072814 C42.5988593,49.7852281 41.4696388,48.7529087 40.2490494,46.8764829 C38.0019582,48.1768631 38.0019582,48.1768631 35.6920722,49.5057605 C36.2396008,50.7034791 36.8155894,51.2453042 37.7338973,52.283327 C42.0799049,56.6920722 52.9562738,56.4753422 54.9069011,49.8023384 C54.986692,49.5741445 55.5114639,48.0456274 55.0893536,45.6901141" id="Fill-2" fill="#323330" sketch:type="MSShapeGroup"></path>
            </g>
        </g>
    </g>
</svg>