<?xml version="1.0" encoding="UTF-8" standalone="no"?>
<svg width="160px" height="47px" viewBox="0 0 160 47" version="1.1" xmlns="http://www.w3.org/2000/svg" xmlns:xlink="http://www.w3.org/1999/xlink" xmlns:sketch="http://www.bohemiancoding.com/sketch/ns">
    <!-- Generator: Sketch 3.4 (15575) - http://www.bohemiancoding.com/sketch -->
    <title>Page 1</title>
    <desc>Created with Sketch.</desc>
    <defs>
        <path id="path-1" d="M0,0.171513648 L159.653797,0.171513648 L159.653797,45.6575682 L0,45.6575682"></path>
    </defs>
    <g id="Careers-i3" stroke="none" stroke-width="1" fill="none" fill-rule="evenodd" sketch:type="MSPage">
        <g sketch:type="MSArtboardGroup" transform="translate(-866.000000, -3259.000000)" id="Page-1">
            <g sketch:type="MSLayerGroup" transform="translate(866.000000, 3259.610704)">
                <path d="M10.9559901,44.5189082 L9.76651117,44.125062 C9.76651117,44.125062 9.9181737,38.1046154 7.74685856,37.6833747 C6.31519603,36.0242184 7.96720596,-33.1811414 13.1685955,37.4459553 C13.1685955,37.4459553 11.3883474,38.3400496 11.0512754,39.857866 C10.7142035,41.3768734 10.9559901,44.5189082 10.9559901,44.5189082" id="Fill-1" fill="#AFAE91" sketch:type="MSShapeGroup"></path>
                <path d="M11.5971811,38.7053102 C11.5971811,38.7053102 21.9332605,31.8975682 19.5118213,17.759206 C17.1797122,7.48784119 11.6738065,4.11116625 11.0822432,2.82203474 C10.4307295,1.90967742 9.77484864,0.293002481 9.77484864,0.293002481 L10.2143524,28.9127543 C10.2143524,28.9123573 9.30477419,37.6512159 11.5971811,38.7053102" id="Fill-3" fill="#419343" sketch:type="MSShapeGroup"></path>
                <path d="M9.16105211,39.0856576 C9.16105211,39.0856576 -0.534630273,32.4712655 0.0231861042,20.8011911 C0.581399504,9.1307196 7.42924069,3.39255583 8.76283871,2.35156328 C9.62517122,1.43205955 9.66090323,1.07791563 9.72760298,0.171513648 C10.331871,1.46937965 10.2318213,19.5628784 10.2957419,21.6778164 C10.5438809,29.9100744 9.83956328,37.5317122 9.16105211,39.0856576" id="Fill-5" fill="#5AAF4F" sketch:type="MSShapeGroup"></path>
                <path d="M126.317181,35.3187097 C127.002839,35.8669975 128.374551,36.0929032 129.583087,36.0929032 C131.150531,36.0929032 132.685419,35.8022829 134.187355,34.4484367 C135.721846,33.0612407 136.767206,30.932804 136.767206,27.5462035 C136.767206,24.2890323 135.526114,21.6440695 132.979613,20.0960794 C131.541995,19.1932506 129.681151,18.8383127 127.558273,18.8383127 C126.937727,18.8383127 126.317181,18.8704715 125.957876,19.0316625 C125.859811,19.0963772 125.664079,19.3544417 125.664079,19.4834739 C125.598968,20.0639206 125.598968,24.4819851 125.598968,27.0943921 C125.598968,29.7711166 125.598968,33.5122581 125.664079,33.9644665 C125.696635,34.3511663 125.892367,35.0284864 126.317181,35.3187097 M119.798868,17.386799 C120.353906,17.386799 122.463285,17.4836725 123.443533,17.4836725 C125.272218,17.4836725 126.545469,17.386799 129.974154,17.386799 C132.848199,17.386799 135.26527,18.1609926 136.995891,19.644268 C139.086213,21.4507196 140.196288,23.9658561 140.196288,27.0300744 C140.196288,31.3842184 138.204427,33.8997519 136.212566,35.3187097 C134.220308,36.8019851 131.64006,37.6408933 127.950134,37.6408933 C125.990432,37.6408933 122.626462,37.5761787 119.817926,37.5444169 L119.779414,37.5444169 C119.649191,37.2859553 120.02001,36.2802978 120.249886,36.2540943 C121.008993,36.1679404 121.21465,36.1389578 121.567206,35.9936476 C122.159563,35.7498759 122.300109,35.4477419 122.366015,34.3833251 C122.463682,32.3839206 122.431127,29.9974194 122.431127,27.288139 C122.431127,25.3530521 122.463285,21.5797519 122.398174,20.3863027 C122.300109,19.3866005 121.876486,19.128933 121.026859,18.9351861 C120.602442,18.8387097 120.014452,18.7418362 119.198174,18.6449628 C119.132665,18.4512159 119.635692,17.5801489 119.798868,17.386799" id="Fill-7" fill="#C1BFBE" sketch:type="MSShapeGroup"></path>
                <g id="Group-11">
                    <mask id="mask-2" sketch:name="Clip 10" fill="white">
                        <use xlink:href="#path-1"></use>
                    </mask>
                    <g id="Clip-10"></g>
                    <path d="M148.844228,18.9673449 C148.714005,18.9995037 148.550432,19.3222829 148.550432,19.4834739 C148.518273,20.6443672 148.485717,23.6760298 148.485717,25.7719107 C148.485717,25.8366253 148.583385,25.9331017 148.648893,25.9331017 C149.07331,25.9656576 150.117876,25.9978164 150.999663,25.9978164 C152.240754,25.9978164 152.959762,25.8362283 153.351226,25.6424814 C154.396189,25.1267494 154.885717,23.9980149 154.885717,22.7724069 C154.885717,19.9666501 152.926412,18.9022333 150.020605,18.9022333 C149.824079,18.9026303 149.269042,18.9026303 148.844228,18.9673449 M156.257429,31.8677916 C156.257429,29.0298759 154.167504,27.4171712 150.346164,27.4171712 C150.183385,27.4171712 148.974452,27.3846154 148.681052,27.44933 C148.582988,27.4810918 148.48532,27.5458065 148.48532,27.6101241 C148.48532,29.6420844 148.452367,32.8996526 148.550035,34.1891811 C148.615543,34.737469 149.007801,35.5116625 149.49733,35.7375682 C150.020208,36.0277916 151.195395,36.0925062 152.011672,36.0925062 C154.265568,36.0929032 156.257429,34.8351365 156.257429,31.8677916 M142.946462,17.386799 C143.240258,17.386799 144.109737,17.4836725 146.329886,17.4836725 C148.420208,17.4836725 150.117876,17.4193548 152.14269,17.4193548 C154.657032,17.4193548 158.11867,18.3221836 158.11867,22.0633251 C158.11867,23.9015385 156.812864,25.3852109 155.114799,26.0946898 C155.016337,26.1268486 155.016337,26.1915633 155.114799,26.2237221 C157.531474,26.8363275 159.653955,28.32 159.653955,31.1579156 C159.653955,33.9315136 157.923335,35.6732506 155.408993,36.7698263 C153.874104,37.4467494 151.979911,37.6726551 150.052764,37.6726551 C148.583385,37.6726551 144.645717,37.511464 142.45733,37.5440199 C142.228248,37.4467494 142.666958,36.4144913 142.862293,36.2536973 C143.385171,36.2215385 143.788546,36.1838213 144.343583,36.0226303 C145.126908,35.8292804 145.219811,35.5763772 145.317876,34.4150868 C145.383782,33.4153846 145.383782,29.8358313 145.383782,27.2877419 C145.383782,23.804665 145.41594,21.4503226 145.383782,20.2894293 C145.350829,19.3862035 145.024079,19.0959801 144.403533,18.9347891 C143.914005,18.8383127 143.097727,18.7414392 142.444625,18.6445658 C142.280258,18.4833747 142.783285,17.5158313 142.946462,17.386799" id="Fill-9" fill="#C1BFBE" sketch:type="MSShapeGroup" mask="url(#mask-2)"></path>
                </g>
                <path d="M26.1170819,37.6266005 C26.0626898,37.5396526 26.0051216,37.2831762 26.0170323,36.9746898 C26.0257667,36.7400496 26.0726154,36.5911663 26.1166849,36.5399504 C26.7324665,36.4426799 27.0242779,36.3771712 27.3700844,36.284665 C27.9473548,36.14134 28.1653201,35.8296774 28.199067,35.0912159 C28.2939553,33.351861 28.2995136,30.0903226 28.2645757,27.7963275 L28.2649727,27.7288337 C28.2677519,27.4826799 28.2717221,27.146402 27.9624417,26.9089826 C27.5094392,26.6108189 26.9448734,26.363871 26.2302333,26.1494789 C25.9566849,26.0684864 25.8054194,25.9247643 25.8137568,25.7564268 C25.8220943,25.5948387 25.9936079,25.3891811 26.350134,25.3204963 C27.2958412,25.2228288 29.7752457,24.6328536 30.7479504,24.1838213 C30.8055186,24.2536973 30.8964367,24.4053598 30.8789677,24.6471464 C30.8718213,24.7487841 30.8626898,24.8551861 30.8535583,24.9655583 C30.8257667,25.2895285 30.794799,25.6571712 30.794799,26.0236228 C30.794799,26.1316129 30.9119206,26.2336476 31.0357916,26.2336476 C31.0989181,26.2336476 31.1568834,26.2090323 31.2045261,26.1621836 C33.0586203,24.711067 34.7169826,24.1929529 35.5709777,24.1929529 C36.9740546,24.1929529 38.065469,24.8627295 38.9095385,26.239206 C38.9587692,26.3122581 39.025469,26.3507692 39.0997122,26.3507692 C39.1703821,26.3507692 39.2374789,26.3142432 39.2767841,26.2558809 C40.981995,24.9639702 42.6717221,24.1929529 43.8012506,24.1929529 C46.474799,24.1929529 48.0716228,26.1919603 48.0716228,29.5392556 C48.0716228,30.5012407 48.0620943,31.7200993 48.0533598,32.8583623 C48.0450223,33.8568734 48.038273,34.7930521 48.038273,35.4405955 C48.038273,35.5978164 48.2482978,36.0329529 48.5655186,36.1202978 C48.9561886,36.3104715 49.5211514,36.4077419 50.2342035,36.5304218 L50.261995,36.5347891 C50.3159901,36.7265509 50.2024417,37.4729529 50.0940546,37.6258065 C49.9173797,37.6242184 49.6716228,37.6115136 49.3667097,37.5960298 C48.8116725,37.5674442 48.0509777,37.52933 47.1652208,37.52933 C45.3885459,37.52933 44.4607047,37.564268 43.5741538,37.6214392 C43.5074541,37.3999007 43.4840298,36.6856576 43.5654194,36.5367742 C44.0823424,36.4399007 44.3384218,36.3747891 44.6484963,36.2830769 C45.2138561,36.0968734 45.3766352,35.840794 45.4099851,35.0908189 C45.4226898,34.5572208 45.5255186,29.8628288 45.3432854,28.7479901 C45.1757419,27.5930521 44.3038809,26.240794 42.3977767,26.240794 C41.6910769,26.240794 40.5480496,26.5345906 39.4590174,27.359206 C39.3915236,27.4247146 39.3526154,27.5521588 39.3526154,27.6359305 L39.3546005,27.6573697 C39.4828387,28.2592556 39.4828387,28.960794 39.4828387,30.0224318 C39.4828387,30.6274938 39.4788685,31.2694789 39.4756923,31.9070968 C39.4681489,33.2013896 39.4613995,34.4234243 39.4828387,35.3465012 C39.4828387,35.9757816 39.8639801,36.1258561 40.1704814,36.2473449 C40.3368337,36.284268 40.4690422,36.3160298 40.6012506,36.3473945 C40.8581241,36.40933 41.123335,36.4728536 41.5167841,36.5359801 C41.5703821,36.6598511 41.5755434,37.03067 41.5016973,37.3474938 C41.4604069,37.5225806 41.4131613,37.599603 41.3881489,37.6246154 C40.4003573,37.5908685 39.3863623,37.5610918 37.924129,37.5610918 C37.4810521,37.5610918 36.7568834,37.5801489 36.1184715,37.5972208 C35.6011514,37.6111166 35.1108288,37.6246154 34.8321191,37.6258065 C34.7916228,37.5622829 34.7352457,37.3578164 34.7352457,37.0636228 C34.7352457,36.7900744 34.7852705,36.5975186 34.8372804,36.5379653 C34.9746501,36.5125558 35.1052705,36.4895285 35.2299355,36.4672953 C35.5729628,36.4061538 35.8691414,36.3541439 36.1534094,36.284268 C36.6373797,36.1369727 36.8192159,35.8677916 36.8545509,35.253201 C36.9490422,33.8179653 37.0228883,29.6833747 36.8196129,28.6479404 C36.4738065,26.986402 35.5265112,26.1443176 34.0055186,26.1443176 C33.1134094,26.1443176 31.9878511,26.5727047 31.0675533,27.2619355 C30.9131117,27.3754839 30.7963871,27.661737 30.7963871,27.9257568 C30.7963871,28.4180645 30.794799,29.0044665 30.7928139,29.6329529 C30.7864615,31.7093797 30.7793151,34.293995 30.829737,35.412804 C30.8607047,35.7566253 30.9806055,36.1659553 31.62934,36.3168238 C31.7706799,36.3565261 32.0160397,36.3974194 32.3003077,36.444268 C32.4638809,36.4716625 32.642938,36.5010422 32.8267593,36.533995 C32.892665,36.711861 32.8521687,37.4086352 32.7394144,37.6258065 C32.4555434,37.6238213 32.1065608,37.6075434 31.7059653,37.5900744 C31.0941538,37.5630769 30.333062,37.528933 29.4655682,37.528933 C28.4448238,37.528933 27.7341538,37.5630769 27.1632357,37.5900744 C26.7805062,37.6087345 26.4481985,37.6250124 26.1170819,37.6266005" id="Fill-12" fill="#484749" sketch:type="MSShapeGroup"></path>
                <path d="M58.5148983,25.564268 C57.9205558,25.564268 57.3655186,25.7199007 56.9526154,26.0025806 C55.8183226,26.6914144 55.2414491,28.0666998 55.2414491,30.0875434 C55.2414491,33.8711663 57.1380248,36.5137469 59.8536576,36.5137469 C60.6544516,36.5137469 61.3079504,36.283871 61.8506799,35.8102233 C62.6852208,35.1301241 63.1275037,33.74134 63.1275037,31.7967246 C63.1275037,28.0686849 61.2738065,25.564268 58.5148983,25.564268 M59.0377767,37.9168238 C54.1313747,37.9168238 52.3832854,34.3217866 52.3832854,30.9582134 C52.3832854,28.6086352 53.3452705,26.7712159 55.2434342,25.4979653 C56.5925161,24.6697767 58.2032357,24.1933499 59.6579256,24.1933499 C63.4022432,24.1933499 66.0178263,26.8823821 66.0178263,30.7331017 C66.0178263,33.351067 64.9728635,35.4171712 62.9960893,36.7086849 C62.048,37.2895285 60.4031365,37.9168238 59.0377767,37.9168238" id="Fill-14" fill="#484749" sketch:type="MSShapeGroup"></path>
                <path d="M109.323037,25.564268 C108.727901,25.564268 108.172467,25.7199007 107.75996,26.0025806 C106.626462,26.6914144 106.049191,28.0663027 106.049191,30.0875434 C106.049191,33.8711663 107.94537,36.5137469 110.6614,36.5137469 C111.462591,36.5137469 112.115692,36.283871 112.658422,35.8098263 C113.492963,35.1301241 113.935246,33.741737 113.935246,31.7971216 C113.935246,28.0690819 112.081548,25.564268 109.323037,25.564268 M109.845519,37.9168238 C104.93872,37.9168238 103.19063,34.3221836 103.19063,30.9586104 C103.19063,28.6082382 104.153409,26.7708189 106.051573,25.4975682 C107.400258,24.6693797 109.010978,24.1933499 110.465667,24.1933499 C114.210382,24.1933499 116.825965,26.8827792 116.825965,30.7327047 C116.825965,33.351464 115.780605,35.4175682 113.803831,36.7082878 C112.855742,37.2895285 111.210878,37.9168238 109.845519,37.9168238" id="Fill-16" fill="#484749" sketch:type="MSShapeGroup"></path>
                <path d="M92.9041787,25.4356328 C91.3915236,25.4356328 90.4140546,26.6286849 90.4140546,28.4748387 C90.4140546,30.3380645 91.2545509,32.5141439 93.6227891,32.5141439 C94.02934,32.5141439 94.7666104,32.3334988 95.131871,31.9313151 C95.6821439,31.4263027 96.0414491,30.382928 96.0414491,29.2811911 C96.0418462,26.8728536 94.8686452,25.4356328 92.9041787,25.4356328 M92.7088437,38.1744913 C92.1407047,38.1744913 91.7274045,38.3396526 91.4804566,38.4782134 C90.2834342,39.2448635 89.728397,40.0103226 89.728397,40.8917122 C89.728397,41.7230769 90.0515732,42.3833251 90.7455682,42.9705211 C91.5860645,43.6819851 92.7195633,44.0277916 94.2107792,44.0277916 C97.1431861,44.0277916 98.4581241,42.452804 98.4581241,40.8913151 C98.4581241,39.805062 97.9122184,39.0765261 96.7894392,38.6648139 C95.9239305,38.3491811 94.4783722,38.1744913 92.7088437,38.1744913 M92.9041787,45.6575682 C91.1429876,45.6575682 89.8737072,45.2863524 88.7894392,44.4530025 C87.7349479,43.6399007 87.2624913,42.4341439 87.2624913,41.600794 C87.2624913,41.3613896 87.3192655,40.7416377 87.8401588,40.1500744 C88.1474541,39.8018859 88.8581241,39.1495782 90.5002084,38.0216377 C90.5502333,38.0029777 90.5855682,37.9529529 90.5855682,37.8926055 C90.5855682,37.8255087 90.5418958,37.7711166 90.4827395,37.7580149 C89.1292903,37.2402978 88.7211514,36.391067 88.5980744,35.9301241 C88.5960893,35.9134491 88.590134,35.8872457 88.5845757,35.8590571 C88.5456675,35.6784119 88.5095385,35.5072953 88.7541042,35.3318114 C88.9434839,35.1968238 89.248,35.0165757 89.5703821,34.826402 C90.0464119,34.5457072 90.5851712,34.2276923 90.883732,33.9720099 C90.9309777,33.9259553 90.9500347,33.8584615 90.9389181,33.7909677 C90.9274045,33.7226799 90.8880993,33.6666998 90.82934,33.6377171 C88.8263623,32.9655583 87.8179256,31.4795037 87.8179256,29.2160794 C87.8179256,27.7550372 88.4924665,26.4345409 89.6684467,25.5924566 C90.4736079,24.9564268 92.4960397,24.1921588 93.8058164,24.1921588 L93.8820447,24.1929529 C95.2295385,24.2247146 95.9894392,24.5066005 97.0407543,24.8956824 C97.6116725,25.1068983 98.1520199,25.1926551 98.9079504,25.1926551 C100.023583,25.1926551 100.51073,24.8393052 100.928794,24.4339454 C100.953012,24.4843672 101.009787,24.6435732 101.035196,25.0108189 C101.061797,25.3852109 100.959365,25.9402481 100.672715,26.3360794 C100.444427,26.6517122 99.9159901,26.880397 99.416933,26.880397 C99.3669082,26.880397 99.3176774,26.8780149 99.2704318,26.8732506 C98.7566849,26.8228288 98.5152953,26.7481886 98.5129132,26.7469975 L98.3870571,26.79067 C98.3473548,26.8486352 98.3731613,26.9129529 98.4057171,26.9947395 C98.4136576,27.0141935 98.421598,27.0328536 98.4243772,27.0451613 C98.4898859,27.306402 98.6062134,28.0682878 98.6062134,28.2818859 C98.6062134,30.6552854 97.6688437,31.6903226 96.6556427,32.4557816 C95.6888933,33.1847146 94.5589677,33.6226303 93.2853201,33.7572208 L93.284129,33.7572208 C93.2579256,33.7572208 93.1376278,33.7679404 92.8942531,33.7893797 C92.7374293,33.8036725 92.5420943,33.8211414 92.5131117,33.8211414 L92.4845261,33.8251117 C92.2633846,33.8878412 91.6888933,34.1601985 91.6888933,34.6679901 C91.6888933,35.0904218 91.94934,35.6136973 93.1908288,35.7073945 C93.4425409,35.7260546 93.7125161,35.7451117 93.994402,35.7641687 C95.6337072,35.8781141 97.6807543,36.0202481 98.6443275,36.3466005 C99.9695881,36.8289826 100.794203,38.0144913 100.794203,39.4405955 C100.794203,41.5706203 99.2783722,43.573201 96.7390174,44.7968238 C95.5070571,45.3756824 94.2564367,45.6575682 92.9041787,45.6575682" id="Fill-18" fill="#484749" sketch:type="MSShapeGroup"></path>
                <path d="M84.8485955,36.4907196 C84.1303821,36.3938462 83.6075037,36.2969727 82.9873548,36.0067494 C82.8892903,35.9420347 82.758273,35.6518114 82.758273,35.555335 C82.6927643,34.5556328 82.6927643,31.6530025 82.6927643,29.7500744 C82.6927643,28.2016873 82.4319206,26.8474442 81.7788189,25.8795037 C80.9950968,24.7833251 79.8850223,24.1381638 78.4478015,24.1381638 C77.1745509,24.1381638 75.4760893,25.0092308 74.0722184,26.2026799 C74.0396625,26.2348387 73.8236824,26.4393052 73.8284467,26.1216873 C73.8336079,25.8044665 73.8824417,25.1589082 73.9118213,24.7523573 C73.941201,24.3462035 73.6978263,24.1544417 73.6978263,24.1544417 C72.7834839,24.6058561 70.208397,25.2172705 69.2571315,25.315732 C68.5619454,25.4495285 68.3868586,26.1169231 69.1269082,26.3475931 C69.1269082,26.3487841 69.1340546,26.3499752 69.1380248,26.3511663 C69.9126154,26.5838213 70.4346998,26.8327543 70.8241787,27.0896278 C71.1179752,27.3155335 71.0854194,27.6379156 71.0854194,27.8959801 C71.1179752,30.0565757 71.1179752,33.3788586 71.0199107,35.1849132 C70.9873548,35.8943921 70.7912258,36.1520596 70.2687444,36.2814888 L70.3163871,36.2652109 C69.9245261,36.3616873 69.5977767,36.426402 69.1078511,36.4911166 C68.9446749,36.6519107 68.9446749,37.5872953 69.1078511,37.7814392 C69.4346005,37.7814392 71.1001092,37.6841687 72.4714243,37.6841687 C74.3652208,37.6841687 75.345072,37.7814392 75.8349975,37.7814392 C76.0311266,37.5551365 76.0962382,36.6844665 75.9656179,36.4911166 C75.4105806,36.4589578 75.0183226,36.3942432 74.6264615,36.2973697 C74.1039801,36.1683375 73.9733598,35.910273 73.940804,35.3298263 C73.8756923,33.813995 73.8756923,30.5889826 73.8756923,28.3958313 C73.8756923,27.7828288 74.0388685,27.4926055 74.2349975,27.3314144 C74.8877022,26.7509677 75.9656179,26.364268 76.9129132,26.364268 C77.8268586,26.364268 78.4474045,26.6544913 78.9047742,27.0411911 C79.5253201,27.5573201 79.754005,28.2989578 79.8191166,28.8476427 C79.949737,30.0732506 79.9167841,32.5244665 79.9167841,34.6529032 C79.9167841,35.8141935 79.8191166,36.1044169 79.3946998,36.2334491 C79.1985707,36.3303226 78.6760893,36.427196 78.0555434,36.4915136 C77.8598114,36.6844665 77.9249231,37.5876923 78.0555434,37.7818362 C78.9047742,37.7818362 79.8846253,37.6845658 81.3210521,37.6845658 C83.1171811,37.6845658 84.2602084,37.7818362 84.7171811,37.7818362 C84.9137072,37.5547395 84.9788189,36.7162283 84.8485955,36.4907196" id="Fill-20" fill="#484749" sketch:type="MSShapeGroup"></path>
            </g>
        </g>
    </g>
</svg>