<?xml version="1.0" encoding="UTF-8" standalone="no"?>
<svg width="106px" height="23px" viewBox="0 0 106 23" version="1.1" xmlns="http://www.w3.org/2000/svg" xmlns:xlink="http://www.w3.org/1999/xlink" xmlns:sketch="http://www.bohemiancoding.com/sketch/ns">
    <!-- Generator: Sketch 3.4 (15575) - http://www.bohemiancoding.com/sketch -->
    <title>Page 1</title>
    <desc>Created with Sketch.</desc>
    <defs></defs>
    <g id="Careers-i3" stroke="none" stroke-width="1" fill="none" fill-rule="evenodd" sketch:type="MSPage">
        <g sketch:type="MSArtboardGroup" transform="translate(-688.000000, -3141.000000)" id="Page-1">
            <g sketch:type="MSLayerGroup" transform="translate(691.000000, 3141.000000)">
                <path d="M0.45045045,20.2266667 L0.45045045,3.05099099 L17.6234234,20.2266667 L17.6234234,3.05099099" id="Stroke-1" stroke="#009900" stroke-width="5" stroke-linecap="round" stroke-linejoin="round" sketch:type="MSShapeGroup"></path>
                <path d="M28.0537838,0.821171171 L27.4348649,1.97522523 L22.6483784,10.6752252 L22.0294595,11.7725225 L22.6483784,12.8707207 L27.4348649,21.2887387 L28.0817117,22.4427928 L29.4051351,22.4427928 L39.2024324,22.4427928 L40.6105405,22.4427928 L41.2294595,21.1761261 L44.8051351,13.9689189 L46.4096396,10.7031532 L42.7781081,10.7031532 L33.6276577,10.7310811 C32.4384685,10.713964 31.3438739,11.7932432 31.3438739,12.9833333 C31.3438739,14.1734234 32.4384685,15.2527027 33.6276577,15.2355856 L39.1465766,15.2076577 L37.7952252,17.9382883 L30.7006306,17.9382883 L27.1808108,11.7445946 L30.7285586,5.32567568 L38.2754054,5.32567568 L40.0348649,8.93648649 L44.5672973,8.93648649 L41.7096396,2.08783784 L41.0907207,0.821171171 L39.6826126,0.821171171 L29.4051351,0.821171171 L28.0537838,0.821171171 Z" id="Fill-3" fill="#009900" sketch:type="MSShapeGroup"></path>
                <path d="M50.8701802,0.792972973 C49.6909009,0.807387387 48.6314414,1.89387387 48.6458559,3.07315315 L48.6458559,8.94252252 L53.1503604,8.94252252 L53.1503604,3.07315315 C53.1656757,1.87495495 52.0683784,0.777657658 50.8701802,0.792972973" id="Fill-5" fill="#009900" sketch:type="MSShapeGroup"></path>
                <path d="M75.2643243,20.2702703 L75.2643243,3.09459459 L58.0913514,20.2702703 L58.0913514,3.09459459" id="Stroke-7" stroke="#009900" stroke-width="5" stroke-linecap="round" stroke-linejoin="round" sketch:type="MSShapeGroup"></path>
                <path d="M82.4030631,3.08855856 L99.5967568,20.2218919" id="Stroke-9" stroke="#009900" stroke-width="5" stroke-linecap="round" stroke-linejoin="round" sketch:type="MSShapeGroup"></path>
                <path d="M99.6166667,3.08855856 L82.422973,20.2218919" id="Stroke-11" stroke="#009900" stroke-width="5" stroke-linecap="round" stroke-linejoin="round" sketch:type="MSShapeGroup"></path>
                <path d="M50.8701802,22.4577477 C49.6909009,22.4433333 48.6314414,21.3568468 48.6458559,20.1775676 L48.6458559,10.7496396 L53.1503604,10.7496396 L53.1503604,20.1775676 C53.1656757,21.3757658 52.0683784,22.4730631 50.8701802,22.4577477" id="Fill-13" fill="#009900" sketch:type="MSShapeGroup"></path>
            </g>
        </g>
    </g>
</svg>