<?xml version="1.0" encoding="UTF-8" standalone="no"?>
<svg width="120px" height="34px" viewBox="0 0 120 34" version="1.1" xmlns="http://www.w3.org/2000/svg" xmlns:xlink="http://www.w3.org/1999/xlink" xmlns:sketch="http://www.bohemiancoding.com/sketch/ns">
    <!-- Generator: Sketch 3.4 (15575) - http://www.bohemiancoding.com/sketch -->
    <title>Page 1</title>
    <desc>Created with Sketch.</desc>
    <defs>
        <path id="path-1" d="M0,0.155390625 L119.796797,0.155390625 L119.796797,33.984375 L0,33.984375"></path>
        <path id="path-3" d="M0,0.155390625 L119.796797,0.155390625 L119.796797,33.984375 L0,33.984375 L0,0.155390625 Z"></path>
    </defs>
    <g id="Careers-i3" stroke="none" stroke-width="1" fill="none" fill-rule="evenodd" sketch:type="MSPage">
        <g sketch:type="MSArtboardGroup" transform="translate(-1088.000000, -2998.000000)" id="Page-1">
            <g sketch:type="MSLayerGroup" transform="translate(1088.000000, 2998.000000)">
                <g id="Group-3">
                    <mask id="mask-2" sketch:name="Clip 2" fill="white">
                        <use xlink:href="#path-1"></use>
                    </mask>
                    <g id="Clip-2"></g>
                    <path d="M110.201672,12.1620234 C109.909875,12.1620234 109.626281,12.2222578 109.375266,12.3642891 L101.432766,16.9512422 C100.918781,17.2470234 100.606359,17.8064766 100.606359,18.4015547 L100.606359,27.5583516 C100.606359,28.1529609 100.918781,28.7114766 101.432766,29.0084297 L103.506984,30.2058516 C104.514797,30.7024922 104.886281,30.6947578 105.344953,30.6947578 C106.837219,30.6947578 107.688938,29.7893672 107.688938,28.2157734 L107.688938,19.1771016 C107.688938,19.0493672 107.578313,18.9579609 107.452922,18.9579609 L106.458,18.9579609 C106.3305,18.9579609 106.221984,19.0493672 106.221984,19.1771016 L106.221984,28.2157734 C106.221984,28.9132734 105.495422,29.6147578 104.316281,29.0253047 L102.157922,27.7606172 C102.08175,27.7191328 102.022922,27.6457734 102.022922,27.5583516 L102.022922,18.4015547 C102.022922,18.3146016 102.081047,18.2262422 102.157922,18.1821797 L110.083547,13.6123359 C110.157844,13.5696797 110.246203,13.5696797 110.319797,13.6123359 L118.245422,18.1821797 C118.321125,18.2276484 118.380422,18.3117891 118.380422,18.4015547 L118.380422,27.5583516 C118.380422,27.6457734 118.336594,27.7353047 118.262297,27.7774922 L110.319797,32.3473359 C110.251594,32.3878828 110.157844,32.3878828 110.083547,32.3473359 L108.043078,31.1332734 C107.982375,31.0976484 107.899406,31.1002266 107.840813,31.1332734 C107.277609,31.4524922 107.171672,31.4897578 106.643625,31.6728047 C106.513313,31.7182734 106.315734,31.7888203 106.710891,32.0100703 L109.375266,33.5785078 C109.629094,33.7252266 109.911516,33.7976484 110.201672,33.7976484 C110.495813,33.7976484 110.77425,33.7252266 111.028078,33.5785078 L118.970578,29.0084297 C119.484563,28.7093672 119.796984,28.1529609 119.796984,27.5583516 L119.796984,18.4015547 C119.796984,17.8064766 119.484563,17.2484297 118.970578,16.9512422 L111.028078,12.3642891 C110.779172,12.2222578 110.493469,12.1620234 110.201672,12.1620234" id="Fill-1" fill="#83CD29" sketch:type="MSShapeGroup" mask="url(#mask-2)"></path>
                </g>
                <path d="M112.326445,18.7050937 C110.064727,18.7050937 108.717773,19.6676719 108.717773,21.2682187 C108.717773,23.0047031 110.054648,23.4818906 112.225195,23.6965781 C114.822305,23.950875 115.02457,24.3322031 115.02457,24.843375 C115.02457,25.7300156 114.317695,26.1080625 112.646836,26.1080625 C110.547773,26.1080625 110.086289,25.584 109.931836,24.5398594 C109.913555,24.4278281 109.827305,24.3373594 109.712695,24.3373594 L108.684023,24.3373594 C108.557227,24.3373594 108.447773,24.4465781 108.447773,24.5736094 C108.447773,25.91025 109.175039,27.490875 112.646836,27.490875 C115.160039,27.490875 116.609648,26.5043906 116.609648,24.775875 C116.609648,23.0623594 115.438711,22.6025156 113.000977,22.2800156 C110.537695,21.9542344 110.302852,21.794625 110.302852,21.2178281 C110.302852,20.7415781 110.501836,20.1047812 112.326445,20.1047812 C113.956055,20.1047812 114.558398,20.4561094 114.80543,21.5550937 C114.826992,21.6582187 114.91793,21.7404844 115.02457,21.7404844 L116.053242,21.7404844 C116.116523,21.7404844 116.17793,21.7015781 116.221758,21.6561094 C116.265117,21.6075937 116.295352,21.55275 116.289258,21.4875937 C116.130117,19.59525 114.868008,18.7050937 112.326445,18.7050937" id="Fill-4" fill="#83CD29" sketch:type="MSShapeGroup"></path>
                <g id="Group-8">
                    <mask id="mask-4" sketch:name="Clip 7" fill="white">
                        <use xlink:href="#path-3"></use>
                    </mask>
                    <g id="Clip-7"></g>
                    <path d="M59.8309922,19.6493203 C59.8748203,19.6493203 59.9266172,19.6601016 59.9659922,19.6828359 L62.8495078,21.3522891 C62.9277891,21.3975234 62.9845078,21.4811953 62.9845078,21.5714297 L62.9845078,24.9103359 C62.9845078,25.0010391 62.9282578,25.0844766 62.8495078,25.1297109 L59.9659922,26.7991641 C59.8874766,26.8439297 59.7913828,26.8439297 59.7128672,26.7991641 L56.8293516,25.1297109 C56.7508359,25.0842422 56.6943516,25.0010391 56.6943516,24.9103359 L56.6943516,21.5714297 C56.6943516,21.4811953 56.7510703,21.3977578 56.8293516,21.3522891 L59.7128672,19.6830703 C59.7522422,19.6603359 59.7871641,19.6495547 59.8309922,19.6495547 L59.8309922,19.6493203 Z M84.9911484,12.3979922 C84.8151328,12.3979922 84.6428672,12.4422891 84.4851328,12.5329922 L76.0703672,17.3897109 C75.7560703,17.5711172 75.5643516,17.9034609 75.5643516,18.2665078 L75.5643516,27.9797109 C75.5643516,28.3451016 75.7701328,28.6762734 76.0872422,28.8567422 L84.4345078,33.6122109 C84.7427109,33.7882266 85.1191172,33.8013516 85.4294297,33.6288516 L90.4884141,30.8126016 C90.6489609,30.7235391 90.7577109,30.5573672 90.7581797,30.3743203 C90.7593516,30.1910391 90.6637266,30.0269766 90.5052891,29.9358047 L82.0398984,25.0790859 C81.8814609,24.9888516 81.7701328,24.8055703 81.7701328,24.6236953 L81.7701328,21.5883047 C81.7701328,21.4068984 81.8828672,21.2407266 82.0398984,21.1500234 L84.6705234,19.6322109 C84.8270859,19.5417422 85.0192734,19.5417422 85.1765391,19.6322109 L87.8071641,21.1500234 C87.9644297,21.2407266 88.0600547,21.4068984 88.0600547,21.5883047 L88.0600547,23.9831484 C88.0600547,24.1647891 88.1559141,24.3307266 88.3131797,24.4214297 C88.4709141,24.5123672 88.6619297,24.5126016 88.8189609,24.4214297 L93.8610703,21.4872891 C94.1741953,21.3054141 94.3670859,20.9723672 94.3670859,20.6104922 L94.3670859,18.2662734 C94.3670859,17.9043984 94.1748984,17.5713516 93.8610703,17.3894766 L85.4969297,12.5327578 C85.3394297,12.4415859 85.1669297,12.3982266 84.9911484,12.3979922 L84.9911484,12.3979922 Z M9.37591406,12.2801016 C9.21560156,12.2864297 9.06466406,12.3145547 8.92075781,12.3979922 L0.505992188,17.2547109 C0.192398438,17.4358828 -2.34375e-05,17.7661172 -2.34375e-05,18.1317422 L0.0168515625,31.1669766 C0.0168515625,31.3481484 0.110367188,31.5166641 0.269742188,31.6054922 C0.426070313,31.6990078 0.619898438,31.6990078 0.775757813,31.6054922 L5.76724219,28.7386172 C6.08341406,28.5508828 6.28989844,28.2239297 6.28989844,27.8618203 L6.28989844,21.7741641 C6.28989844,21.4108828 6.48091406,21.0776016 6.79591406,20.8971328 L8.92075781,19.6661953 C9.07919531,19.5745547 9.24958594,19.5311953 9.42653906,19.5311953 C9.59997656,19.5311953 9.77833594,19.5745547 9.93255469,19.6661953 L12.0571641,20.8971328 C12.3721641,21.0776016 12.5631797,21.4108828 12.5631797,21.7741641 L12.5631797,27.8618203 C12.5631797,28.2239297 12.7717734,28.5527578 13.0858359,28.7386172 L18.0773203,31.6054922 C18.2341172,31.6990078 18.4279453,31.6990078 18.5833359,31.6054922 C18.7382578,31.5166641 18.8362266,31.3481484 18.8362266,31.1669766 L18.8531016,18.1317422 C18.8531016,17.7661172 18.6627891,17.4358828 18.3470859,17.2547109 L9.93232031,12.3979922 C9.79005469,12.3145547 9.63864844,12.2866641 9.47716406,12.2801016 L9.37591406,12.2801016 L9.37591406,12.2801016 Z M63.5071641,0.155414062 C63.4199766,0.156351562 63.3320859,0.177210937 63.2542734,0.222914062 C63.0991172,0.313851562 63.0013828,0.481195312 63.0013828,0.661195312 L63.0013828,13.5616641 C63.0013828,13.6884609 62.9423203,13.8016641 62.8326328,13.8651797 C62.7227109,13.9289297 62.5886484,13.9289297 62.4784922,13.8651797 L60.3705234,12.6511172 C60.0564609,12.4699453 59.6730234,12.4701797 59.3587266,12.6511172 L50.9439609,17.5076016 C50.6294297,17.6892422 50.4381797,18.0382266 50.4381797,18.4015078 L50.4381797,28.1147109 C50.4381797,28.4775234 50.6296641,28.8098672 50.9439609,28.9915078 L59.3587266,33.8482266 C59.6734922,34.0298672 60.0559922,34.0298672 60.3705234,33.8482266 L68.7852891,28.9915078 C69.0998203,28.8098672 69.2913047,28.4775234 69.2913047,28.1147109 L69.2913047,3.89908594 C69.2913047,3.53064844 69.0902109,3.18494531 68.7686484,3.00517969 L63.7600547,0.206039062 C63.6815391,0.161976562 63.5943516,0.154476562 63.5071641,0.155414062 L63.5071641,0.155414062 Z" id="Fill-6" fill="#404137" sketch:type="MSShapeGroup" mask="url(#mask-4)"></path>
                </g>
                <path d="M34.6540781,12.3474844 C34.4787656,12.3474844 34.3050938,12.3917812 34.1480625,12.4824844 L25.7332969,17.3220938 C25.4187656,17.5035 25.2275156,17.8531875 25.2275156,18.216 L25.2275156,27.9292031 C25.2275156,28.2924844 25.419,28.6243594 25.7332969,28.806 L34.1480625,33.6627188 C34.4628281,33.8443594 34.8453281,33.8443594 35.1600938,33.6627188 L43.5748594,28.806 C43.8889219,28.6243594 44.0806406,28.2924844 44.0806406,27.9292031 L44.0806406,18.216 C44.0806406,17.8524844 43.8893906,17.5035 43.5748594,17.3220938 L35.1600938,12.4824844 C35.0028281,12.3917812 34.8293906,12.3474844 34.6540781,12.3474844" id="Fill-9" fill="#83CD29" sketch:type="MSShapeGroup"></path>
                <path d="M84.9741797,21.0153984 C84.9406641,21.0153984 84.9033984,21.0153984 84.8729297,21.0320391 L83.2541016,21.9765703 C83.1933984,22.0110234 83.1528516,22.0752422 83.1528516,22.1450859 L83.1528516,24.0001641 C83.1528516,24.0697734 83.1933984,24.1339922 83.2541016,24.1686797 L84.8729297,25.0961016 C84.9336328,25.1312578 84.9985547,25.1312578 85.0585547,25.0961016 L86.6773828,24.1686797 C86.7373828,24.1342266 86.7786328,24.0697734 86.7786328,24.0001641 L86.7786328,22.1450859 C86.7786328,22.0752422 86.7373828,22.0112578 86.6773828,21.9765703 L85.0585547,21.0320391 C85.0285547,21.0142266 85.0079297,21.0153984 84.9741797,21.0153984" id="Fill-11" fill="#83CD29" sketch:type="MSShapeGroup"></path>
            </g>
        </g>
    </g>
</svg>