<?xml version="1.0" encoding="UTF-8" standalone="no"?>
<svg width="60px" height="60px" viewBox="0 0 60 60" version="1.1" xmlns="http://www.w3.org/2000/svg" xmlns:xlink="http://www.w3.org/1999/xlink" xmlns:sketch="http://www.bohemiancoding.com/sketch/ns">
    <!-- Generator: Sketch 3.4 (15575) - http://www.bohemiancoding.com/sketch -->
    <title>Page 1</title>
    <desc>Created with Sketch.</desc>
    <defs>
        <path id="path-1" d="M0,0.0399753695 L59.9600246,0.0399753695 L59.9600246,60 L0,60"></path>
    </defs>
    <g id="Careers-i3" stroke="none" stroke-width="1" fill="none" fill-rule="evenodd" sketch:type="MSPage">
        <g sketch:type="MSArtboardGroup" transform="translate(-914.000000, -2989.000000)" id="Page-1">
            <g sketch:type="MSLayerGroup" transform="translate(914.000000, 2989.000000)">
                <g id="Group-3">
                    <mask id="mask-2" sketch:name="Clip 2" fill="white">
                        <use xlink:href="#path-1"></use>
                    </mask>
                    <g id="Clip-2"></g>
                    <path d="M59.9600542,30.0199729 C59.9600542,46.5774606 46.5375665,60.0000222 29.9800049,60.0000222 C13.4225172,60.0000222 2.95566502e-05,46.5774606 2.95566502e-05,30.0199729 C2.95566502e-05,13.4624852 13.4225172,0.0399236453 29.9800049,0.0399236453 C46.5375665,0.0399236453 59.9600542,13.4624852 59.9600542,30.0199729" id="Fill-1" fill="#191916" sketch:type="MSShapeGroup" mask="url(#mask-2)"></path>
                </g>
                <path d="M47.0885099,28.689 C47.0885099,38.408335 51.0340271,40.9144433 51.0340271,45.4217586 C51.0340271,47.9226946 45.6454803,46.0982365 43.4560714,47.3628177 C41.4254557,48.5351084 42.2577709,50.3006749 39.3330665,51.4332857 C37.2329187,52.2480887 34.4317611,48.5364384 31.508165,48.5364384 C29.1765148,48.5364384 24.872697,51.6651576 22.8508744,50.6709458 C20.8290517,49.676734 21.0208744,46.3634335 17.8955542,46.0431872 C15.5628695,45.8048867 9.62309113,49.0322512 9.62309113,46.5325714 C9.62309113,43.3487291 13.2918842,39.8792217 13.2918842,28.689 C13.2918842,17.8473251 20.8621552,9.04912315 30.1896429,9.04912315 C39.5182389,9.04912315 47.0885099,17.8473251 47.0885099,28.689" id="Fill-4" fill="#008D93" sketch:type="MSShapeGroup"></path>
                <path d="M47.0885099,28.689 C47.0885099,38.408335 51.0340271,40.9144433 51.0340271,45.4217586 C51.0340271,47.9226946 45.6454803,46.0982365 43.4560714,47.3628177 C41.4254557,48.5351084 42.2577709,50.3006749 39.3330665,51.4332857 C37.2329187,52.2480887 34.4317611,48.5364384 31.508165,48.5364384 C29.1765148,48.5364384 24.872697,51.6651576 22.8508744,50.6709458 C20.8290517,49.676734 21.0208744,46.3634335 17.8955542,46.0431872 C15.5628695,45.8048867 9.62309113,49.0322512 9.62309113,46.5325714 C9.62309113,43.3487291 13.2918842,39.8792217 13.2918842,28.689 C13.2918842,17.8473251 20.8621552,9.04912315 30.1896429,9.04912315 C39.5182389,9.04912315 47.0885099,17.8473251 47.0885099,28.689 L47.0885099,28.689 Z" id="Stroke-6" stroke="#00CED8" sketch:type="MSShapeGroup"></path>
                <path d="M47.0885099,28.689 C47.0885099,38.408335 51.0340271,40.9144433 51.0340271,45.4217586 C51.0340271,47.9226946 47.1315148,42.3378916 44.9421059,43.602399 C42.9114901,44.7747635 40.4101108,45.881734 37.8712685,44.1353793 C36.3587069,43.0950591 38.4676478,41.4025714 35.5440517,41.4025714 C33.2124754,41.4025714 29.6582882,43.0809458 27.4347414,43.4422759 C25.4129187,43.7702808 23.2555049,41.6241724 19.6880911,42.8477438 C17.4711207,43.6088276 9.62309113,49.0322512 9.62309113,46.5325714 C9.62309113,43.3487291 13.2918842,39.8791478 13.2918842,28.689 C13.2918842,17.8472512 20.8621552,9.04912315 30.1896429,9.04912315 C39.5182389,9.04912315 47.0885099,17.8472512 47.0885099,28.689 L47.0885099,28.689 Z" id="Fill-8" fill="#00C4CD" sketch:type="MSShapeGroup"></path>
                <path d="M47.0885099,28.689 C47.0885099,38.408335 51.0340271,40.9144433 51.0340271,45.4217586 C51.0340271,47.9226946 47.1315148,42.3378916 44.9421059,43.602399 C42.9114901,44.7747635 40.4101108,45.881734 37.8712685,44.1353793 C36.3587069,43.0950591 38.4676478,41.4025714 35.5440517,41.4025714 C33.2124754,41.4025714 29.6582882,43.0809458 27.4347414,43.4422759 C25.4129187,43.7702808 23.2555049,41.6241724 19.6880911,42.8477438 C17.4711207,43.6088276 9.62309113,49.0322512 9.62309113,46.5325714 C9.62309113,43.3487291 13.2918842,39.8791478 13.2918842,28.689 C13.2918842,17.8472512 20.8621552,9.04912315 30.1896429,9.04912315 C39.5182389,9.04912315 47.0885099,17.8472512 47.0885099,28.689 L47.0885099,28.689 L47.0885099,28.689 Z" id="Stroke-10" stroke="#00CED8" sketch:type="MSShapeGroup"></path>
                <path d="M24.6191675,18.7473177 C22.3526158,18.7473177 20.5127143,20.8617266 20.5127143,23.4656675 C20.5127143,26.0706429 22.3526158,28.1850517 24.6191675,28.1850517 C26.3709163,28.1850517 27.8668522,26.9206182 28.4566552,25.1457414 C29.0464581,26.9206182 30.5435025,28.1850517 32.2941429,28.1850517 C34.561803,28.1850517 36.4017044,26.0706429 36.40067,23.4656675 C36.40067,20.8617266 34.561803,18.7473177 32.2941429,18.7473177 C30.5435025,18.7473177 29.0475665,20.0073916 28.4566552,21.7822685 C27.8668522,20.0073916 26.3709163,18.7473177 24.6191675,18.7473177 L24.6191675,18.7473177 Z" id="Fill-12" fill-opacity="0.2" fill="#FFFFFF" sketch:type="MSShapeGroup"></path>
                <path d="M41.2170665,15.735532 C41.868569,15.5062463 45.1416724,19.8376256 45.7391601,24.3883892 C46.1448251,27.483931 45.9728793,32.2617635 46.4403177,34.9902118 C46.9076823,37.718734 50.9502192,44.8005813 49.3241601,44.7344483 C45.5043325,44.5779458 43.0679778,38.4341527 43.9400468,29.6457783 C44.9233966,19.735064 39.6824852,16.2767882 41.2170665,15.735532 L41.2170665,15.735532 Z" id="Fill-14" fill-opacity="0.2" fill="#FFFFFF" sketch:type="MSShapeGroup"></path>
                <path d="M42.7769852,46.5269778 C41.8928719,47.3935049 40.2822562,51.5165099 39.4245222,49.6446133 C38.5668621,47.7738251 39.2823547,44.4423473 38.6451133,39.5112635 C38.1600887,35.7608202 36.3753103,31.2850567 37.6882906,31.9663374 C38.9968374,32.6465099 39.9470837,34.6947857 41.1399163,38.2644163 C42.1817143,41.3842685 43.835335,45.4896133 42.7769852,46.5269778 L42.7769852,46.5269778 Z" id="Fill-16" fill-opacity="0.2" fill="#FFFFFF" sketch:type="MSShapeGroup"></path>
                <path d="M30.0694877,47.5621404 C29.2239458,48.4650222 27.1546847,49.5409581 26.1074187,49.3370172 C24.7283054,49.0691601 24.5155714,44.4433966 25.0700542,41.4371158 C25.6157438,38.4749483 26.666335,34.1567956 27.5449803,33.5086182 C28.6132315,32.7214507 27.6221232,36.4608842 28.6242414,41.6013768 C29.391532,45.5347759 30.8952266,46.6802438 30.0694877,47.5621404" id="Fill-18" fill-opacity="0.2" fill="#FFFFFF" sketch:type="MSShapeGroup"></path>
                <path d="M18.767564,45.0464335 C17.5428103,44.8678374 16.3841158,45.1721232 15.415101,45.4356207 C14.0591897,45.8048571 15.329165,43.7654483 17.1304951,40.2123695 C18.4919483,37.5269261 18.8116773,34.7576158 19.6020961,34.0046601 C20.5424409,33.1073202 19.3385985,36.6173941 19.1148547,40.0260887 C18.9075887,43.1888719 19.6704458,45.1775911 18.767564,45.0464335" id="Fill-20" fill-opacity="0.2" fill="#FFFFFF" sketch:type="MSShapeGroup"></path>
                <path d="M16.1945394,20.9587537 C19.2085049,12.8373251 25.0094409,11.1318325 26.4844655,11.2145172 C28.7256724,11.3402069 28.1071995,14.5901084 23.7559433,15.7355025 C19.320968,16.9029901 14.6092685,25.2316847 16.1945394,20.9587537 L16.1945394,20.9587537 Z" id="Fill-22" fill-opacity="0.2" fill="#FFFFFF" sketch:type="MSShapeGroup"></path>
            </g>
        </g>
    </g>
</svg>