<?xml version="1.0" encoding="UTF-8" standalone="no"?>
<svg width="70px" height="70px" viewBox="0 0 70 70" version="1.1" xmlns="http://www.w3.org/2000/svg" xmlns:xlink="http://www.w3.org/1999/xlink" xmlns:sketch="http://www.bohemiancoding.com/sketch/ns">
    <!-- Generator: Sketch 3.4 (15575) - http://www.bohemiancoding.com/sketch -->
    <title>Page 1</title>
    <desc>Created with Sketch.</desc>
    <defs>
        <path id="path-1" d="M0,0.127421875 L70,0.127421875 L70,70 L0,70"></path>
    </defs>
    <g id="Careers-i3" stroke="none" stroke-width="1" fill="none" fill-rule="evenodd" sketch:type="MSPage">
        <g sketch:type="MSArtboardGroup" transform="translate(-501.000000, -2984.000000)" id="Page-1">
            <g sketch:type="MSLayerGroup" transform="translate(501.000000, 2984.000000)">
                <g id="Group-3">
                    <mask id="mask-2" sketch:name="Clip 2" fill="white">
                        <use xlink:href="#path-1"></use>
                    </mask>
                    <g id="Clip-2"></g>
                    <path d="M66.4285234,31.656707 C66.4050078,31.656707 66.2630937,31.514793 66.2395781,31.4912773 C66.2157891,31.5620977 66.2395781,31.632918 66.1922734,31.7275273 C66.1687578,31.656707 66.0033281,31.6802227 66.0033281,31.6094023 C65.9795391,31.9402617 66.1449688,32.2711211 66.1214531,32.6019805 C66.1922734,32.5546758 66.4758281,32.5308867 66.5466484,32.4600664 C66.5704375,32.4838555 66.6174688,32.5073711 66.6412578,32.5073711 C66.1687578,32.8617461 66.2868828,33.2163945 66.4993437,33.6180742 C66.5466484,33.7124102 66.6885625,33.9016289 66.5466484,34.0905742 C66.4993437,34.1378789 66.5704375,34.279793 66.5939531,34.397918 L66.6647734,34.397918 L66.6647734,34.4449492 L66.4523125,34.516043 C66.4050078,34.4449492 66.1214531,34.3033086 66.1214531,34.1851836 L66.1214531,35.3902227 C66.3577031,35.461043 66.3577031,35.7919023 66.4523125,35.957332 C66.4993437,35.8865117 66.5231328,35.839207 66.5466484,35.7683867 L66.5704375,35.7919023 C66.5466484,35.9338164 66.5231328,36.075457 66.4758281,36.2173711 C66.4285234,36.4301055 66.3812188,36.6190508 66.3577031,36.8317852 C66.3577031,36.8553008 66.4050078,36.9026055 66.4050078,36.9261211 C66.1449688,37.5170195 66.2868828,38.1787383 66.1922734,38.7931523 C66.1214531,39.2421367 66.1922734,39.7146367 66.1449688,40.1871367 C66.0976641,40.5890898 66.0033281,41.0142852 65.9087187,41.4159648 C65.8852031,41.4867852 65.8378984,41.5105742 65.7197734,41.5578789 C65.7668047,41.2743242 65.7432891,41.0851055 65.6959844,40.8253398 C65.6724688,40.8253398 65.365125,40.6599102 65.3416094,40.6599102 C65.3416094,40.9907695 65.5305547,41.4397539 65.6016484,41.8176445 C65.5305547,41.7941289 65.247,41.6286992 65.2234844,41.6286992 C65.1761797,41.9122539 65.1761797,42.290418 65.1526641,42.5974883 C65.128875,42.8337383 64.9161406,43.0464727 64.892625,43.3065117 C64.892625,43.4481523 65.0580547,43.5427617 65.0342656,43.7790117 L65.2234844,43.7790117 C65.2234844,43.3065117 65.4362187,42.881043 65.4362187,42.3847539 L65.5070391,42.3847539 C65.5305547,42.4320586 65.6016484,42.4793633 65.5778594,42.5031523 C65.5305547,42.762918 65.4362187,43.0464727 65.4597344,43.3065117 C65.4597344,43.4481523 65.5778594,43.5900664 65.5305547,43.7554961 C65.48325,43.8971367 65.4597344,44.0390508 65.4362187,44.2515117 C65.4124297,44.1333867 65.3889141,44.0863555 65.3889141,44.0152617 C65.365125,44.0152617 65.1526641,43.9917461 65.128875,43.9917461 C65.1053594,44.1333867 65.2943047,44.2753008 65.2707891,44.3934258 C65.247,44.4172148 65.2234844,44.4172148 65.1761797,44.4407305 L64.3963359,43.3065117 C63.7819219,42.408543 63.1675078,41.5105742 62.5530938,40.5890898 C62.3876641,40.3525664 62.2460234,40.1163164 62.1278984,39.8800664 C61.3953594,38.6277227 60.592,37.4224102 59.6940313,36.2646758 C59.0085234,35.3902227 58.4652031,34.4449492 57.827,33.5234648 C57.236375,32.6492852 56.6454766,31.7983477 56.0548516,30.924168 C55.8421172,30.6406133 55.5823516,30.3805742 55.3931328,30.0735039 C54.7787188,29.1047148 54.2353984,28.1121367 53.6209844,27.1433477 C53.1011797,26.3397148 52.5337969,25.5601445 51.9904766,24.7803008 C51.8015313,24.5202617 51.6123125,24.236707 51.4233672,23.9531523 C51.3995781,23.9058477 51.3760625,23.858543 51.3760625,23.7877227 C51.3287578,23.267918 51.2814531,22.7481133 51.2579375,22.2518242 C51.2579375,21.7790508 51.3052422,21.3065508 51.3052422,20.8102617 L51.3052422,20.3850664 C51.3052422,20.2669414 51.3287578,20.172332 51.3287578,20.054207 C51.3522734,20.030418 51.3760625,19.9833867 51.3995781,19.9595977 C50.7143438,19.9595977 50.0055938,19.936082 49.3200859,19.9595977 C48.871375,19.9833867 48.6348516,19.794168 48.3277813,19.463582 C47.4298125,18.4472148 46.7680937,17.2894805 45.98825,16.2025664 C45.2557109,15.1626836 44.4996563,14.1465898 43.7433281,13.1304961 C43.1291875,12.3033477 42.5147734,11.4999883 41.9003594,10.6728398 C41.215125,9.72783984 40.5534062,8.78256641 39.8443828,7.83729297 C38.9937188,6.70307422 38.1195391,5.56885547 37.2450859,4.43463672 C36.8434063,3.91455859 36.3944219,3.41854297 35.9454375,2.87494922 C36.2525078,2.92225391 36.5360625,2.96955859 36.8198906,2.99307422 L37.9541094,3.06389453 C38.8047734,3.13498828 39.6554375,3.18201953 40.5061016,3.30014453 C41.215125,3.39475391 41.923875,3.53666797 42.6564141,3.65479297 C44.2161016,3.91455859 45.752,4.34002734 47.2408672,4.83631641 C48.1150469,5.11987109 48.9657109,5.49803516 49.816375,5.85241016 C51.7304375,6.63225391 53.5501641,7.57725391 55.3458281,8.56983203 C55.9132109,8.87690234 56.2437969,9.37319141 56.6692656,9.82217578 C57.2836797,10.4603789 57.8980938,11.0983086 58.4887188,11.7600273 C59.1739531,12.5398711 59.8121563,13.3432305 60.4736016,14.1465898 C61.0645,14.8556133 61.6789141,15.5643633 62.2695391,16.2733867 C62.4587578,16.4861211 62.6003984,16.7458867 62.7658281,16.9821367 C63.1439922,17.5492461 63.5691875,18.0928398 63.9000469,18.7072539 C64.1365703,19.1562383 64.2782109,19.676043 64.4436406,20.172332 C64.6798906,20.9048711 64.9161406,21.6138945 65.1526641,22.3464336 C65.3178203,22.8897539 65.4597344,23.4568633 65.5778594,24.0239727 C65.6724688,24.4021367 65.6486797,24.8038164 65.7668047,25.1819805 C65.9087187,25.6782695 65.7668047,26.2215898 65.9087187,26.7178789 C65.9322344,26.7651836 65.9560234,26.8360039 65.9795391,26.8833086 C66.0741484,26.977918 66.1449688,27.0722539 66.0033281,27.214168 C65.9795391,27.2376836 65.9795391,27.332293 66.0033281,27.4031133 C66.0503594,27.356082 66.0741484,27.3087773 66.1214531,27.2376836 C66.1214531,27.2849883 66.1449688,27.3087773 66.1449688,27.332293 C66.1449688,27.4269023 66.1214531,27.5212383 66.1449688,27.6158477 C66.1449688,27.6631523 66.1922734,27.7339727 66.2157891,27.7812773 C66.2630937,27.7339727 66.3103984,27.710457 66.4050078,27.6396367 C66.6174688,28.4429961 66.6412578,29.2463555 66.6412578,30.0735039 C66.6412578,30.8533477 66.7828984,31.632918 66.4523125,32.3892461 C66.5231328,32.129207 66.3577031,31.892957 66.4285234,31.656707 M65.6251641,42.0776836 L65.6251641,41.9122539 C65.6251641,41.9595586 65.6486797,42.0303789 65.6251641,42.0776836 M64.420125,47.9853008 C64.3963359,48.0326055 64.3490313,48.0796367 64.3255156,48.1269414 C64.3017266,48.0796367 64.3017266,48.0088164 64.2782109,47.9144805 C64.1362969,48.2923711 63.8292266,48.1034258 63.6164922,48.1034258 C62.3406328,48.1269414 61.0409844,48.1269414 59.7648516,48.1269414 C58.5360234,48.1269414 57.2836797,48.1269414 56.0548516,48.1507305 C55.6531719,48.1507305 55.2277031,48.2450664 54.8260234,48.2688555 C53.8572344,48.3161602 52.8884453,48.3396758 51.9196563,48.3631914 C51.8485625,48.3631914 51.7777422,48.2450664 51.6596172,48.1507305 C51.6361016,48.1980352 51.5887969,48.2688555 51.5177031,48.3631914 C51.4941875,48.3161602 51.4468828,48.2688555 51.3995781,48.1980352 C51.3760625,48.2688555 51.3522734,48.3396758 51.3287578,48.3869805 L51.2579375,48.3869805 C51.2106328,48.0561211 51.1160234,47.7490508 51.1160234,47.4181914 C51.1160234,46.709168 51.1868438,46.000418 51.2106328,45.2913945 C51.2341484,44.9605352 51.2106328,44.6534648 51.2106328,44.3461211 C51.3052422,44.4172148 51.3760625,44.4642461 51.4706719,44.5353398 C51.5177031,44.4407305 51.5650078,44.3699102 51.6123125,44.2988164 C51.6123125,44.2988164 51.5650078,44.2753008 51.5177031,44.2279961 C51.5650078,44.2044805 51.6123125,44.1571758 51.6123125,44.1336602 C51.6361016,44.0625664 51.6831328,43.9917461 51.6831328,43.9444414 C51.6831328,43.7790117 51.6361016,43.6373711 51.6123125,43.495457 C51.6361016,43.495457 51.6596172,43.495457 51.6831328,43.4719414 L51.8250469,44.1806914 L51.8958672,44.1806914 C51.8015313,44.0152617 52.1086016,43.8736211 51.8485625,43.6844023 C51.8250469,43.6608867 51.8723516,43.5189727 51.8723516,43.4481523 C51.8015313,43.3065117 51.7542266,43.1645977 51.6831328,42.9756523 C51.7069219,42.9521367 51.7777422,42.9283477 51.8485625,42.904832 C51.7542266,42.8575273 51.6831328,42.8102227 51.6123125,42.7864336 C51.8485625,42.5739727 51.8485625,42.4558477 51.6361016,42.2193242 C51.6831328,42.1958086 51.7304375,42.1958086 51.7304375,42.172293 C51.7304375,41.9595586 51.7304375,41.7468242 51.6831328,41.5340898 C51.6361016,41.2978398 51.7542266,41.0142852 51.3995781,40.8726445 C51.4233672,40.9434648 51.4468828,40.9907695 51.4941875,41.0615898 C51.4941875,41.0615898 51.4233672,41.0851055 51.3522734,41.1324102 C51.0452031,40.8488555 51.2341484,40.4706914 51.1633281,40.0454961 C51.3287578,40.0928008 51.4468828,40.1401055 51.5650078,40.1871367 C51.5177031,40.0219805 51.3995781,39.8327617 51.3287578,39.6200273 L51.2341484,39.6200273 L51.2341484,38.0606133 C51.2341484,38.0841289 51.3995781,38.0841289 51.4941875,38.1076445 C51.4941875,38.0841289 51.5177031,38.0606133 51.5177031,38.0368242 C51.4468828,37.9422148 51.3522734,37.8478789 51.2579375,37.7297539 L51.3052422,37.6824492 C51.1160234,37.4461992 51.2106328,37.1153398 51.2106328,37.0445195 L51.2106328,35.3902227 C51.4468828,35.6264727 51.0925078,35.9338164 51.4468828,36.075457 L51.4468828,35.839207 L51.4233672,35.839207 C51.3995781,35.484832 51.3995781,35.130457 51.3760625,34.7758086 L51.3287578,34.7758086 C51.3052422,34.8231133 51.3052422,34.8469023 51.2814531,34.8939336 L51.2341484,34.8939336 C51.2814531,33.0271758 51.3287578,31.160418 51.3760625,29.2463555 C51.6123125,29.5536992 51.8723516,29.8372539 52.0377813,30.1443242 C52.5811016,31.1369023 53.290125,31.9875664 53.9518438,32.8855352 C54.5189531,33.6653789 55.0387578,34.516043 55.5585625,35.3194023 C56.1964922,36.2881914 56.8109063,37.2569805 57.4491094,38.226043 C57.9216094,38.958582 58.4178984,39.6911211 58.9141875,40.3998711 C59.3631719,41.0378008 59.8356719,41.6522148 60.3084453,42.2666289 C60.710125,42.8102227 61.1353203,43.3538164 61.537,43.8971367 C62.0097734,44.5588555 62.4822734,45.2205742 62.9550469,45.8585039 C63.1912969,46.1893633 63.4510625,46.5202227 63.7111016,46.851082 C63.8527422,47.0400273 64.0654766,47.1819414 64.2073906,47.3000664 C64.1836016,47.3000664 64.1600859,47.3000664 64.1127813,47.2762773 C64.1836016,47.3708867 64.2309063,47.441707 64.2782109,47.4890117 C64.53825,47.6306523 64.5617656,47.7725664 64.420125,47.9853008 M40.4587969,48.6940508 C41.5221953,48.2450664 42.3966484,47.6071367 43.2000078,46.8745977 C43.3181328,46.7564727 43.4362578,46.6383477 43.5781719,46.5437383 C44.5704766,45.9293242 45.3030156,45.0786602 45.9647344,44.1333867 C46.7207891,43.0464727 47.2170781,41.8176445 47.8314922,40.6599102 C47.8787969,40.5653008 47.9261016,40.4706914 47.9734063,40.3998711 C47.9261016,43.0937773 48.2331719,45.7403789 48.5875469,48.4104961 C45.9174297,48.5051055 43.2000078,48.5997148 40.4587969,48.6940508 M25.7607109,45.4568242 L25.7371953,45.4803398 C25.6898906,45.4568242 25.6190703,45.4330352 25.5717656,45.3860039 L25.0046563,44.5353398 C24.9573516,44.4642461 24.9338359,44.3934258 24.9573516,44.2988164 C25.2171172,44.7004961 25.4771563,45.0786602 25.7607109,45.4568242 M38.3557891,46.709168 C37.5994609,46.8981133 36.8198906,47.1108477 36.0400469,47.205457 C35.3783281,47.3000664 34.6930938,47.2762773 34.0078594,47.2762773 C33.3934453,47.2762773 32.8025469,47.2527617 32.1881328,47.205457 C31.5028984,47.1346367 30.8176641,47.063543 30.1559453,46.7564727 C29.5888359,46.4964336 28.9982109,46.2601836 28.4311016,45.9766289 C27.8639922,45.6930742 27.2966094,45.3622148 26.8714141,44.8424102 C26.5640703,44.4642461 26.138875,44.1571758 25.7607109,43.8263164 C25.8315313,44.1098711 25.9969609,44.3461211 26.257,44.5115508 C26.138875,44.6534648 25.9734453,44.5823711 25.7371953,44.2044805 C25.666375,44.2515117 25.5952812,44.2753008 25.5479766,44.2988164 C25.6190703,44.1333867 25.6898906,43.9682305 25.7607109,43.8263164 C25.666375,43.6373711 25.5479766,43.4246367 25.4536406,43.2356914 C25.2644219,42.9283477 25.0754766,42.5974883 24.9100469,42.290418 C24.8627422,42.2193242 24.8627422,42.1485039 24.8154375,42.0776836 C24.6973125,41.9357695 24.5791875,41.7941289 24.4848516,41.6522148 C24.2956328,41.3686602 24.1302031,41.0615898 23.8939531,40.7780352 C23.8939531,40.8488555 23.9174688,40.9196758 23.9174688,41.0142852 C23.8939531,41.0142852 23.8704375,41.0378008 23.8704375,41.0378008 L23.3741484,39.8327617 C23.3503594,39.8327617 23.3503594,39.8327617 23.3268438,39.8565508 L23.7523125,41.4159648 C23.7285234,41.4159648 23.7050078,41.4397539 23.6812187,41.4397539 C23.6103984,41.3451445 23.5395781,41.2505352 23.4922734,41.1324102 C23.4449687,40.9434648 23.3033281,40.9434648 23.1849297,41.0142852 C23.1141094,41.0615898 23.0668047,41.2270195 23.0905938,41.2978398 C23.2560234,41.6995195 23.4449687,42.1011992 23.6339141,42.5031523 C23.6812187,42.644793 23.7285234,42.762918 23.7993437,42.904832 C23.8231328,42.9521367 23.8939531,42.999168 23.8939531,43.0702617 C23.9885625,43.259207 24.0593828,43.4481523 24.1775078,43.613582 C24.3902422,43.8971367 24.6264922,44.1806914 24.8392266,44.4642461 C25.0519609,44.7478008 25.2409063,45.0551445 25.4298516,45.3386992 C25.4536406,45.3860039 25.5244609,45.3860039 25.5479766,45.4095195 C25.666375,45.7638945 26.0680547,46.0239336 26.3516094,45.882293 C26.4224297,46.4256133 27.0130547,46.614832 27.2495781,47.1346367 C26.9660234,47.0165117 26.7532891,46.9219023 26.5640703,46.827293 C26.5405547,46.851082 26.5405547,46.8745977 26.5170391,46.9219023 C26.8005937,47.063543 27.0841484,47.205457 27.3439141,47.3708867 C27.5801641,47.5125273 27.8166875,47.6544414 28.0291484,47.8198711 C28.3129766,48.0796367 28.6435625,48.2215508 29.0455156,48.3161602 C29.0217266,48.2450664 28.9982109,48.2215508 28.9982109,48.2215508 C29.6596563,48.5288945 30.3451641,48.8594805 30.8649687,49.1195195 C28.4073125,49.1668242 25.7845,49.2141289 23.0668047,49.2611602 C23.0668047,48.8121758 23.0432891,48.3869805 23.0432891,47.9379961 C23.0432891,47.7490508 23.0905938,47.5836211 23.0668047,47.3944023 C22.9959844,46.3074883 22.9959844,45.2205742 22.8543437,44.1571758 C22.7124297,43.022957 22.7124297,41.9122539 22.7362187,40.7780352 C22.7597344,40.1636211 22.7124297,39.5256914 22.6889141,38.9112773 C22.6889141,38.0841289 22.6889141,37.2807695 22.7124297,36.4536211 C22.7124297,36.3354961 22.7597344,36.2408867 22.8070391,36.1227617 L22.8778594,36.1227617 C22.901375,36.1700664 22.8778594,36.2408867 22.9251641,36.2646758 C22.9959844,36.3354961 23.1141094,36.4536211 23.1614141,36.4301055 C23.3033281,36.3354961 23.5157891,36.2408867 23.5630937,36.0992461 C23.6812187,35.8156914 23.7285234,35.5083477 23.7285234,35.224793 C23.7285234,35.012332 23.8231328,34.870418 23.9174688,34.7285039 C23.9647734,34.6576836 23.9885625,34.5868633 24.0358672,34.4922539 C23.9412578,34.4214336 23.8466484,34.3741289 23.7285234,34.279793 C23.8231328,34.0197539 23.7993437,33.7124102 24.1539922,33.5707695 C24.2012969,33.5469805 24.2012969,33.4288555 24.2248125,33.3580352 C24.2483281,33.1690898 24.2721172,32.9563555 24.2956328,32.7674102 C24.3429375,32.8382305 24.3664531,32.8617461 24.4137578,32.9090508 C24.4375469,32.8617461 24.4610625,32.8382305 24.4610625,32.8382305 C24.4610625,32.7436211 24.4375469,32.5546758 24.4610625,32.5546758 C24.7446172,32.5073711 24.6264922,32.2003008 24.7684062,32.0583867 C24.7919219,32.0348711 24.7446172,31.9637773 24.7446172,31.9167461 C24.7446172,31.8694414 24.7446172,31.7983477 24.7684062,31.7983477 C25.0989922,31.7275273 25.0519609,31.3731523 25.2644219,31.2077227 C25.3355156,31.160418 25.3590312,31.0895977 25.4536406,30.9714727 C25.6425859,31.302332 25.3117266,31.4677617 25.2882109,31.7040117 C25.6898906,31.4677617 25.8080156,30.9006523 25.5717656,30.7352227 C25.666375,30.6641289 25.7607109,30.569793 25.8315313,30.4751836 C26.0915703,30.1916289 26.375125,29.9315898 26.611375,29.6480352 C26.7768047,29.4353008 26.8714141,29.1755352 27.0368437,28.9628008 C27.1314531,28.8446758 27.3203984,28.7500664 27.4620391,28.6792461 C27.8875078,28.4429961 28.2891875,28.182957 28.5492266,27.7812773 C28.5965312,27.7339727 28.6673516,27.686668 28.7381719,27.6396367 C28.8089922,27.592332 28.9509062,27.592332 28.9744219,27.5212383 C28.9982109,27.474207 28.9271172,27.356082 28.8798125,27.2849883 C28.9744219,27.2376836 29.0690313,27.1433477 29.2579766,27.0487383 C29.1871562,27.1906523 29.1636406,27.2849883 29.1163359,27.3795977 L29.2344609,27.4977227 C29.4471953,27.332293 29.7780547,27.1433477 29.9905156,27.0014336 C29.9905156,26.977918 29.8723906,26.8833086 29.8723906,26.8833086 C29.73075,26.9544023 29.5180156,27.0725273 29.3052812,27.1668633 C29.3525859,27.096043 29.3525859,27.0487383 29.3761016,27.0252227 C29.7069609,26.8124883 30.0378203,26.5997539 30.3921953,26.4343242 C31.2193437,26.0561602 32.0464922,25.6782695 32.8733672,25.3236211 C33.0152813,25.2528008 33.2042266,25.3001055 33.3696563,25.3001055 C33.4404766,25.3001055 33.4877813,25.3001055 33.558875,25.2765898 C33.9367656,25.1584648 34.3149297,25.0403398 34.6930938,24.9457305 C34.8585234,24.8984258 35.0474688,24.8749102 35.2128984,24.8749102 C35.9219219,24.8984258 36.6306719,24.8984258 37.3396953,24.9457305 C37.6467656,24.9692461 37.9303203,25.0403398 38.213875,25.1346758 C38.5685234,25.2528008 38.9464141,25.4182305 39.2772734,25.5836602 C39.6789531,25.7963945 40.0571172,26.0326445 40.4352812,26.2926836 C41.1205156,26.741668 41.7584453,27.2376836 42.4436797,27.6396367 C43.1053984,28.0413164 43.6252031,28.5846367 44.0506719,29.1990508 C44.5704766,29.9315898 45.161375,30.5933086 45.397625,31.4912773 L45.752,33.0509648 C45.8228203,33.3345195 45.98825,33.6180742 45.9174297,33.9489336 C45.7993047,34.5395586 45.7046953,35.1539727 45.6103594,35.7448711 C45.5630547,35.9811211 45.51575,36.2173711 45.5392656,36.4536211 C45.5865703,37.1861602 45.3030156,37.8240898 45.0194609,38.4858086 C44.9248516,38.698543 44.7832109,38.9112773 44.6650859,39.1475273 C44.6886016,39.171043 44.8305156,39.2421367 44.8540312,39.2421367 L45.0667656,38.816668 C45.0902812,38.816668 45.0902812,38.816668 45.1140703,38.840457 C44.9959453,39.171043 44.9013359,39.5256914 44.7832109,39.8565508 C44.4996563,40.5890898 44.2161016,41.3451445 43.8617266,42.054168 C43.6725078,42.4558477 43.3416484,42.786707 43.1053984,43.1645977 C42.8691484,43.495457 42.6802031,43.849832 42.4436797,44.1571758 C42.2312188,44.4172148 42.0184844,44.6769805 41.7349297,44.8661992 C41.0967266,45.3386992 40.4352812,45.8111992 39.7500469,46.1893633 C39.3245781,46.4494023 38.8282891,46.591043 38.3557891,46.709168 M22.9251641,23.9769414 C24.0358672,23.9296367 25.0989922,23.858543 26.1861797,23.8115117 C27.0368437,23.764207 27.9110234,23.740418 28.7616875,23.6933867 C29.1163359,23.6695977 29.4471953,23.646082 29.8015703,23.6933867 C29.4234063,23.882332 29.0455156,24.0712773 28.7146562,24.3078008 C28.2891875,24.591082 27.8875078,24.9692461 27.4620391,25.2765898 C27.0368437,25.5836602 26.6586797,25.9618242 26.3043047,26.3635039 C25.8553203,26.9070977 25.3590313,27.3795977 24.8865312,27.8994023 C24.5556719,28.2775664 24.1775078,28.6319414 23.8939531,29.0336211 C23.4922734,29.5536992 23.1378984,30.1208086 22.7597344,30.7114336 C22.8778594,28.4665117 23.0197734,26.2453789 22.9251641,23.9769414 M48.3512969,31.892957 L48.3512969,32.1056914 C48.3277813,32.1056914 48.3039922,32.129207 48.2566875,32.129207 C48.1623516,31.7983477 48.0677422,31.4439727 47.9496172,31.1131133 C47.7133672,30.4278789 47.4533281,29.7426445 47.0281328,29.1282305 C46.5553594,28.4665117 46.1301641,27.7812773 45.6573906,27.096043 C45.5392656,26.9306133 45.3738359,26.7886992 45.2321953,26.6470586 C44.7359063,26.1034648 44.2396172,25.5363555 43.6016875,25.1346758 C42.6564141,24.5440508 41.687625,24.0477617 40.6477422,23.622293 C40.3641875,23.504168 40.1044219,23.3625273 39.8208672,23.1970977 L40.3879766,23.1970977 L44.4288359,23.1262773 C45.3030156,23.1024883 46.1536797,23.1024883 47.0281328,23.0551836 C47.2408672,23.0551836 47.3589922,23.1262773 47.4771172,23.3152227 C47.6898516,23.6695977 47.9023125,24.0239727 48.1385625,24.3786211 C48.1623516,24.4256523 48.2096563,24.4967461 48.2096563,24.5675664 C48.2096563,25.0873711 48.2096563,25.6309648 48.2331719,26.1507695 C48.2569609,26.6943633 48.3039922,27.214168 48.3277813,27.7577617 C48.3277813,28.301082 48.2804766,28.8681914 48.3039922,29.4353008 C48.3277813,30.2389336 48.3512969,31.0658086 48.3512969,31.892957 M21.2473516,21.0229961 C22.0036797,19.9833867 22.78325,18.9435039 23.5395781,17.8801055 C23.7758281,17.5730352 23.9647734,17.2421758 24.2012969,16.9351055 C24.2721172,16.8404961 24.3664531,16.7931914 24.4848516,16.698582 L24.4610625,16.6515508 C24.5556719,16.5331523 24.6500078,16.4388164 24.6973125,16.344207 C24.8154375,16.1552617 24.8865313,15.9425273 24.9808672,15.729793 C25.0046563,15.6824883 25.0754766,15.635457 25.0754766,15.635457 C25.4063359,15.8006133 25.4063359,15.4462383 25.5244609,15.3281133 C25.7371953,15.0918633 25.9499297,14.8318242 26.138875,14.5955742 C26.2805156,14.4066289 26.4224297,14.2411992 26.5405547,14.0284648 C26.5640703,13.9576445 26.49325,13.8395195 26.4697344,13.7449102 L26.3989141,13.7449102 C26.4697344,13.6976055 26.5405547,13.6267852 26.611375,13.5794805 C26.6351641,13.5794805 26.6351641,13.5794805 26.6586797,13.5559648 C26.8005938,13.3432305 26.9422344,13.1304961 27.0841484,12.9415508 C27.3677031,12.5633867 27.6747734,12.1852227 28.0056328,11.8543633 C27.9583281,11.9724883 27.9110234,12.0908867 27.8639922,12.1852227 C27.8875078,12.1852227 27.8875078,12.2090117 27.9110234,12.2090117 C28.1945781,11.8308477 28.5019219,11.4764727 28.7854766,11.0983086 C28.7616875,11.074793 28.7381719,11.0510039 28.7146563,11.0510039 C28.5965313,11.1691289 28.5019219,11.2872539 28.3837969,11.4053789 C28.3600078,11.3818633 28.3364922,11.3583477 28.3127031,11.3583477 C28.5492266,11.0510039 28.7854766,10.7439336 29.0217266,10.3892852 C29.0690313,10.4603789 29.1163359,10.5547148 29.2106719,10.7439336 C29.3052813,10.5074102 29.3998906,10.3419805 29.4707109,10.1768242 C29.3998906,10.2476445 29.3052813,10.3184648 29.2344609,10.3892852 L29.1633672,10.3184648 L29.5888359,9.68053516 C30.0378203,9.04233203 30.4868047,8.38088672 30.9357891,7.74268359 C31.1012188,7.50643359 31.3139531,7.31748828 31.4555938,7.08123828 C31.9045781,6.18326953 32.6136016,5.47424609 33.1569219,4.64709766 C33.2753203,4.48194141 33.4404766,4.34002734 33.5823906,4.19811328 C33.7005156,4.05647266 33.795125,4.10377734 33.8897344,4.22190234 C34.5276641,5.02526172 35.1655938,5.85241016 35.8035234,6.65576953 C36.2762969,7.24666797 36.7487969,7.81377734 37.1977812,8.42791797 C37.741375,9.18424609 38.2611797,9.94030078 38.8047734,10.6966289 C39.4191875,11.5708086 40.0336016,12.4452617 40.6242266,13.3432305 C41.5221953,14.6663945 42.3728594,15.989832 43.2708281,17.3129961 C43.9325469,18.2820586 44.5942656,19.2270586 45.2321953,20.1961211 L44.0268828,20.1961211 C42.9164531,20.172332 41.7822344,20.0777227 40.6715313,20.1250273 C39.1591484,20.1961211 37.62325,20.3612773 36.1108672,20.4794023 C34.1968047,20.644832 32.2589531,20.6686211 30.3451641,20.6686211 C29.6596563,20.6686211 28.9744219,20.762957 28.2891875,20.8102617 C27.4620391,20.8575664 26.6586797,20.9048711 25.8315313,20.9286602 C24.8627422,20.9756914 23.9174688,20.9994805 22.9486797,21.0229961 C22.4053594,21.0467852 21.8379766,21.0229961 21.2473516,21.0229961 M41.8292656,68.7326445 C42.3728594,68.6618242 42.8691484,68.6145195 43.3889531,68.5436992 C42.3020391,68.8507695 41.9476641,68.8980742 41.8292656,68.7326445 M41.4748906,68.9688945 C41.1440313,69.0399883 40.7896563,69.0870195 40.4587969,69.1343242 C40.3406719,69.1581133 40.1990313,69.2762383 40.1517266,69.0635039 C40.1044219,69.0870195 40.0571172,69.0870195 40.0098125,69.1108086 C40.1279375,69.4651836 40.4114922,69.1816289 40.6477422,69.323543 C40.1279375,69.3943633 39.6316484,69.441668 39.1356328,69.5124883 L39.1356328,69.4651836 C39.2772734,69.441668 39.4427031,69.4178789 39.5846172,69.3943633 L39.5846172,69.323543 C39.3480938,69.2997539 39.1118438,69.2762383 38.8755938,69.2762383 C38.8047734,69.2762383 38.7101641,69.3708477 38.6393438,69.3943633 C38.5447344,69.4178789 38.450125,69.441668 38.332,69.441668 C37.9303203,69.4651836 37.5286406,69.4651836 37.1504766,69.4889727 C37.1269609,69.4889727 37.0796563,69.4651836 37.0561406,69.4651836 L37.0561406,69.3943633 C38.6393438,69.1816289 40.1990313,68.9688945 41.7822344,68.7564336 C41.80575,68.8034648 41.80575,68.8507695 41.8292656,68.8980742 C41.687625,68.8980742 41.5930156,68.9453789 41.4748906,68.9688945 M35.5199687,69.5833086 L35.5199687,69.5124883 C35.9689531,69.4651836 36.3944219,69.4178789 36.8434063,69.3708477 L36.8434063,69.441668 C36.3944219,69.5124883 35.9689531,69.559793 35.5199687,69.5833086 M10.9445,59.8240508 C11.0153203,59.8005352 11.0864141,59.8005352 11.1572344,59.7767461 C11.2280547,59.8948711 11.2753594,60.0367852 11.3461797,60.1784258 C11.0153203,60.1549102 10.8498906,60.0129961 10.9445,59.8240508 M10.5663359,59.6113164 C10.4011797,59.4223711 10.2592656,59.2096367 10.0938359,59.0206914 L10.1646562,58.9495977 C10.4246953,59.2334258 10.6847344,59.516707 10.9445,59.8240508 C10.8028594,59.7532305 10.6374297,59.7059258 10.5663359,59.6113164 M69.9730938,33.2399102 C69.9495781,32.3419414 69.9022734,31.420457 69.8549687,30.5224883 C69.8076641,29.6007305 69.7841484,28.6792461 69.6895391,27.7577617 C69.5241094,26.5051445 69.3586797,25.2292852 69.075125,24.000457 C68.8623906,22.9843633 68.5080156,22.0155742 68.1536406,21.0467852 C67.7046562,19.912293 67.2556719,18.7545586 66.6885625,17.6676445 C65.7668047,15.9190117 64.5617656,14.3593242 63.4510625,12.7288164 C62.7185234,11.6889336 61.7735234,10.8382695 61.0645,9.77514453 C60.6628203,9.16073047 60.0719219,8.64065234 59.4812969,8.16815234 C58.5360234,7.41209766 57.5434453,6.72658984 56.5511406,6.06514453 C55.7948125,5.54506641 55.0387578,5.04905078 54.2353984,4.60006641 C53.5971953,4.24541797 52.9119609,3.96186328 52.2502422,3.65479297 C51.4941875,3.30014453 50.7616484,2.87494922 49.9109844,2.70951953 C49.69825,2.66221484 49.5093047,2.59139453 49.2965703,2.52057422 C48.7529766,2.33135547 48.2331719,2.11889453 47.6895781,1.95346484 C46.8627031,1.69342578 46.0593438,1.38608203 45.2084063,1.17362109 C44.3815312,0.960886719 43.5308672,0.818972656 42.6802031,0.700847656 C41.7349297,0.559207031 40.7661406,0.511902344 39.8208672,0.417292969 C39.2064531,0.346472656 38.5920391,0.275652344 38.0011406,0.251863281 C37.1034453,0.204832031 36.1816875,0.204832031 35.2837188,0.181042969 C34.8347344,0.157527344 34.3622344,0.110222656 33.91325,0.133738281 C33.2280156,0.157527344 32.5427813,0.228347656 31.8572734,0.322957031 C31.1958281,0.393777344 30.5341094,0.511902344 29.8959063,0.606511719 C29.1163359,0.700847656 28.3364922,0.748152344 27.5566484,0.842761719 C26.8241094,0.937371094 26.0680547,1.07901172 25.3355156,1.19713672 C25.0754766,1.24444141 24.8154375,1.33905078 24.5556719,1.38608203 C23.9885625,1.50448047 23.3976641,1.55178516 22.8305547,1.74073047 C21.8144609,2.04780078 20.7983672,2.40244922 19.8057891,2.78033984 C18.8843047,3.15850391 17.9863359,3.56018359 17.1121563,4.03295703 C16.2141875,4.52897266 15.3635234,5.11987109 14.5125859,5.68698047 C13.7092266,6.23030078 12.9058672,6.79768359 12.1260234,7.41209766 C11.3699688,8.00272266 10.6609453,8.66444141 9.97571094,9.32616016 C9.59754688,9.70405078 9.29047656,10.1530352 8.93582812,10.5785039 C8.34520313,11.2637383 7.75430469,11.925457 7.18719531,12.634207 C6.71469531,13.2251055 6.28922656,13.8395195 5.84051563,14.4539336 C5.03688281,15.5408477 4.35164844,16.698582 3.71371875,17.8565898 C3.45367969,18.3290898 3.21742969,18.8018633 2.98117969,19.2743633 C2.62653125,19.9833867 2.24864063,20.6686211 1.91778125,21.4011602 C1.68153125,21.8974492 1.4923125,22.4407695 1.35067188,22.9843633 C1.0198125,24.1420977 0.688953125,25.3236211 0.381882813,26.4816289 C0.098328125,27.5212383 0.027234375,28.6084258 0.00371875,29.6718242 C-0.0200703125,30.6168242 0.0745390625,31.538582 0.169148438,32.4838555 C0.192664062,32.7201055 0.0510234375,33.0036602 0.334578125,33.1926055 C0.35809375,33.1926055 0.334578125,33.2872148 0.310789063,33.3107305 C0.23996875,33.4526445 0.310789063,33.5942852 0.452703125,33.6415898 C0.452703125,33.6415898 0.47621875,33.6653789 0.47621875,33.6888945 L0.35809375,33.6888945 C0.287273438,33.9016289 0.523523438,34.0670586 0.428914063,34.3033086 C0.405398437,34.3506133 0.500007812,34.4449492 0.547039062,34.516043 C0.547039062,34.5868633 0.523523438,34.6814727 0.547039062,34.752293 C0.570828125,34.9650273 0.6654375,35.1774883 0.6654375,35.4140117 C0.6654375,35.5794414 0.807078125,35.7683867 0.854382813,35.9338164 C0.877898437,36.0046367 0.854382813,36.1227617 0.807078125,36.1700664 C0.6654375,36.3354961 0.688953125,36.4774102 0.9016875,36.5717461 C0.948992187,36.5955352 1.0198125,36.6898711 1.0198125,36.7371758 C1.0198125,36.8790898 0.972507813,37.0207305 0.948992187,37.1626445 C0.996023438,37.2099492 1.0198125,37.2569805 0.996023438,37.3042852 C0.996023438,37.3751055 0.925203125,37.4461992 0.948992187,37.4935039 C1.1379375,37.8713945 1.20875781,38.2968633 1.23254687,38.7220586 C1.23254687,38.816668 1.27985156,38.9112773 1.32688281,39.0294023 C1.35067188,39.0294023 1.42149219,39.0294023 1.46879688,39.052918 L1.32688281,39.4783867 C1.44500781,39.407293 1.53961719,39.3837773 1.65774219,39.3364727 C1.7285625,39.6438164 1.79965625,39.9273711 1.89399219,40.1871367 C1.91778125,40.2344414 1.96508594,40.2817461 2.03590625,40.3290508 C2.01211719,40.3763555 2.01211719,40.4706914 1.96508594,40.4944805 C2.05942187,40.9196758 2.10672656,41.3216289 2.27215625,41.7233086 C2.29594531,41.7233086 2.31946094,41.6995195 2.34297656,41.6995195 C2.27215625,41.2743242 2.22485156,40.8253398 2.15403125,40.3998711 L2.15403125,40.2582305 C2.15403125,40.2582305 2.20133594,40.2344414 2.22485156,40.2344414 C2.24864063,40.3290508 2.29594531,40.4471758 2.29594531,40.5179961 C2.48489063,40.5179961 2.76844531,40.6361211 2.95739062,40.6361211 C2.98117969,40.5653008 3.00469531,40.4706914 3.02848438,40.4236602 C2.88657031,40.2817461 2.76844531,40.0690117 2.62653125,39.9273711 C2.67383594,40.1163164 2.62653125,40.1871367 2.62653125,40.2582305 C2.53219531,40.2109258 2.41407031,40.1636211 2.29594531,40.1163164 C2.39028125,39.9981914 2.48489063,39.8800664 2.62653125,39.7381523 C2.62653125,39.5256914 2.50840625,39.3364727 2.17754688,39.3602617 C2.31946094,39.312957 2.461375,39.2421367 2.62653125,39.194832 C2.65032031,39.2656523 2.67383594,39.3364727 2.697625,39.3837773 C2.88657031,39.052918 2.60301562,38.7931523 2.60301562,38.462293 C2.62653125,38.0606133 2.39028125,37.6589336 2.31946094,37.2334648 C2.20133594,36.5717461 2.22485156,35.5794414 2.15403125,34.9177227 C2.15403125,34.870418 2.08321094,34.8231133 2.03590625,34.7758086 C2.01211719,34.7995977 1.89399219,35.106668 1.87047656,35.130457 C1.94129688,35.6975664 2.01211719,36.2646758 2.05942187,36.8317852 C2.03590625,36.8317852 2.01211719,36.8317852 2.01211719,36.8553008 C1.91778125,36.3590117 1.82317187,35.839207 1.70504688,35.2720977 C1.68153125,35.4375273 1.65774219,35.5083477 1.65774219,35.602957 C1.58692188,35.5794414 1.56340625,35.5556523 1.44500781,35.5083477 C1.53961719,35.721082 1.63422656,35.8629961 1.70504688,36.0284258 C1.53961719,35.957332 1.35067188,35.9811211 1.35067188,35.9811211 L1.35067188,36.6425664 C1.11442188,36.4063164 1.04332812,36.2173711 0.925203125,36.0519414 C0.877898437,35.8629961 0.854382813,35.6737773 0.807078125,35.484832 L0.877898437,35.461043 C0.854382813,35.366707 0.807078125,35.2956133 0.807078125,35.224793 C0.7835625,35.0593633 0.759773438,34.870418 0.736257812,34.6576836 C0.759773438,34.634168 0.854382813,34.6103789 0.9016875,34.5633477 L0.71246875,34.279793 C0.9016875,34.3033086 1.0198125,34.3268242 1.1379375,34.3268242 C1.1379375,34.279793 1.16145313,34.2560039 1.1379375,34.2324883 C0.9016875,34.0197539 1.06711719,33.8305352 1.16145313,33.6415898 C1.20875781,33.5469805 1.3741875,33.5234648 1.42149219,33.4288555 C1.6104375,33.0744805 1.91778125,32.7909258 1.91778125,32.3419414 C1.91778125,32.129207 1.98860156,31.892957 2.01211719,31.6802227 C2.05942187,31.278543 2.10672656,30.8768633 2.13051563,30.4751836 C2.17754688,29.9553789 2.13051563,29.4353008 2.24864063,28.9392852 C2.43758594,28.1121367 2.67383594,27.2849883 2.933875,26.4581133 C3.12282031,25.8672148 3.33555469,25.3001055 3.57180469,24.7094805 C3.92645313,23.7877227 4.25703906,22.8662383 4.70602344,21.9917852 C5.34422656,20.7159258 6.07676563,19.4870977 6.78551563,18.2347539 C7.2345,17.4549102 7.70727344,16.7223711 8.20328906,15.966043 C8.6760625,15.2335039 9.1485625,14.4774492 9.69215625,13.7922148 C10.4482109,12.8234258 11.2753594,11.925457 12.1968438,11.1218242 C13.1421172,10.2711602 14.0400859,9.39698047 15.0561797,8.61713672 C16.3796172,7.60104297 17.7736016,6.70307422 19.2624688,5.92323047 C20.4675078,5.28530078 21.7198516,4.78901172 22.9724688,4.31623828 C23.7758281,4.00916797 24.6500078,3.86752734 25.4771563,3.60748828 C26.4224297,3.30014453 27.3677031,3.15850391 28.3600078,3.13471484 C28.9982109,3.11119922 29.612625,3.04037891 30.2505547,2.96955859 C30.8176641,2.92225391 31.3847734,2.87494922 31.9991875,2.80412891 C31.9283672,2.89846484 31.9045781,2.94576953 31.8810625,2.99307422 C31.6210234,3.37123828 31.3374688,3.74912891 31.0777031,4.12729297 C30.8649688,4.43463672 30.6287188,4.76522266 30.4159844,5.07256641 C30.0378203,5.56885547 29.6361406,6.06514453 29.2817656,6.58494922 C28.7381719,7.36479297 28.2418828,8.16815234 27.6747734,8.94799609 C27.1076641,9.70405078 26.49325,10.4130742 25.902625,11.1456133 C25.1227813,12.161707 24.3902422,13.2013164 23.6103984,14.2174102 C22.901375,15.1864727 22.1453203,16.107957 21.4600859,17.0767461 C20.8456719,17.9274102 20.3020781,18.8253789 19.7114531,19.699832 C18.837,20.9994805 17.9628203,22.2753398 17.0883672,23.5749883 C16.4031328,24.5675664 15.7178984,25.5363555 15.008875,26.5289336 C14.9615703,26.5997539 14.89075,26.623543 14.8199297,26.6705742 C14.772625,26.7178789 14.6780156,26.7651836 14.6780156,26.8124883 C14.6309844,26.977918 14.6309844,27.1433477 14.5598906,27.2849883 C14.3709453,27.6396367 14.182,27.9940117 13.9692656,28.3248711 C13.8511406,28.5138164 13.6857109,28.6792461 13.5437969,28.8681914 C13.4964922,28.8446758 13.4729766,28.8211602 13.4256719,28.8211602 C13.5202813,28.5846367 13.9219609,28.4429961 13.7330156,28.0886211 C13.6148906,28.2775664 13.4964922,28.4429961 13.3783672,28.6319414 L13.0948125,29.1990508 C13.1894219,29.2701445 13.3548516,29.3171758 13.1894219,29.4590898 C13.1186016,29.5772148 13.0475078,29.7188555 12.9766875,29.8372539 C13.0004766,29.8372539 13.0004766,29.8607695 13.0239922,29.8607695 C13.0948125,29.7661602 13.1659062,29.6953398 13.2367266,29.6007305 C13.2602422,29.6007305 13.2840313,29.6245195 13.3075469,29.6245195 C13.2367266,29.8607695 13.0948125,30.0735039 12.9766875,30.2862383 C12.8820781,30.4751836 12.6458281,30.6168242 12.4803984,30.7587383 C12.5041875,30.7822539 12.6696172,30.8533477 12.6931328,30.8768633 C12.7639531,30.7822539 12.7877422,30.8295586 12.8585625,30.7352227 C12.9058672,30.806043 12.9766875,30.687918 13.0004766,30.7587383 C13.0712969,30.6641289 13.1421172,30.5933086 13.1659062,30.5224883 C13.2602422,30.2862383 13.4021563,30.0970195 13.6384063,30.0026836 C13.7330156,29.9553789 13.8038359,29.8842852 13.8746563,29.8134648 C14.5836797,29.0809258 15.3162187,28.3721758 15.9541484,27.592332 C16.9467266,26.3870195 17.8446953,25.1346758 18.7896953,23.9058477 C19.1916484,23.386043 19.6641484,22.8662383 20.0893438,22.3699492 C20.1366484,22.3937383 20.1839531,22.3937383 20.2077422,22.4172539 C20.1604375,22.913543 20.1131328,23.4333477 20.0893438,23.9296367 C20.0185234,24.8038164 19.9712188,25.6782695 19.9003984,26.5762383 C19.8768828,26.9306133 19.9003984,27.2849883 19.8768828,27.6396367 C19.8768828,27.7339727 19.8057891,27.804793 19.8057891,27.8994023 C19.8057891,28.1356523 19.8768828,28.3956914 19.8768828,28.6319414 C19.8057891,29.5063945 19.7114531,30.3570586 19.6403594,31.2312383 C19.6168438,31.420457 19.7114531,31.6094023 19.7587578,31.774832 C19.7349688,31.7513164 19.7114531,31.7275273 19.6403594,31.6802227 C19.6403594,33.0509648 19.9003984,34.397918 19.6876641,35.7448711 C19.7822734,35.721082 19.8295781,35.6975664 19.8295781,35.6502617 C19.8530938,35.484832 19.9003984,35.3194023 19.9003984,35.1539727 C19.9241875,35.012332 19.9003984,34.870418 19.9003984,34.7049883 L19.9003984,34.4687383 C19.9241875,34.0432695 20.0185234,33.5942852 19.9712188,33.1690898 C19.9241875,32.6963164 19.9241875,32.247332 20.0185234,31.7983477 C20.0658281,31.6094023 19.9950078,31.3731523 20.1131328,31.1369023 L20.1131328,31.4912773 C20.0893438,32.8382305 20.1366484,34.1851836 19.9477031,35.5321367 C19.9241875,35.6502617 20.0185234,35.8629961 19.7587578,35.839207 C19.7349688,35.839207 19.7114531,35.957332 19.6641484,36.0284258 C19.5460234,36.2646758 19.8057891,36.5717461 19.5695391,36.8079961 C19.5222344,36.8553008 19.6168438,37.0680352 19.6403594,37.2099492 C19.6403594,37.2569805 19.6641484,37.3042852 19.6403594,37.3280742 C19.5460234,37.4935039 19.5460234,37.4935039 19.6876641,37.5170195 C19.7114531,38.0368242 19.7587578,38.5095977 19.7822734,39.0056133 L19.8530938,39.0056133 C20.1604375,38.1076445 19.9712188,37.1861602 20.1366484,36.2646758 C20.1604375,36.6425664 20.1839531,37.0207305 20.1604375,37.4224102 C20.1604375,38.0368242 20.1366484,38.6277227 20.1131328,39.2421367 C20.1131328,39.3602617 20.0893438,39.4783867 20.0658281,39.5965117 C19.9950078,39.9273711 19.9712188,40.2582305 19.8530938,40.5653008 C19.7587578,40.8015508 19.8057891,41.1561992 19.8057891,41.4397539 L19.8057891,42.3374492 C19.8057891,42.3612383 19.8768828,42.4320586 19.8768828,42.526668 C19.9003984,42.7394023 19.7822734,42.9521367 19.8530938,43.1883867 C19.8768828,43.2356914 19.8295781,43.3065117 19.8057891,43.3538164 C19.7822734,43.4246367 19.7587578,43.495457 19.7822734,43.5662773 L19.8530938,43.9209258 C19.8530938,43.9444414 19.8768828,43.9682305 19.9003984,44.0152617 C19.9241875,43.9209258 19.9241875,43.849832 19.9241875,43.8263164 C20.3258672,43.8736211 20.1131328,44.2279961 20.3020781,44.4172148 C20.2077422,44.4642461 20.1366484,44.4880352 20.1366484,44.5115508 C20.1604375,44.6061602 20.2077422,44.6769805 20.2077422,44.7715898 C20.2077422,44.9840508 20.1839531,45.1732695 20.1604375,45.3860039 C20.1604375,45.9293242 20.1366484,46.472918 20.1366484,46.9927227 C20.1366484,47.063543 20.1604375,47.1346367 20.1604375,47.205457 C20.1604375,47.2527617 20.1366484,47.3000664 20.1366484,47.3708867 L20.1366484,47.8671758 L20.2312578,47.8671758 C20.1839531,47.9379961 20.1366484,48.0088164 20.0658281,48.0796367 C20.0423125,48.0796367 19.9712188,48.0796367 19.9712188,48.0561211 L19.9712188,45.0786602 L19.6168438,45.0786602 C19.5695391,46.4964336 19.6876641,47.7725664 19.4278984,49.0957305 C19.1443437,49.1195195 19.0497344,49.1668242 18.7426641,49.1668242 C18.010125,49.1668242 17.2775859,49.1668242 16.5450469,49.1903398 C15.6705938,49.1903398 14.8199297,49.2141289 13.9454766,49.2141289 C13.5202813,49.2141289 13.0712969,49.2611602 12.6458281,49.2611602 C12.0787187,49.2611602 11.4880938,49.1903398 10.9209844,49.1903398 C10.0465313,49.1903398 9.19586719,49.2611602 8.3216875,49.2849492 C7.68348438,49.3084648 7.04555469,49.3084648 6.407625,49.3322539 C5.98215625,49.3557695 5.5566875,49.3795586 5.13149219,49.4265898 C4.94254688,49.4503789 4.77711719,49.5211992 4.54059375,49.5920195 C4.46977344,49.5920195 4.30434375,49.5685039 4.16270313,49.5920195 C3.92645313,49.6393242 3.71371875,49.7812383 3.47746875,49.8282695 C3.12282031,49.8993633 3.02848438,49.9936992 3.07551563,50.3483477 L3.07551563,50.5845977 C3.02848438,50.537293 2.95739062,50.4899883 2.91008594,50.4664727 C2.88657031,50.4664727 2.86305469,50.4899883 2.86305469,50.4899883 C2.88657031,50.5608086 2.933875,50.6081133 2.95739062,50.679207 C3.052,50.6319023 3.170125,50.5137773 3.26473438,50.5137773 L3.59559375,50.5137773 C3.54828906,50.5137773 3.5245,50.655418 3.45367969,50.773543 C3.642625,50.7027227 3.76102344,50.655418 3.87914844,50.6081133 C3.90266406,50.679207 3.90266406,50.773543 3.90266406,50.797332 C4.23352344,50.773543 4.54059375,50.679207 4.82414844,50.7500273 C5.74590625,50.9862773 6.69117969,51.0808867 7.63617969,51.1752227 C8.25059375,51.2225273 8.84149219,51.2463164 9.45590625,51.269832 C10.3300859,51.3171367 11.2045391,51.3644414 12.0787187,51.3644414 C12.8112578,51.3644414 13.5202813,51.2936211 14.2528203,51.2936211 C15.2689141,51.2936211 16.2850078,51.3406523 17.3011016,51.3644414 C17.5138359,51.3644414 17.7500859,51.3406523 17.9863359,51.3406523 L19.7114531,51.3406523 C21.2473516,51.2936211 22.78325,51.269832 24.3194219,51.2225273 C25.1936016,51.1990117 26.0915703,51.151707 26.9660234,51.1281914 L29.6596563,51.0570977 C30.6995391,51.033582 31.7391484,51.033582 32.7552422,51.009793 C33.5350859,51.009793 34.2914141,50.9862773 35.0709844,50.9627617 C35.9454375,50.9389727 36.8434063,50.8681523 37.7175859,50.8208477 C38.1903594,50.797332 38.6628594,50.7500273 39.1356328,50.7027227 C39.7027422,50.655418 40.2933672,50.5845977 40.8604766,50.5608086 C41.7111406,50.5137773 42.5855938,50.4899883 43.4362578,50.4426836 C44.4996563,50.3718633 45.5630547,50.2772539 46.6499688,50.2537383 C47.6425469,50.2064336 48.6586406,50.2302227 49.6509453,50.2064336 C50.5253984,50.182918 51.3995781,50.1356133 52.2975469,50.1120977 L53.7864141,50.0410039 C53.7864141,50.0410039 54.7787188,50.0174883 55.2750078,49.9701836 C56.1256719,49.9228789 56.9763359,49.8282695 57.827,49.8047539 C58.3705938,49.7812383 58.9141875,49.8047539 59.4575078,49.7812383 C60.3319609,49.7574492 61.2299297,49.7101445 62.1041094,49.7101445 C62.4349688,49.7101445 62.7896172,49.7574492 63.2148125,49.7812383 C63.0258672,49.946668 62.9077422,50.0410039 62.7658281,50.1591289 C62.8604375,50.182918 62.9547734,50.2302227 63.0493828,50.2772539 C63.0493828,50.301043 63.0258672,50.3245586 63.0258672,50.3718633 C62.9077422,50.3718633 62.7896172,50.3956523 62.6712188,50.3956523 C62.6241875,50.5137773 62.5768828,50.5608086 62.5295781,50.797332 L62.9547734,50.797332 C62.7896172,50.797332 62.6477031,51.009793 62.4822734,51.151707 C62.5060625,51.1752227 62.5295781,51.1752227 62.5530938,51.1990117 C62.2933281,51.1044023 62.1278984,51.151707 62.0332891,51.4117461 C62.1041094,51.4352617 62.1514141,51.4352617 62.2222344,51.4352617 C62.1987188,51.506082 62.1752031,51.5771758 62.1514141,51.6715117 C62.1278984,51.7188164 62.1041094,51.7661211 62.1041094,51.8369414 L62.0332891,51.7661211 C62.0332891,51.7188164 62.0332891,51.6715117 62.0097734,51.624207 C61.8678594,51.7661211 61.655125,51.8607305 61.77325,52.1678008 C61.6789141,52.2151055 61.5607891,52.2624102 61.4426641,52.3332305 C61.4661797,52.3805352 61.5134844,52.4278398 61.537,52.4986602 C61.3245391,52.5221758 61.1118047,52.5694805 61.1591094,52.8295195 C61.2534453,52.8530352 61.3480547,52.9003398 61.418875,52.9238555 C61.30075,52.9711602 61.182625,53.0419805 61.0645,53.0892852 C61.0407109,53.1365898 61.0171953,53.2547148 60.9698906,53.2785039 C60.6390313,53.3493242 60.82825,53.4674492 60.9225859,53.5855742 C60.8517656,53.6328789 60.7809453,53.6801836 60.710125,53.7036992 C60.7809453,53.7274883 60.82825,53.7510039 60.8755547,53.7983086 C60.8044609,53.8456133 60.7571563,53.8691289 60.710125,53.892918 C60.7571563,53.9164336 60.82825,53.9637383 60.8517656,53.9637383 C60.7571563,54.0345586 60.6390313,54.129168 60.4973906,54.247293 C60.4973906,54.2945977 60.4973906,54.3181133 60.5209063,54.365418 C60.4265703,54.4600273 60.3319609,54.5543633 60.2373516,54.6962773 C60.1430156,54.837918 60.0957109,55.0271367 59.9775859,55.1687773 C59.4812969,55.7123711 59.1266484,56.3503008 58.4887188,56.7757695 C58.2524688,56.9411992 58.0397344,57.1536602 57.827,57.3663945 C57.4018047,57.7680742 57.0236406,58.2170586 56.5746563,58.5952227 C55.9840313,59.0915117 55.3696172,59.5404961 54.7314141,59.9894805 C53.9518438,60.5328008 53.172,61.0763945 52.3921563,61.5961992 C51.9666875,61.8797539 51.4941875,62.0924883 51.0452031,62.3525273 C50.5962187,62.612293 50.1710234,62.8488164 49.7217656,63.108582 C49.4382109,63.2978008 49.1784453,63.5575664 48.8711016,63.6994805 C48.0912578,64.0303398 47.2643828,64.3138945 46.4610234,64.6209648 C46.3899297,64.6444805 46.3428984,64.6682695 46.2718047,64.6917852 C45.6811797,64.9518242 45.1140703,65.2353789 44.5231719,65.4481133 C43.9795781,65.6370586 43.4127422,65.7789727 42.8453594,65.8970977 C42.6564141,65.9444023 42.4436797,65.8970977 42.2312188,65.9206133 C41.8292656,65.9914336 41.4275859,66.086043 41.0259062,66.1333477 C39.9862969,66.2752617 38.9464141,66.3695977 37.9068047,66.5115117 C37.2923906,66.582332 36.7014922,66.700457 36.0870781,66.7712773 C35.6618828,66.7950664 35.2128984,66.7477617 34.7874297,66.7477617 C34.4803594,66.7477617 34.1495,66.818582 33.8421563,66.7712773 C33.3461406,66.700457 32.8498516,66.582332 32.3535625,66.4877227 C32.2354375,66.464207 32.0700078,66.4169023 31.9753984,66.464207 C31.7864531,66.558543 31.6210234,66.4169023 31.4320781,66.464207 C31.3139531,66.4877227 31.1958281,66.3933867 31.0774297,66.3933867 C30.9830938,66.3695977 30.8649688,66.4169023 30.7468438,66.3933867 C30.4868047,66.322293 30.2505547,66.227957 29.967,66.2514727 C29.6834453,66.2752617 29.3998906,66.1333477 29.0925469,66.0625273 C28.6673516,65.967918 28.2656719,65.8733086 27.8402031,65.7789727 C27.6747734,65.731668 27.5331328,65.6608477 27.3677031,65.5662383 C27.3203984,65.5897539 27.2493047,65.6370586 27.1549688,65.6370586 C26.7532891,65.5662383 26.3516094,65.5427227 25.9734453,65.4008086 C25.6425859,65.2826836 25.3355156,65.1172539 24.9808672,65.1645586 C24.8865313,65.1880742 24.8154375,65.1407695 24.7211016,65.1407695 C24.6500078,65.0464336 24.5791875,64.8572148 24.5083672,64.8572148 C24.0355938,64.8810039 23.7520391,64.4793242 23.3503594,64.3611992 C23.137625,64.2901055 22.9724688,64.0538555 22.7597344,63.9830352 C22.2399297,63.7703008 21.8144609,63.3213164 21.2238359,63.2504961 C21.0346172,63.226707 20.8456719,63.1323711 20.6329375,63.0612773 C20.7037578,63.1558867 20.7510625,63.226707 20.8218828,63.2978008 L20.7745781,63.344832 C20.1366484,62.9669414 19.4987188,62.5887773 18.8607891,62.2344023 C18.7661797,62.2106133 18.6953594,62.1162773 18.6242656,62.0689727 L17.9863359,61.6435039 C17.9155156,61.5961992 17.7736016,61.5253789 17.7736016,61.5488945 C17.6319609,61.7145977 17.4900469,61.5726836 17.3957109,61.5253789 C16.7575078,61.0763945 16.0249688,60.7928398 15.4105547,60.2965508 C15.1507891,60.0840898 14.8434453,59.9421758 14.6545,59.6821367 C14.3236406,59.280457 13.9219609,58.9969023 13.4729766,58.7606523 C13.1186016,58.571707 12.7877422,58.3589727 12.4568828,58.1462383 C12.2914531,58.0281133 12.1260234,57.8864727 12.1260234,57.6264336 C12.1260234,57.4610039 12.0552031,57.2955742 11.8424688,57.3901836 C11.7478594,57.2482695 11.6535234,57.0828398 11.5353984,57.0355352 C11.2518437,56.9174102 11.062625,56.7049492 10.8498906,56.5157305 C10.6374297,56.3267852 10.472,56.0667461 10.2119609,55.9724102 C9.73946094,55.7831914 9.45590625,55.3815117 9.17235156,55.0506523 C8.51063281,54.2708086 7.91973438,53.4201445 7.30532031,52.5929961 C7.25828906,52.5221758 7.16367969,52.4748711 7.09285938,52.4040508 L7.06907031,52.4278398 C7.18719531,52.6640898 7.30532031,52.8768242 7.42371875,53.1130742 C7.39992969,53.1365898 7.352625,53.1603789 7.32910938,53.1838945 C7.18719531,53.0184648 7.02176562,52.8530352 6.880125,52.6876055 C6.85633594,52.7113945 6.83282031,52.7349102 6.80930469,52.7349102 L8.51063281,55.4288164 C8.65227344,55.6415508 8.77039844,55.8540117 8.9123125,56.0667461 C8.88879687,56.0905352 8.86500781,56.1140508 8.81770313,56.1375664 C8.5579375,56.0905352 8.3216875,55.9013164 8.20328906,55.688582 C7.99082813,55.3106914 7.75430469,55.0744414 7.28180469,55.1214727 C7.2345,54.956043 7.18719531,54.7670977 7.16367969,54.601668 C7.06907031,54.601668 6.99825,54.601668 6.83282031,54.5781523 C7.16367969,55.097957 7.44723438,55.5469414 7.75430469,56.0667461 C7.63617969,55.9959258 7.56535937,55.9486211 7.51805469,55.9251055 C7.94352344,56.3740898 8.25059375,56.9411992 8.7941875,57.2247539 C8.9123125,57.7680742 9.52672656,58.0281133 9.66836719,58.547918 C9.55024219,58.5244023 9.45590625,58.5006133 9.33778125,58.4770977 C9.1485625,58.2408477 8.93582812,58.0045977 8.72336719,57.7445586 C8.77039844,57.9099883 8.84149219,58.0516289 8.93582812,58.1700273 C9.21938281,58.5244023 9.47942187,58.8787773 9.81028125,59.1861211 C9.92840625,59.3042461 10.0938359,59.3515508 10.0938359,59.5640117 C10.1411406,59.516707 10.1884453,59.4931914 10.2827813,59.4458867 C10.2354766,59.5404961 10.2119609,59.5878008 10.1884453,59.6586211 C10.2827813,59.6586211 10.353875,59.6821367 10.4246953,59.6821367 C10.472,59.8240508 10.4009063,60.0367852 10.6844609,59.9894805 C10.70825,59.9894805 10.7317656,60.0129961 10.7555547,60.0367852 C10.8736797,60.3438555 11.062625,60.3438555 11.3226641,60.2257305 C11.3699688,60.2022148 11.4880938,60.2257305 11.5116094,60.2730352 C11.6297344,60.5328008 11.7951641,60.5565898 12.0078984,60.3676445 C12.0078984,60.4857695 12.0314141,60.6038945 12.0314141,60.6982305 L12.1260234,60.6982305 C12.1260234,60.6511992 12.1025078,60.5801055 12.1025078,60.4619805 C12.2206328,60.5565898 12.2914531,60.6038945 12.3387578,60.6511992 C12.5750078,60.9817852 12.7877422,61.2891289 13.1186016,61.5488945 C13.5675859,61.9270586 13.9692656,62.3287383 14.3944609,62.6833867 C15.2216094,63.3686211 16.1430937,63.9357305 17.0648516,64.4555352 C18.1990703,65.0934648 19.2859844,65.7789727 20.4439922,66.3931133 C21.8379766,67.1259258 23.3268438,67.6219414 24.8627422,67.9765898 C25.4298516,68.0947148 25.9734453,68.2128398 26.5405547,68.3544805 C27.0368437,68.4963945 27.5331328,68.7091289 28.0291484,68.8272539 C28.7854766,68.9926836 29.5653203,69.1343242 30.321375,69.2762383 C30.4868047,69.2997539 30.6522344,69.323543 30.8411797,69.3470586 L30.8411797,69.3943633 C31.0539141,69.3943633 31.3139531,69.2997539 31.3612578,69.3705742 C31.4793828,69.559793 31.5737188,69.4651836 31.7156328,69.441668 C31.8810625,69.3943633 32.0700078,69.3943633 32.2589531,69.3943633 C32.9206719,69.4178789 33.5586016,69.559793 34.2203203,69.5124883 C34.3622344,69.5124883 34.5749688,69.3943633 34.6930938,69.6306133 C34.7403984,69.6068242 34.7639141,69.5833086 34.8112188,69.559793 C34.9055547,69.5360039 35.0239531,69.5360039 35.1182891,69.5124883 L35.1182891,69.559793 C35.0709844,69.5833086 35.0239531,69.5833086 34.9293438,69.6070977 C35.0474688,69.6306133 35.1182891,69.6541289 35.1893828,69.677918 C35.1420781,69.7252227 35.1182891,69.7252227 35.0709844,69.7487383 C35.0239531,69.7722539 34.9528594,69.796043 34.8585234,69.8668633 C35.7091875,70.032293 36.5125469,70.056082 37.2215703,69.8668633 L37.2215703,69.7252227 L37.3159063,69.7252227 C37.3159063,69.7722539 37.3396953,69.8195586 37.3632109,69.8668633 C38.450125,69.9614727 39.5135234,69.8195586 40.5296172,69.4651836 C40.6242266,69.5833086 40.6950469,69.7487383 40.8369609,69.5124883 C40.8842656,69.441668 41.0023906,69.4178789 41.0967266,69.3943633 C41.3094609,69.3470586 41.5695,69.2524492 41.7584453,69.323543 C41.9711797,69.3943633 42.042,69.2051445 42.2074297,69.2051445 C42.4909844,69.2051445 42.7510234,69.1816289 43.0107891,69.1343242 C43.1527031,69.1108086 43.2943438,69.0397148 43.4597734,68.9926836 C43.4597734,68.9688945 43.4597734,68.9453789 43.4362578,68.9215898 C43.2708281,68.8980742 43.0818828,68.8745586 42.9399688,68.8745586 C43.2235234,68.7326445 43.4835625,68.6145195 43.7433281,68.4963945 C43.7433281,68.5199102 43.7671172,68.5199102 43.7671172,68.5436992 C43.6960234,68.5672148 43.6489922,68.6618242 43.5543828,68.6618242 L43.8852422,68.6618242 C43.8144219,68.6618242 43.7198125,68.8745586 43.6016875,69.0161992 C44.4523516,68.8034648 45.2321953,68.6145195 45.98825,68.4255742 L45.98825,68.3782695 C45.8939141,68.4017852 45.8228203,68.4017852 45.752,68.4255742 C45.7284844,67.9292852 46.2718047,68.0947148 46.4610234,67.8111602 C46.2245,67.8819805 45.98825,67.9528008 45.752,68.0001055 L45.752,67.9528008 C46.5553594,67.5984258 47.3825078,67.2440508 48.1858672,66.8894023 C48.1858672,66.9131914 48.2096563,66.9131914 48.2096563,66.936707 C48.0677422,67.0313164 47.9261016,67.1021367 47.7133672,67.2202617 C47.8550078,67.2440508 47.9496172,67.2440508 48.0204375,67.2675664 C48.0204375,67.3383867 48.0204375,67.3856914 47.9969219,67.4094805 C48.3986016,67.3856914 48.3039922,67.0313164 48.4221172,66.818582 C48.4932109,66.8420977 48.5875469,66.8894023 48.6586406,66.8658867 C48.8711016,66.818582 49.0603203,66.7477617 49.2727813,66.6769414 C49.5093047,66.6058477 49.7455547,66.5350273 49.9818047,66.440418 C50.3599688,66.2749883 50.7143438,66.0625273 51.0925078,65.8733086 C51.1633281,65.849793 51.2814531,65.8733086 51.3760625,65.8733086 C51.4468828,65.8733086 51.4941875,65.8260039 51.5414922,65.7789727 C51.6358281,65.7078789 51.7304375,65.5662383 51.8012578,65.5897539 C52.1321172,65.6370586 52.3683672,65.5189336 52.4629766,65.2118633 C52.4867656,65.2118633 52.4867656,65.1880742 52.5102812,65.1880742 C52.6284063,65.0937383 52.7465313,64.9991289 52.8646563,64.9280352 C53.3847344,64.6444805 53.88075,64.3611992 54.4008281,64.0773711 C54.4243438,64.0538555 54.4716484,64.0773711 54.5189531,64.0773711 C54.5897734,64.0773711 54.6843828,64.0773711 54.7314141,64.0538555 C55.0387578,63.9119414 55.3223125,63.7467852 55.6058672,63.5813555 C55.5350469,63.5575664 55.6058672,63.5340508 55.3696172,63.5102617 L55.3696172,63.462957 C55.6058672,63.4159258 55.6766875,63.3921367 55.8186016,63.344832 L55.7712969,63.2978008 C56.3857109,62.6833867 57.1655547,62.2344023 57.7561797,61.7145977 C57.8743047,61.7381133 57.9216094,61.7616289 57.9924297,61.7616289 C58.0162188,61.6908086 58.0162188,61.6199883 58.0162188,61.5726836 C58.1105547,61.4545586 58.2051641,61.3126445 58.3232891,61.2183086 C58.8430938,60.7455352 59.4104766,60.3438555 59.8829766,59.8475664 C60.5682109,59.162332 61.2299297,58.453582 61.8443438,57.721043 C62.4114531,57.0593242 62.9785625,56.3976055 63.4510625,55.6650664 C64.1127812,54.6489727 64.6798906,53.6093633 65.2705156,52.5459648 C65.6959844,51.7896367 66.0741484,51.033582 66.4993437,50.2772539 C66.5466484,50.2064336 66.6412578,50.1120977 66.7120781,50.1120977 C67.3500078,50.0410039 67.9882109,49.9936992 68.602625,49.9228789 C68.7442656,49.8993633 68.9096953,49.8047539 69.0516094,49.7339336 C68.9805156,49.6158086 68.9332109,49.4738945 68.8623906,49.3557695 C68.7680547,49.2138555 68.6261406,49.0957305 68.5315313,48.9540898 C68.4371953,48.8359648 68.366375,48.6940508 68.2952813,48.5524102 C68.2244609,48.4342852 68.1536406,48.3396758 68.0825469,48.2215508 C67.9409062,47.9615117 67.7989922,47.7017461 67.6808672,47.4181914 C67.6573516,47.3470977 67.6100469,47.2289727 67.6335625,47.1581523 C68.0590313,46.236668 68.2244609,45.2440898 68.6261406,44.3226055 C69.0278203,43.377332 69.1459453,42.3139336 69.3351641,41.2978398 C69.5005938,40.3290508 69.5949297,39.3602617 69.7130547,38.3911992 C69.7841484,37.7059648 69.8784844,37.0442461 69.9022734,36.3590117 C70.0439141,35.2720977 69.9966094,34.2560039 69.9730938,33.2399102" id="Fill-1" fill="#DD3735" sketch:type="MSShapeGroup" mask="url(#mask-2)"></path>
                </g>
                <path d="M10.1951172,33.4798789 C10.2189063,33.4090586 10.2662109,33.3379648 10.3132422,33.2671445 C10.3605469,33.2671445 10.4316406,33.2436289 10.4316406,33.2436289 C10.5259766,33.0781992 10.5259766,32.9600742 10.6205859,32.8181602 C10.5970703,32.7946445 10.5732813,32.7946445 10.5497656,32.7708555 C10.4078516,32.8654648 10.2662109,32.9835898 10.1242969,33.0781992 C10.1716016,33.1255039 10.1716016,33.1490195 10.1716016,33.1963242 C9.98265625,33.1728086 9.9115625,33.2671445 9.81722656,33.5271836 C9.7934375,33.5980039 9.6753125,33.6215195 9.5571875,33.7161289 C9.53367188,33.7634336 9.50988281,33.8815586 9.46257813,33.9996836 L9.48636719,34.0234727 C9.4390625,34.0705039 9.36824219,34.094293 9.36824219,34.094293 C9.22632813,34.2359336 9.06089844,34.354332 8.91925781,34.4959727 C8.89546875,34.566793 8.87195313,34.6378867 8.87195313,34.708707 C9.03738281,34.5432773 9.3209375,34.2359336 9.53367188,34.0469883 L9.5571875,34.0705039 C9.65179688,33.9288633 9.72261719,33.7869492 9.81722656,33.6453086 C9.84074219,33.6688242 9.84074219,33.6926133 9.86453125,33.7161289 C9.7934375,33.9050742 9.72261719,34.1178086 9.65179688,34.3070273 C9.60449219,34.330543 9.53367188,34.3778477 9.53367188,34.354332 C9.4390625,34.4251523 9.36824219,34.5194883 9.27363281,34.590582 L8.8484375,34.8741367 C8.61191406,35.0868711 8.37566406,35.2758164 8.11589844,35.4885508 C7.95046875,35.7483164 7.78503906,35.9845664 7.59582031,36.2919102 C7.879375,36.2210898 7.95046875,36.3392148 7.92667969,36.5754648 C8.25753906,36.6227695 8.28105469,36.3627305 8.37566406,36.1737852 C8.39945313,36.1264805 8.42296875,36.0318711 8.47027344,36.0083555 C8.68300781,35.8194102 8.91925781,35.6539805 9.15550781,35.4647617 C9.2028125,35.417457 9.2028125,35.3231211 9.2028125,35.2520273 C9.2028125,35.2285117 9.0846875,35.2285117 9.01386719,35.2049961 C9.22632813,34.9684727 9.53367188,34.566793 9.74640625,34.3070273 C9.86453125,34.2359336 9.98265625,34.1415977 9.98265625,34.0705039 C9.95886719,33.8107383 10.1242969,33.739918 10.3132422,33.6453086 C10.2189063,33.5744883 10.1951172,33.5033945 10.1951172,33.4798789 M52.6115625,65.2390977 C52.6353516,65.2390977 52.6353516,65.2153086 52.6588672,65.2153086 C52.8242969,65.2390977 53.0135156,65.2626133 53.2024609,65.2626133 C52.8951172,65.4753477 52.7061719,65.451832 52.6115625,65.2390977 M10.1480859,32.4873008 C10.0061719,32.7000352 9.86453125,32.9362852 9.72261719,33.1490195 C9.69910156,33.1255039 9.4390625,33.2436289 9.41554688,33.2198398 C9.5571875,33.0073789 9.9115625,32.6292148 10.0534766,32.4164805 C10.0769922,32.4402695 10.1007813,32.4637852 10.1480859,32.4873008 M4.12234375,43.8300352 C3.933125,43.4283555 3.74417969,43.0028867 3.55523438,42.601207 C3.57875,42.5776914 3.74417969,42.5065977 3.76769531,42.5065977 C4.02773438,42.8847617 4.14585938,43.3337461 4.33480469,43.7354258 C4.33480469,43.7354258 4.14585938,43.8300352 4.12234375,43.8300352 M10.8333203,32.2510508 C11.0930859,31.9201914 11.353125,31.589332 11.6366797,31.2587461 C11.6601953,31.2822617 11.8494141,31.3295664 11.8729297,31.353082 C11.6131641,31.6839414 11.2585156,32.1329258 10.99875,32.4873008 C10.9514453,32.4402695 10.880625,32.2748398 10.8333203,32.2510508 M55.1400391,64.2703086 C54.8802734,64.4592539 54.6202344,64.6246836 54.289375,64.6955039 C54.2658594,64.6719883 54.2658594,64.6481992 54.2420703,64.6246836 C54.5021094,64.4592539 54.7856641,64.2938242 55.0457031,64.1283945 C55.0692187,64.1756992 55.1165234,64.2230039 55.1400391,64.2703086 M51.4065234,40.9233945 C51.4300391,40.9233945 51.4538281,40.9471836 51.4538281,40.9471836 L51.4300391,40.9233945 C51.4300391,40.8998789 51.4300391,40.8998789 51.4065234,40.9233945" id="Fill-4" fill="#DD3735" sketch:type="MSShapeGroup"></path>
                <path d="M51.4065234,45.6494883 C51.4538281,45.8857383 51.9028125,46.0038633 51.4538281,46.2401133 C51.5246484,46.287418 51.5954687,46.311207 51.6665625,46.3585117 C51.6665625,46.3820273 51.6427734,46.429332 51.6192578,46.4528477 C51.5719531,46.4766367 51.4773437,46.5239414 51.4300391,46.5001523 C51.4065234,46.5001523 51.3592187,46.405543 51.3592187,46.3585117 C51.3592187,46.1457773 51.3830078,45.933043 51.4065234,45.6494883 L51.4065234,45.6494883 Z M33.6836719,25.6108945 C33.8964062,25.5165586 34.1091406,25.4219492 34.3691797,25.3038242 C34.3453906,25.4454648 34.3453906,25.5400742 34.3453906,25.6346836 C34.2745703,25.6108945 34.1799609,25.5873789 34.1091406,25.5873789 C33.9675,25.6108945 33.7074609,25.8001133 33.5893359,25.8236289 C33.5655469,25.8236289 33.6836719,25.6346836 33.6836719,25.6108945 L33.6836719,25.6108945 Z M26.7602344,13.6540195 C26.901875,13.5594102 27.02,13.4885898 27.1619141,13.3939805 L27.2092188,13.4412852 C27.0673047,13.6305039 26.9491797,13.8194492 26.78375,14.0556992 C26.7602344,13.8902695 26.7602344,13.7956602 26.7364453,13.6775352 C26.7129297,13.6775352 26.7364453,13.6775352 26.7602344,13.6540195 L26.7602344,13.6540195 Z M55.8017578,63.5850742 C55.9198828,63.5377695 56.0617969,63.5139805 56.2507422,63.4666758 C56.0380078,63.6321055 55.8725781,63.7502305 55.7309375,63.8921445 C55.7071484,63.8683555 55.6836328,63.8448398 55.6601172,63.8448398 C55.7071484,63.7502305 55.7544531,63.6794102 55.8017578,63.5848008 L55.8017578,63.5850742 Z M3.20058594,40.9942148 C3.29519531,41.2307383 3.38980469,41.4905039 3.48414062,41.7267539 C3.460625,41.7267539 3.31871094,41.7978477 3.29519531,41.8213633 C3.20058594,41.5851133 3.08246094,41.3250742 2.988125,41.0888242 C3.01164063,41.0653086 3.15328125,40.9942148 3.20058594,40.9942148 L3.20058594,40.9942148 Z M2.60996094,42.5065977 C2.53914062,42.4357773 2.42074219,42.364957 2.42074219,42.2938633 C2.39722656,42.1995273 2.46804688,42.0814023 2.53914062,41.9632773 C2.58617187,42.1284336 2.60996094,42.2703477 2.65726562,42.4357773 C2.63347656,42.459293 2.60996094,42.483082 2.60996094,42.5065977 L2.60996094,42.5065977 Z M2.79890625,43.5935117 C2.91703125,43.5935117 3.03515625,43.6173008 3.17707031,43.6173008 C3.17707031,43.5226914 3.29519531,43.5464805 3.29519531,43.4518711 L3.36601563,43.4518711 C3.36601563,43.5699961 3.38980469,43.6646055 3.38980469,43.7827305 L2.89351562,43.7827305 C2.86972656,43.7589414 2.77539063,43.6173008 2.79890625,43.5935117 L2.79890625,43.5935117 Z M10.6678906,33.2198398 C10.5732812,33.3852695 10.4789453,33.5271836 10.3843359,33.6926133 L10.2424219,33.6215195 C10.1480859,34.1651133 9.81722656,34.6378867 9.48636719,34.7322227 C9.58097656,34.7795273 9.6753125,34.826832 9.74640625,34.803043 C9.81722656,34.7795273 9.86453125,34.6614023 9.9115625,34.590582 L10.5497656,33.6688242 L10.7625,33.3144492 L10.6678906,33.2198398 Z" id="Fill-6" fill="#DD3735" sketch:type="MSShapeGroup"></path>
            </g>
        </g>
    </g>
</svg>