<?xml version="1.0" encoding="UTF-8" standalone="no"?>
<svg width="80px" height="89px" viewBox="0 0 80 89" version="1.1" xmlns="http://www.w3.org/2000/svg" xmlns:xlink="http://www.w3.org/1999/xlink" xmlns:sketch="http://www.bohemiancoding.com/sketch/ns">
    <!-- Generator: Sketch 3.4 (15575) - http://www.bohemiancoding.com/sketch -->
    <title>Page 1</title>
    <desc>Created with Sketch.</desc>
    <defs>
        <path id="path-1" d="M0,0.0105714286 L79.7494286,0.0105714286 L79.7494286,88.2857143 L0,88.2857143 L0,0.0105714286 Z"></path>
        <path id="path-3" d="M0,0.0105714286 L79.7494286,0.0105714286 L79.7494286,88.2857143 L0,88.2857143 L0,0.0105714286 Z"></path>
    </defs>
    <g id="Careers-i3" stroke="none" stroke-width="1" fill="none" fill-rule="evenodd" sketch:type="MSPage">
        <g sketch:type="MSArtboardGroup" transform="translate(-698.000000, -2974.000000)" id="Page-1">
            <g sketch:type="MSLayerGroup" transform="translate(698.000000, 2974.000000)">
                <path d="M39.9242857,13.9724857 C57.206,13.9724857 71.2154286,27.9819143 71.2154286,45.2636286 C71.2154286,62.5453429 57.206,76.5547714 39.9242857,76.5547714 C22.6425714,76.5547714 8.63314286,62.5453429 8.63314286,45.2636286 C8.63314286,27.9819143 22.6425714,13.9724857 39.9242857,13.9724857" id="Fill-1" fill="#43A5EC" sketch:type="MSShapeGroup"></path>
                <path d="M40.0342857,24.4833429 C51.5534286,24.4833429 60.8914286,33.8213429 60.8914286,45.3404857 C60.8914286,56.8596286 51.5534286,66.1976286 40.0342857,66.1976286 C28.5151429,66.1976286 19.1771429,56.8596286 19.1771429,45.3404857 C19.1771429,33.8213429 28.5151429,24.4833429 40.0342857,24.4833429" id="Fill-3" fill="#F34B41" sketch:type="MSShapeGroup"></path>
                <path d="M40.0342857,34.7682 C45.8728571,34.7682 50.6057143,39.5010571 50.6057143,45.3396286 C50.6057143,51.1782 45.8728571,55.9110571 40.0342857,55.9110571 C34.1957143,55.9110571 29.4628571,51.1782 29.4628571,45.3396286 C29.4628571,39.5010571 34.1957143,34.7682 40.0342857,34.7682" id="Fill-5" fill="#FEFB1F" sketch:type="MSShapeGroup"></path>
                <g id="Group-9">
                    <mask id="mask-2" sketch:name="Clip 8" fill="white">
                        <use xlink:href="#path-1"></use>
                    </mask>
                    <g id="Clip-8"></g>
                    <path d="M79.5985714,25.1993429 L78.7102857,25.0996286 C78.704,25.0570571 78.7225714,25.0210571 78.7654286,24.9916286 C78.8085714,24.9619143 78.8368571,24.9344857 78.8497143,24.9087714 C78.9682857,24.6647714 79.022,24.3964857 79.0105714,24.1027714 C78.9985714,23.8090571 78.8974286,23.4956286 78.7062857,23.1622 C78.5225714,22.8424857 78.2762857,22.6304857 77.9671429,22.5262 C77.658,22.4222 77.3745714,22.4439143 77.1177143,22.5913429 C76.9645714,22.6790571 76.8474286,22.7810571 76.7665714,22.8967714 C76.6854286,23.0127714 76.6237143,23.1544857 76.5814286,23.3222 C76.5391429,23.4893429 76.524,23.7084857 76.5357143,23.9787714 C76.5477143,24.2490571 76.5834286,24.5887714 76.6431429,24.9979143 C76.6942857,25.3933429 76.7157143,25.7322 76.7068571,26.0144857 C76.698,26.2964857 76.6565714,26.5422 76.5822857,26.7507714 C76.5082857,26.9593429 76.4045714,27.1370571 76.2711429,27.2827714 C76.138,27.4287714 75.9702857,27.5593429 75.7688571,27.6750571 C75.5465714,27.8027714 75.2985714,27.8896286 75.0248571,27.9359143 C74.7514286,27.9822 74.4748571,27.9676286 74.1962857,27.8922 C73.9174286,27.8167714 73.6442857,27.6753429 73.378,27.4684857 C73.1111429,27.2613429 72.8682857,26.9667714 72.6488571,26.5844857 C72.1662857,25.7442 72.0551429,24.9070571 72.316,24.0742 L73.3111429,24.0707714 C73.3102857,24.1173429 73.2857143,24.1544857 73.2368571,24.1827714 C73.1882857,24.2104857 73.156,24.2430571 73.1402857,24.2796286 C73.0305714,24.5553429 72.9857143,24.8673429 73.0057143,25.2159143 C73.0257143,25.5644857 73.1454286,25.9299143 73.3651429,26.3119143 C73.4765714,26.5062 73.6122857,26.6664857 73.772,26.7919143 C73.9317143,26.9173429 74.0994286,27.0082 74.2748571,27.0642 C74.4505714,27.1204857 74.6328571,27.1407714 74.822,27.1242 C75.0111429,27.1079143 75.1891429,27.0522 75.356,26.9562 C75.488,26.8804857 75.5948571,26.7890571 75.6765714,26.6822 C75.758,26.5750571 75.816,26.4427714 75.85,26.2844857 C75.884,26.1264857 75.8928571,25.9247714 75.8774286,25.6802 C75.8611429,25.4353429 75.826,25.1207714 75.7717143,24.7362 C75.708,24.3199143 75.6794286,23.9599143 75.6851429,23.6564857 C75.6908571,23.3530571 75.7234286,23.0919143 75.7828571,22.8730571 C75.842,22.6544857 75.9342857,22.4696286 76.0605714,22.3190571 C76.1862857,22.1682 76.3428571,22.0390571 76.5305714,21.9313429 C76.7668571,21.7959143 77.0182857,21.7184857 77.2845714,21.6996286 C77.5508571,21.6804857 77.8131429,21.7150571 78.0708571,21.8022 C78.3288571,21.8896286 78.5708571,22.0299143 78.7974286,22.2230571 C79.024,22.4164857 79.2171429,22.6519143 79.3765714,22.9299143 C79.5797143,23.2842 79.7,23.6584857 79.7371429,24.0530571 C79.7742857,24.4476286 79.7277143,24.8293429 79.5985714,25.1993429 L79.5985714,25.1993429 Z M72.5888571,13.9202 L74.9137143,16.4350571 L74.4017143,16.9082 L73.6188571,16.0610571 L70.4808571,18.9613429 C70.1217143,19.2936286 69.7897143,19.5376286 69.4857143,19.6930571 C69.1817143,19.8487714 68.882,19.9264857 68.5868571,19.9264857 C68.2917143,19.9264857 68.0317143,19.8724857 67.8062857,19.7647714 C67.5808571,19.6567714 67.3754286,19.5027714 67.1911429,19.3030571 C66.7071429,18.7793429 66.5102857,18.1593429 66.6011429,17.4430571 L67.4874286,17.3927714 C67.486,17.4267714 67.4674286,17.4627714 67.4322857,17.5013429 C67.3965714,17.5396286 67.3754286,17.5784857 67.368,17.6179143 L67.3602857,17.8213429 C67.3522857,17.8722 67.3568571,17.9390571 67.3737143,18.0216286 C67.3902857,18.1044857 67.4162857,18.1919143 67.4525714,18.2842 C67.4885714,18.3762 67.5288571,18.4670571 67.5734286,18.5567714 C67.618,18.6464857 67.6731429,18.7264857 67.7385714,18.7973429 C68.01,19.0913429 68.3117143,19.2107714 68.6431429,19.1553429 C68.9742857,19.0999143 69.3965714,18.8353429 69.9094286,18.3613429 L73.0568571,15.4522 L72.0782857,14.3933429 L72.5888571,13.9202 Z M66.0648571,11.1819143 C66.1674286,11.2607714 66.2517143,11.3587714 66.318,11.4753429 C66.384,11.5922 66.4291429,11.7124857 66.4522857,11.8362 C66.4762857,11.9602 66.4774286,12.0822 66.4557143,12.2030571 C66.434,12.3236286 66.388,12.4304857 66.3162857,12.5233429 C66.2397143,12.6230571 66.1471429,12.7007714 66.038,12.7567714 C65.9285714,12.8127714 65.8128571,12.8450571 65.6902857,12.8536286 C65.5674286,12.8622 65.4422857,12.8476286 65.3151429,12.8107714 C65.188,12.7736286 65.0682857,12.7116286 64.9551429,12.6250571 C64.8457143,12.5410571 64.7577143,12.4442 64.6911429,12.3350571 C64.6248571,12.2256286 64.5805714,12.1113429 64.5588571,11.9916286 C64.5377143,11.8722 64.5405714,11.7530571 64.5682857,11.6344857 C64.5962857,11.5162 64.6497143,11.4053429 64.7288571,11.3024857 C64.8051429,11.2030571 64.8991429,11.1259143 65.0094286,11.0710571 C65.1202857,11.0164857 65.2368571,10.9844857 65.36,10.9759143 C65.4825714,10.9673429 65.6057143,10.9804857 65.7297143,11.0147714 C65.8534286,11.0496286 65.9654286,11.1053429 66.0648571,11.1819143 L66.0648571,11.1819143 Z M59.312,4.3282 L63.3597143,6.49191429 L63.0085714,7.14905714 L59.66,5.35877143 L58.4985714,7.53105714 L61.2645714,9.00962857 L60.8905714,9.70877143 L58.1248571,8.2302 L56.8274286,10.6567714 L60.144,12.4299143 L59.7928571,13.0867714 L55.7771429,10.9402 L59.312,4.3282 L59.312,4.3282 Z M48.9334286,1.72705714 L48.31,4.29562857 L49.7168571,4.63762857 C50.236,4.76362857 50.6397143,4.7402 50.9282857,4.56705714 C51.2168571,4.39391429 51.4074286,4.11677143 51.5,3.73505714 C51.5451429,3.54848571 51.5557143,3.36962857 51.5317143,3.19877143 C51.5074286,3.02791429 51.4534286,2.87048571 51.3691429,2.72677143 C51.2854286,2.58277143 51.1588571,2.45305714 50.9897143,2.33762857 C50.8205714,2.22277143 50.6042857,2.13305714 50.3408571,2.06905714 L48.9334286,1.72705714 Z M48.2802857,0.752485714 L50.4288571,1.2742 C51.2848571,1.48191429 51.8551429,1.82248571 52.1402857,2.29562857 C52.4251429,2.76877143 52.492,3.31648571 52.3408571,3.93905714 C52.2897143,4.14934286 52.204,4.34934286 52.084,4.5382 C51.964,4.72762857 51.8177143,4.8962 51.646,5.0442 C51.4742857,5.1922 51.2805714,5.30991429 51.0657143,5.39762857 C50.8505714,5.48562857 50.6234286,5.52934286 50.3845714,5.52905714 L51.2777143,9.18334286 L50.3668571,8.9622 L49.5354286,5.35991429 L48.134,5.01962857 L47.3542857,8.23048571 L46.5137143,8.0262 L48.2802857,0.752485714 L48.2802857,0.752485714 Z M37.5251429,0.0439142857 L41.262,0.0104857143 L41.268,0.707057143 L39.7905714,0.720485714 L39.8451429,6.8362 L41.3954286,6.82248571 L41.4014286,7.50705714 L37.5082857,7.54191429 L37.5022857,6.84534286 L38.98,6.83191429 L38.9251429,0.728485714 L37.5317143,0.740771429 L37.5251429,0.0439142857 L37.5251429,0.0439142857 Z M25.7062857,2.22905714 L26.6225714,1.98134286 L26.6405714,2.00134286 C26.6488571,2.03248571 26.6434286,2.08191429 26.6242857,2.14934286 C26.6051429,2.21677143 26.5997143,2.29534286 26.6071429,2.38448571 L27.7917143,6.76505714 C27.9005714,7.16762857 28.024,7.46905714 28.1605714,7.66905714 C28.2977143,7.86877143 28.4554286,8.02162857 28.6334286,8.12734286 C28.8111429,8.23277143 29.0042857,8.29505714 29.2125714,8.31334286 C29.4208571,8.33191429 29.6351429,8.31934286 29.856,8.27648571 C30.0682857,8.20248571 30.2605714,8.10877143 30.4334286,7.99534286 C30.606,7.8822 30.7437143,7.73105714 30.8457143,7.54105714 C30.9477143,7.35134286 31.0094286,7.13334286 31.03,6.88677143 C31.0505714,6.6402 31.0042857,6.30762857 30.8911429,5.88934286 L29.6148571,1.17191429 L30.3922857,0.961914286 L31.6628571,5.65934286 C31.7902857,6.13105714 31.846,6.54334286 31.8294286,6.89648571 C31.8122857,7.24934286 31.7254286,7.56362857 31.5674286,7.83848571 C31.4094286,8.11362857 31.2022857,8.3442 30.9451429,8.52962857 C30.6885714,8.71505714 30.382,8.8562 30.0262857,8.9522 C29.6782857,9.04648571 29.3468571,9.07791429 29.0317143,9.04734286 C28.7162857,9.01648571 28.4274286,8.9242 28.1662857,8.77105714 C27.9048571,8.61762857 27.6774286,8.40534286 27.484,8.1342 C27.29,7.86305714 27.124,7.4722 26.9862857,6.96162857 L25.7062857,2.22905714 Z M17.0554286,7.67305714 C16.9254286,8.28962857 17.1208571,9.0582 17.6417143,9.9782 C17.8782857,10.3964857 18.13,10.7559143 18.3965714,11.0559143 C18.6628571,11.3562 18.9368571,11.5879143 19.2177143,11.7510571 C19.498,11.9144857 19.7848571,12.0056286 20.0762857,12.0244857 C20.368,12.0439143 20.6394286,11.9822 20.89,11.8402 C21.0642857,11.7416286 21.2191429,11.5964857 21.3548571,11.4047714 C21.4905714,11.2133429 21.5785714,10.9747714 21.6194286,10.6890571 C21.6605714,10.4033429 21.6368571,10.0764857 21.548,9.70791429 C21.4591429,9.33962857 21.2845714,8.92505714 21.0242857,8.46505714 C20.6931429,7.87905714 20.374,7.42934286 20.0671429,7.11477143 C19.7602857,6.80048571 19.4628571,6.58705714 19.1734286,6.47477143 C18.8842857,6.3622 18.6262857,6.31705714 18.3997143,6.33934286 C18.1734286,6.36191429 17.9765714,6.4202 17.8091429,6.51477143 C17.5997143,6.63334286 17.434,6.79591429 17.312,7.00305714 C17.19,7.2102 17.1045714,7.4342 17.0554286,7.67305714 L17.0554286,7.67305714 Z M21.624,7.89134286 C22.168,8.85362857 22.436,9.70534286 22.4277143,10.4462 C22.4191429,11.1873429 22.1362857,11.8073429 21.5808571,12.3053429 C21.7251429,12.5276286 21.8908571,12.6822 22.078,12.7696286 C22.2654286,12.8567714 22.5054286,12.8176286 22.7982857,12.6522 C22.8331429,12.6324857 22.8871429,12.5973429 22.9597143,12.5470571 C23.0322857,12.4967714 23.1131429,12.4442 23.2017143,12.3893429 C23.2905714,12.3347714 23.3728571,12.2810571 23.4491429,12.2287714 C23.5254286,12.1764857 23.5808571,12.1404857 23.6157143,12.1207714 L23.9974286,12.8436286 L23.5894286,13.0744857 C23.2477143,13.2676286 22.9502857,13.4130571 22.6968571,13.5102 C22.4434286,13.6073429 22.2097143,13.6336286 21.996,13.5890571 C21.7822857,13.5444857 21.5914286,13.4473429 21.4242857,13.2982 C21.2571429,13.1487714 21.0965714,12.9382 20.9425714,12.6664857 C20.6577143,12.7813429 20.3514286,12.8330571 20.0222857,12.8213429 C19.6931429,12.8096286 19.3542857,12.7227714 19.0057143,12.5613429 C18.6562857,12.3999143 18.3125714,12.1544857 17.9751429,11.8259143 C17.6374286,11.4970571 17.3182857,11.0676286 17.0185714,10.5376286 C16.648,9.88248571 16.4154286,9.2962 16.3205714,8.77905714 C16.226,8.26191429 16.2228571,7.81277143 16.3111429,7.43162857 C16.3991429,7.05077143 16.5474286,6.72734286 16.7562857,6.46162857 C16.9654286,6.19648571 17.1914286,5.99477143 17.4354286,5.85648571 C17.7354286,5.68705714 18.0585714,5.58705714 18.4051429,5.55677143 C18.7514286,5.52677143 19.1157143,5.58505714 19.4982857,5.7322 C19.8805714,5.87962857 20.2457143,6.1262 20.5937143,6.47248571 C20.9414286,6.81877143 21.2848571,7.29162857 21.624,7.89134286 L21.624,7.89134286 Z M6.75028571,14.2393429 L10.0657143,11.0650571 L10.5808571,11.6030571 L7.83828571,14.2287714 L9.54171429,16.0082 L11.8068571,13.8393429 L12.3554286,14.4119143 L10.0902857,16.5807714 L11.9931429,18.5682 L14.7094286,15.9673429 L15.2248571,16.5056286 L11.9351429,19.6553429 L6.75028571,14.2393429 Z M1.12942857,23.2122 L3.378,24.6016286 L4.13914286,23.3696286 C4.42,22.9150571 4.52314286,22.5239143 4.44771429,22.1959143 C4.37285714,21.8684857 4.168,21.6010571 3.83428571,21.3947714 C3.67057143,21.2936286 3.50428571,21.2284857 3.334,21.1982 C3.16428571,21.1684857 2.998,21.1710571 2.83514286,21.2062 C2.67228571,21.2413429 2.50942857,21.3213429 2.34742857,21.4464857 C2.18542857,21.5716286 2.03314286,21.7496286 1.89028571,21.9802 L1.12942857,23.2122 L1.12942857,23.2122 Z M0,23.5313429 L1.162,21.6504857 C1.62514286,20.9010571 2.12571429,20.4642 2.66428571,20.3399143 C3.20228571,20.2156286 3.744,20.3219143 4.28914286,20.6590571 C4.47314286,20.7724857 4.63657143,20.9156286 4.77914286,21.0887714 C4.922,21.2616286 5.03657143,21.4527714 5.12428571,21.6622 C5.21171429,21.8713429 5.26314286,22.0919143 5.28028571,22.3236286 C5.29742857,22.5556286 5.26828571,22.7850571 5.194,23.0119143 L8.94514286,23.2959143 L8.45228571,24.0933429 L4.76971429,23.7670571 L4.012,24.9936286 L6.82285714,26.7304857 L6.368,27.4664857 L0,23.5313429 L0,23.5313429 Z" id="Fill-7" fill="#4C4C4C" sketch:type="MSShapeGroup" mask="url(#mask-2)"></path>
                </g>
                <mask id="mask-4" sketch:name="Clip 11" fill="white">
                    <use xlink:href="#path-3"></use>
                </mask>
                <g id="Clip-11"></g>
                <path d="M58.8171429,85.6537143 L17.96,85.6537143 L17.96,85.0822857 L58.8171429,85.0822857 L58.8171429,85.6537143 Z" id="Fill-10" fill="#4C4C4C" sketch:type="MSShapeGroup" mask="url(#mask-4)"></path>
                <path d="M62.2545714,85.0790571 C62.5377143,85.2150571 62.5397143,85.4413429 62.2585714,85.5819143 L58.4611429,87.4870571 C58.18,87.6276286 57.96,87.4853429 57.96,87.1713429 L57.96,83.5804857 C57.96,83.2662 58.1817143,83.1204857 58.4651429,83.2562 L62.2545714,85.0790571 L62.2545714,85.0790571 Z" id="Fill-12" fill="#4C4C4C" sketch:type="MSShapeGroup" mask="url(#mask-4)"></path>
                <path d="M24.0902,85.5708571 L21.3522,82.8565714 L21.7544857,82.4508571 L24.4924857,85.1651429 L24.0902,85.5708571 Z" id="Fill-13" fill="#4C4C4C" sketch:type="MSShapeGroup" mask="url(#mask-4)"></path>
                <path d="M22.0902,85.5708571 L19.3522,82.8565714 L19.7544857,82.4508571 L22.4924857,85.1651429 L22.0902,85.5708571 Z" id="Fill-14" fill="#4C4C4C" sketch:type="MSShapeGroup" mask="url(#mask-4)"></path>
                <path d="M20.0902,85.5708571 L17.3522,82.8565714 L17.7544857,82.4508571 L20.4924857,85.1651429 L20.0902,85.5708571 Z" id="Fill-15" fill="#4C4C4C" sketch:type="MSShapeGroup" mask="url(#mask-4)"></path>
                <path d="M17.7542571,88.2857143 L17.3519714,87.88 L20.0902571,85.1657143 L20.4925429,85.5714286 L17.7542571,88.2857143 Z" id="Fill-16" fill="#4C4C4C" sketch:type="MSShapeGroup" mask="url(#mask-4)"></path>
                <path d="M19.7542571,88.2857143 L19.3519714,87.88 L22.0902571,85.1657143 L22.4925429,85.5714286 L19.7542571,88.2857143 Z" id="Fill-17" fill="#4C4C4C" sketch:type="MSShapeGroup" mask="url(#mask-4)"></path>
                <path d="M21.7542571,88.2857143 L21.3519714,87.88 L24.0902571,85.1657143 L24.4925429,85.5714286 L21.7542571,88.2857143 Z" id="Fill-18" fill="#4C4C4C" sketch:type="MSShapeGroup" mask="url(#mask-4)"></path>
                <path d="M26.0904857,85.5708571 L23.3522,82.8565714 L23.7544857,82.4508571 L26.4927714,85.1651429 L26.0904857,85.5708571 Z" id="Fill-19" fill="#4C4C4C" sketch:type="MSShapeGroup" mask="url(#mask-4)"></path>
                <path d="M23.7542571,88.2857143 L23.3519714,87.88 L26.0902571,85.1657143 L26.4925429,85.5714286 L23.7542571,88.2857143 Z" id="Fill-20" fill="#4C4C4C" sketch:type="MSShapeGroup" mask="url(#mask-4)"></path>
            </g>
        </g>
    </g>
</svg>