<?xml version="1.0" encoding="UTF-8" standalone="no"?>
<svg width="89px" height="67px" viewBox="0 0 89 67" version="1.1" xmlns="http://www.w3.org/2000/svg" xmlns:xlink="http://www.w3.org/1999/xlink" xmlns:sketch="http://www.bohemiancoding.com/sketch/ns">
    <!-- Generator: Sketch 3.4 (15575) - http://www.bohemiancoding.com/sketch -->
    <title>Page 1</title>
    <desc>Created with Sketch.</desc>
    <defs>
        <path id="path-1" d="M0,0.0657755474 L88.9628084,0.0657755474 L88.9628084,66.75 L0,66.75"></path>
    </defs>
    <g id="Careers-i3" stroke="none" stroke-width="1" fill="none" fill-rule="evenodd" sketch:type="MSPage">
        <g sketch:type="MSArtboardGroup" transform="translate(-698.000000, -2849.000000)" id="Page-1">
            <g sketch:type="MSLayerGroup" transform="translate(698.000000, 2849.000000)">
                <mask id="mask-2" sketch:name="Clip 2" fill="white">
                    <use xlink:href="#path-1"></use>
                </mask>
                <g id="Clip-2"></g>
                <path d="M62.9030887,50.4572832 C62.6208223,50.256546 62.6677584,49.6072358 63.5960869,47.5849219 C63.9605321,46.7907431 64.792065,45.4539566 66.2375029,44.1764493 C66.4049464,44.7018416 66.5071015,45.2056336 66.5043405,45.6748325 C66.4856635,48.8036372 64.2531927,49.9723307 62.9030887,50.4572832 M51.0199646,53.1662613 C50.6415522,53.3640752 50.2944847,53.4884803 50.1333752,53.3924967 C50.0151416,53.3220113 50.28945,53.0611828 50.28945,53.0611828 C50.28945,53.0611828 52.2190285,50.9855989 52.9787766,50.0405423 C53.4208533,49.4907887 53.9334153,48.8383927 54.4921015,48.1086901 C54.4964865,48.1816117 54.499085,48.254046 54.499085,48.3253434 C54.4934007,50.8123088 52.0912128,52.4911281 51.0199646,53.1662613 M35.5947055,45.8060588 C34.7021069,47.9821737 32.833919,53.5493836 31.6968953,53.2510387 C30.7208186,52.9949201 30.1262401,48.7628726 31.5020047,44.5979 C32.1943533,42.5015277 33.6732474,39.9962102 34.5422967,39.0240314 C35.9409609,37.459223 37.4810832,36.947473 37.855273,37.582004 C38.3322675,38.39015 36.1543661,44.4419876 35.5947055,45.8060588 M16.9240321,58.4987905 C14.3613843,61.2946573 10.7807584,62.3511263 9.24550839,61.4611263 C7.58763978,60.4998288 8.24425839,56.3837412 11.389304,53.4170204 C13.3062146,51.6087613 15.7808369,49.9434219 17.4223022,48.9178106 C17.7958423,48.6928745 18.3447839,48.3628599 19.0119591,47.9631719 C19.1223971,47.8999949 19.1849245,47.865077 19.1849245,47.865077 L19.1823259,47.8610168 C19.3111161,47.7838726 19.442992,47.704942 19.5794153,47.6234128 C20.7237474,51.8465277 19.6141708,55.5642266 16.9240321,58.4987905 M76.5621526,38.3927485 C73.4529993,38.4091518 70.7599372,39.1555825 68.5024555,40.2684073 C67.6767693,38.6204456 66.8411763,37.170785 66.7008551,36.0930405 C66.5369847,34.8346974 66.3469664,34.0840442 66.5449427,32.5850113 C66.742919,31.0859785 67.6100193,28.9631336 67.5973515,28.8041354 C67.5846836,28.6451372 67.4029482,27.8814912 65.6094682,27.8686609 C63.8159883,27.8556682 62.2820376,28.2136172 62.1014391,28.6872011 C61.9208405,29.160785 61.5755595,30.2263489 61.3608551,31.3375496 C61.0465942,32.9639109 57.7802292,38.7633653 55.9253588,41.7976482 C55.3189245,40.6135259 54.8031142,39.5692376 54.6955996,38.7435515 C54.5317292,37.4852084 54.3417109,36.7345551 54.5396872,35.2353599 C54.7376635,33.7364894 55.6047639,31.6136445 55.592096,31.4546464 C55.5794281,31.2956482 55.3976927,30.5320022 53.6042128,30.5190095 C51.8107328,30.5061792 50.2767821,30.8639657 50.096346,31.3375496 C49.915585,31.8111336 49.7229682,32.9176245 49.3555996,33.988223 C48.9880686,35.0588215 44.6460704,44.7331865 43.5088843,47.2407777 C42.9294099,48.5184474 42.4251307,49.5448708 42.0691307,50.2459894 C42.0679938,50.2443653 42.0666945,50.2420916 42.0666945,50.2420916 C42.0666945,50.2420916 42.0449318,50.2887029 42.0070905,50.3674712 C41.7022493,50.9641609 41.5210011,51.294338 41.5210011,51.294338 C41.5210011,51.294338 41.52295,51.2990478 41.5261982,51.306681 C41.2845339,51.7450223 41.0256544,52.1520186 40.8973515,52.1520186 C40.8077018,52.1520186 40.6280777,50.9854365 40.9363296,49.3845734 C41.5823916,46.0283964 43.1346945,40.7946117 43.1191033,40.6145004 C43.1111453,40.5219274 43.4077036,39.6100022 42.1056726,39.1331701 C40.8400212,38.6699803 40.3893369,39.4427212 40.2737018,39.4449949 C40.1619646,39.447431 40.0788113,39.718004 40.0788113,39.718004 C40.0788113,39.718004 41.4888442,33.8323106 37.3893223,33.8323106 C34.8263496,33.8323106 31.2749573,36.635973 29.5253277,39.1773453 C28.4214354,39.7795569 26.0588752,41.0692449 23.552096,42.4464712 C22.5893369,42.9754365 21.6070887,43.5159328 20.6753496,44.0291445 C20.6120102,43.9589839 20.5489956,43.8888234 20.4838697,43.81915 C15.5128624,38.5158544 6.32361241,34.7645369 6.71355584,27.6347923 C6.85533869,25.0427485 7.75622007,18.2175204 24.3706361,9.93873394 C37.9806526,3.15686898 48.8760066,5.02310803 50.7589737,9.15900949 C53.4486252,15.0680898 44.9358077,26.0504949 30.802023,27.6347923 C25.4168734,28.2383033 22.5813788,26.1513507 21.8760376,25.3740624 C21.1336672,24.5556847 21.0229044,24.5188179 20.7456726,24.6722942 C20.2940139,24.9225661 20.5801781,25.6451226 20.7456726,26.0756682 C21.167773,27.1738763 22.8993752,29.1214821 25.851804,30.0904128 C28.4488825,30.9425715 34.7714555,31.410796 42.4174974,28.4533325 C50.9813113,25.1408434 57.6683296,15.9259328 55.704158,8.22369745 C53.7066927,0.389910949 40.7177274,-2.18540474 28.4243588,2.1819292 C21.108169,4.78128139 13.1878186,8.8606646 7.49311788,14.1873471 C0.722134307,20.5206391 -0.357721533,26.0329547 0.0872784672,28.3362358 C1.66816533,36.520338 12.9482657,41.849619 17.4651781,45.7994 C17.2423533,45.9223434 17.0331708,46.0378161 16.8431526,46.1428945 C14.5783624,47.2630277 5.97995547,51.7628872 3.82917628,56.5174036 C1.3894719,61.9105113 4.21749562,65.7800624 6.0899062,66.3010697 C11.8908223,67.915088 17.8437529,65.0117066 21.0428807,60.2399748 C24.2413588,55.4693799 23.8506033,49.2575697 22.3827529,46.4220752 C22.3645631,46.3869949 22.3444245,46.3525642 22.325585,46.3174839 C22.910419,45.9713909 23.5067839,45.6194511 24.0977894,45.2723836 C25.2504044,44.5956263 26.3815814,43.9643434 27.3636672,43.4298562 C26.8144007,44.935223 26.4119518,46.7395843 26.2026069,49.3454328 C25.9567201,52.406838 27.2111653,56.3639274 28.8531179,57.9207777 C29.5759993,58.6061427 30.4456982,58.6222212 30.9969135,58.6222212 C32.9073277,58.6222212 33.7789755,57.0328891 34.7388113,55.1531701 C35.9161124,52.8477777 36.9605631,50.163973 36.9605631,50.163973 C36.9605631,50.163973 35.6494372,57.4139 39.2212931,57.4139 C40.5226745,57.4139 41.8320139,55.7263106 42.4150613,54.8660314 C42.416523,54.8752887 42.4174974,54.8803234 42.4174974,54.8803234 C42.4174974,54.8803234 42.4512785,54.8244547 42.5175412,54.7119055 C42.6528277,54.5053215 42.7293223,54.3737704 42.7293223,54.3737704 C42.7293223,54.3737704 42.7319208,54.3601281 42.7361434,54.3364164 C43.259262,53.4280642 44.4193478,51.3571901 46.1593953,47.9423836 C48.4074573,43.5302248 50.5637584,38.0028051 50.5637584,38.0028051 C50.5637584,38.0028051 50.7644956,39.3542084 51.4214391,41.5889529 C51.8079719,42.9036518 52.6289482,44.3570478 53.2767967,45.7508398 C52.7554646,46.4745332 52.4348697,46.8899748 52.4348697,46.8899748 C52.4348697,46.8899748 52.4377931,46.897608 52.4436398,46.9115752 C52.0267365,47.4647394 51.5594865,48.061754 51.0707985,48.643827 C49.2964828,50.7572522 47.1830577,53.1703215 46.8999792,53.8668927 C46.566554,54.6875442 46.6453223,55.2913799 47.2895978,55.7768197 C47.7604208,56.1316828 48.5982876,56.186577 49.4725339,56.1276226 C51.0669007,56.0204328 52.1888204,55.6249675 52.7423095,55.3841153 C53.6053496,55.0789493 54.6100102,54.5990314 55.5531179,53.9058708 C57.293815,52.6262522 58.3436252,50.7957431 58.2427693,48.3709803 C58.1869007,47.034681 57.7607401,45.7102376 57.2217055,44.4598526 C57.3795668,44.2328051 57.5380777,44.0038088 57.6967511,43.7715642 C60.4408095,39.7602303 62.5690139,35.3522942 62.5690139,35.3522942 C62.5690139,35.3522942 62.7697511,36.703535 63.4268569,38.9382796 C63.7591453,40.0694566 64.4151142,41.3034383 65.0049828,42.513546 C62.4251197,44.6099182 60.8249062,47.0457248 60.2693058,48.643827 C59.2422328,51.5991792 60.0466434,52.9384018 61.5557456,53.2432431 C62.2393241,53.3814529 63.2046818,53.0681664 63.9309737,52.7608891 C64.8346161,52.4610825 65.920481,51.9621628 66.9347237,51.2165442 C68.6754208,49.9369255 70.3488807,48.1452321 70.2480248,45.7204693 C70.2017383,44.616577 69.9025814,43.5209675 69.4963971,42.4685588 C71.6833934,41.5574456 74.5149901,41.0508927 78.1214391,41.4720186 C85.8587547,42.3754985 87.3764646,47.2065095 87.0864026,49.2286609 C86.7961781,51.25065 85.1733898,52.3621755 84.6306197,52.697712 C84.0881745,53.0332485 83.9226799,53.1496956 83.9681544,53.3993179 C84.0340923,53.7623015 84.2850139,53.7483343 84.7477164,53.6702157 C85.3846836,53.5627011 88.8105339,52.0255022 88.9573515,48.2931865 C89.1434719,43.5547485 84.6036599,38.3498726 76.5621526,38.3927485" id="Fill-1" fill="#CC6699" sketch:type="MSShapeGroup" mask="url(#mask-2)"></path>
            </g>
        </g>
    </g>
</svg>