<?xml version="1.0" encoding="UTF-8" standalone="no"?>
<svg width="86px" height="62px" viewBox="0 0 86 62" version="1.1" xmlns="http://www.w3.org/2000/svg" xmlns:xlink="http://www.w3.org/1999/xlink" xmlns:sketch="http://www.bohemiancoding.com/sketch/ns">
    <!-- Generator: Sketch 3.4 (15575) - http://www.bohemiancoding.com/sketch -->
    <title>Page 1</title>
    <desc>Created with Sketch.</desc>
    <defs>
        <path id="path-1" d="M0,0.180398438 L86,0.180398438 L86,61.140625 L0,61.140625 L0,0.180398438 Z"></path>
    </defs>
    <g id="Careers-i3" stroke="none" stroke-width="1" fill="none" fill-rule="evenodd" sketch:type="MSPage">
        <g sketch:type="MSArtboardGroup" transform="translate(-1105.000000, -3122.000000)" id="Page-1">
            <g sketch:type="MSLayerGroup" transform="translate(1105.000000, 3122.000000)">
                <path d="M14.8813594,40.2725234 C15.8596094,41.4792109 16.9470391,42.7020234 18.1439844,43.9315547 C14.6596406,44.9800156 12.3756016,46.9267734 10.9505547,48.6457656 C8.69641406,51.3665234 7.50316406,54.9597109 7.777625,58.0436172 L1.77744531,58.0436172 C2.98077344,55.432375 7.78400781,47.8885625 14.8813594,40.2725234" id="Fill-1" fill="#D1A41A" sketch:type="MSShapeGroup"></path>
                <path d="M84.3854844,59.6799687 L77.0899297,59.6799687 C60.3535234,50.9466016 45.6599531,44.7881953 30.0506172,43.4427656 C30.083875,41.2705937 30.4705391,38.8115312 31.2143047,36.0709531 L29.7764922,35.6842891 C29.0129063,38.5004531 28.6128047,41.0492109 28.5664453,43.3302266 C26.9401719,43.2210469 25.3038203,43.1683047 23.6510078,43.1683047 C22.2525,43.1683047 20.9766094,43.2973047 19.8132578,43.5220469 C18.2958281,42.0079766 17.0034766,40.5600859 15.9059687,39.1884531 C23.1054453,31.691 34.9630313,24.90775 45.2830313,22.3559687 C48.1888906,32.0148437 54.4265781,38.6328125 61.9962578,43.0856641 C62.5515625,42.7682031 63.097125,42.4376406 63.6326094,42.0875937 L76.8386484,56.3048047 L77.4171328,56.2550859 C81.0234219,55.9446797 83.0729766,57.9015156 83.6155156,58.5095625 C84.0152813,58.9526641 84.253125,59.3594844 84.3854844,59.6799687" id="Fill-3" fill="#D1A41A" sketch:type="MSShapeGroup"></path>
                <path d="M77.942875,12.1249922 C78.2106172,25.2450312 71.5167266,35.6876484 62.1450781,41.0428281 C46.2384375,33.1194062 43.2435547,13.0407578 45.9542344,2.2709375 C46.7077422,6.38986719 48.0797109,8.97154687 51.0416719,10.2376953 C57.5007422,8.38970312 66.3896484,8.24390625 72.9380781,10.0492344 C75.6652187,8.06585937 76.7230859,5.03469531 77.3015703,2.38683594 C78.0221562,5.46738281 77.9395156,12.1249922 77.942875,12.1249922" id="Fill-5" fill="#FFDC76" sketch:type="MSShapeGroup"></path>
                <path d="M66.0987266,21.204375 C65.7564062,22.2955 65.8938047,23.9392422 66.7363359,25.3498438 L56.9269609,25.3498438 C57.5235859,24.1542422 58.076875,22.6969453 58.4813437,21.204375 L66.0987266,21.204375 Z M61.8675937,28.8768516 L57.7960312,26.3133125 L65.7530469,26.3153281 L61.8675937,28.8768516 Z M56.5114063,13.8785859 C57.0613359,13.8785859 57.4469922,14.1019844 57.7258203,14.5796875 C58.3792188,15.7037344 58.2720547,17.9209219 57.7301875,20.2405703 L53.33075,20.2405703 L53.33075,21.204375 L57.4826016,21.204375 C57.0371484,22.7869766 56.4112969,24.3527812 55.7068359,25.5933984 L55.4790703,25.9945078 L60.9837422,29.4593672 L57.8847188,31.5015312 L58.4151641,32.3067734 L61.8790156,30.0230703 L65.6183359,32.4633203 L66.1319844,31.6476641 L62.6647734,29.5027031 C62.6647734,29.5027031 67.848625,26.1356016 68.1062891,25.9709922 C68.1046094,25.9689766 68.1036016,25.9669609 68.1022578,25.9649453 L68.1083047,25.9639375 C66.9657812,24.2795469 66.6036406,22.8413984 67.0793281,21.204375 L67.4683438,21.204375 L71.64875,21.1996719 L71.6584922,20.2405703 L67.4461719,20.2405703 C68.2221875,18.4144141 69.3086094,16.7703359 73.1866719,16.7703359 L73.1866719,15.8065312 C69.6086016,15.8065312 67.467,17.2272109 66.4413828,20.2405703 L58.7212031,20.2405703 C59.2610547,17.8315625 59.3547813,15.4635391 58.5579375,14.0945938 C58.1094609,13.3232812 57.4013047,12.9144453 56.5114063,12.9144453 C53.3223516,12.9144453 52.0632578,16.173375 52.0115234,16.3121172 L52.9138516,16.6507422 C52.9588672,16.5328281 53.9985937,13.8785859 56.5114063,13.8785859 L56.5114063,13.8785859 Z" id="Fill-7" fill="#000000" sketch:type="MSShapeGroup"></path>
                <path id="Fill-9" fill="#000000" sketch:type="MSShapeGroup" d="M52.9141875,16.6507422 L52.9138516,16.6507422 L52.9135156,16.6514141 L52.9141875,16.6507422 Z"></path>
                <g id="Group-13">
                    <mask id="mask-2" sketch:name="Clip 12" fill="white">
                        <use xlink:href="#path-1"></use>
                    </mask>
                    <g id="Clip-12"></g>
                    <path d="M77.0879141,59.6530937 C60.3531875,50.9210703 45.6586094,44.7633359 30.0496094,43.4182422 C30.0835391,41.2460703 30.4705391,38.7873437 31.2122891,36.0471016 L29.7768281,35.6580859 C29.0139141,38.4749219 28.6121328,41.0253594 28.5667812,43.3050312 C26.9401719,43.1971953 25.3031484,43.1414297 23.6520156,43.1414297 C22.2514922,43.1414297 20.9759375,43.2714375 19.8125859,43.4975234 C18.2954922,41.9811016 17.0028047,40.5358984 15.904625,39.1642656 C17.8581016,37.1291562 20.1565859,35.1481328 22.67175,33.2890547 L26.15475,35.6940312 L25.0176016,31.6325469 C26.0764766,30.9183437 27.1649141,30.2279922 28.2745156,29.5648516 L33.4361953,32.1878516 L31.0124062,28.009125 C31.7188828,27.6275 32.4310703,27.2579687 33.1469531,26.901875 L40.3578516,31.7387031 L37.9898281,24.7216406 C40.4512422,23.7296172 42.9062734,22.9183281 45.2806797,22.3311094 C45.8386719,24.1827969 46.5212969,25.9199297 47.3097422,27.5542656 L44.0346875,27.5542656 L44.0346875,28.6252344 L47.8495937,28.6252344 C48.1180078,29.1355234 48.3954922,29.6364062 48.6854062,30.1251953 L44.0346875,30.1251953 L44.0346875,31.1958281 L49.3485469,31.1958281 C52.6074766,36.254375 57.0109453,40.1277344 61.9949141,43.0594609 C62.5495469,42.7426719 63.0937656,42.4063984 63.6305937,42.0576953 L64.9367187,43.4639297 L62.7417031,46.8407734 L66.4857266,45.1315234 L68.6531953,47.4649453 L64.989125,50.2569219 L70.0345703,48.9521406 L76.8396562,56.2782656 L77.4157891,56.2288828 C81.0230859,55.9201562 83.0733125,57.8763203 83.6161875,58.4833594 C84.0142734,58.9284766 84.2544687,59.334625 84.3851484,59.6530937 L77.0879141,59.6530937 Z M10.9502188,48.6209062 C8.69708594,51.3403203 7.50282813,54.9325 7.77628125,58.0167422 L1.77576563,58.0167422 C2.98144531,55.4075156 7.78400781,47.8647109 14.8803516,40.2456484 C15.8582656,41.4543516 16.947375,42.6751484 18.1436484,43.9060234 C14.6596406,44.9534766 12.3752656,46.9009062 10.9502188,48.6209062 L10.9502188,48.6209062 Z M45.9538984,2.24641406 C46.70875,6.36366406 48.0776953,8.94567969 51.0426797,10.2125 C53.6676953,9.46134375 56.6961719,8.99640625 59.8042656,8.82474219 L62.38225,14.4789062 L64.0350625,8.77569531 C67.1757422,8.87748437 70.2532656,9.28430469 72.9360625,10.024375 C75.6648828,8.04032812 76.7230859,5.00983594 77.3008984,2.36197656 C78.0228281,5.44319531 77.9395156,12.0987891 77.9415312,12.1001328 C77.9922578,14.5853984 77.792375,16.9739141 77.3724531,19.2505625 L74.4279609,20.5019297 L77.0227422,20.8949766 C76.8164766,21.7674063 76.5803125,22.6230391 76.3095469,23.4585156 L73.79875,24.1875 L75.7992578,24.90775 C75.4572734,25.8141094 75.0810234,26.6979609 74.6664766,27.5542656 L70.5260469,27.5542656 L70.5260469,28.6252344 L74.1219219,28.6252344 C73.8504844,29.1355234 73.5649375,29.6347266 73.2686406,30.1251953 L70.5260469,30.1251953 L70.5260469,31.1958281 L72.5950859,31.1958281 C69.8729844,35.3181172 66.268375,38.6610312 62.1440703,41.0179687 C57.3774531,38.6428906 53.7715,35.1760156 51.1296875,31.1958281 L52.7102734,31.1958281 L52.7102734,30.1251953 L50.4487422,30.1251953 C50.1490859,29.6317031 49.8632031,29.1314922 49.5910938,28.6252344 L52.7102734,28.6252344 L52.7102734,27.5542656 L49.0384766,27.5542656 C48.4062422,26.273 47.8576563,24.9604922 47.3866719,23.6325312 L49.2575078,23.1088047 L46.8985547,22.1654922 C46.6600391,21.3958594 46.4460469,20.6232031 46.2562422,19.8502109 L49.8867188,19.602625 L45.7352031,17.3998828 C44.7176484,11.7893906 44.9218984,6.34417969 45.9538984,2.24641406 L45.9538984,2.24641406 Z M84.7251172,57.4920078 C83.0914531,55.6645078 79.8913125,54.7994687 77.2189297,54.8636328 C75.5153906,52.8359141 66.4766563,43.2936094 64.6518437,41.3693594 C68.4247578,38.7215 71.7014922,35.2815 74.2136328,31.1958281 L79.2012969,31.1958281 L79.2012969,30.1251953 L74.8448594,30.1251953 C75.1230156,29.6343906 75.3880703,29.1331719 75.6443906,28.6252344 L79.2012969,28.6252344 L79.2012969,27.5542656 L76.1624063,27.5542656 C78.4199063,22.6788047 79.6692578,17.0814141 79.5479844,10.9552578 C79.5523516,10.9579453 79.5567188,10.9599609 79.56075,10.9623125 C79.5543672,9.28632031 79.0326563,2.20240625 78.0732187,0.251953125 C75.4717188,1.24061719 70.7380234,4.44344531 69.6667188,7.71883594 C64.53225,6.95222656 58.7440469,7.04292969 53.6737422,7.92039844 C52.8265078,4.39641406 48.5748828,1.69950781 45.3673516,0.180398438 C44.0145312,2.46342969 43.4152188,7.75679687 43.5673984,11.5119062 C43.5616875,11.5156016 43.5556406,11.5196328 43.5495938,11.5236641 C43.6775859,14.9162969 44.1381563,18.0317812 44.8795703,20.8943047 C33.7869141,23.6429453 21.7102969,30.9096094 14.9549297,37.9323828 C11.7930859,33.6649687 10.5386953,30.1628203 10.1661406,27.5089141 C9.69549219,24.1572656 10.4956953,21.0824297 12.4797422,18.6169844 C15.5861562,14.7580703 19.9997031,14.4862969 24.5378828,15.2495469 C24.4491953,15.9661016 24.5432578,16.6510781 24.8304844,17.0750312 C26.0304531,18.8474375 32.4807891,19.4702656 36.3309688,17.7526172 C33.4896094,13.7710859 27.7343281,11.8270156 26.1396328,12.6060547 C25.6115391,12.8637187 25.2127812,13.3377266 24.9396641,13.8903438 C23.3711719,13.6098359 21.8134297,13.4008828 20.6746016,13.4092812 C16.6722422,13.4388437 13.6125234,14.8373516 11.3210937,17.6844219 C9.07266406,20.4777422 8.16395312,23.9466328 8.69305469,27.7158516 C9.19427344,31.2858594 10.9616406,35.0829609 13.9242734,39.0208203 C13.432125,39.5485781 12.9564375,40.0699531 12.4985547,40.5819219 C5.27791406,48.6612187 0,57.3250469 0,58.7605078 L0,59.5042734 L9.52550781,59.5042734 L9.35854688,58.6224375 C8.82071094,55.7793984 9.89503906,52.2258516 12.0954297,49.5699297 C13.4768047,47.9026719 15.7645391,45.9995859 19.3570547,45.1214453 C22.5514844,48.2389453 26.6210313,51.5499453 31.1511484,54.7440391 L38.2296875,54.7440391 L38.2296875,54.0002734 C38.2296875,53.1611016 37.8137969,52.4264062 37.0579375,51.9319062 C35.9396016,51.2009062 34.2135547,51.100125 32.6279297,51.6409844 C31.1162109,49.9572656 30.2686406,47.7081641 30.0855547,44.9148437 C45.4483125,46.2753906 60.1425547,52.4791484 76.7230859,61.140625 L85.8458047,61.140625 L85.9653984,60.5426562 C86.1357187,59.6913906 85.6717891,58.5508828 84.7251172,57.4920078 L84.7251172,57.4920078 Z" id="Fill-11" fill="#000000" sketch:type="MSShapeGroup" mask="url(#mask-2)"></path>
                </g>
            </g>
        </g>
    </g>
</svg>