<?xml version="1.0" encoding="utf-8"?>
<!-- Generator: Adobe Illustrator 17.0.0, SVG Export Plug-In . SVG Version: 6.00 Build 0)  -->
<!DOCTYPE svg PUBLIC "-//W3C//DTD SVG 1.1//EN" "http://www.w3.org/Graphics/SVG/1.1/DTD/svg11.dtd">
<svg version="1.1" id="Layer_1" xmlns="http://www.w3.org/2000/svg" xmlns:xlink="http://www.w3.org/1999/xlink" x="0px" y="0px"
	 width="125px" height="41px" viewBox="0 0 125 41" enable-background="new 0 0 125 41" xml:space="preserve">
<g>
	<g>
		<path fill="#0B5567" d="M65.509,14.705v-2.411h3.932v11.54c0,1.403,0.336,1.937,1.205,1.937c0.237,0,0.534-0.04,0.81-0.059v3.182
			c-0.435,0.158-1.087,0.257-1.937,0.257c-0.949,0-1.699-0.158-2.292-0.534c-0.731-0.494-1.186-1.146-1.344-1.996
			c-1.146,1.739-3.043,2.589-5.671,2.589c-2.332,0-4.288-0.81-5.909-2.49c-1.581-1.68-2.371-3.715-2.371-6.165
			s0.79-4.486,2.371-6.126c1.601-1.68,3.577-2.49,5.909-2.49C62.901,11.938,64.897,13.124,65.509,14.705L65.509,14.705z
			 M64.344,24.171c0.988-0.949,1.482-2.174,1.482-3.616c0-1.443-0.494-2.648-1.482-3.616c-0.949-0.949-2.174-1.443-3.577-1.443
			s-2.549,0.494-3.517,1.443c-0.909,0.949-1.383,2.174-1.383,3.616c0,1.443,0.454,2.648,1.383,3.616
			c0.949,0.949,2.095,1.443,3.517,1.443C62.17,25.613,63.395,25.119,64.344,24.171z M73.196,28.834V5.971h3.913v13.358l6.106-7.015
			h4.505l-6.462,7.391l7.153,9.149h-4.466l-5.217-6.659l-1.64,1.838v4.802L73.196,28.834L73.196,28.834z M89.46,28.834V5.971h3.913
			v13.358l6.106-7.015h4.525l-6.462,7.391l7.153,9.149h-4.466l-5.217-6.659l-1.64,1.838v4.802L89.46,28.834L89.46,28.834z
			 M116.552,14.705v-2.411h3.932v11.54c0,1.403,0.336,1.937,1.205,1.937c0.237,0,0.534-0.04,0.81-0.059v3.182
			c-0.435,0.158-1.087,0.257-1.937,0.257c-0.949,0-1.699-0.158-2.292-0.534c-0.731-0.494-1.186-1.146-1.344-1.996
			c-1.146,1.739-3.043,2.589-5.671,2.589c-2.332,0-4.288-0.81-5.909-2.49c-1.581-1.68-2.371-3.715-2.371-6.165
			s0.79-4.486,2.371-6.126c1.601-1.68,3.577-2.49,5.909-2.49C113.924,11.938,115.92,13.124,116.552,14.705L116.552,14.705z
			 M115.366,24.171c0.988-0.949,1.482-2.174,1.482-3.616c0-1.443-0.494-2.648-1.482-3.616c-0.949-0.949-2.174-1.443-3.577-1.443
			s-2.549,0.494-3.517,1.443c-0.909,0.949-1.383,2.174-1.383,3.616c0,1.443,0.454,2.648,1.383,3.616
			c0.949,0.949,2.095,1.443,3.517,1.443C113.193,25.613,114.418,25.119,115.366,24.171z"/>
	</g>
	<path fill="#0B5567" d="M41.935,35.909c7.094,5.671,11.639-11.264,0.336-14.386c-9.485-2.628-19.03,1.877-28.594,12.39
		C13.677,33.913,31.343,27.451,41.935,35.909z"/>
	<path fill="#15A9CE" d="M13.835,33.774c6.798-7.055,18.101-14.92,28.634-12.015c2.45,0.692,4.189,2.114,5.316,3.814l-9.96-20.097
		c-1.423-2.272-5.059-1.798-7.114-0.059L4.389,27.47c-2.391,2.055-2.529,5.711-0.316,7.924c1.956,1.956,5.059,2.134,7.213,0.395
		L13.835,33.774L13.835,33.774z"/>
</g>
</svg>
