<?xml version="1.0" encoding="UTF-8" standalone="no"?>
<svg width="61px" height="65px" viewBox="0 0 61 65" version="1.1" xmlns="http://www.w3.org/2000/svg" xmlns:xlink="http://www.w3.org/1999/xlink" xmlns:sketch="http://www.bohemiancoding.com/sketch/ns">
    <!-- Generator: Sketch 3.4 (15575) - http://www.bohemiancoding.com/sketch -->
    <title>Page 1</title>
    <desc>Created with Sketch.</desc>
    <defs></defs>
    <g id="Careers-i3" stroke="none" stroke-width="1" fill="none" fill-rule="evenodd" sketch:type="MSPage">
        <g sketch:type="MSArtboardGroup" transform="translate(-914.000000, -2852.000000)" id="Page-1">
            <g sketch:type="MSLayerGroup" transform="translate(914.000000, 2852.000000)">
                <path d="M30.3858271,0.0917939759 L0.000110240964,10.7855349 L4.80183916,50.5953843 L30.417797,64.6746253 L56.1664114,50.4046675 L60.9659355,10.5959205 L30.3858271,0.0917939759 Z" id="Fill-1" fill="#B3B3B3" sketch:type="MSShapeGroup"></path>
                <path d="M57.9353012,12.8967229 L30.3147952,3.47773494 L30.3147952,61.3108795 L53.4620904,48.5001446 L57.9353012,12.8967229 Z" id="Fill-2" fill="#A6120D" sketch:type="MSShapeGroup"></path>
                <path d="M3.40975301,13.066494 L7.52431325,48.6702831 L30.3144277,61.3108795 L30.3144277,3.47663253 L3.40975301,13.066494 Z" id="Fill-3" fill="#DD1B16" sketch:type="MSShapeGroup"></path>
                <path d="M37.1828072,32.4751506 L30.3651386,18.9783494 L24.7729819,32.2429096 L30.3144277,32.2429096 L37.1828072,32.4751506 Z M37.917747,34.2650964 L30.3147952,37.8203675 L22.3013795,37.8203675 L18.5344458,47.2422952 L11.5278976,47.372012 L30.3147952,5.5778253 L37.917747,34.2650964 Z" id="Fill-4" fill="#F2F2F2" sketch:type="MSShapeGroup"></path>
                <path d="M30.3144277,5.5778253 L30.3647711,18.9783494 L36.710241,32.2531988 L30.328759,32.2531988 L30.3144277,37.8119157 L39.1384819,37.8203675 L43.2625964,47.3734819 L49.9667169,47.4976867 L30.3144277,5.5778253 Z" id="Fill-5" fill="#B3B3B3" sketch:type="MSShapeGroup"></path>
            </g>
        </g>
    </g>
</svg>