<?xml version="1.0" encoding="UTF-8" standalone="no"?>
<svg width="120px" height="47px" viewBox="0 0 120 47" version="1.1" xmlns="http://www.w3.org/2000/svg" xmlns:xlink="http://www.w3.org/1999/xlink" xmlns:sketch="http://www.bohemiancoding.com/sketch/ns">
    <!-- Generator: Sketch 3.4 (15575) - http://www.bohemiancoding.com/sketch -->
    <title>Page 1</title>
    <desc>Created with Sketch.</desc>
    <defs>
        <path id="path-1" d="M0,0.142265625 L120,0.142265625 L120,46.875 L0,46.875 L0,0.142265625 Z"></path>
    </defs>
    <g id="Careers-i3" stroke="none" stroke-width="1" fill="none" fill-rule="evenodd" sketch:type="MSPage">
        <g sketch:type="MSArtboardGroup" transform="translate(-273.000000, -3127.000000)" id="Page-1">
            <g sketch:type="MSLayerGroup" transform="translate(273.000000, 3127.000000)">
                <path d="M118.723828,26.7213281 L118.732734,26.7124219 L118.732734,26.7035156 C118.732734,26.7035156 118.723828,26.7124219 118.723828,26.7213281 L118.723828,26.7213281 Z M119.530313,27.1113281 L119.459297,27.1202344 L119.477109,27.3417187 L120,27.2974219 C119.991094,27.155625 119.645391,27.1113281 119.530313,27.1113281 L119.530313,27.1113281 Z M118.883437,26.6060156 C118.954219,26.5617187 118.989609,26.5174219 118.821328,26.4909375 C118.741406,26.5795312 118.909922,26.6060156 118.732734,26.6149219 L118.741406,26.6946094 C118.759219,26.6770312 118.803516,26.6503125 118.838906,26.6238281 L118.741406,26.7035156 L118.741406,26.7124219 L118.555312,26.9517187 L118.9275,26.8188281 L118.972031,26.8188281 L118.954219,26.5971094 L118.883437,26.6060156 Z M103.311797,30.6386719 L103.293984,30.4169531 L103.222969,30.4258594 L103.240781,30.6473437 L103.311797,30.6386719 Z M110.002969,27.7492969 C109.994062,27.6164062 110.047266,27.5367187 110.162578,27.5189062 L110.313047,27.7139062 C110.304375,27.6517969 110.330859,27.6164062 110.384062,27.6075 L110.499375,27.8203125 L110.002969,27.7492969 Z M109.373672,27.8025 L109.364766,27.6874219 L109.816875,27.6517969 L109.825781,27.7671094 L109.373672,27.8025 Z M108.318984,27.9353906 L108.310312,27.8378906 C108.372187,27.8292187 108.460781,27.7849219 108.576094,27.6960937 C108.762187,27.6785156 108.859687,27.8025 108.8775,27.9442969 L108.318984,27.9353906 Z M107.494922,28.0064062 L107.486016,27.9089062 L107.858203,27.8735156 L107.867109,27.9710156 L107.494922,28.0064062 Z M107.441719,28.1303906 C107.016328,28.0860937 106.989609,28.0507031 106.688437,28.0771875 L106.679531,27.9796875 L107.361797,27.9178125 L107.370703,28.0153125 C107.299922,28.0242187 107.556797,28.0417969 107.441719,28.1303906 L107.441719,28.1303906 Z M104.774062,28.3607812 L104.011875,28.4228906 L104.002969,28.3075781 L104.694141,28.2457031 L105.296953,28.095 C105.305859,28.1657812 105.34125,28.1925 105.420937,28.1835937 C106.138828,28.0596094 106.068047,28.0242187 106.413516,27.9975 C106.528828,27.9885937 106.599844,28.0596094 106.608516,28.2014062 L104.774062,28.3607812 Z M104.703047,29.9561719 C104.75625,29.9826562 104.729766,30.009375 104.703047,30.0269531 C104.676563,30.0182812 104.641172,29.9915625 104.703047,29.9561719 L104.703047,29.9561719 Z M105.385547,30.2397656 C105.376641,30.1600781 105.34125,30.1244531 105.261563,30.1333594 L104.685469,30.1865625 L104.676563,30.07125 L104.729766,30.07125 L106.094531,29.9561719 L106.103438,30.07125 C105.704531,30.0890625 105.465234,30.1511719 105.385547,30.2397656 L105.385547,30.2397656 Z M95.1670312,29.97375 L95.158125,29.8764844 L95.3885156,29.8586719 L95.415,30.1954687 C95.2910156,30.204375 95.2024219,30.1333594 95.1670312,29.97375 L95.1670312,29.97375 Z M102.318984,9.2175 C102.327891,9.350625 102.239297,9.66070312 102.062109,10.1392969 L101.937891,10.1482031 L101.911406,9.81140625 C102.079688,9.42140625 102.221484,9.22640625 102.318984,9.2175 L102.318984,9.2175 Z M102.700078,7.94132812 C102.939375,6.98414062 103.169766,6.44367187 103.382578,6.301875 L103.391484,6.41695312 C103.267266,7.30335937 103.072266,7.77304687 102.815391,7.8084375 L102.859688,8.36671875 C102.646875,8.668125 102.549375,8.89851562 102.558281,9.07570312 L102.434297,9.08460937 L102.363281,8.31351562 C102.505078,8.2959375 102.620391,8.17171875 102.700078,7.94132812 L102.700078,7.94132812 Z M103.683984,5.59289062 L103.807969,5.58398437 C103.639453,5.90296875 103.488984,6.07125 103.364766,6.08015625 L103.338281,5.74335937 C103.417969,5.74335937 103.533281,5.69015625 103.683984,5.59289062 L103.683984,5.59289062 Z M105.208359,2.97820312 C105.314531,2.98710937 105.385547,2.98710937 105.412031,2.98710937 C105.722344,2.6859375 106.068047,2.44664062 106.466719,2.278125 C106.147734,3.67851562 105.651328,4.71539062 104.969063,5.38898437 L104.472656,5.08757812 C104.889141,4.03289062 105.137344,3.3328125 105.208359,2.97820312 L105.208359,2.97820312 Z M96.1771875,5.3090625 C96.1682813,5.20289062 96,5.131875 95.6542969,5.09648437 L94.7770313,5.3446875 L94.1034375,5.37117187 C93.9527344,5.26476562 93.8730469,5.19398437 93.8641406,5.14078125 L94.6441406,5.18507812 L96.3989063,4.90148437 L97.2939844,4.936875 L97.3028906,5.07867187 C96.8596875,5.12296875 96.4875,5.20289062 96.1771875,5.3090625 L96.1771875,5.3090625 Z M94.7414063,4.62679687 L94.7503125,4.741875 L93.8730469,4.82179687 L93.8641406,4.70648437 L94.7414063,4.62679687 Z M95.4239063,1.790625 L94.7857031,1.96804687 L94.670625,1.97671875 C94.3692188,2.0034375 93.9792188,1.99453125 93.5184375,1.95023437 C94.3427344,1.89703125 95.1314063,1.83492188 95.4239063,1.790625 L95.4239063,1.790625 Z M92.4194531,5.88515625 L92.4016406,5.62828125 L92.8980469,5.58398437 C93.0665625,5.56617187 93.1551563,5.64585937 93.1640625,5.82328125 L92.4194531,5.88515625 Z M91.8433594,3.43921875 L91.7104688,3.448125 L91.8257813,3.17320312 L92.9601563,3.06703125 L92.9690625,3.20882812 C92.6765625,3.2353125 92.2954688,3.315 91.8433594,3.43921875 L91.8433594,3.43921875 Z M91.7282813,5.17617187 L91.719375,5.034375 L92.2155469,4.99007812 L92.2244531,5.131875 L91.7282813,5.17617187 Z M90.6382031,6.06257812 L90.6292969,5.94726562 L91.6483594,5.84976562 L91.6572656,5.96507812 L90.6382031,6.06257812 Z M89.8492969,3.76710937 L89.22,3.69609375 L89.2110937,3.58101562 C90.0353906,3.51 90.3100781,3.42140625 90.8153906,3.27960937 C90.8242969,3.37710937 90.9128906,3.4125 91.0722656,3.39492188 L91.0900781,3.65179687 L90.841875,3.67851562 C90.646875,3.69609375 90.4785937,3.66960937 90.3367969,3.58992187 C90.1860937,3.68742187 90.0264844,3.74929687 89.8492969,3.76710937 L89.8492969,3.76710937 Z M91.4446875,3.20882812 L91.5775781,3.19992187 L91.5951562,3.45679687 L91.2140625,3.49242188 C91.2053906,3.350625 91.2761719,3.253125 91.4446875,3.20882812 L91.4446875,3.20882812 Z M85.1078906,4.44960937 L84.6911719,4.485 L84.6825,4.34320312 C84.6735938,4.20140625 84.7532813,4.10390625 84.9304688,4.05960937 L85.0811719,4.05070312 L85.3647656,4.16578125 C85.3736719,4.33429687 85.2939844,4.43179687 85.1078906,4.44960937 L85.1078906,4.44960937 Z M79.5065625,30.2308594 C79.5154687,30.3726562 79.3028906,30.5322656 78.841875,30.6916406 L77.9910937,30.6297656 L77.7164062,30.65625 L77.6899219,30.399375 L79.5065625,30.2308594 Z M80.3397656,30.301875 L80.3486719,30.4169531 L79.6572656,30.4790625 L79.6483594,30.36375 L80.3397656,30.301875 Z M74.8005469,26.02125 L74.7916406,25.9059375 C74.7827344,25.7641406 74.8715625,25.6666406 75.0665625,25.6223437 L75.0752344,25.7374219 C75.0841406,25.9059375 74.9955469,26.0034375 74.8005469,26.02125 L74.8005469,26.02125 Z M74.2954688,28.0417969 L73.87875,28.0771875 C73.8611719,27.9089062 74.0826563,27.2707031 74.5434375,26.180625 L74.8183594,26.1541406 C74.8272656,26.4110156 74.65875,27.0403125 74.2954688,28.0417969 L74.2954688,28.0417969 Z M117.934922,27.3417187 L118.103437,27.3239062 C118.200937,27.315 118.245234,27.2353125 118.236328,27.0935156 L118.138828,26.8807031 C117.527344,26.9339062 117.24375,26.960625 116.747344,27.2353125 L116.738437,27.1202344 L116.002969,27.1910156 C115.985156,26.9695312 115.923281,26.8542187 115.825781,26.863125 L115.444688,26.8985156 C115.001484,26.9339062 114.788672,26.9163281 114.567187,27.0846094 C114.558281,27.0049219 114.531797,26.9695312 114.4875,26.9695312 L114.062109,27.0049219 L113.813906,27.1467187 C113.805,27.0670312 113.778516,27.0314062 113.733984,27.0314062 L113.583516,27.1645312 L113.574609,27.0492187 L112.980703,27.0049219 L112.838906,27.0138281 L112.856719,27.2353125 L113.158125,27.315 L113.441719,27.2974219 C113.539219,27.3595312 113.645391,27.3771094 113.769609,27.3682031 L114.017812,27.2442187 L114.026484,27.3417187 C112.635234,27.6874219 112.643906,27.6253125 111.686719,27.7849219 C111.580547,27.7139062 111.500625,27.6785156 111.447422,27.6874219 L111.429844,27.705 C111.323437,27.6960937 111.261328,27.6253125 111.252656,27.51 L111.748828,27.448125 C111.784219,27.448125 111.810937,27.4835156 112.085625,27.5367187 C112.484531,27.3417187 112.502109,27.2617969 112.714922,27.2442187 L112.697109,27.0225 C111.332344,27.2885156 111.881719,27.1113281 110.17125,27.2617969 L110.091562,27.2707031 L110.07375,27.0492187 C112.271719,26.7834375 111.53625,26.9339062 112.289531,26.7213281 C112.298437,26.8010156 112.324922,26.8364062 112.369219,26.8364062 C112.457812,26.7478125 112.555312,26.7035156 112.670625,26.6859375 L112.821328,26.6770312 C113.592187,26.6149219 113.849297,26.765625 115.373672,26.3402344 L115.382578,26.4377344 L115.630781,26.3135156 L115.861172,26.2959375 C115.843359,26.0742187 116.180156,26.0388281 116.295469,26.0299219 L116.277656,25.790625 C113.601094,26.3313281 112.901016,26.180625 112.156641,26.3934375 L112.147734,26.2959375 C111.447656,26.4199219 111.420937,26.3667187 111.24375,26.375625 C111.190547,26.3845312 111.110859,26.4288281 111.022031,26.5174219 C111.013359,26.4377344 110.986641,26.4021094 110.933437,26.4021094 C110.906953,26.4021094 110.898047,26.4110156 110.889141,26.4110156 L108.620391,26.7832031 C108.611484,26.7213281 108.585,26.6859375 108.531797,26.6946094 C107.353125,26.9428125 107.672109,26.9871094 106.094531,27.1289062 C106.023516,27.1378125 105.92625,27.1732031 105.802031,27.253125 C105.793125,27.1910156 105.757734,27.155625 105.678047,27.1642969 L104.711953,27.2442187 L104.065078,27.4035937 C104.056172,27.3417187 104.020781,27.3063281 103.940859,27.315 C103.577578,27.4125 103.258594,27.4746094 103.001484,27.4924219 L102.983672,27.4924219 C102.824297,27.51 103.063594,27.448125 102.939375,27.3949219 L102.744375,27.51 C102.460781,27.5367187 102.611484,27.4924219 101.636719,27.5010937 C99.92625,27.7139062 100.112344,27.7403906 99.92625,27.7492969 L99.2880469,27.705 C99.2969531,27.7671094 99.2615625,27.8114062 99.1905469,27.8114062 C98.46375,27.7139062 98.0915625,27.5985937 98.0826562,27.4657031 C98.1801562,26.7745312 98.3486719,26.4199219 98.5879688,26.4021094 L98.7119531,26.3934375 L98.6055469,26.6238281 L98.7297656,26.6149219 C98.9601562,26.4909375 99.0665625,26.375625 99.0576562,26.2692187 L99.0398437,26.0299219 L98.8094531,26.0477344 L98.7916406,25.82625 C98.7740625,25.6577344 98.8005469,25.5070312 98.8626563,25.3830469 L99.3855469,24.5411719 L99.4033594,24.7626562 L99.6513281,24.7448437 L99.63375,24.5233594 L99.4919531,24.3194531 C99.6780469,24.1600781 99.8198438,24.07125 99.9349219,24.0625781 L99.92625,23.9472656 L99.5894531,23.9739844 L99.5627344,23.6371875 C100.236328,22.2367969 100.555312,21.4214062 100.537734,21.1910156 L100.777031,21.2885156 C100.927734,21.2796094 100.998516,21.1910156 100.989609,21.0314062 L100.759219,21.0492187 L100.750312,20.9517187 C100.732734,20.7832031 100.768125,20.6238281 100.838906,20.4820312 C101.202422,20.1009375 101.370703,19.7198437 101.335313,19.3209375 C101.406328,19.3120312 101.441719,19.3476562 101.450625,19.4273437 C101.760703,19.2501562 102,18.7804687 102.177187,18.0004687 C102.726797,17.0078906 103.506562,15.0227344 104.525859,12.0536719 C106.475625,6.80695312 106.395937,6.24867187 106.670625,5.00789062 L106.440234,5.02546875 C106.457813,5.18507812 106.422422,5.33578125 106.351641,5.47757812 C106.192031,5.41546875 106.068047,5.38007812 105.979453,5.38898437 L105.970547,5.29148437 C105.934922,4.839375 106.12125,4.29890625 106.546641,3.66070312 L106.652812,3.65179687 L106.847812,4.41398437 L107.078203,4.39640625 C107.069531,4.34320312 107.131406,4.04179687 107.255625,3.48351562 C107.246719,3.36820312 107.158125,3.29742187 106.980703,3.28851563 L106.759219,3.4303125 C106.741641,3.27070312 106.750312,2.85421875 106.777031,2.18953125 L106.661719,2.1984375 C106.466719,2.0034375 106.369219,1.84382812 106.360313,1.7109375 L105.093047,1.83492188 C105.084141,1.74632812 105.039844,1.6134375 104.95125,1.44515625 C104.942344,1.32984375 105.225937,1.21453125 105.810938,1.09945312 L106.068047,1.19695312 L106.307344,1.05515625 C106.316016,1.13484375 106.360313,1.17023437 106.448906,1.1615625 L106.688203,1.01976562 C106.697109,1.09945312 106.741406,1.13484375 106.830234,1.1259375 L106.945312,1.11726562 L106.9275,0.86015625 C106.750312,0.87796875 106.280625,0.87796875 105.53625,0.85125 L105.296953,1.01085937 L105.288047,0.8690625 C99.34125,1.35632812 95.9646094,1.63125 95.158125,1.7109375 C95.0517187,1.71984375 94.6352344,1.7109375 93.8995312,1.693125 C93.9084375,1.790625 93.8198437,1.84382812 93.6426563,1.86164062 L93.3855469,1.74632812 L92.5169531,1.96804687 C92.3130469,1.985625 91.9675781,1.97671875 91.4889844,1.92375 C91.3560937,2.02992187 91.1964844,2.09203125 91.0014844,2.10984375 C90.8950781,2.11851562 92.26875,2.03882813 93.5449219,1.95023437 C93.4120312,2.05664062 93.2083594,2.11851562 92.9247656,2.14523437 C92.7297656,2.16304687 92.56125,2.13632813 92.4194531,2.05664062 C92.2244531,2.14523437 91.5953906,2.28703125 90.5407031,2.49960937 L90.2835938,2.40234375 L86.1358594,3.0403125 C85.97625,2.960625 85.7901562,2.93390625 85.5775781,2.95171875 C85.3558594,2.96953125 84.9836719,3.04921875 84.4696875,3.19101563 L82.4667187,4.02398437 L82.6174219,4.2721875 C82.7149219,4.26328125 82.8567187,4.2103125 83.025,4.1128125 L83.7342187,4.1746875 L83.6453906,4.839375 C82.9896094,5.131875 82.6085156,5.56617187 82.5021094,6.11578125 C81.5184375,6.54984375 81.0309375,6.86015625 81.0309375,7.04625 L81.0398437,7.1615625 L81.1905469,7.15265625 L81.4563281,7.01085937 L81.7666406,7.38304687 L81.8109375,7.89703125 C81.8285156,8.05664062 80.17125,11.5396875 76.8567187,18.3461719 C73.9851563,24.9044531 72.4785937,28.4939062 72.3367969,29.1407812 C71.353125,29.4154687 70.7857031,29.814375 70.6174219,30.3461719 C70.6352344,30.5144531 70.9275,30.6297656 71.4946875,30.6740625 L71.5214062,30.9309375 L71.2642969,31.3563281 L71.3085938,31.8705469 C71.3353125,32.1363281 72.0532031,32.3402344 73.4622656,32.4820312 C73.4533594,32.3934375 73.4978906,32.3402344 73.5951562,32.3313281 C73.621875,32.6503125 73.5332812,33.2707031 73.329375,34.1925 L73.4800781,34.1835937 C74.0648437,33.3860156 74.3397656,32.8364062 74.3130469,32.5352344 L74.4372656,32.5263281 C74.5790625,32.5174219 74.7297656,32.6770312 74.9069531,33.0225 C74.7297656,33.0935156 74.109375,34.5025781 73.0457813,37.2590625 L73.1964844,37.5070312 L73.3471875,37.4983594 C74.6498437,34.2014062 75.4652344,32.375625 75.8020312,32.0299219 C77.5125,31.8792187 80.4726562,31.5780469 84.6735937,31.1259375 L84.939375,30.9665625 C84.9482812,31.0551562 85.0014844,31.0994531 85.0989844,31.0905469 L85.3736719,31.0640625 L85.6396875,30.9044531 C85.6483594,30.9930469 85.7015625,31.0373437 85.7990625,31.0284375 L88.9807031,30.75375 C89.8228125,30.6829687 90.2214844,30.4258594 90.1860937,29.9915625 C90.1771875,29.8764844 90.6735937,29.7433594 91.6750781,29.6015625 C91.7725781,29.5926562 91.914375,29.619375 92.109375,29.6814844 C92.1004687,29.6015625 92.6055469,29.521875 93.6159375,29.4332812 C93.6426563,28.9014844 93.8109375,28.6178906 94.1123437,28.5914062 L94.085625,28.3342969 C93.8020312,28.3607812 93.4830469,28.4317969 93.1108594,28.5557812 C92.4461719,28.5203906 92.0207812,28.4671875 91.8433594,28.4050781 C91.6661719,28.5025781 91.5332813,28.5557812 91.4357812,28.5646875 L89.22,28.6357031 L88.9542187,28.7775 C88.9453125,28.6975781 88.8921094,28.6621875 88.7946094,28.6710937 L88.670625,28.68 L88.3870312,28.8217969 C88.378125,28.741875 88.1477344,28.68 87.6867187,28.6178906 L87.4033594,28.7861719 L86.85375,28.8304687 L86.8448437,28.6886719 C89.6985938,28.3785937 91.1078906,27.9885937 91.0722656,27.5278125 C91.2585937,27.51 91.3560937,27.5985937 91.3736719,27.7849219 L92.206875,27.5721094 L92.1801562,27.315 L85.3471875,27.5010937 C85.3558594,27.5899219 85.3115625,27.6428906 85.2142969,27.6517969 L84.3810937,27.5810156 C84.1682812,27.5985937 83.9910937,27.6607031 83.8492969,27.7671094 L83.5392187,27.6517969 C82.6795312,27.7228125 82.0413281,27.8292187 81.6159375,27.9621094 C81.0309375,27.9178125 80.3840625,27.9264844 79.6661719,27.9885937 L78.1328906,28.1214844 L77.4239062,28.0417969 C77.3885156,27.5899219 78.2657812,25.3652344 80.07375,21.3771094 C80.596875,20.0299219 81.0752344,19.1880469 81.53625,18.8690625 C81.63375,18.8601562 81.7755469,18.8955469 81.9705469,18.9752344 L83.060625,18.6030469 L83.6189062,18.6916406 C84.5582813,18.6119531 85.6483594,18.3461719 86.8980469,17.8851562 C87.2083594,17.8586719 87.43875,17.8764844 87.6070312,17.9472656 L88.4402344,17.7522656 L90.9217969,17.5396875 C91.97625,17.4510937 93.1195312,17.2204687 94.3603125,16.839375 L94.3338281,16.5825 C93.8730469,16.6267969 93.63375,16.5471094 93.6159375,16.3607812 C93.5894531,16.0153125 93.2526562,15.8735156 92.6055469,15.9264844 L92.5790625,15.6696094 L93.2615625,15.4746094 L95.0517187,15.3239062 L95.025,15.0670312 C94.9542188,15.0757031 94.5909375,15.0670312 93.9173438,15.0403125 L93.890625,14.765625 L94.5820312,14.7035156 C94.768125,14.6859375 94.8478125,14.5971094 94.8302344,14.4199219 C93.8995312,14.4466406 93.4298437,14.4023437 93.4209375,14.278125 C86.9334375,14.5971094 83.6810156,14.6592187 83.6632031,14.4553125 C83.5657031,14.4642187 83.4328125,14.5263281 83.255625,14.6327344 L83.0871094,14.3667187 C84.8064844,10.7153906 85.816875,8.87203125 86.109375,8.8453125 C86.1180469,8.98710937 86.0472656,9.2175 85.8876562,9.5278125 L85.8965625,9.64289062 L86.17125,9.61640625 C86.85375,7.985625 87.4298437,7.14375 87.9084375,7.10835937 C89.9467969,6.9309375 87.6248437,6.79804687 91.9851563,6.11578125 C92.1625781,6.19546875 92.2865625,6.23085937 92.3751562,6.22195312 C94.085625,5.87648437 96.4696875,5.51296875 99.5273437,5.14078125 L99.5095312,4.88367187 L97.87875,5.034375 L97.8611719,4.7775 C98.0561719,4.7596875 98.2155469,4.69757812 98.3486719,4.59140625 L98.3573437,4.73320312 C98.4461719,4.72429687 98.5701562,4.6621875 98.7297656,4.55578125 C99.0133594,4.52929687 99.2259375,4.55578125 99.3766406,4.63570312 C99.9438281,4.485 100.404609,4.39640625 100.741406,4.36078125 L101.760703,4.26328125 C102.008906,4.10390625 102.123984,3.96210937 102.115313,3.82921875 L102.106406,3.71390625 C101.849297,3.74039062 101.556797,3.7228125 101.211328,3.66070312 C101.202422,3.51890625 101.273203,3.42140625 101.441719,3.37710937 L103.338281,3.19992187 L104.206875,2.97820312 C104.215547,3.07570312 104.260078,3.11132812 104.330859,3.11132812 C104.419453,3.10242187 104.543672,3.0403125 104.703047,2.93390625 C104.747344,2.9428125 104.800547,2.9428125 104.844844,2.95171875 C104.729766,3.19101563 104.596641,3.53671875 104.46375,3.98859375 L104.215547,4.00640625 C104.197969,3.83789062 104.153672,3.68742187 104.07375,3.55429687 L103.949766,3.56320312 C101.645391,9.9796875 100.617422,12.9665625 98.4904687,17.8940625 C98.1004687,19.1526562 97.7725781,19.8527344 97.4889844,20.0034375 C97.4978906,20.1452344 97.5864844,20.2160156 97.7371875,20.1984375 C97.7901562,20.8188281 97.6483594,21.4303125 97.3028906,22.0328906 C96.3189844,24.8690625 95.6632031,26.4199219 95.3264062,26.7035156 L95.5478906,28.0417969 C95.5567969,28.1835937 95.4860156,28.2632812 95.3353125,28.2810937 L95.1049219,28.2989062 C95.0692969,27.9264844 94.9364062,27.7492969 94.6971094,27.7760156 L94.573125,27.7849219 C94.2717187,28.2546094 94.0413281,28.7950781 93.890625,29.424375 L94.1210156,29.4065625 C94.4313281,29.2028906 94.573125,28.9635937 94.5464063,28.6886719 L95.0074219,28.644375 L95.2732031,28.741875 C95.060625,29.0786719 94.963125,29.3446875 94.9807031,29.5483594 L95.1049219,29.7611719 L94.8035156,30.4701562 L94.8124219,30.5854687 C95.0782031,30.55875 95.3707031,30.6473437 95.6810156,30.8334375 C95.8935937,30.8158594 96.1239844,30.7183594 96.3810937,30.5498437 C96.646875,30.5233594 97.6394531,30.5144531 99.3501562,30.5144531 L100.209609,30.2219531 C101.255625,30.2130469 101.423906,30.2397656 102.327891,30.1600781 L102.700078,30.1244531 L102.895078,29.9915625 L102.903984,30.106875 C103.852266,30.0269531 103.914375,30.0890625 104.65875,30.1776562 L104.667656,30.2929687 L104.144766,30.3372656 L104.162344,30.55875 C104.321953,30.5411719 104.46375,30.4966406 104.579062,30.399375 C104.711953,30.3904687 104.791641,30.46125 104.800547,30.6208594 C104.587969,30.6386719 104.348672,30.6916406 104.082656,30.7804687 L103.852266,30.7005469 C103.488984,30.7980469 103.568672,30.8247656 103.320469,30.8423437 L102.957187,30.7715625 C102.966094,30.8334375 102.930469,30.8777344 102.868594,30.8777344 C102.877266,31.0197656 102.957187,31.0905469 103.090078,31.0816406 L103.462266,31.04625 L105.403125,30.8777344 L106.138828,30.7183594 C106.147734,30.7804687 106.174219,30.8158594 106.236328,30.8069531 L106.590703,30.6740625 L107.255625,30.6208594 C107.769609,30.5765625 107.760703,30.5411719 108.877266,30.36375 C108.868594,30.2929687 108.895078,30.26625 108.948281,30.2575781 L108.957187,30.3548437 C110.774062,30.0447656 110.889141,30.0269531 111.181641,29.9294531 L111.208125,29.9826562 C111.660234,29.8764844 111.403125,29.9029687 111.527344,29.814375 C111.53625,29.8940625 111.562734,29.9294531 111.607031,29.9294531 L111.926016,29.9029687 L111.908437,29.6636719 L111.261328,29.6547656 L111.252656,29.6371875 C111.225938,29.6458594 111.208125,29.6458594 111.181641,29.6547656 L111.093047,29.6547656 L111.093047,29.6725781 C110.65875,29.7611719 110.649844,29.6990625 110.36625,29.7257812 L108.744375,29.814375 L108.735469,29.6990625 L109.639453,29.5750781 L109.967344,29.5483594 L110.153672,29.4154687 L110.162344,29.5307812 C111.43875,29.424375 111.890625,29.7433594 117.793125,28.485 C118.112109,28.4582812 118.085625,28.1925 118.289531,27.6428906 C118.183125,27.6517969 118.076719,27.6253125 117.979219,27.5721094 C117.491953,27.7582031 117.234844,27.6696094 116.295469,27.8203125 C116.215547,27.8292187 116.153672,27.7582031 116.126953,27.6164062 L116.118047,27.5189062 L117.022031,27.5453906 C117.190547,27.5278125 117.518437,27.5010937 118.005938,27.2264062 C118.005938,27.3063281 117.828516,27.350625 117.934922,27.3417187 L117.934922,27.3417187 Z M96.2657812,23.3535937 L96.2571094,23.2382812 L96.1328906,23.2471875 L95.9114062,23.3889844 L96.0353906,23.6015625 C96.2039062,23.5839844 96.2835937,23.5040625 96.2657812,23.3535937 L96.2657812,23.3535937 Z M97.8965625,31.2145312 L97.2939844,31.14375 L97.1875781,31.3741406 L97.1964844,31.4894531 L100.785703,31.1880469 L100.768125,30.9665625 L97.8965625,31.2145312 Z M116.233359,28.9725 L116.251172,29.1939844 L116.640937,29.2647656 L116.623359,29.0432812 L116.233359,28.9725 Z M99.5095313,25.0994531 L99.2702344,25.0197656 C99.0752344,25.5426562 98.9777344,25.8527344 98.9866406,25.9413281 L98.9955469,26.0388281 C99.1816406,26.0299219 99.3501563,25.7109375 99.5095313,25.0994531 L99.5095313,25.0994531 Z M101.175703,30.9398437 L101.193516,31.1615625 L101.228906,31.1615625 L101.211328,30.9398437 L101.175703,30.9398437 Z M115.683984,29.0167969 C112.989609,29.619375 112.652813,29.5129687 112.085625,29.5572656 L112.103438,29.7789844 L112.351641,29.7611719 L112.484531,29.7522656 L112.449141,29.7257812 L112.741406,29.6104687 C115.409063,29.3179687 115.719375,29.424375 115.692656,29.1229687 L115.683984,29.0167969 Z M35.2642969,22.2632812 L35.5303125,22.2014062 L35.4771094,21.9710156 L35.2113281,22.0328906 L35.2642969,22.2632812 Z M29.0252344,37.1083594 L29.0517188,37.2234375 C29.2024219,37.1880469 29.2642969,37.0994531 29.2289062,36.9576562 L29.2024219,36.8423437 C29.060625,36.8779687 28.9985156,36.9665625 29.0252344,37.1083594 L29.0252344,37.1083594 Z M29.9025,38.8542187 L29.6721094,38.9074219 L29.4771094,39.0757031 C29.5125,39.2175 29.6010938,39.2707031 29.7517969,39.2353125 C29.9025,39.1999219 29.9646094,39.1113281 29.9292188,38.9695312 L29.9025,38.8542187 Z M71.158125,17.326875 L71.1314062,16.9900781 L71.3617969,16.9725 L71.8582031,17.2736719 C71.8671094,17.4154687 71.7960937,17.4953906 71.6453906,17.5129687 C71.4328125,17.3800781 71.2732031,17.3179687 71.158125,17.326875 L71.158125,17.326875 Z M70.1210156,13.6401562 C69.8109375,14.0123437 68.9690625,14.6503125 67.5953906,15.5367187 C67.134375,15.5810156 65.4328125,16.2367969 62.4904688,17.5129687 C62.3486719,17.4597656 62.1890625,17.4421875 62.0205469,17.4510937 L62.0029688,17.229375 C61.9675781,16.8039844 62.1536719,16.2721875 62.56125,15.6253125 C62.7916406,14.4023437 63.04875,13.7198437 63.3145313,13.5602344 L65.7871875,8.02992187 C65.7607031,7.70203125 66.2835938,7.43625 67.3471875,7.23234375 L67.7015625,7.20585937 L67.7282813,7.54265625 C68.7740625,7.37414062 69.4298438,7.27664062 69.695625,7.25015625 C71.6453906,7.08164062 72.6646875,7.47164062 72.744375,8.42882812 L72.9747656,8.41101562 L72.9304688,7.87921875 L73.1610938,7.86164062 C73.7282813,8.17171875 74.0294531,8.54414062 74.0650781,8.98710937 C74.0915625,9.30632812 73.9319531,9.69609375 73.5951563,10.1482031 C73.4446875,10.1657812 73.3560937,10.0596094 73.3382813,9.82921875 L73.1078906,9.84679687 L73.036875,10.5114844 C72.0532031,12.009375 71.3353125,12.7804687 70.8832031,12.8158594 C70.4845313,13.3565625 70.2363281,13.63125 70.1210156,13.6401562 L70.1210156,13.6401562 Z M69.1905469,19.0373437 L69.5451563,19.0108594 C69.8730469,19.1702344 70.0413281,19.3122656 70.0502344,19.4273437 L70.0591406,19.5248437 C69.7488281,19.5513281 69.4563281,19.3919531 69.1905469,19.0373437 L69.1905469,19.0373437 Z M62.4815625,20.180625 L62.9423438,20.1363281 L62.95125,20.2516406 L62.4904688,20.2959375 L62.4815625,20.180625 Z M68.2776562,23.4421875 L65.3264063,25.8173437 C63.1195313,27.2617969 61.9232813,27.9885937 61.7369531,28.0064062 C58.2274219,29.9383594 56.0472656,30.9398437 55.1875781,31.0108594 L55.0635937,31.0197656 C55.1697656,30.6208594 56.7386719,27.4214062 59.7696094,21.4125 C61.0900781,21.2974219 63.1816406,20.668125 66.0532031,19.53375 L66.7710937,19.4716406 C68.2155469,19.3476562 69.2969531,19.63125 70.0059375,20.3135156 L70.0413281,20.7478125 C69.500625,22.2721875 68.9158594,23.1672656 68.2776562,23.4421875 L68.2776562,23.4421875 Z M58.6884375,30.8069531 C59.2642969,30.75375 59.7517969,30.5322656 60.1596094,30.1422656 C60.3100781,30.1244531 60.3989063,30.1954687 60.4075781,30.3372656 C60.1417969,30.36375 59.6189063,30.5854687 58.83,31.0108594 L58.7060156,31.0197656 L58.6884375,30.8069531 Z M64.6263281,28.8571875 C62.6765625,29.8232812 61.5154687,30.4790625 61.1521875,30.8158594 C59.025,31.5602344 57.9705469,32.02125 57.988125,32.2073437 C56.1004687,32.960625 54.8596875,33.5010937 54.2746875,33.8467969 C54.1328906,33.8557031 53.9289844,33.8025 53.6632031,33.6785156 C53.6278125,33.2974219 53.805,32.9871094 54.1771875,32.7567187 C54.5139844,32.7302344 54.8329687,32.7745312 55.1254687,32.8985156 C55.4800781,32.7213281 56.0915625,32.5263281 56.9601562,32.3048437 L56.9423437,32.083125 L56.2155469,32.1363281 C56.304375,32.0123437 56.9866406,31.693125 58.2541406,31.1791406 L58.6085156,31.1526562 L58.6174219,31.2501562 C58.0148437,31.3033594 57.6780469,31.4805469 57.6070312,31.7995312 C57.6159375,31.9413281 57.7045312,32.0123437 57.8552344,31.9945312 C58.2984375,31.7020312 58.5110156,31.53375 58.5110156,31.4805469 C59.3617969,31.3298437 61.719375,30.0890625 65.5924219,27.7671094 L65.61,27.9885937 C65.6189062,28.0860937 65.2910156,28.3696875 64.6263281,28.8571875 L64.6263281,28.8571875 Z M54.6735938,31.9324219 L55.0279688,31.9059375 L55.036875,32.0210156 C54.9571875,32.0299219 54.8329688,32.0742187 54.6911719,32.1541406 L54.4607813,32.1717187 C54.451875,32.0477344 54.5228906,31.9680469 54.6735938,31.9324219 L54.6735938,31.9324219 Z M54.8685938,28.8128906 L54.8772656,28.9103906 C54.8950781,29.0697656 54.8242969,29.1585937 54.6646875,29.1672656 L54.6557813,29.0521875 C54.646875,28.936875 54.7178906,28.8571875 54.8685938,28.8128906 L54.8685938,28.8128906 Z M55.5686719,27.315 C55.4179688,28.0596094 55.2585938,28.4407031 55.0900781,28.4582812 L55.0811719,28.3607812 C55.0546875,27.9885937 55.2140625,27.6342187 55.5686719,27.315 L55.5686719,27.315 Z M59.353125,16.5646875 L59.2732031,17.131875 L59.1667969,17.1407812 L59.1225,16.5825 L59.353125,16.5646875 Z M59.7253125,15.5367187 L59.8317188,15.5278125 L59.8403906,15.6428906 L59.6367188,15.9975 L59.4060938,16.0153125 L59.3974219,15.9 C59.6367188,15.8821875 59.7428906,15.7582031 59.7253125,15.5367187 L59.7253125,15.5367187 Z M60.0975,14.4023437 L60.3278906,14.3845312 C60.3014063,14.7567187 60.2039063,14.9517187 60.0353906,14.9695312 L59.9114063,14.9782031 C60.0442969,14.7302344 60.1064063,14.5352344 60.0975,14.4023437 L60.0975,14.4023437 Z M60.6203906,13.5780469 L60.6557813,14.0123437 L60.5317969,14.02125 L60.4961719,13.5869531 L60.6203906,13.5780469 Z M61.5864844,11.2736719 L61.7104688,11.2647656 L61.7369531,11.6015625 C61.621875,11.6104687 61.4800781,11.7700781 61.3115625,12.0801562 L61.2939844,11.8586719 C61.4978906,11.6015625 61.5951563,11.4065625 61.5864844,11.2736719 L61.5864844,11.2736719 Z M61.9675781,18.4436719 L61.5065625,18.4879687 L61.4889844,18.26625 L61.9497656,18.2308594 L61.9675781,18.4436719 Z M75.8730469,6.50554687 L75.7666406,6.7359375 L72.4875,5.36226562 C74.6765625,5.43328125 75.8109375,5.814375 75.8730469,6.50554687 L75.8730469,6.50554687 Z M76.1920312,9.0403125 C76.0767187,9.04921875 75.8552344,8.69460937 75.5095312,7.97671875 L75.4919531,7.75523437 C75.7134375,7.73742187 75.9438281,8.083125 76.1742187,8.79210937 L76.1920312,9.0403125 Z M51.9616406,34.3875 C51.695625,34.2632812 51.4563281,34.2103125 51.2526563,34.2278906 L51.2259375,33.8910937 C51.2170313,33.7760156 51.2880469,33.6960937 51.43875,33.6517969 C51.5894531,33.6342187 51.6780469,33.7403906 51.695625,33.9710156 C52.0767188,33.4835156 52.2895313,33.2353125 52.3338281,33.2353125 L52.573125,33.3328125 C52.4845313,34.0064062 52.280625,34.3607812 51.9616406,34.3875 L51.9616406,34.3875 Z M54.2214844,11.6901562 L54.1153125,11.6990625 L54.0975,11.4775781 L54.5582812,11.4332812 L54.5671875,11.5483594 C54.4875,11.5661719 54.3721875,11.6104687 54.2214844,11.6901562 L54.2214844,11.6901562 Z M48.7357031,16.3875 C48.6114844,17.7965625 48.1153125,18.594375 47.2378125,18.7980469 L47.2113281,18.6829687 L46.4313281,18.9841406 L46.085625,19.0640625 C45.9084375,19.1083594 45.7488281,19.0994531 45.6070312,19.0551562 L45.53625,18.7448437 C45.5095312,18.6297656 46.6352344,17.0697656 48.9217969,14.0742187 L49.1875781,14.11875 C49.2850781,14.5263281 49.134375,15.2796094 48.7357031,16.3875 L48.7357031,16.3875 Z M45.63375,19.7374219 C45.5538281,19.7552344 45.4476563,19.82625 45.3145313,19.9324219 C45.2969531,19.8527344 45.1373437,19.8527344 44.8359375,19.92375 C44.7829688,19.7020312 45.63375,19.3919531 47.3974219,18.9841406 L47.6453906,18.9309375 L47.6985938,19.14375 C46.4578125,19.5070312 45.7666406,19.7109375 45.63375,19.7374219 L45.63375,19.7374219 Z M45.4563281,22.0682812 L45.4298438,21.9532031 C45.5095313,21.9353906 45.6159375,21.8735156 45.73125,21.7582031 L46.8832031,21.4924219 L46.9099219,21.6075 C46.2984375,21.7582031 45.8109375,21.9089062 45.4563281,22.0682812 L45.4563281,22.0682812 Z M44.206875,22.4671875 L43.9586719,22.4228906 C43.5597656,22.5825 43.2229688,22.6975781 42.9482813,22.7596875 L42.7178906,22.8128906 C42.585,22.8482812 42.4785938,22.7950781 42.4253906,22.6532812 L44.0472656,22.2810937 L44.5790625,22.0328906 L44.75625,22.2367969 C44.4991406,22.29 44.3130469,22.3696875 44.206875,22.4671875 L44.206875,22.4671875 Z M41.7785156,42.8069531 C41.8139062,42.6473437 41.8228125,42.5322656 41.805,42.4523437 L41.9292187,42.4258594 C42.0796875,42.3904687 42.1682812,42.4436719 42.2039062,42.5854687 L42.2303906,42.7005469 L41.7785156,42.8069531 Z M38.3130469,21.5542969 L38.2865625,21.4392187 L38.8448438,21.3063281 L38.8980469,21.5189062 L38.3130469,21.5542969 Z M35.0695312,25.04625 C34.9364063,25.0816406 34.8302344,25.0197656 34.768125,24.8690625 L35.1138281,24.7891406 C35.2642969,24.75375 35.3617969,24.8158594 35.3974219,24.9665625 L35.0695312,25.04625 Z M33.8730469,25.3298437 C33.3058594,25.3830469 33.4298438,25.3120312 32.5258594,25.5159375 L32.4991406,25.4008594 L33.6248438,25.0373437 L34.1655469,24.9133594 L34.2185156,25.1259375 C33.9792188,25.1791406 34.1566406,25.1791406 33.8730469,25.3298437 L33.8730469,25.3298437 Z M32.56125,24.7715625 C32.9423438,24.7094531 33.1284375,24.6829687 33.8374219,24.5233594 L33.8641406,24.6386719 L32.5169531,24.94875 C32.5347656,24.8866406 32.5523438,24.8247656 32.56125,24.7715625 L32.56125,24.7715625 Z M31.6661719,23.7700781 L31.6396875,23.6547656 L32.011875,23.5661719 L32.0383594,23.6814844 L31.6661719,23.7700781 Z M31.4711719,22.546875 C31.7547656,22.6621875 31.9232813,22.7861719 31.9586719,22.9014844 L31.816875,22.936875 L31.8257813,22.9457812 C31.7990625,22.9457812 31.7636719,22.9546875 31.7369531,22.9635937 L31.524375,23.131875 L31.4711719,22.546875 Z M29.415,20.1098437 C29.1492188,19.9324219 28.9364063,19.8527344 28.7770313,19.8616406 L28.7414063,19.4273437 L29.0339063,19.4008594 L29.6810156,19.7819531 C29.7075,19.985625 29.6189063,20.0920312 29.415,20.1098437 L29.415,20.1098437 Z M27.4298437,15.0138281 C27.0222656,15.5010937 25.9054688,16.3342969 24.0796875,17.5040625 C23.4771094,17.5572656 21.2348437,18.4258594 17.353125,20.1274219 C17.158125,20.0388281 16.9542188,20.0034375 16.7327344,20.02125 L16.7060156,19.7463281 C16.6617187,19.1880469 16.9099219,18.4879687 17.4592969,17.6371875 C17.7607031,16.0417969 18.0885938,15.1289062 18.4521094,14.9074219 L21.6869531,7.63125 C21.6513281,7.17914062 22.3427344,6.8334375 23.7607031,6.59414062 L24.2214844,6.54984375 L24.2571094,6.9665625 C25.6483594,6.75375 26.5169531,6.62976562 26.85375,6.60304687 C29.4239062,6.3815625 30.7621875,6.90445312 30.8685938,8.15414062 L31.1610938,8.12742187 L31.0989844,7.39195312 L31.4179688,7.36523437 C32.17125,7.78195312 32.5790625,8.28703125 32.6322656,8.88070312 C32.6676563,9.28851562 32.4461719,9.79359375 31.97625,10.3964062 C31.7814844,10.4139844 31.6661719,10.2721875 31.6483594,9.98859375 L31.329375,10.0153125 L31.2585938,10.9014844 C29.9557031,12.85125 29.0074219,13.8527344 28.4224219,13.9059375 C27.890625,14.6416406 27.5627344,15.0049219 27.4298437,15.0138281 L27.4298437,15.0138281 Z M26.1801563,22.1303906 L26.6411719,22.0860937 C27.0665625,22.29 27.2880469,22.4671875 27.3058594,22.6267969 L27.3145313,22.7685937 C26.9069531,22.8039844 26.5258594,22.5914062 26.1801563,22.1303906 L26.1801563,22.1303906 Z M17.3442187,23.6282812 L17.9735156,23.5750781 L17.9821875,23.716875 L17.353125,23.7700781 L17.3442187,23.6282812 Z M24.9836719,27.9264844 L21.0752344,31.0197656 C18.1682812,32.9252344 16.6085156,33.8821875 16.3870313,33.9 C11.7607031,36.4436719 8.88046875,37.7641406 7.76367188,37.8616406 L7.59539062,37.8792187 C7.7371875,37.3565625 9.793125,33.1467187 13.7814844,25.2234375 C15.53625,25.0727344 18.3014063,24.2575781 22.0680469,22.7685937 L22.9896094,22.6886719 C24.8950781,22.5203906 26.3219531,22.8925781 27.2615625,23.7789844 L27.3145313,24.3548437 C26.6055469,26.3934375 25.8257813,27.5810156 24.9836719,27.9264844 L24.9836719,27.9264844 Z M12.3721875,37.6134375 C13.1167969,37.5513281 13.7547656,37.2501562 14.2865625,36.7272656 C14.4991406,36.7094531 14.6144531,36.7891406 14.6233594,36.9752344 C14.2598437,37.0108594 13.5597656,37.3120312 12.5407031,37.8970312 L12.39,37.9059375 L12.3721875,37.6134375 Z M20.1890625,35.0432812 C17.6010938,36.3194531 16.0767188,37.1880469 15.6248438,37.6399219 C12.8242969,38.6149219 11.4328125,39.2175 11.4592969,39.4567969 C8.9690625,40.4407031 7.329375,41.1675 6.54070312,41.619375 C6.35460938,41.6371875 6.08859375,41.5661719 5.73421875,41.4065625 C5.68992187,40.9014844 5.9203125,40.4939062 6.40757813,40.1660156 C6.841875,40.1303906 7.25835938,40.1925 7.65726562,40.3607812 C8.11828125,40.1214844 8.92476563,39.8557031 10.0680469,39.5721094 L10.0413281,39.2707031 L9.11976563,39.350625 C9.23484375,39.1910156 10.1210156,38.7745312 11.7871875,38.1009375 L12.2482031,38.0566406 L12.2571094,38.1984375 C11.4682031,38.2692187 11.0339062,38.4998437 10.9364062,38.9163281 C10.9542188,39.1024219 11.060625,39.1821094 11.255625,39.1645312 C11.8492969,38.7921094 12.1417969,38.570625 12.1328906,38.5085156 C13.2585938,38.2959375 16.3692188,36.6651562 21.4652344,33.6253125 L21.4919531,33.9 C21.5008594,34.0328906 21.0665625,34.4050781 20.1890625,35.0432812 L20.1890625,35.0432812 Z M7.0725,39.0935156 L7.53328125,39.0492187 L7.55085937,39.2088281 C7.43578125,39.2175 7.28507812,39.2796094 7.09898438,39.3860156 L6.80648438,39.4125 C6.78867187,39.2620312 6.88617187,39.1467187 7.07226563,39.0935156 L7.0725,39.0935156 Z M7.33828125,34.9900781 L7.3471875,35.131875 C7.36476563,35.326875 7.27617188,35.4421875 7.08117188,35.4508594 L7.0725,35.3090625 C7.0546875,35.1407812 7.14328125,35.034375 7.33828125,34.9900781 L7.33828125,34.9900781 Z M8.25117187,33.0138281 C8.05617187,34.0064062 7.84335937,34.5114844 7.621875,34.5292969 L7.61296875,34.3875 C7.55976562,33.9 7.77257813,33.4392187 8.25117187,33.0138281 L8.25117187,33.0138281 Z M13.2229688,18.8779687 L13.134375,19.6045312 L12.9836719,19.6134375 L12.9217969,18.8955469 L13.2229688,18.8779687 Z M13.719375,17.521875 L13.8876563,17.5040625 L13.8965625,17.6458594 L13.621875,18.106875 L13.329375,18.1333594 L13.3204688,17.9915625 C13.6129688,17.9650781 13.7458594,17.814375 13.719375,17.521875 L13.719375,17.521875 Z M14.2244531,16.0153125 L14.5169531,15.9885937 C14.4904688,16.4671875 14.3575781,16.7242969 14.1182812,16.741875 L13.9675781,16.7507812 C14.1536719,16.4317969 14.2422656,16.1835937 14.2244531,16.0153125 L14.2244531,16.0153125 Z M14.8980469,14.9339062 L14.95125,15.51 L14.8005469,15.5189062 L14.7473438,14.9428125 L14.8980469,14.9339062 Z M16.183125,11.9029687 L16.3338281,11.8940625 L16.3692188,12.3283594 C16.2274219,12.3372656 16.0413281,12.5498437 15.8109375,12.9576562 L15.7842188,12.65625 C16.0591406,12.3283594 16.2009375,12.0801562 16.183125,11.9029687 L16.183125,11.9029687 Z M16.6795313,21.3417187 L16.0680469,21.3949219 L16.0413281,21.12 L16.6528125,21.0670312 L16.6795313,21.3417187 Z M34.9807031,5.62828125 L34.8567187,5.92078125 L30.5228906,4.1128125 C33.4120312,4.2103125 34.9010156,4.71539062 34.9807031,5.62828125 L34.9807031,5.62828125 Z M35.4063281,8.93390625 C35.255625,8.95171875 34.9542188,8.48203125 34.5199219,7.55132812 L34.4934375,7.27664062 C34.7770313,7.25015625 35.0695313,7.7109375 35.3796094,8.65921875 L35.4063281,8.93390625 Z M3.49195313,42.3194531 C3.13734375,42.1600781 2.81835937,42.0979687 2.54367188,42.1244531 L2.50804688,41.6901562 C2.49046875,41.521875 2.58796875,41.4065625 2.80054688,41.3622656 C2.99554688,41.3446875 3.11085938,41.4864844 3.1284375,41.7700781 C3.64265625,41.1407812 3.92625,40.8217969 3.97945312,40.8128906 L4.30734375,40.9457812 C4.2009375,41.8321875 3.92625,42.2840625 3.49195313,42.3194531 L3.49195313,42.3194531 Z M6.47859375,12.4436719 L6.32789063,12.4523437 L6.30140625,12.1776562 L6.91289063,12.1244531 L6.92179688,12.26625 C6.82429688,12.2751562 6.67359375,12.3283594 6.47859375,12.4436719 L6.47859375,12.4436719 Z M73.5864844,19.6577344 L73.6661719,20.5528125 C73.5597656,20.7745312 73.4446875,20.8896094 73.3382813,20.8985156 L73.2053906,19.3741406 C73.4533594,19.4627344 73.5775781,19.5513281 73.5864844,19.6577344 L73.5864844,19.6577344 Z M74.17125,19.5070312 C74.1536719,19.2677344 73.4090625,18.3372656 71.9378906,16.6975781 C71.9114062,16.3964062 72.4164844,15.9442969 73.4533594,15.350625 L76.4135156,12.7715625 C77.0782031,11.9294531 77.4682031,10.5646875 77.5835156,8.668125 L77.5478906,8.23382812 C77.4328125,6.92226562 76.4845313,5.86757812 74.6854688,5.06109375 C73.621875,4.34320312 71.7075,3.94429687 68.9423437,3.87351562 C66.6557813,4.06851562 63.6691406,4.88367187 59.9910938,6.32835937 C58.9807031,7.05515625 57.82875,7.78195312 56.5347656,8.50851562 L56.5523438,8.73023437 C56.6322656,8.72132812 56.75625,8.67703125 56.8980469,8.57953125 C57.04875,8.56171875 57.1373437,8.63273437 57.14625,8.77453125 L57.3677344,8.65921875 L57.4741406,8.6503125 L57.4830469,8.7478125 C57.4919531,8.863125 56.6941406,9.49242187 55.0811719,10.6178906 L55.2053906,10.8482812 L55.0989844,10.8571875 L54.8329688,10.7596875 C54.841875,10.839375 54.7267969,10.8925781 54.5050781,10.9103906 L54.5139844,11.0078906 L54.7710937,11.326875 C54.6914063,11.3357812 54.5671875,11.3003906 54.3989062,11.2382812 C54.0264844,11.2736719 53.6632031,11.4686719 53.2999219,11.8408594 L53.450625,11.1850781 C53.9910938,8.85421875 54.3632812,6.78914062 54.5582813,4.99898437 L54.5317969,4.88367187 C54.1596094,4.644375 53.7960937,4.30757812 53.4592969,3.8821875 C53.4682031,3.6075 53.4682031,3.448125 53.4592969,3.4125 L53.4328125,3.315 L53.3264063,3.34171875 C52.1566406,5.09648437 49.9054687,8.09203125 46.5642187,12.3283594 C44.0207812,15.3417187 42.7089844,17.0167969 42.6292969,17.3535937 C41.5924219,18.4258594 41.0960156,19.0729687 41.1492188,19.2944531 C40.8745313,19.4716406 40.7592188,19.6488281 40.8035156,19.8438281 C40.7238281,19.8616406 40.670625,19.8351562 40.6528125,19.7552344 C40.2098438,20.473125 39.5538281,20.9339062 38.6765625,21.1378125 L37.7547656,21.350625 C37.6307812,21.3771094 37.5686719,21.4657031 37.5775781,21.6164062 L37.6040625,21.7317187 L37.9497656,21.6517969 L37.9764844,21.7492969 L37.1964844,22.0507031 L35.8139063,22.3696875 L35.0871094,22.4139844 C34.9807031,22.5203906 35.6632031,22.4053125 35.3974219,22.4671875 L34.4934375,22.68 C33.9438281,22.8039844 33.6426562,22.7596875 33.5894531,22.5382031 L33.4830469,22.5646875 C33.5008594,22.6621875 33.5095312,22.7332031 33.4919531,22.7950781 L33.43875,22.5735937 L32.7119531,22.741875 C32.65875,22.4053125 31.6750781,21.1821094 29.7696094,19.0729687 C29.7342187,18.6651562 30.4075781,18.07125 31.7814844,17.3003906 L35.6632031,13.888125 C36.5317969,12.7715625 37.0457813,10.9811719 37.2142969,8.51742187 L37.1610937,7.94132812 C37.0103906,6.204375 35.7517969,4.80398437 33.3855469,3.7228125 C31.9851563,2.77453125 29.4682031,2.26921875 25.8346875,2.18953125 C22.8213281,2.44664062 18.8861719,3.51890625 14.0472656,5.38898437 C12.7178906,6.35484375 11.2024219,7.31203125 9.50085937,8.2603125 L9.52734375,8.56171875 C9.64265625,8.5528125 9.793125,8.4909375 9.97921875,8.38453125 C10.1742188,8.36671875 10.280625,8.4553125 10.2984375,8.63273437 L10.5996094,8.46421875 L10.7503125,8.4553125 L10.7592188,8.59710937 C10.768125,8.73890625 9.7134375,9.56320312 7.57757813,11.0697656 L7.74585937,11.3357812 L7.59539062,11.3446875 L7.26726563,11.229375 C7.27617188,11.3179687 7.12546875,11.3800781 6.81539063,11.4065625 L6.83296875,11.5661719 L7.18757812,11.9561719 C7.0725,11.9650781 6.91289063,11.9294531 6.70898438,11.8586719 C6.0178125,11.9207812 5.34421875,12.4169531 4.67953125,13.3565625 L4.8478125,13.6223437 C5.42390625,13.0905469 5.76070313,12.8247656 5.85820313,12.8158594 L5.89359375,13.2501562 C5.79609375,13.2590625 5.64539062,13.3209375 5.44171875,13.4273437 L5.805,13.9769531 C6.50507812,13.2234375 7.27617188,12.5765625 8.11828125,12.0358594 C8.53476563,12.1422656 8.75625,12.2751562 8.76515625,12.4169531 L9.08414063,12.3904687 C11.3707031,10.6975781 13.6307813,9.47460937 15.8730469,8.72132812 L15.8995313,9.0225 C15.4830469,9.64289062 15.1994531,9.96210937 15.04875,9.9796875 C15.0665625,10.1925 15.1373438,10.3785937 15.2702344,10.5382031 C15.3058594,10.9192969 14.2865625,13.4894531 12.2214844,18.2397656 C7.53328125,29.2825781 3.598125,37.4538281 0.39890625,42.7361719 C0.407578125,42.8423437 0.4696875,42.9841406 0.585,43.1615625 C1.37367187,42.9754687 1.87007812,42.7804687 2.08265625,42.5941406 L2.25117188,42.5765625 L2.27765625,42.8779687 L2.57015625,42.85125 L2.8715625,42.6829687 C2.88046875,42.7715625 2.97796875,42.8158594 3.18164062,42.7980469 L3.20835938,43.0994531 C3.23484375,43.3919531 3.0665625,43.8349219 2.71195312,44.4466406 C2.39296875,44.8099219 2.04726563,45.5721094 1.68398438,46.7332031 L1.69265625,46.875 L1.98515625,46.8482812 C3.2615625,45.4214062 4.22742187,44.0210156 4.89210937,42.65625 C8.61445312,41.5661719 11.450625,40.4939062 13.4179688,39.4392187 C15.3944531,39.2707031 16.9010156,38.7478125 17.9292188,37.888125 L17.9114063,37.72875 L17.1670312,37.9502344 L16.9985156,37.9680469 L16.9807031,37.8084375 C18.4342969,37.5869531 19.4357812,37.2677344 19.9940625,36.8247656 C22.8213281,34.644375 24.9571875,33.1024219 26.401875,32.1895312 C29.3707031,30.009375 31.3028906,27.8821875 32.1801563,25.8173437 C32.3397656,25.7819531 32.4991406,25.7463281 32.6765625,25.7020312 C33.0930469,25.6844531 33.3234375,25.6755469 33.3855469,25.6577344 C33.3677344,25.5780469 33.4033594,25.53375 33.4830469,25.5159375 C34.1477344,25.4451562 33.82875,25.5602344 34.2541406,25.4627344 L35.3707031,25.2058594 C35.2999219,25.2234375 35.2732031,25.2590625 35.2910156,25.3298437 L35.4592969,25.2234375 C35.4239063,25.2234375 35.3974219,25.2147656 35.3707031,25.2058594 L35.5567969,25.1615625 L35.4682031,25.2147656 C35.5924219,25.2323437 35.7253125,25.2234375 35.8760156,25.1880469 L35.9557031,25.5159375 L30.8775,33.5899219 L29.7517969,34.9989844 L29.2024219,36.8423437 L29.3088281,36.8158594 L29.8582031,36.5854687 L29.6810156,37.3033594 L29.7342187,37.5159375 L29.8846875,37.7020312 C29.8139063,37.7198437 29.7874219,37.7641406 29.805,37.8438281 L29.8317187,37.9591406 L30.0621094,37.9059375 C30.3989063,37.6134375 30.5407031,37.3476562 30.4875,37.1083594 C30.8507813,37.1702344 31.0900781,37.1969531 31.2142969,37.1615625 L31.2407812,37.2766406 C31.0192969,37.3298437 30.9039844,37.5070312 30.8861719,37.8084375 L30.9128906,37.92375 L31.036875,37.8970312 C32.8804688,35.8851562 37.4003906,28.9989844 41.0252344,24.3283594 C40.9099219,23.8232812 42.7975781,23.1229687 46.6971094,22.2189844 L46.8213281,22.1925 C46.963125,22.8039844 46.6617187,24.2840625 45.9173438,26.6327344 C45.43875,28.0507031 45.2083594,28.8307031 45.24375,28.9546875 C44.6233594,30.8423437 44.3308594,31.8616406 44.36625,32.02125 L42.9836719,36.5498437 C42.0885937,38.8720312 41.4063281,41.3092969 40.9277344,43.8794531 C41.0074219,43.8616406 41.1314063,43.8705469 41.3088281,43.9148437 L41.5035937,43.7463281 C41.5214063,43.82625 41.5746094,43.8527344 41.6542969,43.8349219 L41.5746094,43.5070312 L42.1771875,43.4894531 C42.354375,43.4451562 42.5050781,43.2234375 42.6292969,42.8158594 C42.6025781,42.204375 42.7267969,41.8764844 43.0014844,41.8054687 C43.3736719,40.3521094 43.6040625,39.6253125 43.6839844,39.5985937 C44.0294531,38.1541406 44.2865625,37.3298437 44.4548437,37.1259375 C44.9779688,35.2471875 45.3588281,34.2810937 45.6070312,34.2189844 L45.6602344,34.4496094 L45.2791406,35.4332812 C44.6144531,38.3845312 43.9408594,40.7153906 43.2585938,42.4258594 L43.4535937,43.2766406 L43.5775781,43.2501562 C45.2259375,39.705 47.6010938,32.6859375 50.6941406,22.1925 C50.7829687,21.2707031 51.2259375,20.5528125 52.0148438,20.0477344 L51.8374219,19.8616406 L51.8109375,19.7641406 C52.1655469,19.6844531 52.4135156,19.5426562 52.5553125,19.3476562 C52.5377344,19.2677344 52.2274219,19.1526562 51.6248438,18.9930469 L53.1670313,12.3815625 C53.5035937,12.0801562 53.6985938,11.9207812 53.7607031,11.9207812 L53.7874219,12.2575781 C53.7075,12.26625 53.5835156,12.3105469 53.4417188,12.4080469 L53.7342188,12.8247656 C54.2657813,12.2486719 54.841875,11.7522656 55.4711719,11.3357812 C55.7901563,11.424375 55.9497656,11.5307812 55.9675781,11.6371875 L56.1979688,11.619375 C57.9527344,10.3342969 59.6721094,9.4125 61.3647656,8.85421875 L61.3825781,9.07570312 C61.0725,9.54539062 60.8596875,9.7846875 60.744375,9.79359375 C60.7621875,9.95320312 60.8064844,10.095 60.8861719,10.2189844 C60.9128906,10.5114844 60.1507031,12.46125 58.5909375,16.0771875 C55.0279687,24.4523437 52.0413281,30.6473437 49.6129688,34.6710937 C49.621875,34.7507812 49.6750781,34.8571875 49.7725781,34.9989844 C50.36625,34.8571875 50.7473437,34.7064844 50.8980469,34.5646875 L51.0044531,34.5557812 L51.0222656,34.7775 L51.2702344,34.7596875 L51.4919531,34.644375 C51.500625,34.7064844 51.5805469,34.7332031 51.73125,34.7242969 L51.7488281,34.9635937 C51.7666406,35.1761719 51.6426563,35.5129687 51.3677344,35.97375 C51.1108594,36.2486719 50.8448437,36.8247656 50.56125,37.7020312 L50.5701562,37.8173437 L50.8005469,37.7995312 C51.7666406,36.7183594 52.5021094,35.6547656 53.0074219,34.6089844 C55.8344531,33.7760156 57.988125,32.9695312 59.4771094,32.1717187 C60.9925781,32.0388281 62.1358594,31.6488281 62.9158594,30.9930469 L62.9069531,30.8779687 L62.3308594,31.04625 L62.206875,31.0551562 L62.1979688,30.9398437 C63.2969531,30.7804687 64.0680469,30.5322656 64.4845313,30.204375 C66.6292969,28.5557812 68.2511719,27.3771094 69.3501562,26.6859375 C72.7710938,24.1954687 74.36625,21.8025 74.17125,19.5070312 L74.17125,19.5070312 Z M85.0989844,11.0254687 L85.1078906,11.1672656 L85.4003906,11.1407812 C85.3914844,11.0521875 85.426875,10.9103906 85.4889844,10.7332031 L85.4622656,10.4760937 C85.3382813,10.485 85.2140625,10.6710937 85.0989844,11.0254687 L85.0989844,11.0254687 Z M82.2984375,4.29 L82.2717188,4.03289062 L81.8552344,4.06851562 L81.8817188,4.32539062 L82.2984375,4.29 Z" id="Fill-1" fill="#000000" sketch:type="MSShapeGroup"></path>
                <g id="Group-5">
                    <mask id="mask-2" sketch:name="Clip 4" fill="white">
                        <use xlink:href="#path-1"></use>
                    </mask>
                    <g id="Clip-4"></g>
                    <path d="M119.131406,26.4023438 L119.060625,26.4110156 L119.078203,26.6327344 L119.601094,26.5884375 C119.592422,26.4466406 119.246719,26.4023438 119.131406,26.4023438 L119.131406,26.4023438 Z M118.484531,25.8970313 C118.555313,25.8527344 118.590938,25.8084375 118.422422,25.7819531 C118.342734,25.8705469 118.511016,25.8970313 118.333828,25.9059375 L118.342734,25.985625 C118.360313,25.9680469 118.404844,25.9413281 118.440234,25.9148438 L118.342734,25.9945313 L118.342734,26.0034375 L118.156641,26.2427344 L118.528828,26.1098438 L118.573125,26.1098438 L118.555313,25.888125 L118.484531,25.8970313 Z M118.324922,26.0123438 L118.333828,26.0034375 L118.333828,25.9945313 C118.333828,25.9945313 118.324922,26.0034375 118.324922,26.0123438 L118.324922,26.0123438 Z M109.604063,27.0403125 C109.595391,26.9074219 109.648359,26.8277344 109.763672,26.8099219 L109.914375,27.0049219 C109.905469,26.9428125 109.931953,26.9074219 109.985156,26.8985156 L110.100469,27.1113281 L109.604063,27.0403125 Z M108.975,27.0935156 L108.966094,26.9782031 L109.417969,26.9428125 L109.426875,27.058125 L108.975,27.0935156 Z M107.920312,27.2264063 L107.911406,27.1289063 C107.973516,27.1202344 108.062109,27.0757031 108.177187,26.9871094 C108.363281,26.9695313 108.460781,27.0935156 108.478594,27.2353125 L107.920312,27.2264063 Z M107.096016,27.2974219 L107.087109,27.1999219 L107.459297,27.1642969 L107.468203,27.2617969 L107.096016,27.2974219 Z M107.042812,27.4214063 C106.617422,27.3771094 106.590938,27.3417188 106.289531,27.3682031 L106.280625,27.2707031 L106.963125,27.2088281 L106.972031,27.3063281 C106.901016,27.315 107.158125,27.3328125 107.042812,27.4214063 L107.042812,27.4214063 Z M104.375156,27.6517969 L103.612969,27.7139063 L103.604062,27.5985938 L104.295469,27.5367188 L104.898047,27.3860156 C104.906953,27.4567969 104.942344,27.4835156 105.022266,27.4746094 C105.740156,27.350625 105.669141,27.315 106.014844,27.2885156 C106.129922,27.2796094 106.200937,27.350625 106.209844,27.4924219 L104.375156,27.6517969 Z M104.304375,29.2471875 C104.357578,29.2736719 104.330859,29.3003906 104.304375,29.3179688 C104.277656,29.3090625 104.242266,29.2825781 104.304375,29.2471875 L104.304375,29.2471875 Z M104.986641,29.5307813 C104.977734,29.4508594 104.942344,29.4154688 104.862656,29.424375 L104.286563,29.4775781 L104.277656,29.3622656 L104.330859,29.3622656 L105.695625,29.2471875 L105.704531,29.3622656 C105.305859,29.3800781 105.066563,29.4421875 104.986641,29.5307813 L104.986641,29.5307813 Z M94.768125,29.2647656 L94.7592187,29.1672656 L94.9896094,29.1496875 L95.0163281,29.4864844 C94.8921094,29.4953906 94.8035156,29.424375 94.768125,29.2647656 L94.768125,29.2647656 Z M101.920313,8.50851563 C101.928984,8.64140625 101.840391,8.95171875 101.663203,9.4303125 L101.539219,9.43921875 L101.5125,9.10242188 C101.681016,8.71242188 101.822813,8.51742188 101.920078,8.50851563 L101.920313,8.50851563 Z M102.301406,7.23234375 C102.540703,6.27515625 102.771094,5.7346875 102.983672,5.59289063 L102.992578,5.70796875 C102.868594,6.59414063 102.673594,7.0640625 102.416484,7.09945313 L102.460781,7.65773438 C102.248203,7.95914063 102.150703,8.18953125 102.159375,8.36671875 L102.035391,8.375625 L101.964609,7.60453125 C102.106406,7.58695313 102.221484,7.46273438 102.301406,7.23234375 L102.301406,7.23234375 Z M103.285078,4.88367187 L103.409063,4.875 C103.240781,5.19398438 103.090078,5.36226562 102.966094,5.37117187 L102.939375,5.034375 C103.019297,5.034375 103.134375,4.98117187 103.285078,4.88367187 L103.285078,4.88367187 Z M104.809453,2.26921875 C104.915859,2.278125 104.986641,2.278125 105.013359,2.278125 C105.323438,1.97671875 105.669141,1.73742187 106.068047,1.56914062 C105.748828,2.96953125 105.252656,4.00640625 104.570156,4.68 L104.07375,4.37859375 C104.490469,3.32390625 104.738672,2.62382813 104.809453,2.26921875 L104.809453,2.26921875 Z M95.7785156,4.60007813 C95.7696094,4.49390625 95.6010938,4.42289062 95.255625,4.3875 L94.378125,4.63570313 L93.7045313,4.6621875 C93.5538281,4.55578125 93.4741406,4.485 93.4652344,4.43179687 L94.2452344,4.47609375 L96,4.1925 L96.8950781,4.22789062 L96.9039844,4.3696875 C96.4607813,4.41398437 96.0885938,4.49390625 95.7785156,4.60007813 L95.7785156,4.60007813 Z M94.3427344,3.9178125 L94.3516406,4.03289063 L93.4741406,4.1128125 L93.4652344,3.9975 L94.3427344,3.9178125 Z M95.025,1.08164063 L94.3870313,1.2590625 L94.2717188,1.26773437 C93.9705469,1.29445312 93.5805469,1.28554687 93.1195313,1.24125 C93.9438281,1.18804687 94.7327344,1.1259375 95.025,1.08164063 L95.025,1.08164063 Z M92.0207813,5.17617187 L92.0029688,4.91929687 L92.499375,4.875 C92.6676563,4.8571875 92.75625,4.936875 92.7651563,5.11429687 L92.0207813,5.17617187 Z M91.4446875,2.73023438 L91.3115625,2.73890625 L91.426875,2.46421875 L92.56125,2.3578125 L92.5701563,2.49960937 C92.2776563,2.52632813 91.8965625,2.60601562 91.4446875,2.73023438 L91.4446875,2.73023438 Z M91.329375,4.4671875 L91.3204688,4.32539062 L91.816875,4.28109375 L91.8257813,4.42289062 L91.329375,4.4671875 Z M90.2392969,5.35359375 L90.2303906,5.23828125 L91.2496875,5.14078125 L91.2585938,5.25609375 L90.2392969,5.35359375 Z M89.4503906,3.058125 L88.8213281,2.98710938 L88.8124219,2.87203125 C89.6367188,2.80101562 89.9114063,2.71242187 90.4164844,2.570625 C90.4253906,2.668125 90.5139844,2.70351562 90.6735938,2.6859375 L90.6911719,2.9428125 L90.4432031,2.96953125 C90.2482031,2.98710938 90.0796875,2.960625 89.9378906,2.88070312 C89.7871875,2.97820312 89.6278125,3.0403125 89.4503906,3.058125 L89.4503906,3.058125 Z M91.0457813,2.49960937 L91.1786719,2.4909375 L91.1964844,2.7478125 L90.8153906,2.78320313 C90.8064844,2.64140625 90.8772656,2.54414062 91.0457813,2.49960937 L91.0457813,2.49960937 Z M84.7089844,3.74039063 L84.2925,3.77601562 L84.2835938,3.63421875 C84.2746875,3.49242188 84.3546094,3.39492187 84.5317969,3.350625 L84.6825,3.34171875 L84.9660938,3.45679688 C84.9747656,3.6253125 84.8950781,3.7228125 84.7089844,3.74039063 L84.7089844,3.74039063 Z M79.1078906,29.521875 C79.1167969,29.6636719 78.9039844,29.8232813 78.4432031,29.9826563 L77.5921875,29.9207813 L77.3175,29.9472656 L77.2910156,29.6901563 L79.1078906,29.521875 Z M79.9408594,29.5926563 L79.9497656,29.7079688 L79.2585937,29.7700781 L79.2496875,29.6547656 L79.9408594,29.5926563 Z M74.401875,25.3120313 L74.3929687,25.1969531 C74.3840625,25.0551563 74.4726562,24.9576563 74.6676562,24.9133594 L74.6765625,25.0284375 C74.6854687,25.1969531 74.5966406,25.2944531 74.401875,25.3120313 L74.401875,25.3120313 Z M73.8965625,27.3328125 L73.4800781,27.3682031 C73.4622656,27.1999219 73.6839844,26.5617188 74.1447656,25.4716406 L74.4194531,25.4451563 C74.4283594,25.7020313 74.2598438,26.3313281 73.8965625,27.3328125 L73.8965625,27.3328125 Z M117.53625,26.6327344 L117.704531,26.6149219 C117.802031,26.6060156 117.846328,26.5263281 117.837422,26.3845313 L117.739922,26.1717188 C117.128438,26.2249219 116.844844,26.2516406 116.348672,26.5263281 L116.339766,26.4110156 L115.604063,26.4820313 C115.586484,26.2603125 115.524375,26.1452344 115.426875,26.1541406 L115.045781,26.1895313 C114.602578,26.2249219 114.39,26.2073438 114.168281,26.375625 C114.159609,26.2959375 114.132891,26.2603125 114.088594,26.2603125 L113.663203,26.2959375 L113.415,26.4377344 C113.406094,26.3578125 113.379609,26.3224219 113.335313,26.3224219 L113.184609,26.4553125 L113.175703,26.3402344 L112.582031,26.2959375 L112.440234,26.3048438 L112.457813,26.5263281 L112.759219,26.6060156 L113.042813,26.5884375 C113.140313,26.6503125 113.246719,26.668125 113.370703,26.6592188 L113.618906,26.5352344 L113.627813,26.6327344 C112.236328,26.9782031 112.245234,26.9163281 111.288047,27.0757031 C111.181641,27.0049219 111.101953,26.9695313 111.04875,26.9782031 L111.030938,26.9960156 C110.924766,26.9871094 110.862656,26.9163281 110.85375,26.8010156 L111.350156,26.7389063 C111.385547,26.7389063 111.412031,26.7745313 111.686719,26.8277344 C112.085625,26.6327344 112.103438,26.5528125 112.316016,26.5352344 L112.298438,26.3135156 C110.933438,26.5795313 111.483047,26.4021094 109.772578,26.5528125 L109.692656,26.5617188 L109.675078,26.3402344 C111.873047,26.0742188 111.137344,26.2249219 111.890625,26.0123438 C111.899531,26.0920313 111.92625,26.1274219 111.970547,26.1274219 C112.059141,26.0388281 112.156641,25.9945313 112.271719,25.9767188 L112.422422,25.9680469 C113.193516,25.9059375 113.450625,26.0566406 114.975,25.63125 L114.983672,25.72875 L115.231875,25.6045313 L115.462266,25.5869531 C115.444688,25.3652344 115.781484,25.3298438 115.896563,25.3209375 L115.878984,25.0816406 C113.202422,25.6223438 112.502109,25.4716406 111.757734,25.6844531 L111.748828,25.5869531 C111.04875,25.7109375 111.022266,25.6577344 110.844844,25.6666406 C110.791641,25.6755469 110.711953,25.7198438 110.623359,25.8084375 C110.614453,25.72875 110.587969,25.693125 110.534766,25.693125 C110.508047,25.693125 110.499375,25.7020313 110.490469,25.7020313 L108.221484,26.0742188 C108.212813,26.0123438 108.186094,25.9767188 108.132891,25.985625 C106.954219,26.2338281 107.273203,26.278125 105.695625,26.4199219 C105.624844,26.4288281 105.527344,26.4642188 105.403359,26.5439063 C105.394453,26.4820313 105.358828,26.4466406 105.279141,26.4553125 L104.313047,26.5352344 L103.666172,26.6946094 C103.657266,26.6327344 103.621875,26.5971094 103.542188,26.6060156 C103.178672,26.7035156 102.859688,26.765625 102.602578,26.7832031 L102.585,26.7832031 C102.425391,26.8010156 102.664688,26.7389063 102.540703,26.6859375 L102.345703,26.8010156 C102.062109,26.8277344 102.212813,26.7832031 101.237813,26.7921094 C99.5273438,27.0049219 99.7134375,27.0314063 99.5273438,27.0403125 L98.8891406,26.9960156 C98.8980469,27.058125 98.8626563,27.1024219 98.7916406,27.1024219 C98.0650781,27.0049219 97.6928906,26.8896094 97.6839844,26.7567188 C97.7814844,26.0655469 97.9497656,25.7109375 98.1890625,25.693125 L98.3132813,25.6844531 L98.206875,25.9148438 L98.3308594,25.9059375 C98.56125,25.7817188 98.6676563,25.6666406 98.65875,25.5602344 L98.6411719,25.3209375 L98.4105469,25.33875 L98.3929688,25.1170313 C98.3751563,24.94875 98.401875,24.7980469 98.46375,24.6740625 L98.9866406,23.8319531 L99.0044531,24.0536719 L99.2526563,24.0358594 L99.2348438,23.814375 L99.0930469,23.6104688 C99.2791406,23.4508594 99.4209375,23.3622656 99.53625,23.3533594 L99.5273438,23.2382813 L99.1905469,23.2647656 L99.1640625,22.9279688 C99.8376563,21.5278125 100.156641,20.7124219 100.138828,20.4820313 L100.378125,20.5795313 C100.528828,20.570625 100.599609,20.4820313 100.590938,20.3224219 L100.360313,20.3402344 L100.351641,20.2427344 C100.333828,20.0742188 100.369219,19.9148438 100.440234,19.7730469 C100.803516,19.3919531 100.972031,19.0108594 100.936406,18.6119531 C101.007422,18.6030469 101.042813,18.6386719 101.051719,18.7183594 C101.362031,18.5411719 101.601328,18.07125 101.778516,17.2914844 C102.327891,16.2989062 103.107891,14.3135156 104.126953,11.3446875 C106.076953,6.09796875 105.997031,5.5396875 106.271719,4.29890625 L106.041328,4.31648437 C106.059141,4.47609375 106.02375,4.62679687 105.952734,4.76859375 C105.793125,4.70648437 105.669141,4.67109375 105.580547,4.68 L105.571641,4.5825 C105.53625,4.13039062 105.722344,3.58992188 106.147734,2.95171875 L106.254141,2.9428125 L106.449141,3.705 L106.679531,3.68742188 C106.670625,3.63421875 106.732734,3.3328125 106.856719,2.77453125 C106.847813,2.65921875 106.759219,2.5884375 106.582031,2.57953125 L106.360547,2.72132812 C106.342734,2.56171875 106.351641,2.14523437 106.378125,1.48054688 L106.262813,1.48945312 C106.068047,1.29445312 105.970547,1.13484375 105.961641,1.00195312 L104.694141,1.1259375 C104.685469,1.03734375 104.641172,0.904453125 104.552344,0.7359375 C104.543672,0.620859375 104.827266,0.505546875 105.412031,0.39046875 L105.669141,0.48796875 L105.908438,0.346171875 C105.917344,0.425859375 105.961641,0.46125 106.050234,0.45234375 L106.289531,0.310546875 C106.298438,0.39046875 106.342734,0.425859375 106.431328,0.416953125 L106.546641,0.408046875 L106.528828,0.151171875 C106.351641,0.16875 105.881953,0.16875 105.137344,0.142265625 L104.898047,0.301875 L104.889141,0.160078125 C98.9423438,0.64734375 95.5657031,0.922265625 94.7592188,1.00195312 C94.6528125,1.01085937 94.2363281,1.00195312 93.5008594,0.984140625 C93.5095313,1.08164063 93.4209375,1.13484375 93.24375,1.15265625 L92.9866406,1.03734375 L92.1182813,1.2590625 C91.914375,1.27664063 91.5686719,1.26773437 91.0900781,1.21453125 C90.9571875,1.3209375 90.7975781,1.38304688 90.6025781,1.40085937 C90.4964063,1.40953125 91.8700781,1.32984375 93.14625,1.24125 C93.0133594,1.34765625 92.8094531,1.40953125 92.5258594,1.43625 C92.3308594,1.45382812 92.1625781,1.42734375 92.0207813,1.34765625 C91.8257813,1.43625 91.1964844,1.57804688 90.1417969,1.790625 L89.8849219,1.693125 L85.7371875,2.33132813 C85.5775781,2.25164062 85.3914844,2.22492187 85.1786719,2.24273437 C84.9571875,2.2603125 84.585,2.34023437 84.0710156,2.48203125 L82.0680469,3.315 L82.2185156,3.56320312 C82.3160156,3.55429687 82.4578125,3.50109375 82.6263281,3.40359375 L83.3353125,3.46570312 L83.2467188,4.13039062 C82.5909375,4.42289062 82.2098438,4.8571875 82.1034375,5.4065625 C81.1197656,5.84085937 80.6322656,6.15117188 80.6322656,6.33726562 L80.6411719,6.45234375 L80.7916406,6.44367188 L81.0576563,6.301875 L81.3677344,6.6740625 L81.4120312,7.18804687 C81.4298438,7.34765625 79.7725781,10.8304687 76.4578125,17.6371875 C73.5864844,24.1954688 72.0796875,27.7849219 71.9378906,28.4317969 C70.9542187,28.7064844 70.3870313,29.1053906 70.2185156,29.6371875 C70.2363281,29.8054688 70.5288281,29.9207813 71.0960156,29.9650781 L71.1225,30.2219531 L70.865625,30.6473438 L70.9099219,31.1615625 C70.9364063,31.4273438 71.6542969,31.63125 73.0635937,31.7730469 C73.0546875,31.6844531 73.0989844,31.63125 73.1964844,31.6223438 C73.2229688,31.9413281 73.134375,32.5617188 72.9304688,33.4835156 L73.0811719,33.4746094 C73.6661719,32.6770313 73.9408594,32.1274219 73.914375,31.82625 L74.0383594,31.8173438 C74.1801562,31.8084375 74.3308594,31.9680469 74.5080469,32.3135156 C74.3308594,32.3845313 73.7104688,33.7935938 72.646875,36.5498438 L72.7975781,36.7980469 L72.9482813,36.7891406 C74.2511719,33.4924219 75.0665625,31.6666406 75.403125,31.3209375 C77.1138281,31.1702344 80.07375,30.8690625 84.2746875,30.4169531 L84.5407031,30.2573438 C84.549375,30.3461719 84.6025781,30.3904688 84.7000781,30.3815625 L84.975,30.3548438 L85.2407813,30.1954688 C85.2496875,30.2840625 85.3028906,30.3283594 85.4003906,30.3194531 L88.5820313,30.0447656 C89.4239063,29.97375 89.8228125,29.716875 89.7871875,29.2825781 C89.7785156,29.1672656 90.2746875,29.034375 91.2761719,28.8925781 C91.3736719,28.8836719 91.5154688,28.9103906 91.7104688,28.9722656 C91.7015625,28.8925781 92.206875,28.8128906 93.2172656,28.7242969 C93.24375,28.1925 93.4120313,27.9089063 93.7134375,27.8821875 L93.6869531,27.6253125 C93.4033594,27.6517969 93.0841406,27.7228125 92.7119531,27.8467969 C92.0472656,27.8114063 91.621875,27.7582031 91.4446875,27.6960938 C91.2672656,27.7935938 91.134375,27.8467969 91.036875,27.8557031 L88.8213281,27.9264844 L88.5553125,28.0682813 C88.5464063,27.9885938 88.4934375,27.9532031 88.3959375,27.9621094 L88.2717188,27.9707813 L87.988125,28.1128125 C87.9792188,28.0328906 87.7488281,27.9707813 87.2880469,27.9089063 L87.0044531,28.0771875 L86.4550781,28.1214844 L86.4461719,27.9796875 C89.2999219,27.6696094 90.7089844,27.2796094 90.6735938,26.8188281 C90.8596875,26.8010156 90.9571875,26.8896094 90.9747656,27.0757031 L91.8079688,26.863125 L91.7814844,26.6060156 L84.9482813,26.7921094 C84.9571875,26.8807031 84.9128906,26.9339063 84.8153906,26.9428125 L83.9821875,26.8720313 C83.7696094,26.8896094 83.5924219,26.9517188 83.450625,27.058125 L83.1403125,26.9428125 C82.280625,27.0138281 81.6424219,27.12 81.2170313,27.253125 C80.6322656,27.2088281 79.9851563,27.2175 79.2672656,27.2796094 L77.7342187,27.4125 L77.0252344,27.3328125 C76.9896094,26.8807031 77.8671094,24.65625 79.6750781,20.668125 C80.1979688,19.3209375 80.6765625,18.4790625 81.1373438,18.1600781 C81.2348438,18.1511719 81.3766406,18.1865625 81.5716406,18.26625 L82.6617188,17.8940625 L83.22,17.9826563 C84.1596094,17.9029688 85.2496875,17.6371875 86.499375,17.1761719 C86.8094531,17.1496875 87.0398438,17.1675 87.2083594,17.2382813 L88.0413281,17.0432813 L90.5228906,16.8304688 C91.5775781,16.741875 92.7208594,16.5114844 93.9616406,16.1303906 L93.9349219,15.8735156 C93.4741406,15.9178125 93.2348438,15.8378906 93.2172656,15.6517969 C93.1905469,15.3063281 92.85375,15.1642969 92.206875,15.2175 L92.1801563,14.960625 L92.8626563,14.765625 L94.6528125,14.6149219 L94.6263281,14.3580469 C94.5553125,14.3667188 94.1920313,14.3580469 93.5184375,14.3313281 L93.4919531,14.0566406 L94.183125,13.9945312 C94.3692188,13.9769531 94.4491406,13.888125 94.4313281,13.7109375 C93.5008594,13.7374219 93.0309375,13.693125 93.0222656,13.5691406 C86.5347656,13.888125 83.2821094,13.9502344 83.2645313,13.7463281 C83.1670313,13.7552344 83.0339063,13.8173438 82.8567188,13.92375 L82.6884375,13.6577344 C84.4075781,10.0064063 85.4179688,8.1628125 85.7104688,8.13632812 C85.719375,8.278125 85.6483594,8.50851563 85.4976563,8.81882813 L85.5065625,8.93390625 L85.7814844,8.90742188 C86.46375,7.27664062 87.0398438,6.43476562 87.5184375,6.399375 C89.5567969,6.22195312 87.2348438,6.0890625 91.5953906,5.4065625 C91.7725781,5.48648437 91.8965625,5.521875 91.9851563,5.51296875 C93.695625,5.16726562 96.0796875,4.80398437 99.1373438,4.43179687 L99.1195313,4.1746875 L97.4889844,4.32539062 L97.4711719,4.06828125 C97.6661719,4.05070312 97.8257813,3.98859375 97.9586719,3.8821875 L97.9675781,4.02398437 C98.0561719,4.0153125 98.1801563,3.95320312 98.3397656,3.84679687 C98.6233594,3.8203125 98.8359375,3.84679687 98.9866406,3.92648437 C99.5538281,3.77601562 100.014844,3.6871875 100.351641,3.65179687 L101.370703,3.55429687 C101.618906,3.39492187 101.734219,3.253125 101.725313,3.12 L101.716406,3.00492187 C101.459297,3.03140625 101.167031,3.01382812 100.821328,2.95171875 C100.812422,2.80992187 100.883203,2.71242187 101.051719,2.668125 L102.948281,2.4909375 L103.816875,2.26921875 C103.825781,2.36671875 103.870078,2.40210937 103.940859,2.40210937 C104.029453,2.3934375 104.153672,2.33132813 104.313047,2.22492187 C104.357578,2.23382813 104.410547,2.23382813 104.454844,2.24273437 C104.339766,2.48203125 104.206875,2.82773438 104.07375,3.27960937 L103.825781,3.29742187 C103.807969,3.12890625 103.763672,2.97820312 103.683984,2.8453125 L103.559766,2.85421875 C101.255625,9.27070313 100.227422,12.2575781 98.1004688,17.1850781 C97.7104688,18.4436719 97.3825781,19.14375 97.0989844,19.2944531 C97.1078906,19.43625 97.1964844,19.5070313 97.3471875,19.4894531 C97.4003906,20.1098438 97.2585938,20.7213281 96.9128906,21.3239063 C95.9289844,24.1600781 95.2732031,25.7109375 94.9364063,25.9945313 L95.158125,27.3328125 C95.1667969,27.4746094 95.0960156,27.5542969 94.9453125,27.5721094 L94.7149219,27.5899219 C94.6795313,27.2175 94.5464063,27.0403125 94.3073438,27.0670313 L94.183125,27.0757031 C93.8817188,27.5453906 93.6513281,28.0860938 93.5008594,28.7153906 L93.73125,28.6975781 C94.0413281,28.4939063 94.183125,28.2546094 94.1566406,27.9796875 L94.6174219,27.9353906 L94.8832031,28.0328906 C94.670625,28.3696875 94.573125,28.6357031 94.5909375,28.839375 L94.7149219,29.0521875 L94.4135156,29.7611719 L94.4224219,29.8764844 C94.6884375,29.8497656 94.9807031,29.9383594 95.2910156,30.1244531 C95.5035938,30.106875 95.7342188,30.009375 95.9910938,29.8408594 C96.2571094,29.814375 97.2496875,29.8054688 98.9601563,29.8054688 L99.8198438,29.5129688 C100.865625,29.5040625 101.033906,29.5307813 101.937891,29.4508594 L102.310078,29.4154688 L102.505078,29.2825781 L102.513984,29.3978906 C103.462266,29.3179688 103.524375,29.3800781 104.26875,29.4686719 L104.277656,29.5839844 L103.754766,29.6282813 L103.772578,29.8497656 C103.931953,29.8319531 104.07375,29.7876563 104.189063,29.6901563 C104.321953,29.6814844 104.401641,29.7522656 104.410547,29.911875 C104.197969,29.9294531 103.958672,29.9826563 103.692656,30.07125 L103.462266,29.9915625 C103.098984,30.0890625 103.178672,30.1155469 102.930469,30.1333594 L102.567188,30.0625781 C102.576094,30.1244531 102.540703,30.16875 102.478594,30.16875 C102.4875,30.3105469 102.567188,30.3815625 102.700078,30.3726563 L103.072266,30.3372656 L105.013359,30.16875 L105.748828,30.009375 C105.757734,30.07125 105.784219,30.106875 105.846328,30.0979688 L106.200938,29.9650781 L106.865625,29.911875 C107.379609,29.8675781 107.370703,29.8319531 108.4875,29.6547656 C108.478594,29.5839844 108.505078,29.5572656 108.558281,29.5483594 L108.567188,29.6458594 C110.384063,29.3357813 110.499141,29.3179688 110.791641,29.2204688 L110.818359,29.2736719 C111.270234,29.1672656 111.013359,29.1939844 111.137344,29.1053906 C111.14625,29.1850781 111.172734,29.2204688 111.217031,29.2204688 L111.53625,29.1939844 L111.518438,28.9546875 L110.871563,28.9457813 L110.862656,28.9279688 C110.835938,28.936875 110.818359,28.936875 110.791641,28.9457813 L110.703047,28.9457813 L110.703047,28.9635938 C110.26875,29.0521875 110.259844,28.9900781 109.97625,29.0167969 L108.354375,29.1053906 L108.345703,28.9900781 L109.249688,28.8660938 L109.577578,28.839375 L109.763672,28.7064844 L109.772578,28.8217969 C111.04875,28.7153906 111.500625,29.034375 117.403125,27.7760156 C117.722344,27.7492969 117.695625,27.4835156 117.899531,26.9339063 C117.793125,26.9428125 117.686719,26.9163281 117.589453,26.863125 C117.101953,27.0492188 116.844844,26.960625 115.905469,27.1113281 C115.825781,27.1202344 115.763672,27.0492188 115.736953,26.9074219 L115.728047,26.8099219 L116.632031,26.8364063 C116.800547,26.8188281 117.128438,26.7921094 117.615938,26.5174219 C117.615938,26.5971094 117.429844,26.6414063 117.536016,26.6327344 L117.53625,26.6327344 Z M102.912891,29.9294531 L102.895078,29.7079688 L102.824297,29.716875 L102.841875,29.9383594 L102.912891,29.9294531 Z M95.8671094,22.6446094 L95.8582031,22.5292969 L95.7342187,22.5382031 L95.5125,22.68 L95.6367187,22.8925781 C95.805,22.875 95.8846875,22.7950781 95.8671094,22.6446094 L95.8671094,22.6446094 Z M99.1108594,24.3904688 L98.8715625,24.3107813 C98.6765625,24.8334375 98.5790625,25.14375 98.5879687,25.2323438 L98.5966406,25.3298438 C98.7829687,25.3209375 98.95125,25.0019531 99.1108594,24.3904688 L99.1108594,24.3904688 Z M115.285078,28.3075781 C112.590937,28.9103906 112.254141,28.8039844 111.686953,28.8482813 L111.704531,29.0697656 L111.952734,29.0521875 L112.085625,29.0432813 L112.050234,29.0167969 L112.342734,28.9014844 C115.010391,28.6089844 115.320469,28.7153906 115.293984,28.4139844 L115.285078,28.3075781 Z M115.834453,28.2632813 L115.852266,28.485 L116.242266,28.5557813 L116.224453,28.3342969 L115.834453,28.2632813 Z M100.777031,30.2308594 L100.794609,30.4523438 L100.83,30.4523438 L100.812422,30.2308594 L100.777031,30.2308594 Z M97.4978906,30.5055469 L96.8950781,30.4347656 L96.7886719,30.6651563 L96.7975781,30.7804688 L100.387031,30.4790625 L100.369219,30.2575781 L97.4978906,30.5055469 Z M34.865625,21.5542969 L35.1314062,21.4924219 L35.0782031,21.2617969 L34.8124219,21.3239063 L34.865625,21.5542969 Z M34.9010156,24.6119531 L35.0695313,24.5055469 C35.0339062,24.5055469 35.0074219,24.4966406 34.9807031,24.4879688 C34.9188281,24.5055469 34.8921094,24.5498438 34.9010156,24.6119531 L34.9010156,24.6119531 Z M28.6263281,36.399375 L28.6528125,36.5144531 C28.8035156,36.4790625 28.865625,36.3904688 28.8302344,36.2486719 L28.8035156,36.1333594 C28.6617188,36.16875 28.5996094,36.2575781 28.6263281,36.399375 L28.6263281,36.399375 Z M29.5035938,38.1452344 L29.2732031,38.1984375 L29.0782031,38.3667188 C29.1138281,38.5085156 29.2024219,38.5617188 29.353125,38.5263281 C29.5035938,38.4909375 29.5657031,38.4023438 29.5303125,38.2605469 L29.5035938,38.1452344 Z M70.7592188,16.6178906 L70.7327344,16.2810938 L70.963125,16.2635156 L71.4592969,16.5646875 C71.4682031,16.7064844 71.3974219,16.7864063 71.2467188,16.8039844 C71.0339063,16.6710938 70.8745313,16.6089844 70.7592188,16.6178906 L70.7592188,16.6178906 Z M69.7223438,12.9309375 C69.4120313,13.3033594 68.5701562,13.9413281 67.1964844,14.8277344 C66.7357031,14.8720313 65.0339063,15.5278125 62.0915625,16.8039844 C61.9497656,16.7507813 61.7901563,16.7332031 61.621875,16.741875 L61.6040625,16.5203906 C61.5686719,16.095 61.7547656,15.5632031 62.1625781,14.9163281 C62.3929688,13.693125 62.6498438,13.0108594 62.9158594,12.85125 L65.3885156,7.3209375 C65.3617969,6.99304688 65.8846875,6.72726562 66.9482813,6.52335937 L67.3028906,6.496875 L67.329375,6.8334375 C68.3751563,6.66515625 69.0309375,6.56765625 69.2969531,6.54117188 C71.2467188,6.37265625 72.2657813,6.76265625 72.3457031,7.71984375 L72.5760938,7.70203125 L72.5317969,7.17023438 L72.7621875,7.15265625 C73.329375,7.46273438 73.6307813,7.83492187 73.6661719,8.278125 C73.6926562,8.59710937 73.5332813,8.98710937 73.1964844,9.43921875 C73.0457813,9.45679688 72.9571875,9.350625 72.939375,9.12 L72.7089844,9.1378125 L72.6382031,9.8025 C71.6542969,11.3003906 70.9364063,12.07125 70.4845313,12.106875 C70.085625,12.6473438 69.8374219,12.9222656 69.7223438,12.9309375 L69.7223438,12.9309375 Z M68.7916406,18.3283594 L69.14625,18.301875 C69.4741406,18.46125 69.6426562,18.6030469 69.6513281,18.7183594 L69.6602344,18.8158594 C69.3501563,18.8423438 69.0576562,18.6829688 68.7916406,18.3283594 L68.7916406,18.3283594 Z M62.0826563,19.4716406 L62.5436719,19.4273438 L62.5523438,19.5426563 L62.0915625,19.5869531 L62.0826563,19.4716406 Z M67.8789844,22.7332031 L64.9277344,25.1083594 C62.7208594,26.5528125 61.524375,27.2796094 61.3382812,27.2974219 C57.82875,29.229375 55.6483594,30.2308594 54.7886719,30.301875 L54.6646875,30.3105469 C54.7710937,29.911875 56.3397656,26.7124219 59.3707031,20.7035156 C60.6911719,20.5884375 62.7829687,19.9591406 65.6542969,18.8247656 L66.3721875,18.7626563 C67.816875,18.6386719 68.8980469,18.9222656 69.6070313,19.6045313 L69.6426562,20.0388281 C69.1019531,21.5632031 68.5169531,22.4582813 67.8789844,22.7332031 L67.8789844,22.7332031 Z M58.2895313,30.0979688 C58.865625,30.0447656 59.353125,29.8232813 59.7607031,29.4332813 C59.9114063,29.424375 60,29.4864844 60.0089063,29.6282813 C59.7428906,29.6547656 59.22,29.8764844 58.4313281,30.301875 L58.3073438,30.3105469 L58.2895313,30.0979688 Z M64.2274219,28.1482031 C62.2776562,29.1142969 61.1165625,29.7700781 60.7532812,30.106875 C58.6263281,30.85125 57.5716406,31.3120313 57.5894531,31.498125 C55.7015625,32.2516406 54.4607812,32.7921094 53.8760156,33.1378125 C53.7342187,33.1467188 53.5303125,33.0935156 53.2642969,32.9695313 C53.2289062,32.5884375 53.4060937,32.278125 53.7785156,32.0477344 C54.1153125,32.02125 54.4342969,32.0655469 54.7267969,32.1895313 C55.0811719,32.0123438 55.6926562,31.8173438 56.56125,31.595625 L56.5436719,31.3741406 L55.8257812,31.43625 C55.914375,31.3120313 56.5966406,30.9930469 57.8641406,30.4790625 L58.2185156,30.4523438 L58.2274219,30.5498438 C57.6248437,30.6030469 57.2880469,30.7804688 57.2170312,31.0994531 C57.2259375,31.24125 57.3145312,31.3120313 57.4652344,31.2944531 C57.9084375,31.0019531 58.1210156,30.8334375 58.1210156,30.7804688 C58.9720312,30.6297656 61.329375,29.3889844 65.2024219,27.0670313 L65.22,27.2885156 C65.22,27.3771094 64.8921094,27.6607031 64.2274219,28.1482031 L64.2274219,28.1482031 Z M54.2746875,31.2234375 L54.6292969,31.1969531 L54.6379688,31.3120313 C54.5582813,31.3209375 54.4342969,31.3652344 54.2925,31.4451563 L54.0621094,31.4627344 C54.0532031,31.33875 54.1239844,31.2590625 54.2746875,31.2234375 L54.2746875,31.2234375 Z M54.4696875,28.1039063 L54.4785937,28.2014063 C54.4964062,28.3607813 54.4253906,28.449375 54.2657812,28.4582813 L54.2571094,28.3432031 C54.2482031,28.2278906 54.3189844,28.1482031 54.4696875,28.1039063 L54.4696875,28.1039063 Z M55.1697656,26.6060156 C55.0192969,27.350625 54.8596875,27.7317188 54.6911719,27.7492969 L54.6825,27.6517969 C54.6557813,27.2796094 54.8153906,26.925 55.1697656,26.6060156 L55.1697656,26.6060156 Z M58.9542188,15.8557031 L58.8745313,16.4228906 L58.768125,16.4317969 L58.7238281,15.8735156 L58.9542188,15.8557031 Z M59.3264063,14.8277344 L59.4328125,14.8188281 L59.4417188,14.9339063 L59.2378125,15.2885156 L59.0074219,15.3063281 L58.9985156,15.1910156 C59.2378125,15.1732031 59.3442188,15.0492188 59.3264063,14.8277344 L59.3264063,14.8277344 Z M59.6985938,13.693125 L59.9289844,13.6755469 C59.9025,14.0477344 59.805,14.2427344 59.6367188,14.2603125 L59.5125,14.2692188 C59.6453906,14.02125 59.7075,13.82625 59.6985938,13.693125 L59.6985938,13.693125 Z M60.2214844,12.8690625 L60.2571094,13.3033594 L60.1328906,13.3122656 L60.0975,12.8779688 L60.2214844,12.8690625 Z M61.1875781,10.5646875 L61.3115625,10.5557813 L61.3382813,10.8925781 C61.2229688,10.9014844 61.0811719,11.0610938 60.9128906,11.3711719 L60.8950781,11.1496875 C61.0989844,10.8925781 61.1964844,10.6975781 61.1875781,10.5646875 L61.1875781,10.5646875 Z M61.5686719,17.7346875 L61.1078906,17.7789844 L61.0900781,17.5572656 L61.5508594,17.5129688 L61.5686719,17.7346875 Z M75.4741406,5.7965625 L75.3677344,6.02695312 L72.0885937,4.65328125 C74.2776562,4.72429687 75.4120312,5.10539063 75.4741406,5.7965625 L75.4741406,5.7965625 Z M75.793125,8.33132812 C75.6780469,8.34023438 75.4563281,7.985625 75.1108594,7.26773438 L75.0930469,7.04625 C75.3145312,7.0284375 75.5451562,7.37414063 75.7755469,8.083125 L75.793125,8.33132812 Z M51.5627344,33.6785156 C51.2969531,33.5542969 51.0576563,33.5010938 50.85375,33.5189063 L50.8272656,33.1821094 C50.8183594,33.0670313 50.8891406,32.9871094 51.0398438,32.9428125 C51.1905469,32.9252344 51.2791406,33.0314063 51.2969531,33.2617969 C51.6780469,32.7745313 51.890625,32.5263281 51.9349219,32.5263281 L52.1742188,32.6238281 C52.085625,33.2974219 51.8819531,33.6517969 51.5627344,33.6785156 L51.5627344,33.6785156 Z M53.8228125,10.9811719 L53.7164062,10.9900781 L53.6985937,10.7685937 L54.1596094,10.7242969 L54.1682812,10.839375 C54.0885937,10.8571875 53.9735156,10.9014844 53.8228125,10.9811719 L53.8228125,10.9811719 Z M48.3367969,15.6785156 C48.2128125,17.0875781 47.7164063,17.8851563 46.8389063,18.0890625 L46.8124219,17.9739844 L46.0324219,18.2751563 L45.6869531,18.3550781 C45.5095313,18.399375 45.3501563,18.3904688 45.2083594,18.3461719 L45.1373438,18.0358594 C45.1108594,17.9207813 46.2363281,16.3607813 48.5228906,13.3652344 L48.7886719,13.4095313 C48.8861719,13.8173438 48.7357031,14.570625 48.3367969,15.6785156 L48.3367969,15.6785156 Z M45.2348437,19.0284375 C45.1551562,19.04625 45.04875,19.1170313 44.9158594,19.2234375 C44.8980469,19.14375 44.7386719,19.14375 44.4372656,19.2145313 C44.3840625,18.9930469 45.2348437,18.6829688 46.9985156,18.2751563 L47.2467187,18.2219531 L47.2999219,18.4347656 C46.0591406,18.7980469 45.3677344,19.0019531 45.2348437,19.0284375 L45.2348437,19.0284375 Z M45.0576563,21.3592969 L45.0309375,21.2442187 C45.1108594,21.2264062 45.2170313,21.1645312 45.3323438,21.0492187 L46.4845313,20.7832031 L46.5110156,20.8985156 C45.8995313,21.0492187 45.4120313,21.1999219 45.0576563,21.3592969 L45.0576563,21.3592969 Z M43.8079688,21.7582031 L43.5597656,21.7139063 C43.1610938,21.8735156 42.8242969,21.9885938 42.549375,22.0507031 L42.3189844,22.1039063 C42.1860938,22.1392969 42.0796875,22.0860938 42.0264844,21.9442969 L43.6483594,21.5721094 L44.1801563,21.3239063 L44.3575781,21.5278125 C44.1004688,21.5810156 43.914375,21.6607031 43.8079688,21.7582031 L43.8079688,21.7582031 Z M41.3796094,42.0979688 C41.415,41.9383594 41.4239062,41.8232813 41.4060937,41.7433594 L41.5303125,41.716875 C41.6810156,41.6814844 41.7696094,41.7346875 41.805,41.8764844 L41.8317187,41.9915625 L41.3796094,42.0979688 Z M37.914375,20.8453125 L37.8876563,20.7302344 L38.4461719,20.5971094 L38.499375,20.8099219 L37.914375,20.8453125 Z M34.670625,24.3372656 C34.5377344,24.3726563 34.4313281,24.3107813 34.3692188,24.1600781 L34.7149219,24.0801563 C34.865625,24.0447656 34.963125,24.106875 34.9985156,24.2575781 L34.670625,24.3372656 Z M33.4741406,24.6208594 C32.9069531,24.6740625 33.0309375,24.6030469 32.1269531,24.8069531 L32.1004688,24.6916406 L33.2348437,24.3283594 L33.7755469,24.204375 L33.82875,24.4169531 C33.5805469,24.4701563 33.7577344,24.4701563 33.4741406,24.6208594 L33.4741406,24.6208594 Z M32.1625781,24.0625781 C32.5436719,24.0004688 32.7297656,23.9739844 33.43875,23.814375 L33.4652344,23.9294531 L32.1182812,24.2397656 C32.1358594,24.1776563 32.1536719,24.1157813 32.1625781,24.0625781 L32.1625781,24.0625781 Z M31.2672656,23.0610938 L31.2407812,22.9457813 L31.6129687,22.8571875 L31.6396875,22.9725 L31.2672656,23.0610938 Z M31.0725,21.8378906 C31.3560938,21.9532031 31.524375,22.0771875 31.5597656,22.1925 L31.4179687,22.2278906 L31.426875,22.2367969 C31.4003906,22.2367969 31.3647656,22.2457031 31.3382813,22.2546094 L31.1254687,22.4228906 L31.0725,21.8378906 Z M29.0163281,19.4008594 C28.7503125,19.2234375 28.5377344,19.14375 28.378125,19.1526563 L28.3427344,18.7183594 L28.6352344,18.6916406 L29.2821094,19.0729688 C29.3088281,19.2766406 29.22,19.3830469 29.0163281,19.4008594 L29.0163281,19.4008594 Z M27.0309375,14.3048438 C26.6233594,14.7921094 25.5065625,15.6253125 23.6810156,16.7950781 C23.0782031,16.8482813 20.8359375,17.716875 16.9542187,19.4184375 C16.7592187,19.3298438 16.5553125,19.2944531 16.3338281,19.3120313 L16.3073438,19.0373438 C16.2630469,18.4790625 16.5110156,17.7789844 17.060625,16.9282031 C17.3617969,15.3328125 17.6899219,14.4199219 18.0532031,14.1984375 L21.2880469,6.92226563 C21.2526563,6.47015625 21.9438281,6.12445312 23.3617969,5.88515625 L23.8228125,5.84085938 L23.8582031,6.25757813 C25.2496875,6.04476563 26.1180469,5.92078125 26.4548438,5.8940625 C29.0252344,5.67257812 30.3632812,6.19546875 30.4696875,7.44515625 L30.7621875,7.4184375 L30.7000781,6.68296875 L31.0192969,6.65625 C31.7725781,7.07273438 32.1801562,7.57804687 32.2333594,8.17171875 C32.26875,8.57953125 32.0472656,9.08460938 31.5775781,9.68742187 C31.3825781,9.705 31.2672656,9.56320313 31.2496875,9.27960938 L30.9304688,9.30632813 L30.8596875,10.1925 C29.5567969,12.1422656 28.6085156,13.14375 28.02375,13.1969531 C27.4919531,13.9324219 27.1640625,14.2959375 27.0309375,14.3048438 L27.0309375,14.3048438 Z M25.7814844,21.4214063 L26.2422656,21.3771094 C26.6676563,21.5810156 26.8891406,21.7582031 26.9069531,21.9178125 L26.9158594,22.0596094 C26.5080469,22.095 26.1269531,21.8821875 25.7814844,21.4214063 L25.7814844,21.4214063 Z M16.9453125,22.9192969 L17.5746094,22.8660937 L17.5835156,23.0078906 L16.9542187,23.0610937 L16.9453125,22.9192969 Z M24.585,27.2175 L20.6765625,30.3194531 C17.7696094,32.2249219 16.2098437,33.1821094 15.9792188,33.1999219 C11.353125,35.7433594 8.47265625,37.0640625 7.35609375,37.1615625 L7.18757812,37.1791406 C7.329375,36.65625 9.38554687,32.4466406 13.3736719,24.5233594 C15.1284375,24.3726563 17.8935937,23.5572656 21.6602344,22.0685156 L22.5820312,21.9885938 C24.4875,21.8203125 25.914375,22.1925 26.85375,23.0786719 L26.9069531,23.6547656 C26.206875,25.6844531 25.426875,26.8720313 24.585,27.2175 L24.585,27.2175 Z M11.9735156,36.9044531 C12.7178906,36.8423438 13.3560938,36.5411719 13.8876562,36.0182813 C14.1004687,36.0004688 14.2157813,36.0801563 14.2244531,36.26625 C13.8611719,36.301875 13.1610938,36.6030469 12.1417969,37.1880469 L11.9910937,37.1969531 L11.9735156,36.9044531 Z M19.7901563,34.3342969 C17.2024219,35.6104688 15.6780469,36.4790625 15.2259375,36.9309375 C12.4253906,37.9059375 11.0339062,38.5085156 11.060625,38.7478125 C8.57015625,39.7317188 6.93046875,40.4582813 6.14179687,40.9103906 C5.95570312,40.9279688 5.68992187,40.8571875 5.3353125,40.6975781 C5.29101562,40.1925 5.52140625,39.7846875 6.00890625,39.4567969 C6.44320312,39.4214063 6.8596875,39.4835156 7.25859375,39.6517969 C7.719375,39.4125 8.52585937,39.1467188 9.66914063,38.863125 L9.64265625,38.5617188 L8.72085937,38.6414063 C8.8359375,38.4820313 9.72234375,38.0655469 11.3885156,37.3919531 L11.8492969,37.3476563 L11.8582031,37.4894531 C11.0695312,37.5602344 10.6352344,37.790625 10.5377344,38.2073438 C10.5553125,38.3934375 10.6617187,38.473125 10.8567187,38.4553125 C11.450625,38.083125 11.7428906,37.8616406 11.7342187,37.7995313 C12.8596875,37.5869531 15.9705469,35.9561719 21.0665625,32.9163281 L21.0930469,33.1910156 C21.1019531,33.3239063 20.6676562,33.6960938 19.7901563,34.3342969 L19.7901563,34.3342969 Z M6.67359375,38.3845313 L7.134375,38.3402344 L7.1521875,38.4998438 C7.036875,38.5085156 6.88617187,38.570625 6.70007813,38.6770313 L6.40757813,38.7035156 C6.39,38.5528125 6.4875,38.4377344 6.67359375,38.3845313 L6.67359375,38.3845313 Z M6.939375,34.2810938 L6.94828125,34.4228906 C6.96609375,34.6178906 6.8775,34.7332031 6.6825,34.741875 L6.67359375,34.6000781 C6.65578125,34.4317969 6.744375,34.3253906 6.939375,34.2810938 L6.939375,34.2810938 Z M7.85226563,32.3048438 C7.65726563,33.2974219 7.4446875,33.8025 7.22296875,33.8203125 L7.21429687,33.6785156 C7.16109375,33.1910156 7.37367187,32.7302344 7.85226563,32.3048438 L7.85226563,32.3048438 Z M12.8242969,18.1689844 L12.7357031,18.8955469 L12.585,18.9044531 L12.5228906,18.1865625 L12.8242969,18.1689844 Z M13.3204687,16.8128906 L13.4889844,16.7950781 L13.4976562,16.936875 L13.2229687,17.3978906 L12.9304687,17.424375 L12.9217969,17.2825781 C13.2142969,17.2560938 13.3471875,17.1053906 13.3204687,16.8128906 L13.3204687,16.8128906 Z M13.8257812,15.3063281 L14.1182812,15.2796094 C14.0915625,15.7582031 13.9586719,16.0153125 13.719375,16.0328906 L13.5686719,16.0417969 C13.7547656,15.7228125 13.8433594,15.4746094 13.8257812,15.3063281 L13.8257812,15.3063281 Z M14.4991406,14.2249219 L14.5523437,14.8010156 L14.401875,14.8099219 L14.3486719,14.2338281 L14.4991406,14.2249219 Z M15.7842187,11.1939844 L15.9349219,11.1850781 L15.9705469,11.619375 C15.82875,11.6282812 15.6426562,11.8408594 15.4120312,12.2486719 L15.3855469,11.9472656 C15.6602344,11.619375 15.8020312,11.3711719 15.7842187,11.1939844 L15.7842187,11.1939844 Z M16.280625,20.6327344 L15.6691406,20.6859375 L15.6426562,20.4110156 L16.2541406,20.3578125 L16.280625,20.6327344 Z M34.5820312,4.91929687 L34.4578125,5.21179688 L30.1239844,3.40359375 C33.0133594,3.50109375 34.5023437,4.00640625 34.5820312,4.91929687 L34.5820312,4.91929687 Z M35.0074219,8.22492188 C34.8567187,8.24273437 34.5553125,7.77304688 34.12125,6.84234375 L34.0945312,6.56765625 C34.378125,6.54117188 34.670625,7.00195313 34.9807031,7.95023438 L35.0074219,8.22492188 Z M3.09304687,41.6104688 C2.73867187,41.4508594 2.41945312,41.3889844 2.14476562,41.4154688 L2.109375,40.9811719 C2.0915625,40.8128906 2.1890625,40.6975781 2.401875,40.6532813 C2.59664062,40.6357031 2.71195312,40.7775 2.72976562,41.0610938 C3.24375,40.4317969 3.52734375,40.1128125 3.58054687,40.1039063 L3.9084375,40.2367969 C3.80203125,41.1229688 3.52734375,41.5750781 3.09304687,41.6104688 L3.09304687,41.6104688 Z M6.0796875,11.7346875 L5.92921875,11.7433594 L5.9025,11.4686719 L6.51398437,11.4154687 L6.52289062,11.5572656 C6.42539062,11.5661719 6.2746875,11.619375 6.0796875,11.7346875 L6.0796875,11.7346875 Z M73.1875781,18.94875 L73.2672656,19.8438281 C73.1610938,20.0655469 73.0457813,20.180625 72.939375,20.1895313 L72.8064844,18.6651563 C73.0546875,18.75375 73.1786719,18.8423438 73.1875781,18.94875 L73.1875781,18.94875 Z M73.7725781,18.7980469 C73.7547656,18.55875 73.0103906,17.6282813 71.5392187,15.9885938 C71.5125,15.6874219 72.0178125,15.2353125 73.0546875,14.6416406 L76.0148437,12.0625781 C76.6795312,11.2204688 77.0692969,9.85570313 77.1846094,7.95914063 L77.1492187,7.52484375 C77.0339062,6.21304687 76.085625,5.15859375 74.2865625,4.35210937 C73.2229687,3.63421875 71.3085937,3.2353125 68.5436719,3.16429687 C66.2571094,3.35929687 63.2702344,4.1746875 59.5924219,5.619375 C58.5820312,6.34617188 57.4298437,7.07273438 56.1358594,7.79953125 L56.1536719,8.02125 C56.2333594,8.01234375 56.3573437,7.96804688 56.499375,7.87054688 C56.6498437,7.85273438 56.7386719,7.92375 56.7473437,8.06554688 L56.9690625,7.95023438 L57.0752344,7.94132813 L57.0841406,8.03882813 C57.0930469,8.15414063 56.2954687,8.78320313 54.6825,9.90890625 L54.8064844,10.1392969 L54.7000781,10.1482031 L54.4342969,10.0507031 C54.4432031,10.1303906 54.3278906,10.1835938 54.1064062,10.2014063 L54.1153125,10.2989063 L54.3721875,10.6178906 C54.2925,10.6267969 54.1685156,10.5914063 54,10.5292969 C53.6278125,10.5646875 53.2642969,10.7596875 52.9010156,11.131875 L53.0517187,10.4760938 C53.5924219,8.14523438 53.9646094,6.08015625 54.1596094,4.29 L54.1328906,4.1746875 C53.7607031,3.93539063 53.3974219,3.59859375 53.060625,3.17320312 C53.0695312,2.89851562 53.0695312,2.73890625 53.060625,2.70351562 L53.0339062,2.60601562 L52.9277344,2.63273438 C51.7577344,4.3875 49.5065625,7.38304687 46.1655469,11.619375 C43.621875,14.6327344 42.3100781,16.3075781 42.2303906,16.644375 C41.1935156,17.716875 40.6971094,18.36375 40.7503125,18.5854688 C40.475625,18.7626563 40.3603125,18.9398438 40.4048437,19.1348438 C40.3249219,19.1526563 40.2717187,19.1259375 40.2541406,19.04625 C39.8109375,19.7641406 39.1551562,20.2249219 38.2776562,20.4288281 L37.3558594,20.6414063 C37.231875,20.668125 37.1697656,20.7567188 37.1786719,20.9074219 L37.2053906,21.0225 L37.5508594,20.9428125 L37.5775781,21.0403125 L36.7975781,21.3417188 L35.415,21.6607031 L34.6884375,21.705 C34.5820312,21.8114063 35.2642969,21.6960938 34.9985156,21.7582031 L34.0945312,21.9710156 C33.5451562,22.095 33.24375,22.0507031 33.1905469,21.8292188 L33.0841406,21.8557031 C33.1019531,21.9532031 33.1108594,22.0239844 33.0930469,22.0860938 L33.0398437,21.8646094 L32.3130469,22.0328906 C32.2600781,21.6960938 31.2761719,20.473125 29.3707031,18.36375 C29.3353125,17.9561719 30.0089062,17.3622656 31.3825781,16.5914063 L35.2642969,13.1791406 C36.1328906,12.0625781 36.646875,10.2721875 36.8153906,7.8084375 L36.7621875,7.23234375 C36.6114844,5.49539063 35.353125,4.095 32.9866406,3.01382812 C31.5864844,2.06554687 29.0695312,1.56023437 25.4357812,1.48054688 C22.4224219,1.73742187 18.4875,2.80992187 13.6483594,4.68 C12.3189844,5.64585938 10.8035156,6.60304688 9.10195312,7.55132813 L9.1284375,7.85273438 C9.24375,7.84382813 9.39445312,7.78195312 9.58054687,7.67554688 C9.77554687,7.65773438 9.88195312,7.74632813 9.89953125,7.92375 L10.2009375,7.75523438 L10.3516406,7.74632813 L10.3603125,7.888125 C10.3692187,8.02992188 9.31453125,8.85421875 7.17867187,10.3607813 L7.3471875,10.6267969 L7.19648437,10.6357031 L6.86859375,10.5203906 C6.8775,10.6089844 6.72679687,10.6710938 6.41648437,10.6975781 L6.43429687,10.8571875 L6.78867187,11.2471875 C6.67359375,11.2560938 6.51398437,11.2204688 6.3103125,11.1496875 C5.61890625,11.2115625 4.9453125,11.7079688 4.280625,12.6473438 L4.44914062,12.9133594 C5.02523437,12.3815625 5.36179687,12.1157813 5.45929687,12.106875 L5.49492187,12.5411719 C5.39742187,12.5498438 5.24671875,12.6119531 5.0428125,12.7183594 L5.40632812,13.2677344 C6.10640625,12.5144531 6.8775,11.8675781 7.719375,11.326875 C8.13585937,11.4332813 8.35757812,11.5661719 8.36625,11.7079688 L8.68546875,11.6814844 C10.9720312,9.98859375 13.231875,8.765625 15.4741406,8.01234375 L15.5008594,8.31351563 C15.0841406,8.93390625 14.8005469,9.253125 14.6498437,9.27070313 C14.6676562,9.48351563 14.7386719,9.66960938 14.8715625,9.82921875 C14.9069531,10.2103125 13.8876562,12.7804688 11.8228125,17.5307813 C7.134375,28.5735938 3.19945312,36.7448438 0,42.0269531 C0.00890625,42.1333594 0.071015625,42.2751563 0.18609375,42.4523438 C0.975,42.26625 1.47117187,42.0714844 1.68398437,41.8851563 L1.85226562,41.8675781 L1.87898437,42.16875 L2.17125,42.1422656 L2.47265625,41.9739844 C2.4815625,42.0625781 2.5790625,42.106875 2.78296875,42.0890625 L2.80945312,42.3904688 C2.8359375,42.6829688 2.66765625,43.1259375 2.31304687,43.7374219 C1.9940625,44.1009375 1.64835937,44.863125 1.28507812,46.0242188 L1.29398437,46.1657813 L1.58648437,46.1392969 C2.86265625,44.7124219 3.82875,43.3120313 4.4934375,41.9472656 C8.21578125,40.8571875 11.0517187,39.7846875 13.0192969,38.7302344 C14.9955469,38.5617188 16.5021094,38.0388281 17.5303125,37.1791406 L17.5125,37.0197656 L16.768125,37.24125 L16.5996094,37.2590625 L16.5820312,37.0994531 C18.0353906,36.8779688 19.036875,36.55875 19.5953906,36.1157813 C22.4224219,33.9353906 24.5582812,32.3934375 26.0029687,31.4805469 C28.9720312,29.3003906 30.9039844,27.1732031 31.7814844,25.1083594 C31.9408594,25.0727344 32.1004687,25.0373438 32.2776562,24.9930469 C32.6941406,24.9754688 32.9247656,24.9665625 32.9866406,24.94875 C32.9690625,24.8690625 33.0044531,24.8247656 33.0841406,24.8069531 C33.7488281,24.7361719 33.4298437,24.85125 33.8552344,24.75375 L34.9720312,24.496875 L35.158125,24.4523438 L35.0695312,24.5055469 C35.1935156,24.5233594 35.3264062,24.5144531 35.4771094,24.4790625 L35.5567969,24.8069531 L30.4785937,32.8807031 L29.353125,34.29 L28.8035156,36.1333594 L28.9099219,36.106875 L29.4592969,35.8764844 L29.2821094,36.594375 L29.3353125,36.8069531 L29.4860156,36.9930469 C29.415,37.0108594 29.3885156,37.0551563 29.4060937,37.1348438 L29.4328125,37.2501563 L29.6632031,37.1969531 C30,36.9044531 30.1417969,36.6386719 30.0885937,36.399375 C30.451875,36.46125 30.6911719,36.4879688 30.8153906,36.4525781 L30.841875,36.5676563 C30.6203906,36.6208594 30.5050781,36.7980469 30.4875,37.0994531 L30.5139844,37.2145313 L30.6382031,37.1880469 C32.4815625,35.1761719 37.0014844,28.29 40.6263281,23.619375 C40.5110156,23.1142969 42.3989062,22.4139844 46.2984375,21.51 L46.4224219,21.4835156 C46.5642187,22.095 46.2630469,23.5750781 45.5184375,25.92375 C45.0398437,27.3417188 44.8094531,28.1214844 44.8448437,28.2457031 C44.2244531,30.1333594 43.9319531,31.1526563 43.9675781,31.3120313 L42.585,35.8408594 C41.6896875,38.1630469 41.0074219,40.6000781 40.5288281,43.1702344 C40.6085156,43.1526563 40.7327344,43.1615625 40.9099219,43.2058594 L41.1049219,43.0373438 C41.1225,43.1172656 41.1757031,43.14375 41.255625,43.1259375 L41.1757031,42.7980469 L41.7785156,42.7804688 C41.9557031,42.7361719 42.1064062,42.5144531 42.2303906,42.106875 C42.2039062,41.4953906 42.3278906,41.1675 42.6025781,41.0964844 C42.9747656,39.643125 43.2053906,38.9163281 43.2850781,38.8896094 C43.6307812,37.4451563 43.8876562,36.6208594 44.0561719,36.4169531 C44.5790625,34.5382031 44.9601562,33.5721094 45.2083594,33.51 L45.2615625,33.7403906 L44.8804687,34.7242969 C44.2155469,37.6755469 43.5421875,40.0064063 42.8596875,41.716875 L43.0546875,42.5676563 L43.1786719,42.5411719 C44.8272656,38.9960156 47.2024219,31.9767188 50.2954687,21.4835156 C50.3840625,20.5617188 50.8272656,19.8438281 51.6159375,19.33875 L51.43875,19.1526563 L51.4120312,19.0551563 C51.7666406,18.9752344 52.0148437,18.8336719 52.1566406,18.6386719 C52.1388281,18.55875 51.82875,18.4436719 51.2259375,18.2840625 L52.768125,11.6725781 C53.1049219,11.3711719 53.2999219,11.2117969 53.3617969,11.2117969 L53.3885156,11.5483594 C53.3088281,11.5572656 53.1846094,11.6015625 53.0428125,11.6990625 L53.3353125,12.1157813 C53.8671094,11.5396875 54.4432031,11.0432813 55.0722656,10.6267969 C55.3914844,10.7153906 55.5508594,10.8217969 55.5686719,10.9279688 L55.7990625,10.9103906 C57.5538281,9.6253125 59.2732031,8.70351563 60.9660937,8.14523438 L60.9836719,8.36671875 C60.6735937,8.83640625 60.4607812,9.07570313 60.3457031,9.08460938 C60.3632812,9.24421875 60.4075781,9.38601563 60.4875,9.51 C60.5139844,9.8025 59.7517969,11.7522656 58.1920312,15.3682031 C54.6292969,23.7433594 51.6424219,29.9383594 49.2140625,33.9621094 C49.2229687,34.0417969 49.2761719,34.1482031 49.3736719,34.29 C49.9675781,34.1482031 50.3486719,33.9975 50.499375,33.8557031 L50.6055469,33.8467969 L50.6233594,34.0682813 L50.8715625,34.0507031 L51.0930469,33.9353906 C51.1019531,33.9975 51.1816406,34.0239844 51.3323437,34.0153125 L51.3501562,34.2546094 C51.3677344,34.4671875 51.24375,34.8039844 50.9690625,35.2647656 C50.7119531,35.5396875 50.4461719,36.1157813 50.1625781,36.9930469 L50.17125,37.1083594 L50.401875,37.0905469 C51.3677344,36.009375 52.1034375,34.9457813 52.6085156,33.9 C55.4357812,33.0670313 57.5894531,32.2603125 59.0782031,31.4627344 C60.5939062,31.3298438 61.7369531,30.9398438 62.5169531,30.2840625 L62.5080469,30.16875 L61.9319531,30.3372656 L61.8079687,30.3461719 L61.7990625,30.2308594 C62.8980469,30.07125 63.6691406,29.8232813 64.085625,29.4953906 C66.2303906,27.8467969 67.8522656,26.668125 68.95125,25.9767188 C72.3721875,23.4864844 73.9675781,21.0935156 73.7725781,18.7980469 L73.7725781,18.7980469 Z M81.8995313,3.58101563 L81.8730469,3.32390625 L81.4563281,3.35929687 L81.4830469,3.61640625 L81.8995313,3.58101563 Z M84.7000781,10.3164844 L84.7089844,10.4582813 L85.0014844,10.4317969 C84.9925781,10.3432031 85.0279687,10.2014063 85.0900781,10.0239844 L85.0635938,9.76710938 C84.939375,9.77601562 84.8153906,9.96210938 84.7000781,10.3164844 L84.7000781,10.3164844 Z" id="Fill-3" fill="#F9DC3E" sketch:type="MSShapeGroup" mask="url(#mask-2)"></path>
                </g>
            </g>
        </g>
    </g>
</svg>