<?xml version="1.0" encoding="UTF-8" standalone="no"?>
<svg width="54px" height="76px" viewBox="0 0 54 76" version="1.1" xmlns="http://www.w3.org/2000/svg" xmlns:xlink="http://www.w3.org/1999/xlink" xmlns:sketch="http://www.bohemiancoding.com/sketch/ns">
    <!-- Generator: Sketch 3.4 (15575) - http://www.bohemiancoding.com/sketch -->
    <title>Page 1</title>
    <desc>Created with Sketch.</desc>
    <defs></defs>
    <g id="Careers-i3" stroke="none" stroke-width="1" fill="none" fill-rule="evenodd" sketch:type="MSPage">
        <g sketch:type="MSArtboardGroup" transform="translate(-508.000000, -2846.000000)" id="Page-1">
            <g sketch:type="MSLayerGroup" transform="translate(508.000000, 2846.000000)">
                <path d="M10.7610754,0.0924644248 L10.7610754,10.3154733 L19.1008984,10.3154733 L19.1008984,6.81812814 L14.2584205,6.81812814 L14.2584205,3.58980956 L19.1008984,3.58980956 L19.1008984,0.0924644248 L10.7610754,0.0924644248 Z" id="Fill-1" fill="#000000" sketch:type="MSShapeGroup"></path>
                <path d="M22.5982704,0.0924644248 L22.5982704,3.6824892 L26.0782634,6.81812814 L22.5982704,6.81812814 L22.5982704,10.3154733 L30.9380935,10.3154733 L30.9380935,6.91080779 L27.7743412,3.58980956 L30.9380935,3.58980956 L30.9380935,0.0924644248 L22.5982704,0.0924644248 Z" id="Fill-2" fill="#000000" sketch:type="MSShapeGroup"></path>
                <path d="M34.7044651,0.0924644248 L34.7044651,3.6824892 L38.0499448,6.81812814 L34.7044651,6.81812814 L34.7044651,10.3154733 L43.0442881,10.3154733 L43.0442881,6.91080779 L39.7460227,3.58980956 L43.0442881,3.58980956 L43.0442881,0.0924644248 L34.7044651,0.0924644248 Z" id="Fill-3" fill="#000000" sketch:type="MSShapeGroup"></path>
                <path d="M0,14.9815101 L4.89655221,69.9001862 L26.8701027,75.9999596 L48.9035115,69.8911738 L53.8053097,14.9815101 L0,14.9815101 Z" id="Fill-4" fill="#0071BC" sketch:type="MSShapeGroup"></path>
                <path d="M26.9478379,71.3277621 L44.7298202,66.4359179 L48.8960998,19.554948 L26.9478379,19.554948 L26.9478379,71.3277621 Z" id="Fill-5" fill="#29ABE2" sketch:type="MSShapeGroup"></path>
                <path d="M11.208211,39.7318584 L11.7980517,46.4575221 L26.9478782,39.7318584 L26.9478782,32.9954336 L11.208211,39.7318584 Z" id="Fill-6" fill="#B3B3B3" sketch:type="MSShapeGroup"></path>
                <path d="M43.726795,25.804475 L26.9478782,32.9954202 L26.9478782,39.731845 L43.1482535,32.5301388 L43.726795,25.804475 Z" id="Fill-7" fill="#E6E6E6" sketch:type="MSShapeGroup"></path>
                <path d="M26.9478379,57.3294499 L26.8957812,57.3373862 L19.3825423,55.3196871 L18.8917034,49.9548942 L12.1298556,49.9548942 L13.0736007,60.5236021 L26.8943016,64.3503703 L26.9478379,64.337726 L26.9478379,57.3294499 Z" id="Fill-8" fill="#E6E6E6" sketch:type="MSShapeGroup"></path>
                <path d="M26.9478379,39.7318584 L26.9478379,46.4575221 L35.1735936,46.4575221 L34.4259688,55.2507894 L26.9478379,57.3352071 L26.9478379,64.3430796 L40.7228042,60.5163115 L42.5367158,39.7318584 L26.9478379,39.7318584 Z" id="Fill-9" fill="#FFFFFF" sketch:type="MSShapeGroup"></path>
                <path d="M26.9478379,39.7318584 L11.2081706,39.7318584 L11.7980113,46.4575221 L26.9478379,46.4575221 L26.9478379,39.7318584 Z" id="Fill-10" fill="#E6E6E6" sketch:type="MSShapeGroup"></path>
                <path d="M26.9478379,32.5301388 L26.9478379,25.804475 L26.8795051,25.804475 L10.0123476,25.804475 L10.609183,32.5301388 L26.9478379,32.5301388 Z" id="Fill-11" fill="#E6E6E6" sketch:type="MSShapeGroup"></path>
                <path d="M26.9478379,25.804475 L26.9478379,32.4456644 L26.9478379,32.5301388 L43.1482131,32.5301388 L43.7267547,25.804475 L26.9478379,25.804475 Z" id="Fill-12" fill="#FFFFFF" sketch:type="MSShapeGroup"></path>
            </g>
        </g>
    </g>
</svg>