<?xml version="1.0" encoding="UTF-8" standalone="no"?>
<svg width="190px" height="44px" viewBox="0 0 190 44" version="1.1" xmlns="http://www.w3.org/2000/svg" xmlns:xlink="http://www.w3.org/1999/xlink" xmlns:sketch="http://www.bohemiancoding.com/sketch/ns">
    <!-- Generator: Sketch 3.3.3 (12072) - http://www.bohemiancoding.com/sketch -->
    <title>Imported Layers</title>
    <desc>Created with Sketch.</desc>
    <defs></defs>
    <g id="01-Home" stroke="none" stroke-width="1" fill="none" fill-rule="evenodd" sketch:type="MSPage">
        <g id="11-footer-logos" sketch:type="MSArtboardGroup" transform="translate(-422.000000, -588.000000)" fill="#848682">
            <path d="M487.915,610.373 L481.375,610.373 L480.686,598.154 L475.179,610.373 L468.984,610.373 L467.606,588.344 L473.802,588.344 L474.318,601.079 L474.491,601.079 L479.654,588.344 L485.849,588.344 L486.538,601.079 L486.709,601.079 L491.701,588.344 L497.725,588.344 L487.915,610.373 L487.915,610.373 Z M426.302,588.344 L434.563,588.344 C441.103,588.344 444.029,592.475 444.029,597.121 C444.029,605.726 438.521,610.373 430.433,610.373 L422,610.373 L426.302,588.344 L426.302,588.344 Z M430.949,605.383 C434.047,605.383 436.973,602.801 436.973,597.638 C436.973,594.712 435.424,593.336 433.186,593.336 L432.154,593.336 L429.917,605.383 L430.949,605.383 L430.949,605.383 Z M466.746,597.121 C466.746,603.317 462.1,610.717 454.011,610.717 C447.815,610.717 445.062,606.759 445.062,601.596 C445.062,595.573 449.709,588 457.797,588 C464.164,588 466.746,592.303 466.746,597.121 L466.746,597.121 Z M452.29,602.285 C452.29,604.35 453.15,605.727 454.699,605.727 C458.141,605.727 459.518,600.219 459.518,596.433 C459.518,594.195 458.658,592.991 457.108,592.991 C453.838,592.991 452.29,598.499 452.29,602.285 L452.29,602.285 Z M612,612.783 C603.051,610.717 592.553,609.169 581.193,608.309 C582.742,606.932 583.603,605.039 583.603,602.974 C583.603,599.532 581.193,597.295 576.203,596.262 C574.138,595.918 573.449,595.23 573.449,594.368 C573.449,593.336 574.481,592.82 575.859,592.82 C577.752,592.82 578.957,593.68 578.785,595.057 L584.807,595.057 C585.496,591.96 583.259,588.001 576.031,588.001 C570.523,588.001 566.565,590.583 566.565,595.402 C566.565,598.672 569.147,600.564 573.793,601.942 C575.858,602.458 576.546,602.974 576.546,604.007 C576.546,605.212 575.341,605.728 573.62,605.728 C571.038,605.728 569.834,604.524 570.178,602.802 L563.982,602.802 C563.638,604.522 563.81,606.072 564.67,607.276 L562.088,607.276 L562.432,605.039 L554.516,605.039 L555.376,600.908 L563.12,600.908 L563.981,596.434 L556.236,596.434 L556.924,592.648 L564.841,592.648 L565.701,588.345 L551.245,588.345 L547.63,607.276 L544.877,607.276 L548.491,588.345 L542.983,588.345 L540.745,599.532 L540.573,599.532 L535.927,588.345 L529.731,588.345 L525.773,608.654 C523.535,608.826 521.47,608.998 519.232,609.342 C523.707,606.76 526.117,601.598 526.117,597.122 C526.117,592.304 523.535,588.001 517.168,588.001 C509.079,588.001 504.433,595.574 504.433,601.598 C504.433,605.9 506.498,609.514 510.801,610.546 C507.187,610.891 503.056,611.751 499.442,612.611 C500.303,611.579 501.164,610.029 501.335,608.309 C502.195,604.694 505.293,588.345 505.293,588.345 L498.925,588.345 C498.925,588.345 495.999,603.662 495.311,606.76 C494.795,609.342 493.935,610.546 491.181,610.546 L489.632,610.546 L488.084,615.365 C481.716,616.569 463.989,622.249 447.64,631.026 L458.654,631.026 C502.196,608.137 565.701,604.35 611.652,613.471 L612,612.783 L612,612.783 Z M516.484,592.991 C518.032,592.991 518.894,594.195 518.894,596.433 C518.894,600.219 517.516,605.727 514.075,605.727 C512.527,605.727 511.666,604.35 511.666,602.285 C511.664,598.499 513.214,592.991 516.484,592.991 L516.484,592.991 Z M531.629,608.135 L533.694,597.637 L537.997,607.619 C535.931,607.791 533.693,607.963 531.629,608.135 L531.629,608.135 Z" id="Imported-Layers" sketch:type="MSShapeGroup"></path>
        </g>
    </g>
</svg>