<?xml version="1.0" encoding="UTF-8" standalone="no"?>
<svg width="15px" height="30px" viewBox="0 0 15 30" version="1.1" xmlns="http://www.w3.org/2000/svg" xmlns:xlink="http://www.w3.org/1999/xlink" xmlns:sketch="http://www.bohemiancoding.com/sketch/ns">
    <!-- Generator: Sketch 3.3.3 (12072) - http://www.bohemiancoding.com/sketch -->
    <title>facebook copy</title>
    <desc>Created with Sketch.</desc>
    <defs></defs>
    <g id="05-Blog" stroke="none" stroke-width="1" fill="none" fill-rule="evenodd" sketch:type="MSPage">
        <g id="05-blog-details" sketch:type="MSArtboardGroup" transform="translate(-987.000000, -555.000000)" fill="#3B5998">
            <g id="Group" sketch:type="MSLayerGroup" transform="translate(979.000000, 492.000000)">
                <path d="M11.7197619,92.9799048 L11.7197619,78.9128095 L8,78.9128095 L8,73.847619 L11.7197619,73.847619 L11.7197619,69.5215238 C11.7197619,66.1223333 13.9168095,63 18.9795714,63 C21.0300952,63 22.5455238,63.1967143 22.5455238,63.1967143 L22.4265238,67.9259524 C22.4265238,67.9259524 20.8803333,67.911381 19.1932857,67.911381 C17.3678095,67.911381 17.0747619,68.7524762 17.0747619,70.1489048 C17.0747619,71.2530952 17.0747619,67.7964286 17.0747619,73.847619 L22.5714286,73.847619 L22.332619,78.9128095 L17.0747619,78.9128095 L17.0747619,92.9799048 L11.7197619,92.9799048 L11.7197619,92.9799048 Z" id="facebook-copy" sketch:type="MSShapeGroup"></path>
            </g>
        </g>
    </g>
</svg>