<?xml version="1.0" encoding="UTF-8" standalone="no"?>
<svg width="161px" height="29px" viewBox="0 0 161 29" version="1.1" xmlns="http://www.w3.org/2000/svg" xmlns:xlink="http://www.w3.org/1999/xlink" xmlns:sketch="http://www.bohemiancoding.com/sketch/ns">
    <!-- Generator: Sketch 3.3.3 (12072) - http://www.bohemiancoding.com/sketch -->
    <title>Imported Layers</title>
    <desc>Created with Sketch.</desc>
    <defs></defs>
    <g id="01-Home" stroke="none" stroke-width="1" fill="none" fill-rule="evenodd" sketch:type="MSPage">
        <g id="11-footer-logos" sketch:type="MSArtboardGroup" transform="translate(-177.000000, -584.000000)" fill="#848682">
            <path d="M177,584.293505 L177,584.995879 C177.255152,584.995879 180.823515,585.136166 181.110678,585.139932 L181.110678,611.326441 C180.996754,611.326441 177.190187,611.475201 177,611.471435 L177,612.235008 L189.847047,612.235008 L189.847047,611.471435 C189.741596,611.471435 185.585725,611.324558 185.442614,611.322675 C185.442614,611.087295 185.442614,604.360131 185.441673,597.78926 L189.92331,597.78926 C189.95438,598.082072 190.48069,603.297154 190.510819,603.590909 L191.300754,603.590909 L191.300754,591.450002 L190.510819,591.450002 C190.48069,591.723043 189.95438,596.603885 189.893181,596.958839 L185.441673,596.958839 C185.440731,590.997131 185.440731,585.399792 185.440731,585.189833 L192.917345,585.189833 C192.917345,585.189833 195.63269,593.459207 195.756971,593.832049 C195.801222,593.787798 196.431099,593.832049 196.55538,593.832049 C196.55538,593.530763 196.29552,585.549494 196.29552,584.273733 C195.532889,584.274675 177.402971,584.293505 177,584.293505 L177,584.293505 Z M209.802573,584.001634 C208.007094,584.001634 198.583415,584.001634 198.583415,597.722412 C198.583415,611.444131 205.972468,612.394125 209.802573,612.394125 C212.645965,612.394125 220.893684,611.897002 220.893684,597.722412 C220.893684,583.548763 211.179076,584.001634 209.802573,584.001634 L209.802573,584.001634 Z M209.73855,611.490265 C205.141105,611.490265 203.254298,608.858716 203.254298,597.723353 C203.254298,586.587991 205.750269,584.879131 209.73855,584.879131 C213.72683,584.879131 216.219035,586.326248 216.219035,597.723353 C216.219035,609.120458 214.335994,611.490265 209.73855,611.490265 L209.73855,611.490265 Z M240.868041,602.453552 C240.547924,600.288055 239.600754,598.494458 235.441117,598.134798 C238.115035,597.535991 241.802029,596.777125 241.802029,590.586628 C241.802029,585.32447 238.138573,584.280324 233.619275,584.280324 L221.340906,584.280324 L221.340906,585.055195 C221.574404,585.075909 224.999655,585.179476 225.411099,585.179476 L225.411099,611.322675 C225.132409,611.322675 221.936889,611.463903 221.368211,611.469552 L221.368211,612.19264 L233.65976,612.19264 L233.65976,611.469552 C233.49876,611.452605 230.15448,611.327382 229.684661,611.322675 L229.684661,598.615915 C230.270287,598.616856 231.68445,598.618739 232.994105,598.618739 C235.252813,598.618739 236.103006,599.745739 236.419357,601.113768 C236.822327,602.855581 238.032181,611.420593 238.134807,612.191698 L245.696158,612.191698 L245.696158,611.466727 C245.302602,611.466727 242.526058,611.30102 242.216298,611.281248 C241.925368,609.320061 241.401883,606.073698 240.868041,602.453552 L240.868041,602.453552 Z M232.963977,597.772312 C232.525228,597.772312 230.261813,597.775137 229.684661,597.775137 L229.684661,585.158763 L229.725146,585.158763 C230.592287,585.158763 232.268193,585.156879 233.172053,585.156879 C235.235865,585.156879 237.596257,586.072037 237.596257,591.02161 C237.597199,594.280213 237.404187,597.772312 232.963977,597.772312 L232.963977,597.772312 Z M245.067222,584.280324 C245.052158,584.631511 244.766877,593.51664 244.766877,593.840523 L245.594474,593.840523 C245.671678,593.619265 248.29852,585.457225 248.417152,585.140874 C248.507538,585.140874 250.590181,585.141815 253.096509,585.143698 L253.096509,611.296312 C253.09086,611.296312 253.086152,611.297254 253.081444,611.297254 C252.793339,611.314201 248.980181,611.48085 248.725971,611.489324 L248.725971,612.233125 L261.600322,612.233125 L261.600322,611.489324 C261.271731,611.489324 257.711842,611.318909 257.353123,611.298195 L257.353123,585.146523 C259.849094,585.148406 261.90914,585.149347 261.969398,585.149347 C262.038129,585.371546 264.724287,593.567482 264.793018,593.840523 L265.577304,593.840523 C265.577304,593.482745 265.266602,584.947862 265.266602,584.280324 L245.067222,584.280324 L245.067222,584.280324 Z M282.46724,585.031657 C282.57269,585.042956 285.556368,585.351774 285.802105,585.35554 C285.801164,588.664985 285.795515,605.87033 285.795515,606.259178 C285.795515,606.683803 286.356661,610.811429 280.124737,610.811429 C274.00862,610.811429 274.237409,607.433254 274.237409,606.142429 C274.237409,604.920336 274.248708,587.36757 274.249649,585.154996 C274.69593,585.154055 278.438474,584.996821 278.502497,584.996821 L278.502497,584.275616 C278.269,584.275616 266.290035,584.280324 266.155398,584.280324 L266.155398,585.001529 C266.291918,585.001529 269.359392,585.148406 269.821678,585.154996 L269.821678,605.389213 C269.821678,609.377494 271.74238,611.577827 276.178825,612.233125 C277.330304,612.40354 279.727415,612.412956 280.59738,612.320686 C286.901801,611.656915 287.022316,608.072546 287.022316,606.259178 L287.022316,585.356482 L287.04962,585.356482 C287.306655,585.356482 290.518181,584.992113 290.702719,584.992113 L290.702719,584.281265 L282.468181,584.281265 C282.46724,584.393306 282.46724,584.880072 282.46724,585.031657 L282.46724,585.031657 Z M306.82155,585.004353 C306.884632,585.004353 310.660129,585.349891 310.740158,585.349891 L310.740158,603.382833 C310.614936,603.094727 299.24231,584.573137 299.061538,584.275616 L291.586807,584.275616 L291.586807,585.042014 C291.724269,585.042014 294.268257,585.298108 294.519643,585.364014 C294.572368,585.434628 294.928263,585.976944 295.043129,586.131353 C295.043129,586.375207 295.042187,609.530961 295.042187,611.116482 C294.901901,611.116482 291.044491,611.465786 290.856187,611.472377 L290.856187,612.253839 L300.080263,612.253839 L300.080263,611.470494 C299.934327,611.46202 296.457292,611.132488 296.188959,611.117423 C296.189901,609.613815 296.201199,588.471973 296.201199,588.066178 C296.294409,588.215879 311.008491,612.022225 311.180789,612.317862 L311.931181,612.317862 C311.931181,612.092839 311.922708,588.055821 311.922708,585.351774 L311.931181,585.351774 C312.075234,585.351774 315.727392,585.051429 315.836608,585.051429 L315.836608,584.276558 L306.82155,584.276558 L306.82155,585.004353 L306.82155,585.004353 Z M336.309029,601.788839 C336.234649,601.977143 333.085263,610.866979 332.93462,611.334915 L325.120942,611.334915 L325.063509,611.334915 C325.06445,610.560985 325.069158,604.091798 325.073865,597.778903 L329.602579,597.778903 C329.605404,598.244014 330.082754,603.42426 330.103468,603.592792 L330.879281,603.592792 L330.879281,591.462242 C330.787953,591.462242 330.230573,591.457534 330.113825,591.457534 C330.087462,591.649605 329.614819,596.729108 329.608228,596.988026 L325.074807,596.988026 C325.078573,590.976417 325.083281,585.332944 325.083281,585.171002 L332.92238,585.171002 C332.959099,585.258564 335.472018,593.530763 335.504029,593.679523 L336.35893,593.679523 C336.35893,593.435669 336.129199,584.799102 336.129199,584.285032 L316.61807,584.285032 L316.61807,584.994938 C316.732936,584.994938 320.511257,585.149347 320.739105,585.149347 C320.739105,585.283985 320.734398,609.631704 320.733456,611.320792 C320.497135,611.321733 316.788485,611.470494 316.622778,611.470494 C316.622778,611.639026 316.619953,612.054236 316.619953,612.249131 C316.800725,612.249131 336.098129,612.247248 336.280784,612.247248 C336.280784,612.102254 337.05848,601.882991 337.05848,601.787897 C337.020819,601.786956 336.444608,601.788839 336.309029,601.788839 L336.309029,601.788839 Z" id="Imported-Layers" sketch:type="MSShapeGroup"></path>
        </g>
    </g>
</svg>