<?xml version="1.0" encoding="utf-8"?>
<!-- Generator: Adobe Illustrator 17.0.0, SVG Export Plug-In . SVG Version: 6.00 Build 0)  -->
<!DOCTYPE svg PUBLIC "-//W3C//DTD SVG 1.1//EN" "http://www.w3.org/Graphics/SVG/1.1/DTD/svg11.dtd">
<svg version="1.1" id="Layer_1" xmlns="http://www.w3.org/2000/svg" xmlns:xlink="http://www.w3.org/1999/xlink" x="0px" y="0px"
	 width="170.341px" height="154.056px" viewBox="0 0 170.341 154.056" enable-background="new 0 0 170.341 154.056"
	 xml:space="preserve">
<linearGradient id="SVGID_1_" gradientUnits="userSpaceOnUse" x1="-0.333" y1="423.6508" x2="0.667" y2="423.6508" gradientTransform="matrix(0 133.2411 133.2411 0 -56362.5273 54.7807)">
	<stop  offset="0" style="stop-color:#F3F5F8"/>
	<stop  offset="0.1159" style="stop-color:#D6E0EA"/>
	<stop  offset="0.7321" style="stop-color:#3D75A4"/>
	<stop  offset="1" style="stop-color:#004987"/>
</linearGradient>
<rect x="10.407" y="10.407" fill="url(#SVGID_1_)" width="149.526" height="133.241"/>
<g>
	<path fill="#FFFFFF" d="M32.158,68.827c-0.255-1.812-1.991-3.191-3.982-3.191c-3.599,0-4.952,3.063-4.952,6.254
		c0,3.038,1.353,6.102,4.952,6.102c2.451,0,3.83-1.685,4.136-4.084h3.88c-0.409,4.544-3.548,7.454-8.016,7.454
		c-5.642,0-8.96-4.212-8.96-9.471c0-5.412,3.318-9.624,8.96-9.624c4.008,0,7.378,2.349,7.863,6.561H32.158z"/>
	<path fill="#FFFFFF" d="M44.849,67.372c4.161,0,6.841,2.757,6.841,6.969c0,4.187-2.68,6.944-6.841,6.944
		c-4.136,0-6.816-2.757-6.816-6.944C38.033,70.129,40.713,67.372,44.849,67.372z M44.849,78.553c2.476,0,3.216-2.119,3.216-4.212
		c0-2.119-0.74-4.237-3.216-4.237c-2.451,0-3.191,2.119-3.191,4.237C41.658,76.434,42.398,78.553,44.849,78.553z"/>
	<path fill="#FFFFFF" d="M60.372,67.372c4.161,0,6.841,2.757,6.841,6.969c0,4.187-2.68,6.944-6.841,6.944
		c-4.136,0-6.816-2.757-6.816-6.944C53.556,70.129,56.236,67.372,60.372,67.372z M60.372,78.553c2.476,0,3.216-2.119,3.216-4.212
		c0-2.119-0.74-4.237-3.216-4.237c-2.451,0-3.191,2.119-3.191,4.237C57.181,76.434,57.921,78.553,60.372,78.553z"/>
	<path fill="#FFFFFF" d="M69.666,62.7h3.625v18.227h-3.625V62.7z"/>
</g>
<g>
	<path fill="#FFFFFF" d="M28.483,106.459h-4.519l-5.922-18.227h4.135l4.059,12.815h0.051l4.11-12.815h4.135L28.483,106.459z"/>
	<path fill="#FFFFFF" d="M37.725,100.741c0.102,2.297,1.226,3.344,3.242,3.344c1.455,0,2.629-0.894,2.859-1.71h3.191
		c-1.021,3.114-3.191,4.442-6.178,4.442c-4.161,0-6.739-2.859-6.739-6.944c0-3.957,2.731-6.969,6.739-6.969
		c4.493,0,6.663,3.778,6.408,7.837H37.725z M43.622,98.443c-0.332-1.838-1.123-2.808-2.885-2.808c-2.297,0-2.961,1.787-3.012,2.808
		H43.622z"/>
	<path fill="#FFFFFF" d="M49.47,93.261h3.446v1.838h0.077c0.919-1.48,2.502-2.195,4.033-2.195c3.855,0,4.825,2.17,4.825,5.438v8.118
		h-3.625v-7.454c0-2.17-0.638-3.242-2.323-3.242c-1.966,0-2.808,1.098-2.808,3.778v6.918H49.47V93.261z"/>
	<path fill="#FFFFFF" d="M74.132,104.774h-0.051c-0.842,1.43-2.323,2.042-4.008,2.042c-3.982,0-5.922-3.421-5.922-7.071
		c0-3.548,1.966-6.841,5.846-6.841c1.558,0,3.089,0.664,3.906,1.965h0.051v-6.637h3.625v18.227h-3.446V104.774z M70.967,95.635
		c-2.374,0-3.191,2.042-3.191,4.212c0,2.068,0.944,4.238,3.191,4.238c2.4,0,3.114-2.093,3.114-4.263
		C74.081,97.677,73.315,95.635,70.967,95.635z"/>
	<path fill="#FFFFFF" d="M86.771,92.904c4.161,0,6.841,2.757,6.841,6.969c0,4.187-2.68,6.944-6.841,6.944
		c-4.136,0-6.816-2.757-6.816-6.944C79.955,95.66,82.635,92.904,86.771,92.904z M86.771,104.085c2.476,0,3.216-2.119,3.216-4.212
		c0-2.119-0.74-4.237-3.216-4.237c-2.451,0-3.191,2.119-3.191,4.237C83.58,101.966,84.32,104.085,86.771,104.085z"/>
	<path fill="#FFFFFF" d="M96.013,93.261h3.446v2.451h0.051c0.664-1.66,2.451-2.808,4.212-2.808c0.255,0,0.562,0.051,0.792,0.127
		v3.37c-0.332-0.077-0.868-0.127-1.302-0.127c-2.655,0-3.574,1.915-3.574,4.237v5.948h-3.625V93.261z"/>
</g>
<g>
	<path fill="#FFFFFF" d="M30.933,131.99H19.165c0.128-5.31,5.565-6.612,8.603-9.649c0.97-0.996,1.48-1.94,1.48-3.37
		c0-2.323-1.838-3.651-4.008-3.651c-2.936,0-4.084,2.349-4.033,4.978h-1.608c-0.077-3.676,1.838-6.331,5.718-6.331
		c3.114,0,5.54,1.71,5.54,5.029c0,2.987-2.17,4.85-4.493,6.356c-1.736,1.174-4.927,2.757-5.361,5.157h9.931V131.99z"/>
	<path fill="#FFFFFF" d="M45.18,123.158c0,4.187-1.021,9.215-6.229,9.215c-5.208,0-6.229-5.029-6.229-9.19
		c0-4.187,1.021-9.216,6.229-9.216C44.159,113.967,45.18,118.996,45.18,123.158z M34.33,123.158c0,3.114,0.536,7.862,4.621,7.862
		s4.621-4.748,4.621-7.862c0-3.089-0.536-7.837-4.621-7.837S34.33,120.069,34.33,123.158z"/>
	<path fill="#FFFFFF" d="M47.377,117.567c2.808-0.102,4.544-0.153,5.029-3.446h1.302v17.87h-1.608v-13.274h-4.723V117.567z"/>
	<path fill="#FFFFFF" d="M68.516,118.639c-0.281-1.966-1.659-3.319-3.727-3.319c-4.161,0-4.927,4.749-4.927,7.99h0.051
		c0.842-1.761,2.731-2.961,4.748-2.961c3.574,0,5.897,2.476,5.897,5.974c0,3.472-2.527,6.05-6.05,6.05
		c-4.34,0-6.254-2.527-6.254-9.496c0-2.119,0.536-8.91,6.382-8.91c3.14,0,5.105,1.558,5.488,4.672H68.516z M60.194,126.425
		c0,2.527,1.353,4.595,4.467,4.595c2.553,0,4.289-2.119,4.289-4.595c0-2.604-1.583-4.723-4.314-4.723
		C61.828,121.702,60.194,123.796,60.194,126.425z"/>
</g>
<g>
	<path fill="#004987" d="M98.343,26.728l-0.229,2.745h-1.12c-1.79,0-2.721,1.434-2.721,2.809v6.199h-3.171V26.728h3.004l0.068,1.467
		c0.631-1.006,1.734-1.467,3.094-1.467H98.343z"/>
</g>
<g>
	<path fill="#004987" d="M76.353,38.481h-3.175v-6.213c0-1.301-0.112-2.939-1.942-2.939c-1.763,0-2.465,1.272-2.465,2.753v6.399
		h-3.174V26.728h2.943l0.067,1.502c0.631-1.005,1.805-1.789,3.538-1.789c3.198,0,4.208,2.284,4.208,4.66V38.481z"/>
</g>
<g>
	<path fill="#004987" d="M64.213,35.735l-0.222,2.674c-0.761,0.205-1.437,0.278-2.255,0.278c-2.991,0-3.859-1.372-3.859-4.129
		V23.413h3.175v3.314h3.158l-0.219,2.745h-2.939v4.848c0,1.106,0.303,1.704,1.438,1.704C62.983,36.024,63.532,35.964,64.213,35.735"
		/>
</g>
<g>
	<path fill="#004987" d="M56.835,26.728l-0.246,2.745h-0.862c-1.786,0-2.675,1.432-2.675,2.809v6.199h-3.174V26.728h3.006
		l0.062,1.467c0.634-1.006,1.737-1.467,3.099-1.467H56.835z"/>
</g>
<g>
	<path fill="#004987" d="M35.553,37.178c-2.153,1.152-4.304,1.816-7.144,1.734c-5.267-0.161-9.066-3.431-9.066-8.955
		c0-5.499,3.836-9.013,9.068-9.095c2.652-0.041,5.025,0.632,6.881,2.269l-2.235,2.261c-1.148-0.979-2.837-1.551-4.855-1.459
		c-3.293,0.153-5.277,2.546-5.321,5.836c-0.043,3.564,2.143,6.021,5.56,6.111c1.608,0.04,2.76-0.176,3.756-0.623v-3.644h-3.551
		l0.239-2.989h6.668V37.178z"/>
</g>
<g>
	<path fill="#004987" d="M89.685,33.721h-8.703c0.248,1.502,1.429,2.405,2.899,2.446c1.429,0.039,2.229-0.392,3.274-1.451
		l2.071,1.579c-1.472,1.813-3.238,2.473-5.251,2.473c-3.539,0-6.19-2.474-6.19-6.164c0-3.686,2.638-6.163,6.058-6.163
		c3.77,0,5.842,2.284,5.842,6.337V33.721z M86.505,31.264c-0.097-1.485-1.21-2.423-2.742-2.364
		c-1.542,0.059-2.568,1.063-2.781,2.364H86.505z"/>
</g>
<g>
	<path fill="#004987" d="M47.879,30.784v7.697H45.08l-0.069-1.159c-0.858,1.063-2.253,1.446-3.688,1.446
		c-2.161,0-4.203-1.066-4.246-3.548c-0.064-3.901,4.391-4.178,7.189-4.178h0.559v-0.155c0-1.29-0.854-1.987-2.461-1.987
		c-1.154,0-2.293,0.463-3.135,1.253l-1.832-1.861c1.663-1.348,3.393-1.851,5.236-1.851C46.274,26.441,47.879,28.123,47.879,30.784
		 M44.825,33.355h-0.441c-1.503,0.003-4.143,0.078-4.133,1.649c0.014,2.214,4.574,1.51,4.574-1.16V33.355z"/>
</g>
<g>
	<path fill="#004987" d="M162.195,138.854h3.308v0.618h-1.299v3.468h-0.716v-3.468h-1.293V138.854z"/>
	<path fill="#004987" d="M166.101,138.854h1.007l1.127,3.199h0.012l1.099-3.199h0.995v4.085h-0.681v-3.153h-0.012l-1.133,3.153
		h-0.589l-1.133-3.153h-0.012v3.153h-0.681V138.854z"/>
</g>
</svg>
