<?xml version="1.0" encoding="UTF-8" standalone="no"?>
<svg width="131px" height="65px" viewBox="0 0 131 65" version="1.1" xmlns="http://www.w3.org/2000/svg" xmlns:xlink="http://www.w3.org/1999/xlink" xmlns:sketch="http://www.bohemiancoding.com/sketch/ns">
    <!-- Generator: Sketch 3.4 (15575) - http://www.bohemiancoding.com/sketch -->
    <title>Page 1</title>
    <desc>Created with Sketch.</desc>
    <defs>
        <path id="path-1" d="M0,0.0847642276 L129.801512,0.0847642276 L129.801512,64.2601626 L0,64.2601626 L0,0.0847642276 Z"></path>
    </defs>
    <g id="Careers-i3" stroke="none" stroke-width="1" fill="none" fill-rule="evenodd" sketch:type="MSPage">
        <g sketch:type="MSArtboardGroup" transform="translate(-268.000000, -3252.000000)" id="Page-1">
            <g sketch:type="MSLayerGroup" transform="translate(268.500000, 3252.000000)">
                <g id="Group-3">
                    <mask id="mask-2" sketch:name="Clip 2" fill="white">
                        <use xlink:href="#path-1"></use>
                    </mask>
                    <g id="Clip-2"></g>
                    <path d="M65.1849382,20.8453626 C66.6999138,21.0876065 68.4085154,21.7075902 68.9819951,22.2231512 C69.8723366,23.0238667 70.2598,22.9693301 71.6373772,21.8492163 C72.5243366,21.1277691 73.6772146,20.5375902 74.1991171,20.5375902 C74.7212309,20.5375902 75.1482228,20.3868748 75.1482228,20.2025496 C75.1482228,19.5665008 65.3107106,3.45854959 64.9355073,3.48032195 C64.4947756,3.50589919 54.4116374,20.4094927 54.1011171,21.6431187 C53.9709057,22.1610049 54.3797187,22.3520943 55.1736699,22.1445171 C55.8792634,21.9599805 56.8550033,22.2888911 57.3418163,22.8754764 C58.1313285,23.8269073 58.4538976,23.7510211 60.3288569,22.1734764 C62.1099626,20.6747772 62.8506455,20.4720618 65.1849382,20.8453626 L65.1849382,20.8453626 Z M21.0253122,27.5857041 L21.7583854,25.4110049 L15.3182065,25.1945496 C11.7760764,25.0755415 8.87887317,25.1666472 8.8797187,25.3970537 C8.88077561,25.7342081 19.978548,30.070078 20.2226943,29.8288911 C20.2609545,29.7910537 20.6219951,28.7817041 21.0253122,27.5857041 L21.0253122,27.5857041 Z M114.7718,28.0674439 L121.945052,25.3750699 L114.25941,25.3473789 C107.381247,25.3226472 106.574824,25.4452488 106.58328,26.515265 C106.591735,27.5990211 107.287182,30.8029398 107.507442,30.7725008 C107.55754,30.7655252 110.826564,29.5481756 114.7718,28.0674439 L114.7718,28.0674439 Z M74.6170195,31.0878829 C73.495426,30.3021756 73.1100764,29.3651187 73.1419951,27.5013626 C73.1779301,25.4169236 73.2867919,25.2290049 73.7681089,26.4201431 C74.4751821,28.1705984 75.9586618,28.8315902 77.2597187,27.9761268 C78.0665642,27.4457691 78.0289382,27.1948585 77.026987,26.4269073 C75.6906293,25.402761 75.4299951,23.9533138 76.5820276,23.9533138 C77.6123041,23.9533138 81.2966943,27.9837366 81.2966943,29.1106146 C81.2966943,30.2104358 78.6804179,32.1513463 77.1977837,32.1513463 C76.6135236,32.1513463 75.4521902,31.6727772 74.6170195,31.0878829 L74.6170195,31.0878829 Z M80.4207268,36.0796715 C83.2555724,32.9928585 82.9792959,28.2378179 79.765865,24.8072976 C78.1063041,23.0359154 74.4193772,22.7304683 72.9103203,24.2395252 C71.517735,25.6318992 70.1274748,31.1079642 70.6440927,33.1657691 C71.7456049,37.5546959 77.4928732,39.2677366 80.4207268,36.0796715 L80.4207268,36.0796715 Z M62.1680927,32.1513463 C61.4166293,31.3998829 60.8114423,29.9396553 60.8234911,28.9064195 C60.8431496,27.198452 60.9277024,27.1363057 61.7527268,28.2232325 C62.7726455,29.5665659 64.5848244,29.7992976 65.2792146,28.676013 C65.5316049,28.2676228 65.3958976,27.5912 64.9777837,27.1730862 C63.9037512,26.0990537 64.0339626,24.6365008 65.2035398,24.6365008 C66.5039626,24.6365008 68.3165642,27.281948 68.3165642,29.1795252 C68.3165642,30.5761268 65.4747431,33.5177203 64.1254911,33.5177203 C63.8003854,33.5177203 62.9195561,32.9028098 62.1680927,32.1513463 L62.1680927,32.1513463 Z M66.8360439,36.2593463 C69.4034911,33.6921106 70.1642553,29.8436878 68.7659626,26.4970862 C67.6731171,23.8814439 65.7759626,22.9025333 63.1011333,23.5738829 C61.1135073,24.0725333 58.0865154,29.8679967 58.075735,33.1949398 C58.0590358,38.3799317 62.9905805,40.1050211 66.8360439,36.2593463 L66.8360439,36.2593463 Z M54.376548,39.8266309 C54.7971984,39.5444358 54.9895561,38.2097691 54.8160114,36.7778667 C54.5359301,34.4680943 54.3790846,34.2994114 53.1306618,34.9675902 C51.3366618,35.9278992 49.4086455,34.1087447 48.7546293,30.8388748 C48.2585154,28.3580943 48.1067431,28.4069236 51.7194748,29.8872325 C52.1724667,30.072826 53.3253447,29.4424846 54.2812146,28.4864033 C56.0301902,26.7374276 56.6059951,24.6365008 55.3364341,24.6365008 C54.9605967,24.6365008 54.6532472,24.9440618 54.6532472,25.3196878 C54.6532472,26.3024033 52.7842065,26.1631024 52.362922,25.1488911 C52.1172959,24.5572325 51.5939138,24.767135 50.6593935,25.832078 C49.9174423,26.6776065 49.0114585,27.3692488 48.6457675,27.3692488 C48.2800764,27.3692488 47.7862878,26.6776065 47.5484829,25.832078 C47.1316374,24.3507122 47.0804829,24.3412 46.1370846,25.5737691 C45.3103691,26.6537203 45.3029707,26.997639 46.0895236,27.7841919 C46.9225805,28.6172488 48.5047756,34.3097691 48.5047756,36.4734764 C48.5047756,39.1641593 52.2100927,41.2800943 54.376548,39.8266309 L54.376548,39.8266309 Z M93.2226618,39.6989561 C94.2083366,38.6097041 94.3820927,37.426387 94.1707106,33.2414439 C93.9409382,28.6897528 93.6893935,27.8854439 91.9171659,26.035639 C88.7149382,22.693265 84.7595561,23.5459805 87.0748244,27.0794439 C88.3054911,28.9577854 89.8069382,28.6371187 89.2765805,26.6089073 C88.8540276,24.9933138 89.6422715,24.9510374 91.0158325,26.515265 C93.5932146,29.4503057 92.9427919,33.5177203 89.8959301,33.5177203 C87.8102228,33.5177203 87.1602228,32.6231512 85.800613,27.881639 C85.1812634,25.7211024 84.4268407,23.9533138 84.1241415,23.9533138 C83.1160602,23.9533138 82.6670846,24.8430211 83.2940439,25.5985008 C83.6345805,26.0087935 84.5775561,28.957574 85.3896862,32.1513463 C87.4335398,40.1893626 90.2888894,42.9407122 93.2224504,39.6989561 L93.2226618,39.6989561 Z M34.0532146,44.7044846 C43.8738163,41.8814764 45.628922,38.5889886 42.3666618,29.1070211 C41.6094911,26.906322 40.9899301,24.5390537 40.9899301,23.8463545 C40.9899301,21.4879642 39.803865,22.5778504 38.9147919,25.7530211 C37.7390846,29.9523382 34.2028732,33.5213138 31.2321089,33.5073626 C28.6519789,33.4948911 27.8113122,33.0252 26.745735,31.0007935 C24.833361,27.3673463 26.9180114,21.7912976 32.2353285,16.3175577 C36.1298325,12.3084846 38.2573935,11.9453301 38.2573935,15.2898179 C38.2573935,20.5052488 34.661361,28.1830699 32.7669545,27.0122244 C31.840678,26.4398016 31.9909707,23.9118829 33.0666943,21.970761 C33.9813447,20.320078 33.7955398,17.8048423 32.7587106,17.8048423 C31.5567919,17.8048423 29.1768407,22.1829886 28.8623041,24.9730211 C28.5843366,27.4394276 28.7580927,28.0393301 29.9333772,28.6681919 C34.0515236,30.8720618 39.4466293,24.1454602 39.7184667,16.4680618 C39.8611496,12.4363707 39.0807268,11.3016715 36.5944504,11.9256715 C32.9758,12.8339805 23.2277024,25.4091024 23.2277024,29.1687447 C23.2277024,32.1097041 24.7046293,34.178078 27.3048407,34.8781756 C31.7256862,36.0686797 36.0000439,33.9535902 39.0287268,29.0772163 L40.3016699,27.0276553 L40.3044179,29.8119805 C40.3078,33.8438829 37.6777837,35.9691187 29.3763854,38.6409886 C27.3099138,39.3062081 25.5328244,39.9209073 25.4273447,40.0067285 C25.0426293,40.3210537 28.9548894,45.8146634 29.5634585,45.8146634 C29.9084341,45.8146634 31.9290358,45.3151675 34.053426,44.7044846 L34.0532146,44.7044846 Z M101.772857,50.5253138 C106.477377,47.8813463 107.567686,42.9899642 105.48832,33.8593138 C103.750548,26.2284195 102.883036,23.7313626 101.853605,23.3967447 C101.141459,23.1652813 101.031963,23.4193626 101.433166,24.3724846 C104.036548,30.5571024 104.181133,33.6620943 101.906873,34.5348911 C100.344337,35.1343707 98.6868894,32.888013 97.3835073,28.4039642 C96.3741577,24.932013 95.3185154,23.3671512 94.5226618,24.1630049 C94.3319951,24.3536715 94.6659789,25.4570862 95.2648244,26.6150374 C95.8636699,27.7727772 96.684678,31.259948 97.0894748,34.3640943 C97.4942715,37.4680293 98.276174,40.7182407 98.8270358,41.5868098 C100.258515,43.8435252 102.537003,43.299639 104.010971,40.3493789 C105.468028,37.4323057 105.632906,39.3753301 104.2158,42.7667447 C102.744369,46.2881593 98.3744667,47.3442244 93.311865,45.4014114 C92.5016374,45.0904683 92.2272634,45.4124033 92.2272634,46.6741431 C92.2272634,47.6031675 91.6066455,49.1521756 90.8482065,50.1165008 L89.4689382,51.8699154 L91.3605967,52.1893138 C94.626239,52.7410211 99.1041577,52.0252813 101.772857,50.5253138 L101.772857,50.5253138 Z M49.1879626,53.1166472 C55.3875886,50.707948 61.5360602,48.3539967 62.8512797,47.8857854 C65.1132797,47.0802081 65.8696049,47.2822894 76.8561902,51.6242894 C83.243735,54.148826 89.5458813,56.6078341 90.8611008,57.0887285 C92.1761089,57.5698341 94.8864504,58.6151187 96.8838,59.4116065 C99.1614423,60.3199154 100.325735,60.5386959 100.006337,59.9981919 C96.437361,53.9609073 96.3282878,53.8602894 93.8549057,54.3242732 C90.8714585,54.884013 89.0186943,54.3098992 88.0664179,52.5306959 C87.4489707,51.376761 87.6375236,50.8125821 89.1770195,49.2054439 C91.4703041,46.8117528 91.1101089,44.6097854 88.1530846,42.9462081 C87.0183854,42.3080455 85.5869057,40.7302894 84.9715724,39.440013 L83.8529382,37.0943057 L81.4548081,38.721948 C78.5070846,40.7222569 74.9123203,40.8252 71.9113285,38.9954764 L69.6992146,37.6468585 L67.1292309,39.3932976 C64.5556537,41.1422732 61.592922,41.3682407 58.581361,40.0452 C57.7516862,39.6807772 57.3859951,39.8224033 57.3859951,40.5081268 C57.3859951,41.0518016 56.6028244,41.8531512 55.6458976,42.2892325 C52.7765967,43.5966309 49.9764179,43.2493301 48.0779951,41.3509073 L46.3467756,39.6198992 L44.9495398,41.3961431 C44.1811659,42.3729398 42.4025967,43.8982732 40.9971171,44.7854439 C39.2576537,45.883574 37.1040927,48.563265 34.2506455,53.1800618 C31.9453122,56.9101106 30.059361,60.1516553 30.059361,60.3835415 C30.059361,60.6154276 31.8269382,60.060761 33.9874748,59.150761 C36.1480114,58.2405496 42.9881252,55.5253463 49.1879626,53.1166472 L49.1879626,53.1166472 Z M25.277052,63.9504033 C25.277052,63.7800293 27.5667431,60.0142569 30.3650195,55.581574 C33.1632959,51.1491024 35.1549382,47.4179967 34.7909382,47.2901106 C34.4271496,47.1622244 33.167735,47.3926309 31.992239,47.8025008 C28.4526455,49.0363382 27.7252797,48.7093301 25.0815236,44.694761 C22.2211008,40.3510699 22.1185805,39.9027285 23.6100927,38.2547935 C24.5843528,37.1782244 24.5255886,36.9273138 22.9269057,35.3286309 C21.9651171,34.3668423 21.1781415,33.2902732 21.1781415,32.9362081 C21.1781415,32.3407447 14.6271984,29.6409724 4.26968618,25.9677854 C1.92144228,25.1349398 -2.11382114e-05,24.3128748 -2.11382114e-05,24.1408098 C-2.11382114e-05,23.9687447 4.96132846,23.9283707 11.0250358,24.0509724 L22.0503041,24.2739805 L23.1264504,22.5765821 C27.674548,15.4031187 34.542987,8.92383415 37.5991496,8.92383415 C38.2354098,8.92383415 39.5271659,9.53028943 40.4695073,10.2716065 C42.0041415,11.4785984 42.2148894,12.2264683 42.4882065,17.4357691 C42.6562553,20.6346146 43.0008081,23.4593138 43.2538325,23.7123382 C43.5070683,23.965574 44.3103203,23.6332813 45.0389545,22.9739805 C45.9692472,22.1320455 46.9485805,21.9037528 48.3295398,22.2070862 C49.760174,22.5212 50.5758976,22.3062244 51.3248244,21.4173626 C52.4478976,20.084387 58.0691821,11.0729561 58.0691821,10.6053789 C58.0691821,10.4466309 59.1821089,8.54292358 60.5423528,6.3752 C61.9025967,4.20726504 63.4691496,1.70767154 64.0238163,0.820289431 C65.0099138,-0.757678049 65.1644341,-0.57081626 71.0896862,9.35991545 C77.2072959,19.6134276 80.4997837,23.3971675 82.1481415,22.0677854 C83.2984829,21.1400293 89.3353447,21.0873951 91.0225967,21.9904195 C91.9816374,22.5036553 92.5908407,22.4968911 93.1205642,21.9671675 C94.2197512,20.8679805 96.8514585,21.0594927 97.5392959,22.2886797 C98.0812797,23.2570211 98.2195236,23.2570211 99.0231984,22.2886797 C99.5106455,21.7012488 100.954385,21.2207772 102.231556,21.2207772 C104.036548,21.2207772 104.724385,21.5955577 105.320694,22.9042244 L106.0878,24.5878829 L117.944646,24.168078 C124.465995,23.9372488 129.801491,23.8960293 129.801491,24.0765496 C129.801491,24.2570699 124.959572,26.2055902 119.041719,28.4065008 C113.123654,30.6074114 108.183654,32.4741268 108.063589,32.5548748 C107.943524,32.6356228 108.211133,34.5615252 108.658418,36.8345171 C109.821865,42.7487772 109.063003,46.6904195 106.137263,49.9287935 C104.824792,51.3816228 102.695328,52.9185821 101.405052,53.3443057 C100.114776,53.7702407 99.058922,54.271639 99.058922,54.4585008 C99.058922,54.6453626 100.436288,56.9272325 102.119524,59.529135 C103.802759,62.1312488 104.927312,64.260078 104.618272,64.260078 C104.114125,64.260078 91.8359951,59.5162407 72.744174,51.9449561 C68.9796699,50.4519642 65.5516862,49.2305984 65.126174,49.2305984 C64.3326455,49.2305984 57.4811171,51.827639 37.3877675,59.7451675 C25.7351171,64.3365984 25.277052,64.4955577 25.277052,63.9504033 L25.277052,63.9504033 Z" id="Fill-1" fill="#333333" sketch:type="MSShapeGroup" mask="url(#mask-2)"></path>
                </g>
                <path d="M57.9502374,23.404735 C57.844335,23.3554829 57.7139122,23.2423935 57.4158634,22.9418081 C57.0117008,22.534052 56.8510504,22.4154667 56.5151642,22.2765886 C56.0737984,22.0943772 55.5945951,22.0453366 55.1449854,22.1362309 C54.7437821,22.2174016 54.6323837,22.2262797 54.4510179,22.1907675 C54.1483187,22.1317919 54.0407252,21.9478894 54.1265463,21.6365236 C54.2332943,21.2482146 55.0433106,19.7461333 56.6650341,16.9281984 C59.9590016,11.2041821 64.3880911,3.98717398 64.8772293,3.54623089 C64.9313431,3.49740163 64.9332455,3.49740163 64.9877821,3.54623089 C65.2788553,3.80749919 66.990839,6.44766179 69.3295707,10.2423935 C72.4933268,15.3758081 75.1237659,19.8907187 75.1237659,20.1874992 C75.1237659,20.3686537 74.845587,20.4775154 74.2600585,20.5252878 C73.5324813,20.5848976 72.6905463,21.0118894 71.5397821,21.905613 C70.9929366,22.3302797 70.7595707,22.4888163 70.4934407,22.6167024 C70.2714894,22.723239 70.2530992,22.727678 70.0138146,22.727678 C69.778335,22.727678 69.7544488,22.7223935 69.5707577,22.6300195 C69.4625301,22.5756943 69.2526276,22.4294179 69.096839,22.2996293 C68.6364488,21.9157593 68.0824163,21.636735 67.1791805,21.3334016 C66.0313756,20.9478407 64.8024,20.7163772 63.7558472,20.6888976 C62.9295545,20.6671252 62.5484325,20.7413203 61.9218959,21.045922 C61.4103512,21.2947187 61.1638797,21.4714341 59.9930341,22.4287837 C58.8021073,23.4024098 58.3793431,23.6044911 57.9502374,23.404735 L57.9502374,23.404735 Z" id="Fill-4" fill="#6398AA" sketch:type="MSShapeGroup"></path>
                <path d="M19.7095431,29.7165626 C17.5621122,29.0906602 10.0910228,26.1399772 9.04510407,25.504774 C8.90073008,25.4170504 8.88910407,25.4037333 8.93032358,25.3735057 C9.16939675,25.1986927 11.5383561,25.1116033 14.215722,25.1794569 C15.283413,25.2065138 21.7199984,25.4189528 21.7305675,25.4276195 C21.7514943,25.4447415 20.3519333,29.5049691 20.2443398,29.7385463 C20.1995268,29.8362049 20.1069415,29.8324 19.7095431,29.7165626" id="Fill-6" fill="#6398AA" sketch:type="MSShapeGroup"></path>
                <path d="M107.445,30.6828959 C107.152024,30.1094163 106.623146,27.5182943 106.607715,26.5801805 C106.601797,26.2157577 106.647244,26.0671561 106.810854,25.9164407 C107.185846,25.5708309 107.947878,25.4463268 110.042886,25.3890423 C111.100431,25.3600829 115.983146,25.3556439 119.430577,25.380587 L121.846463,25.3979203 L116.02965,27.5781154 C110.725439,29.5663756 107.640951,30.7154488 107.526805,30.7456764 C107.498268,30.7532862 107.469732,30.7315138 107.445,30.6828959 L107.445,30.6828959 Z" id="Fill-8" fill="#6398AA" sketch:type="MSShapeGroup"></path>
                <path d="M30.1624943,60.3194715 C30.1624943,60.1564959 30.8535024,58.9385122 32.6048033,56.014252 C36.8009496,49.0077805 38.7194537,46.4682358 41.0755187,44.8016992 C43.1832098,43.3106098 44.3102992,42.2799106 45.5663317,40.6943333 L46.3408358,39.7166911 L47.3850634,40.743374 C49.2130959,42.5405447 50.3152423,43.0616016 52.3096325,43.0715366 C54.7491935,43.0840081 57.4206407,41.7212276 57.4206407,40.464561 C57.4206407,40.1815203 57.6222992,39.8891789 57.8176163,39.8891789 C57.900478,39.8891789 58.3708033,40.0337642 58.8631122,40.2102683 C60.1462016,40.6706585 60.898722,40.8372276 61.9511935,40.8934553 C62.9954211,40.9492602 63.7582992,40.8573089 64.7748358,40.5533415 C65.7738276,40.2548699 66.3492098,39.949 68.0721854,38.8014065 C68.9403317,38.2228537 69.678478,37.7497805 69.7125106,37.7497805 C69.7463317,37.7497805 70.3730797,38.1131463 71.1053073,38.5572602 C71.8373236,39.001374 72.7170959,39.4833252 73.0601691,39.6283333 C75.3999577,40.6173902 77.9272423,40.5529187 80.2410309,39.445065 C80.6549171,39.2467886 81.6293886,38.6563984 82.4066407,38.1328049 C83.1836813,37.6094228 83.8305106,37.1932114 83.8438276,37.2077967 C83.8571447,37.2225935 84.1516,37.8252439 84.4980553,38.5471138 C84.844722,39.2689837 85.2799577,40.0832276 85.4655512,40.3565447 C86.2688033,41.5392276 87.1938114,42.4177317 88.4426569,43.1835691 C89.7280715,43.9720244 90.5209659,45.0198455 90.6025593,46.0382846 C90.6837301,47.0486911 90.2425756,47.9449512 88.970478,49.3542358 C87.9774049,50.4544797 87.7288195,50.8837967 87.7313561,51.4944797 C87.7341041,52.1060081 88.0909171,52.8111789 88.7185106,53.4442683 C89.7342016,54.4692602 91.3282341,54.773439 93.6722504,54.3897805 C94.1952098,54.3041707 94.8549333,54.2339919 95.1381854,54.2335691 C96.0441691,54.2323008 96.5975675,54.676626 97.6521528,56.2520569 C98.3799415,57.3391951 99.9718602,60.0051463 99.9718602,60.1368374 C99.9718602,60.2053252 99.8974537,60.2535203 99.791974,60.2535203 C99.5698114,60.2535203 98.6033724,59.990561 97.9039089,59.7398618 C96.9846081,59.4103171 85.7974211,55.0883984 82.1035187,53.6355691 C72.2395837,49.7562846 68.9919089,48.5175854 67.4046407,48.0286585 C65.6894862,47.5004146 64.5213886,47.3765447 63.5731285,47.6221707 C62.3936163,47.9278293 46.2987707,54.1473252 36.9108683,57.9253577 C32.2750472,59.7910163 31.6945919,60.0129675 30.8270797,60.2509837 C30.1373398,60.4401707 30.1624943,60.4376341 30.1624943,60.3194715 L30.1624943,60.3194715 Z" id="Fill-10" fill="#6398AA" sketch:type="MSShapeGroup"></path>
            </g>
        </g>
    </g>
</svg>