<?xml version="1.0" encoding="UTF-8" standalone="no"?>
<svg width="54px" height="76px" viewBox="0 0 54 76" version="1.1" xmlns="http://www.w3.org/2000/svg" xmlns:xlink="http://www.w3.org/1999/xlink" xmlns:sketch="http://www.bohemiancoding.com/sketch/ns">
    <!-- Generator: Sketch 3.4 (15575) - http://www.bohemiancoding.com/sketch -->
    <title>Page 1</title>
    <desc>Created with Sketch.</desc>
    <defs></defs>
    <g id="Careers-i3" stroke="none" stroke-width="1" fill="none" fill-rule="evenodd" sketch:type="MSPage">
        <g sketch:type="MSArtboardGroup" transform="translate(-309.000000, -2846.000000)" id="Page-1">
            <g sketch:type="MSLayerGroup" transform="translate(309.000000, 2846.000000)">
                <path d="M0,15.0095792 L4.89422148,69.903257 L26.8561812,75.9999617 L48.8789664,69.8945859 L53.7782886,15.0095792 L0,15.0095792 Z" id="Fill-1" fill="#E44D26" sketch:type="MSShapeGroup"></path>
                <path d="M26.8891443,71.3332812 L44.6846208,66.399657 L48.8713792,19.4979658 L26.8891443,19.4979658 L26.8891443,71.3332812 Z" id="Fill-2" fill="#F16529" sketch:type="MSShapeGroup"></path>
                <path d="M26.8891443,39.8571799 L17.9803121,39.8571799 L17.3650436,32.9629852 L26.8891443,32.9629852 L26.8891443,26.2304819 L26.8658087,26.2304819 L10.0073255,26.2304819 L10.1683792,28.036757 L11.8231644,46.5895557 L26.8891443,46.5895557 L26.8891443,39.8571799 Z" id="Fill-3" fill="#ECECEC" sketch:type="MSShapeGroup"></path>
                <path d="M26.8891443,57.342153 L26.8596879,57.3500591 L19.3615738,55.3253477 L18.8823658,49.9558711 L15.2388289,49.9558711 L12.1239765,49.9558711 L13.0672181,60.5268846 L26.8581577,64.3553208 L26.8891443,64.3467772 L26.8891443,57.342153 Z" id="Fill-4" fill="#ECECEC" sketch:type="MSShapeGroup"></path>
                <path d="M11.5546651,0.0918375839 L11.5546651,3.47217987 L8.42489329,3.47217987 L8.42489329,0.0918375839 L5.00374564,0.0918375839 L5.00374564,10.328247 L8.42502081,10.328247 L8.42502081,6.90034094 L11.5547926,6.90034094 L11.5547926,10.328247 L14.9761953,10.328247 L14.9761953,0.0918375839 L11.5546651,0.0918375839 Z" id="Fill-5" fill="#000000" sketch:type="MSShapeGroup"></path>
                <path d="M16.4632832,0.0918375839 L16.4632832,3.48633423 L19.4752295,3.48633423 L19.4754846,3.48633423 L19.4754846,10.328247 L22.8970148,10.328247 L22.8970148,3.48633423 L25.9102362,3.48633423 L25.9102362,0.0918375839 L16.4632832,0.0918375839 Z" id="Fill-6" fill="#000000" sketch:type="MSShapeGroup"></path>
                <path d="M35.3640624,0.0918375839 L33.1716664,3.68857584 L30.9771027,0.0918375839 L27.4096933,0.0918375839 L27.4096933,10.328247 L30.7573913,10.328247 L30.7573913,5.25448188 L33.1128812,8.89406577 L33.1716664,8.89406577 L35.5256262,5.25448188 L35.5256262,10.328247 L38.9328745,10.328247 L38.9328745,0.0918375839 L35.3640624,0.0918375839 Z" id="Fill-7" fill="#000000" sketch:type="MSShapeGroup"></path>
                <path d="M40.6356826,0.0918375839 L40.6356826,10.328247 L48.8695685,10.328247 L48.8695685,6.94458926 L44.0579779,6.94458926 L44.0579779,0.0918375839 L40.6356826,0.0918375839 Z" id="Fill-8" fill="#000000" sketch:type="MSShapeGroup"></path>
                <path d="M26.8658725,39.8571799 L26.8658725,46.5895557 L35.1561208,46.5895557 L34.374698,55.3211396 L26.8658725,57.3477638 L26.8658725,64.3521329 L40.6677785,60.5268846 L40.7690268,59.3894349 L42.3511275,41.6649852 L42.5153691,39.8571799 L40.7011879,39.8571799 L26.8658725,39.8571799 Z" id="Fill-9" fill="#FFFFFF" sketch:type="MSShapeGroup"></path>
                <path d="M26.8658725,26.2304691 L26.8658725,30.4119993 L26.8658725,32.9465228 L26.8658725,32.9629725 L43.1064094,32.9629725 L43.1279597,32.9629725 L43.2631275,31.4497309 L43.5698054,28.0367443 L43.7308591,26.2304691 L26.8658725,26.2304691 Z" id="Fill-10" fill="#FFFFFF" sketch:type="MSShapeGroup"></path>
            </g>
        </g>
    </g>
</svg>