<?xml version="1.0" encoding="utf-8"?>
<!-- Generator: Adobe Illustrator 17.0.0, SVG Export Plug-In . SVG Version: 6.00 Build 0)  -->
<!DOCTYPE svg PUBLIC "-//W3C//DTD SVG 1.1//EN" "http://www.w3.org/Graphics/SVG/1.1/DTD/svg11.dtd">
<svg version="1.1" id="Layer_1" xmlns:sketch="http://www.bohemiancoding.com/sketch/ns"
	 xmlns="http://www.w3.org/2000/svg" xmlns:xlink="http://www.w3.org/1999/xlink" x="0px" y="0px" width="26.109px"
	 height="26.444px" viewBox="-1.109 -1.243 26.109 26.444" enable-background="new -1.109 -1.243 26.109 26.444"
	 xml:space="preserve">
<title>Group</title>
<desc>Created with Sketch.</desc>
<g id="Careers-i3" sketch:type="MSPage">
	<g id="Group" transform="translate(-670.000000, -2231.000000)" sketch:type="MSArtboardGroup">
		<g transform="translate(670.000000, 2231.000000)" sketch:type="MSLayerGroup">
			<path id="Rectangle-59" sketch:type="MSShapeGroup" fill="none" stroke="#71B342" d="M-0.055,16.498V10.73
				c0-0.554,0.451-1.003,0.995-1.003h17.01c0.549,0,0.995,0.44,0.995,0.998v5.741c0.002,4.015-3.244,7.261-7.168,7.261H7.195
				c-4.004,0-7.25-3.246-7.25-7.25"/>
			<path id="Oval-45" sketch:type="MSShapeGroup" fill="none" stroke="#71B342" d="M17.445,9.728h4c1.381,0,2.5,1.119,2.5,2.5
				s-1.119,2.5-2.5,2.5h-2.5"/>
			<path id="Path-982" sketch:type="MSShapeGroup" fill="none" stroke="#71B342" stroke-linecap="round" d="M3.983,0.231
				c1.983,1.983-1.469,3.992,0.499,6.008"/>
			<path id="Path-982_1_" sketch:type="MSShapeGroup" fill="none" stroke="#71B342" stroke-linecap="round" d="M8.983,0.231
				c1.983,1.983-1.469,3.992,0.499,6.008"/>
			<path id="Path-982_2_" sketch:type="MSShapeGroup" fill="none" stroke="#71B342" stroke-linecap="round" d="M13.983,0.231
				c1.983,1.983-1.469,3.992,0.499,6.008"/>
		</g>
	</g>
</g>
</svg>
