<?xml version="1.0" encoding="UTF-8" standalone="no"?>
<svg width="33px" height="31px" viewBox="0 0 33 31" version="1.1" xmlns="http://www.w3.org/2000/svg" xmlns:xlink="http://www.w3.org/1999/xlink" xmlns:sketch="http://www.bohemiancoding.com/sketch/ns">
    <!-- Generator: Sketch 3.4 (15575) - http://www.bohemiancoding.com/sketch -->
    <title>Oval 41 + Line + Path 1012 + Path 1012</title>
    <desc>Created with Sketch.</desc>
    <defs></defs>
    <g id="Careers-i3" stroke="none" stroke-width="1" fill="none" fill-rule="evenodd" sketch:type="MSPage">
        <g sketch:type="MSArtboardGroup" transform="translate(-54.000000, -2067.000000)" stroke-linecap="round" id="Oval-41-+-Line-+-Path-1012-+-Path-1012" stroke="#71B342" stroke-linejoin="round">
            <g sketch:type="MSLayerGroup" transform="translate(51.000000, 2062.000000)">
                <g id="Oval-41-+-Line" transform="translate(17.000000, 16.000000) rotate(-35.000000) translate(-17.000000, -16.000000) translate(4.000000, 6.000000)" sketch:type="MSShapeGroup">
                    <path d="M25.2701156,10.5414178 C24.121927,4.82297133 19.0714576,0.515625 13.0149536,0.515625 C6.97192234,0.515625 1.93045481,4.80382918 0.767512018,10.5032766 C1.65618896,10.5032768 23.5624396,10.5032768 25.2701156,10.5414178 Z" id="Oval-41"></path>
                    <path d="M12.5,10.5 L12.5,19.5" id="Line"></path>
                </g>
                <path d="M3.06018066,27.9709473 L7.03015137,30 L11.0314941,28 L15.0314941,30.03125 L19.0301514,27.96875 L23.0614014,30.0625 L27.0926514,27.96875 L31.0301514,30 L35.0926514,28" id="Path-1012" sketch:type="MSShapeGroup"></path>
                <path d="M3.06018066,32.9709473 L7.03015137,35 L11.0314941,33 L15.0314941,35.03125 L19.0301514,32.96875 L23.0614014,35.0625 L27.0926514,32.96875 L31.0301514,35 L35.0926514,33" id="Path-1012" sketch:type="MSShapeGroup"></path>
            </g>
        </g>
    </g>
</svg>