<?xml version="1.0" encoding="UTF-8" standalone="no"?>
<svg width="42px" height="41px" viewBox="0 0 42 41" version="1.1" xmlns="http://www.w3.org/2000/svg" xmlns:xlink="http://www.w3.org/1999/xlink" xmlns:sketch="http://www.bohemiancoding.com/sketch/ns">
    <!-- Generator: Sketch 3.4 (15575) - http://www.bohemiancoding.com/sketch -->
    <title>Oval 49</title>
    <desc>Created with Sketch.</desc>
    <defs></defs>
    <g id="Careers-i3" stroke="none" stroke-width="1" fill="none" fill-rule="evenodd" sketch:type="MSPage">
        <g sketch:type="MSArtboardGroup" transform="translate(-365.000000, -4960.000000)" id="job" stroke="#71B342">
            <g sketch:type="MSLayerGroup" transform="translate(40.000000, 4940.000000)">
                <path d="M344.87251,49.0698481 L344.632429,56.2722809 C340.456369,55.5489355 337.243519,51.1332312 337.243519,45.793956 C337.243519,42.8928901 338.192027,40.2644839 339.728183,38.3528728 C336.640426,36.3486933 334.597985,32.8703535 334.597985,28.9149761 C334.597985,26.5936795 335.301438,24.436683 336.506796,22.6455339 C330.254468,25.9850969 326,32.574954 326,40.1584954 C326,51.1166558 334.883344,60 345.841505,60 C356.799665,60 365.683009,51.1166558 365.683009,40.1584954 C365.683009,32.574954 361.428541,25.9850969 355.176214,22.6455339 C356.381571,24.436683 357.085024,26.5936795 357.085024,28.9149761 C357.085024,32.8703535 355.042584,36.3486933 351.954826,38.3528728 C353.490982,40.2644839 354.43949,42.8928901 354.43949,45.793956 C354.43949,51.1332312 351.22664,55.5489355 347.050581,56.2722809 L346.8105,49.0698481 L349.148422,51.0375387 L347.788939,47.354821 L352.455339,46.4553395 L347.788939,45.5558579 L349.148422,41.8731403 L346.640955,43.983526 L345.841505,20 L345.042054,43.983526 L342.534587,41.8731403 L343.89407,45.5558579 L339.22767,46.4553395 L343.89407,47.354821 L342.534587,51.0375387 L344.87251,49.0698481 Z" id="Oval-49" sketch:type="MSShapeGroup"></path>
            </g>
        </g>
    </g>
</svg>