<?xml version="1.0" encoding="UTF-8" standalone="no"?>
<svg width="60px" height="60px" viewBox="0 0 60 60" version="1.1" xmlns="http://www.w3.org/2000/svg" xmlns:xlink="http://www.w3.org/1999/xlink" xmlns:sketch="http://www.bohemiancoding.com/sketch/ns">
    <!-- Generator: Sketch 3.4 (15575) - http://www.bohemiancoding.com/sketch -->
    <title>Page 1</title>
    <desc>Created with Sketch.</desc>
    <defs>
        <path id="path-1" d="M0,0.2034375 L59.8973438,0.2034375 L59.8973438,59.765625 L0,59.765625"></path>
        <path id="path-3" d="M0,0.2034375 L59.8973438,0.2034375 L59.8973438,59.765625 L0,59.765625 L0,0.2034375 Z"></path>
    </defs>
    <g id="Careers-i3" stroke="none" stroke-width="1" fill="none" fill-rule="evenodd" sketch:type="MSPage">
        <g sketch:type="MSArtboardGroup" transform="translate(-1118.000000, -2854.000000)" id="Page-1">
            <g sketch:type="MSLayerGroup" transform="translate(1118.000000, 2854.000000)">
                <path d="M27.6290156,24.8660859 L32.2684688,24.8660859 L33.421125,23.2880391 L33.421125,10.9301484 L26.4770625,10.9301484 L26.4770625,23.2894453 L27.6290156,24.8660859 Z" id="Fill-1" fill="#8A4182" sketch:type="MSShapeGroup"></path>
                <path d="M24.6386953,30.3779531 L26.0718984,25.9911562 L24.9192422,24.4135781 L13.0987734,20.5949062 L10.9533047,27.1609219 L22.7749453,30.9805312 L24.6386953,30.3779531 Z" id="Fill-2" fill="#8A4182" sketch:type="MSShapeGroup"></path>
                <path d="M28.9866797,34.9097344 L25.2338672,32.1977813 L23.3684766,32.8008281 L16.0632422,42.7990313 L21.6807422,46.857 L28.9866797,36.8585625 L28.9866797,34.9097344 Z" id="Fill-3" fill="#8A4182" sketch:type="MSShapeGroup"></path>
                <path d="M34.6645313,32.1974531 L30.9107813,34.9089375 L30.9114844,36.8589375 L38.2167188,46.8571406 L43.8344531,42.7991719 L36.5280469,32.8000313 L34.6645313,32.1974531 Z" id="Fill-4" fill="#8A4182" sketch:type="MSShapeGroup"></path>
                <path d="M33.824625,25.9902422 L35.2585312,30.3775078 L37.1236875,30.9796172 L48.9443906,27.1609453 L46.7984531,20.5944609 L34.9772812,24.4140703 L33.824625,25.9902422 Z" id="Fill-5" fill="#8A4182" sketch:type="MSShapeGroup"></path>
                <g id="Group-19">
                    <g id="Group-8">
                        <mask id="mask-2" sketch:name="Clip 7" fill="white">
                            <use xlink:href="#path-1"></use>
                        </mask>
                        <g id="Clip-7"></g>
                        <path d="M29.9501953,6.23261719 C43.1382422,6.23261719 53.8330078,16.8631641 53.8330078,29.9797266 C53.8330078,43.1005078 43.1382422,53.7355078 29.9501953,53.7355078 C16.7576953,53.7355078 6.06433594,43.1005078 6.06433594,29.9797266 C6.06433594,16.8631641 16.7576953,6.23261719 29.9501953,6.23261719 M29.9501953,0.203320313 C13.4358984,0.203320313 0.0001171875,13.5610547 0.0001171875,29.9797266 C0.0001171875,46.4042578 13.4358984,59.7657422 29.9501953,59.7657422 C46.4630859,59.7657422 59.8974609,46.4042578 59.8974609,29.9797266 C59.8974609,13.5610547 46.4630859,0.203320313 29.9501953,0.203320313" id="Fill-6" fill="#8A4182" sketch:type="MSShapeGroup" mask="url(#mask-2)"></path>
                    </g>
                    <path d="M48.0895312,36.5982891 L39.1040625,33.6948516 L39.6979687,31.8749297 L48.6836719,34.7783672 L48.0895312,36.5982891 Z" id="Fill-9" fill="#8A4182" sketch:type="MSShapeGroup"></path>
                    <path d="M36.6294375,22.2542344 L35.07225,21.1297031 L40.6252969,13.5291563 L42.1824844,14.6539219 L36.6294375,22.2542344 Z" id="Fill-11" fill="#8A4182" sketch:type="MSShapeGroup"></path>
                    <path d="M23.3644688,22.1851641 L17.812125,14.5843828 L19.3695469,13.4598516 L24.9216563,21.0601641 L23.3644688,22.1851641 Z" id="Fill-13" fill="#8A4182" sketch:type="MSShapeGroup"></path>
                    <path d="M11.7713672,36.4847344 L11.1769922,34.6648125 L20.1615234,31.7627813 L20.7561328,33.5827031 L11.7713672,36.4847344 Z" id="Fill-15" fill="#8A4182" sketch:type="MSShapeGroup"></path>
                    <mask id="mask-4" sketch:name="Clip 18" fill="white">
                        <use xlink:href="#path-3"></use>
                    </mask>
                    <g id="Clip-18"></g>
                    <path d="M28.9275,48.965625 L30.8519531,48.965625 L30.8519531,39.5707031 L28.9275,39.5707031 L28.9275,48.965625 Z" id="Fill-17" fill="#8A4182" sketch:type="MSShapeGroup" mask="url(#mask-4)"></path>
                </g>
            </g>
        </g>
    </g>
</svg>