<?xml version="1.0" encoding="UTF-8" standalone="no"?>
<svg width="151px" height="47px" viewBox="0 0 151 47" version="1.1" xmlns="http://www.w3.org/2000/svg" xmlns:xlink="http://www.w3.org/1999/xlink" xmlns:sketch="http://www.bohemiancoding.com/sketch/ns">
    <!-- Generator: Sketch 3.4 (15575) - http://www.bohemiancoding.com/sketch -->
    <title>Page 1</title>
    <desc>Created with Sketch.</desc>
    <defs>
        <path id="path-1" d="M0,0.0208785785 L149.852665,0.0208785785 L149.852665,46.1994077 L0,46.1994077"></path>
        <path id="path-3" d="M0,0.0208785785 L149.852665,0.0208785785 L149.852665,46.1994077 L0,46.1994077"></path>
    </defs>
    <g id="Careers-i3" stroke="none" stroke-width="1" fill="none" fill-rule="evenodd" sketch:type="MSPage">
        <g sketch:type="MSArtboardGroup" transform="translate(-869.000000, -3131.000000)" id="Page-1">
            <g sketch:type="MSLayerGroup" transform="translate(869.500000, 3131.000000)">
                <path d="M32.8944965,22.2732823 C32.8944965,31.4222458 25.6434107,38.8390276 16.6987907,38.8390276 C7.75431885,38.8390276 0.503232971,31.4222458 0.503232971,22.2732823 C0.503232971,13.1241708 7.75431885,5.70724087 16.6987907,5.70724087 C25.6434107,5.70724087 32.8944965,13.1241708 32.8944965,22.2732823" id="Fill-1" fill="#D33833" sketch:type="MSShapeGroup"></path>
                <path d="M1.16330701,26.3760859 C1.16330701,26.3760859 -0.0090029615,9.1004689 15.9090622,8.60708292 L14.7986476,6.75614511 L6.16098717,9.65589832 L3.69302073,12.4940523 L1.53349457,16.6278628 L0.299437315,21.4403011 L0.669624877,24.6486426" id="Fill-3" fill="#EF3D3A" sketch:type="MSShapeGroup"></path>
                <g id="Group-7">
                    <mask id="mask-2" sketch:name="Clip 6" fill="white">
                        <use xlink:href="#path-1"></use>
                    </mask>
                    <g id="Clip-6"></g>
                    <path d="M4.8870385,34.400079 C1.86704837,31.3116782 -2.96150049e-05,27.0434156 -2.96150049e-05,22.335074 C-2.96150049e-05,17.6261402 1.86704837,13.3583218 4.88689042,10.2696249 C7.90614018,7.18018756 12.0854097,5.26557749 16.6983909,5.26616979 C21.3115202,5.26557749 25.491382,7.18018756 28.5100395,10.2696249 C31.5301777,13.3583218 33.3975518,17.6265844 33.3969595,22.335074 C33.3974038,27.0434156 31.5301777,31.3116782 28.5100395,34.400079 C25.491234,37.4890721 21.3115202,39.4036821 16.6983909,39.4036821 C12.0855577,39.4036821 7.90614018,37.4890721 4.8870385,34.400079 M5.60609082,10.9723889 C2.7645311,13.8798421 1.00614018,17.894156 1.00614018,22.335074 C1.00614018,26.7749556 2.7645311,30.7898618 5.60609082,33.6968707 C8.44913129,36.6038796 12.3670484,38.3975123 16.6986871,38.3975123 C21.0301777,38.3975123 24.9483909,36.6038796 27.7912833,33.6968707 C30.632695,30.7900099 32.391234,26.7751037 32.391234,22.335074 C32.391234,17.894156 30.6325469,13.8798421 27.7912833,10.9723889 C24.9483909,8.06612043 21.0303258,6.27233959 16.6986871,6.27189536 C12.3670484,6.27233959 8.44913129,8.06612043 5.60609082,10.9723889" id="Fill-5" fill="#231F1F" sketch:type="MSShapeGroup" mask="url(#mask-2)"></path>
                </g>
                <path d="M23.5163574,22.3651037 L21.0483909,22.7352912 L17.7167029,23.1054788 L15.5571767,23.167078 L13.4595459,23.1054788 L11.8553011,22.6117966 L10.4362981,21.0694472 L9.32573544,17.9228529 L9.07889437,17.244077 L7.59814413,16.750691 L6.73442251,15.33154 L6.11739388,13.2955084 L6.79616979,11.5061698 L8.40026654,10.9508885 L9.695923,11.5680652 L10.3129516,12.9253208 L11.0533268,12.8018263 L11.3000197,12.4935341 L11.0533268,11.074383 L10.9915795,9.28504442 L11.361767,6.81722606 L11.3474038,5.40755183 L12.4723297,3.60918065 L14.446614,2.19002962 L17.9017966,0.709279368 L21.7270188,1.26456071 L25.0587068,3.67077986 L26.6012043,6.1387463 L27.5884205,7.92793682 L27.8351135,12.3701876 L27.0947384,16.1955577 L25.7374827,19.588845 L24.4418263,21.3781836" id="Fill-8" fill="#F0D6B7" sketch:type="MSShapeGroup"></path>
                <path d="M21.4185044,33.0387216 L12.5956022,33.4089092 L12.5956022,34.8896594 L13.3359773,40.0722853 L12.9657897,40.5042201 L6.79609576,38.4064413 L6.36430898,37.6660661 L5.74713228,30.6942498 L4.32827739,26.4988401 L4.01968904,25.5116239 L8.95562192,22.1183366 L10.4979714,21.501308 L11.855227,23.167152 L13.0276851,24.2159674 L14.3849408,24.6479023 L15.0018213,24.8329961 L15.7421964,28.0411895 L16.2974778,28.7199654 L17.7166288,28.2262833 L16.7295607,30.1389684 L22.0972804,32.6685341 L21.4185044,33.0387216 Z" id="Fill-10" fill="#335061" sketch:type="MSShapeGroup"></path>
                <path d="M6.79609576,11.5061994 L8.40034057,10.9509181 L9.69599704,11.5679467 L10.3128776,12.9253504 L11.0532527,12.8018559 L11.2383465,12.0614808 L10.8681589,10.6424778 L11.2383465,7.24904245 L10.9297581,5.39810464 L12.0403208,4.10244817 L14.44654,2.18991115 L13.7680602,1.26444225 L10.3744768,2.93028628 L8.95562192,4.04084896 L8.15335143,5.7682922 L6.91959033,7.43413623 L6.54940276,9.40856861 L6.79609576,11.5061994 Z" id="Fill-12" fill="#6D6B6D" sketch:type="MSShapeGroup"></path>
                <path d="M9.32557256,5.70664857 C9.32557256,5.70664857 10.2510415,3.42392399 13.9529171,2.3133613 C17.6547927,1.20279862 14.1380109,1.51109082 14.1380109,1.51109082 L10.1275469,3.05373643 L8.58519743,4.59608588 L7.90642152,5.83014314 L9.32557256,5.70664857" id="Fill-14" fill="#DCD9D8" sketch:type="MSShapeGroup"></path>
                <path d="M7.47463475,11.074383 C7.47463475,11.074383 6.17897828,6.75547878 11.1147631,6.13845015 L10.9296693,5.39807502 L7.53623396,6.20034551 L6.54916584,9.40853899 L6.79585884,11.5061698 L7.47463475,11.074383" id="Fill-16" fill="#DCD9D8" sketch:type="MSShapeGroup"></path>
                <path d="M9.44884501,16.8122902 L10.2567423,16.0295656 C10.2567423,16.0295656 10.6213031,16.0719151 10.6829023,16.5037019 C10.7445015,16.9357848 10.9295953,20.8227542 13.5828036,22.9205331 C13.8246101,23.1119941 11.6083712,22.6117966 11.6083712,22.6117966 L9.6339388,19.5270977" id="Fill-18" fill="#F8E4CD" sketch:type="MSShapeGroup"></path>
                <path d="M20.8017572,15.6400839 C20.8017572,15.6400839 20.945538,13.7698963 21.4494373,13.9136772 C21.9530405,14.057458 21.9530405,14.5612093 21.9530405,14.5612093 C21.9530405,14.5612093 20.7297927,15.3523741 20.8017572,15.6400839" id="Fill-20" fill="#F8E4CD" sketch:type="MSShapeGroup"></path>
                <path d="M25.922384,8.79161402 C25.922384,8.79161402 24.9052567,9.0063228 24.8118213,9.9021767 C24.7182379,10.7981787 25.922384,10.0872705 26.1074778,10.0255232" id="Fill-22" fill="#F8E4CD" sketch:type="MSShapeGroup"></path>
                <path d="M18.4570039,8.85343534 C18.4570039,8.85343534 17.0997483,9.03852912 17.0997483,9.90225074 C17.0997483,10.7658243 18.6420977,10.7043731 19.0740326,10.3341856" id="Fill-24" fill="#F8E4CD" sketch:type="MSShapeGroup"></path>
                <path d="M10.0659625,12.8636772 C10.0659625,12.8636772 7.72134255,11.4445262 7.47464956,12.8019299 C7.22766041,14.1593337 6.67237907,15.1464018 7.84483712,16.5655528 L7.04256663,16.3187117 L6.30219151,14.4060267 L6.05549852,12.5550888 L7.47464956,11.0741905 L9.07859822,11.1976851 L10.0040671,11.9380602 L10.0659625,12.8636772" id="Fill-26" fill="#F8E4CD" sketch:type="MSShapeGroup"></path>
                <path d="M11.1765252,8.9767078 C11.1765252,8.9767078 12.2251925,3.54709279 17.5313129,2.49842547 C21.8999704,1.635 24.194541,2.68351925 25.0585587,3.67058736 C25.0585587,3.67058736 21.1715893,-0.956461007 17.4697137,0.46239388 C13.7678381,1.88124877 11.0530306,4.4725617 11.1146298,6.13840573 C11.2197631,8.97567127 11.1765252,8.9767078 11.1765252,8.9767078" id="Fill-28" fill="#F8E4CD" sketch:type="MSShapeGroup"></path>
                <path d="M25.4905528,4.28754195 C25.4905528,4.28754195 23.7015104,4.22594274 23.639615,5.83018756 C23.639615,5.83018756 23.6394669,6.07688055 23.7631096,6.32357354 C23.7631096,6.32357354 25.1824087,4.71932873 26.0458342,5.58319842" id="Fill-30" fill="#F8E4CD" sketch:type="MSShapeGroup"></path>
                <path d="M17.6557256,6.49072063 C17.6557256,6.49072063 17.3477295,4.02838105 15.248618,5.45997038 C13.8910661,6.38543929 14.0145607,7.68109576 14.2612537,7.92778875 C14.5082428,8.17462981 14.4410168,8.67171767 14.628924,8.33055281 C14.816535,7.98938796 14.7547878,6.87882527 15.4337117,6.57053307 C16.1121915,6.26194472 17.2248272,5.91737414 17.6557256,6.49072063" id="Fill-32" fill="#F8E4CD" sketch:type="MSShapeGroup"></path>
                <path d="M11.855079,23.1671076 L6.05557256,25.7584205 C6.05557256,25.7584205 8.46179171,35.3216979 7.22773445,38.2831984 L6.36401283,37.9747581 L6.30226555,34.3344817 L4.69816881,27.4244126 L4.01954097,25.5117275 L10.0658885,21.4398124 L11.855079,23.1671076" id="Fill-34" fill="#49728B" sketch:type="MSShapeGroup"></path>
                <path d="M12.4514511,28.45654 L13.274156,29.4603406 L13.274156,33.1622162 L12.2870879,33.1622162 C12.2870879,33.1622162 12.1635933,30.5709033 12.1635933,30.2623149 C12.1635933,29.9540227 12.2870879,28.84346 12.2870879,28.84346" id="Fill-36" fill="#49728B" sketch:type="MSShapeGroup"></path>
                <path d="M12.4721816,33.7176456 L9.69577493,33.840844 L10.4977493,34.3961254 L12.4721816,34.7045656" id="Fill-38" fill="#49728B" sketch:type="MSShapeGroup"></path>
                <path d="M21.9737858,33.1005429 L24.2566584,33.0387957 L24.8119398,38.7149556 L22.4674679,39.0233959 L21.9737858,33.1005429 Z" id="Fill-40" fill="#335061" sketch:type="MSShapeGroup"></path>
                <path d="M22.590696,33.1005429 L26.0457305,32.9154492 C26.0457305,32.9154492 27.4647335,29.33692 27.4647335,29.1518263 C27.4647335,28.9667325 28.6987907,23.9693485 28.6987907,23.9693485 L25.922384,21.0695953 L25.3671027,20.5759131 L23.8863524,22.0566634 L23.8863524,27.7945706 L22.590696,33.1005429" id="Fill-42" fill="#335061" sketch:type="MSShapeGroup"></path>
                <path d="M24.133075,32.6685341 L21.9735489,33.1004689 L22.2821372,34.8282083 C23.0841115,35.1983959 24.4416634,34.2110316 24.4416634,34.2110316" id="Fill-44" fill="#49728B" sketch:type="MSShapeGroup"></path>
                <path d="M24.1948963,21.8716436 L28.5139487,25.0799852 L28.6371471,23.5992349 L25.3673544,20.5759872 L24.1948963,21.8716436 Z" id="Fill-46" fill="#49728B" sketch:type="MSShapeGroup"></path>
                <path d="M14.6133465,45.2556515 L13.3360513,40.0721372 L12.7008095,36.2475074 L12.5956762,33.4087611 L18.3769694,33.1009131 L21.9737117,33.1003208 L21.6469102,39.5791955 L22.2021915,44.5767275 L22.1402962,45.5021964 L17.4515005,45.872384 L14.6133465,45.2556515 Z" id="Fill-48" fill="#FFFFFF" sketch:type="MSShapeGroup"></path>
                <path d="M21.1715893,33.0387216 C21.1715893,33.0387216 20.863001,39.4554047 21.7884699,44.021002 C21.7884699,44.021002 19.9375321,45.19346 17.2228727,45.5017522 L22.4056466,45.3166584 L23.0225271,44.9464709 L22.282152,34.8282083 L22.0970582,32.6685341" id="Fill-50" fill="#DCD9D8" sketch:type="MSShapeGroup"></path>
                <path d="M24.9169546,38.2220879 L27.3231737,37.5433119 L31.888771,37.296619 L32.5673988,35.198692 L31.3334896,31.5587117 L29.9144867,31.373618 L27.9400543,31.9904985 L26.0458786,32.9153751 L25.0403011,32.7308736 L24.25654,33.0387216" id="Fill-52" fill="#FFFFFF" sketch:type="MSShapeGroup"></path>
                <path d="M24.8734501,36.9875123 C24.8734501,36.9875123 26.4775469,36.2472853 26.724388,36.3088845 L26.045612,32.9154492 L26.8478825,32.6070089 C26.8478825,32.6070089 27.4031639,35.8153504 27.4031639,36.185538 C27.4031639,36.185538 30.8580503,36.3706318 31.1666387,36.3706318 C31.1666387,36.3706318 31.9070138,34.9516288 31.72192,33.4708786 L32.400696,35.4451629 L32.4622952,36.5557256 L31.475227,38.0364758 L30.3646644,38.2833169 L28.5137266,38.2215696 L27.8965499,37.4194472 L25.7373198,37.7278875 L25.0585439,37.9747285" id="Fill-54" fill="#DCD9D8" sketch:type="MSShapeGroup"></path>
                <path d="M22.4489141,32.6076308 L21.0916584,29.1525962 L19.6725074,27.1167127 C19.6725074,27.1167127 19.9809477,26.252843 20.4128825,26.252843 L21.8320336,26.252843 L23.1892892,26.7465252 L23.0659427,29.0292498 L22.4489141,32.6076308" id="Fill-56" fill="#FFFFFF" sketch:type="MSShapeGroup"></path>
                <path d="M22.7141609,31.4346989 C22.7141609,31.4346989 20.9867177,28.1031589 20.9867177,27.6096249 C20.9867177,27.6096249 21.2950099,26.8692498 21.7270928,27.0543435 C22.1588796,27.2394373 23.0843485,27.7328233 23.0843485,27.7328233 L23.0843485,26.5606614 L20.9867177,26.1285785 L19.5675666,26.3136723 L21.9737858,31.9899803 L22.4674679,32.0518756" id="Fill-58" fill="#DCD9D8" sketch:type="MSShapeGroup"></path>
                <path d="M15.1686278,23.2913129 L13.4593978,23.1054788 L11.8553011,22.6117966 L11.8553011,23.167078 L12.6390622,24.03154 L15.1070286,25.1421027" id="Fill-60" fill="#FFFFFF" sketch:type="MSShapeGroup"></path>
                <path d="M12.4107305,23.4762142 C12.4107305,23.4762142 14.3232675,24.2783366 14.9404442,24.0932428 L15.0017473,24.8330257 L13.2746002,24.4634304 L12.2256367,23.7230553 L12.4107305,23.4762142" id="Fill-62" fill="#DCD9D8" sketch:type="MSShapeGroup"></path>
                <path d="M24.9102912,26.4627098 C23.8634008,26.4319102 22.9174975,26.3075271 22.0893139,26.0740128 C22.1457305,25.7344768 22.040153,25.401308 22.1248519,25.1566881 C22.3555528,24.9903998 22.7426209,24.9930652 23.0913376,24.9541214 C22.7897088,24.8057502 22.3660661,24.7472606 22.0176456,24.8326999 C22.0095015,24.5971125 21.9037759,24.4511106 21.8398075,24.2667572 C22.4284057,24.0566387 23.8177937,22.6793929 24.5994817,23.135464 C24.9718904,23.3523939 25.1301826,24.5913376 25.1590573,25.1937068 C25.1833416,25.6937562 25.1138944,26.1979516 24.9102912,26.4627098" id="Fill-64" fill="#D33833" sketch:type="MSShapeGroup"></path>
                <path d="M24.9102912,26.4627098 C23.8634008,26.4319102 22.9174975,26.3075271 22.0893139,26.0740128 C22.1457305,25.7344768 22.040153,25.401308 22.1248519,25.1566881 C22.3555528,24.9903998 22.7426209,24.9930652 23.0913376,24.9541214 C22.7897088,24.8057502 22.3660661,24.7472606 22.0176456,24.8326999 C22.0095015,24.5971125 21.9037759,24.4511106 21.8398075,24.2667572 C22.4284057,24.0566387 23.8177937,22.6793929 24.5994817,23.135464 C24.9718904,23.3523939 25.1301826,24.5913376 25.1590573,25.1937068 C25.1833416,25.6937562 25.1138944,26.1979516 24.9102912,26.4627098 L24.9102912,26.4627098 Z" id="Stroke-66" stroke="#D33833" stroke-width="2" sketch:type="MSShapeGroup"></path>
                <path d="M19.9040671,24.7513327 C19.9012537,24.8305528 19.8979961,24.9103653 19.8947384,24.9903258 C19.5679368,25.2050346 19.0403455,25.2023692 18.6815597,25.3828727 C19.2103356,25.4059724 19.6265745,25.5333169 19.9868411,25.7129319 C19.978845,25.9123889 19.9712932,26.1119941 19.9634452,26.3114511 C19.3643337,26.721619 18.8170484,27.3324284 18.111619,27.7171273 C17.778154,27.8991115 16.6073248,28.3671767 16.252537,28.2844028 C16.0518954,28.2377591 16.0338302,27.9886969 15.9534255,27.7537019 C15.7823988,27.2509872 15.3886673,26.4504936 15.3543139,25.6932379 C15.3106318,24.7371175 15.2139388,23.1347976 16.2443929,23.3317374 C17.0756861,23.4901777 18.0427641,23.8732478 18.6862981,24.224926 C19.0798815,24.4396347 19.3073248,24.7054294 19.9040671,24.7513327" id="Fill-68" fill="#D33833" sketch:type="MSShapeGroup"></path>
                <path d="M19.9040671,24.7513327 C19.9012537,24.8305528 19.8979961,24.9103653 19.8947384,24.9903258 C19.5679368,25.2050346 19.0403455,25.2023692 18.6815597,25.3828727 C19.2103356,25.4059724 19.6265745,25.5333169 19.9868411,25.7129319 C19.978845,25.9123889 19.9712932,26.1119941 19.9634452,26.3114511 C19.3643337,26.721619 18.8170484,27.3324284 18.111619,27.7171273 C17.778154,27.8991115 16.6073248,28.3671767 16.252537,28.2844028 C16.0518954,28.2377591 16.0338302,27.9886969 15.9534255,27.7537019 C15.7823988,27.2509872 15.3886673,26.4504936 15.3543139,25.6932379 C15.3106318,24.7371175 15.2139388,23.1347976 16.2443929,23.3317374 C17.0756861,23.4901777 18.0427641,23.8732478 18.6862981,24.224926 C19.0798815,24.4396347 19.3073248,24.7054294 19.9040671,24.7513327 L19.9040671,24.7513327 Z" id="Stroke-70" stroke="#D33833" stroke-width="2" sketch:type="MSShapeGroup"></path>
                <path d="M20.4991362,25.8922507 C20.4074778,25.3713228 20.3017522,25.2228036 20.342769,24.7682132 C21.7320089,23.842152 21.992769,26.3592794 20.4991362,25.8922507" id="Fill-72" fill="#D33833" sketch:type="MSShapeGroup"></path>
                <path d="M20.4991362,25.8922507 C20.4074778,25.3713228 20.3017522,25.2228036 20.342769,24.7682132 C21.7320089,23.842152 21.992769,26.3592794 20.4991362,25.8922507 L20.4991362,25.8922507 Z" id="Stroke-74" stroke="#D33833" stroke-width="2" sketch:type="MSShapeGroup"></path>
                <path d="M22.5105429,26.3144423 C22.5105429,26.3144423 22.0786081,25.6974136 22.3873445,25.5123198 C22.6956367,25.3272261 23.0043731,25.5124679 23.1894669,25.2038796 C23.3745607,24.8955874 23.1894669,24.7104936 23.2510661,24.340306 C23.3129615,23.9701185 23.6216979,23.9082231 23.9298421,23.8466239 C24.2382823,23.7850247 25.1023001,23.6615301 25.2254985,23.9701185 L24.855311,22.8595558 L24.1149358,22.6125666 L21.7703159,23.9701185 L21.6471175,24.6485982 L21.6471175,26.00615" id="Fill-76" fill="#EF3D3A" sketch:type="MSShapeGroup"></path>
                <path d="M16.0322754,28.3504738 C15.9580898,27.387542 15.8797581,26.4260908 15.7923939,25.4641955 C15.6619398,24.0277196 16.1374087,24.2784107 17.3825716,24.2784107 C17.5725518,24.2784107 18.5534008,24.5051135 18.6235884,24.6485982 C18.9601629,25.3358144 18.0609033,25.1831491 19.0113968,25.7014116 C19.8133712,26.1388253 21.2305972,25.4357651 20.906461,24.4635044 C20.7250691,24.2473149 19.9614462,24.3961303 19.6876555,24.2544225 C19.2056713,24.0044719 18.7236871,23.7546693 18.2417029,23.5047187 C17.6285242,23.1863574 16.2112981,22.7227345 15.5573988,23.1672557 C13.9007354,24.2941066 15.6619398,27.1090128 16.2529072,28.2844324" id="Fill-78" fill="#EF3D3A" sketch:type="MSShapeGroup"></path>
                <path d="M17.6557256,6.49072063 C15.9741856,6.09906219 15.1385982,7.19452122 14.628924,8.33055281 C14.1737414,8.22023692 14.3549852,7.60128332 14.4698914,7.28588351 C14.7709279,6.45814413 15.9839585,5.35631787 16.9750247,5.50572557 C17.4014808,5.56984205 17.9786772,5.95987167 17.6557256,6.49072063" id="Fill-80" fill="#231F1F" sketch:type="MSShapeGroup"></path>
                <path d="M25.8492794,8.40568608 C25.8757848,8.40687068 25.9025864,8.40775913 25.9290918,8.40879566 C26.3090523,9.19833169 26.6379269,10.0345114 27.1172458,10.7313524 C26.7962192,11.4794274 24.6855577,12.1413228 24.7179862,10.7982823 C25.1745015,10.5986772 25.9624087,10.7574136 26.3669497,10.5025765 C26.1331392,9.8605232 25.7955281,9.31397828 25.8492794,8.40568608" id="Fill-82" fill="#231F1F" sketch:type="MSShapeGroup"></path>
                <path d="M18.5167818,8.42623889 C18.8773445,9.0872458 18.9946199,9.78171767 19.5072557,10.2813228 C19.7379566,10.5061007 20.18692,10.7803356 19.9643633,11.4056565 C19.9123889,11.5531392 19.5324284,11.8821619 19.3128332,11.9467226 C18.5115992,12.1830503 16.6445212,11.9955874 17.2768016,10.9963771 C17.9397335,11.0273248 18.8301086,11.4268312 19.3254195,10.9458835 C18.945311,10.3378875 18.2672754,9.13492596 18.5167818,8.42623889" id="Fill-84" fill="#231F1F" sketch:type="MSShapeGroup"></path>
                <path d="M25.5484946,15.1440326 C24.3419793,15.9192053 22.9967177,16.7617522 21.0199161,16.5662932 C20.5976061,16.1990671 20.4365005,15.3818411 20.8469645,14.8421076 C21.0604886,15.2093337 20.9263327,15.8848519 21.5215943,15.9864314 C22.6432626,16.1783366 23.948692,15.3002517 24.7557009,14.9931441 C25.2558983,14.1497088 24.712463,13.8394916 24.2617226,13.2966486 C23.3392152,12.1844571 22.101308,10.8058786 22.1463228,9.14077493 C22.5194719,8.87024186 22.5514561,9.55346002 22.6049112,9.67784304 C23.0867473,10.8052863 24.2993337,12.247537 25.18423,13.212542 C25.4014561,13.4502024 25.7593534,13.6782379 25.7990375,13.8354936 C25.9137957,14.2926012 25.5005183,14.8400346 25.5484946,15.1440326" id="Fill-86" fill="#231F1F" sketch:type="MSShapeGroup"></path>
                <path d="M9.64375617,14.3281392 C9.26557256,14.1123939 9.17554294,13.1616041 8.73161402,13.1346545 C8.09726061,13.0960069 8.21305528,14.3678233 8.21542448,15.1114561 C7.77875123,14.7152073 7.7019003,13.4943287 8.0226308,12.8675271 C7.65688549,12.6880602 7.49370681,13.0656515 7.2909921,13.1986229 C7.55160415,11.3051876 10.0610316,12.3203899 9.64375617,14.3281392" id="Fill-88" fill="#231F1F" sketch:type="MSShapeGroup"></path>
                <path d="M26.3166338,15.9325321 C25.7551333,17.0014857 24.9605627,18.1786821 23.3127838,18.2128875 C23.2793189,17.8677246 23.2535538,17.3423544 23.3145607,17.134309 C24.574383,17.0134798 25.3520731,16.3723149 26.3166338,15.9325321" id="Fill-90" fill="#231F1F" sketch:type="MSShapeGroup"></path>
                <path d="M18.4218361,16.6255232 C19.4728727,17.1784353 21.4045114,17.2376654 22.8329911,17.1957601 C22.9095459,17.5087907 22.907769,17.8954146 22.9107305,18.277152 C21.0744521,18.3686624 18.903228,17.9143682 18.4218361,16.6255232" id="Fill-92" fill="#231F1F" sketch:type="MSShapeGroup"></path>
                <path d="M18.22192,17.6561254 C18.9488203,19.481002 21.446846,19.2708835 23.5533613,19.220538 C23.4606663,19.457458 23.2595805,19.7373198 23.0097779,19.8386032 C22.3345558,20.1132823 20.4728085,20.3216239 19.5354936,19.8239437 C18.9412685,19.5079516 18.5595311,18.7940819 18.233766,18.3756219 C18.0766584,18.1734995 17.2934896,17.6571619 18.22192,17.6561254" id="Fill-94" fill="#231F1F" sketch:type="MSShapeGroup"></path>
                <path d="M25.4607601,27.7218954 C24.607848,29.1826555 23.7919546,30.6829516 22.7798618,31.9715005 C23.2040967,30.7241165 23.3856367,28.6364067 23.4497532,27.0448963 C24.3371668,26.629694 25.0972359,27.1384798 25.4607601,27.7218954" id="Fill-96" fill="#81B0C4" sketch:type="MSShapeGroup"></path>
                <path d="M30.0503455,32.9722655 C29.0954097,33.1634304 28.4244817,34.0915647 27.4929418,34.0318904 C28.0048371,33.3101728 28.9020237,33.0058786 30.0503455,32.9722655" id="Fill-98" fill="#231F1F" sketch:type="MSShapeGroup"></path>
                <path id="Fill-100" fill="#231F1F" sketch:type="MSShapeGroup" d="M30.471619,34.4667127 C29.6933366,34.5490424 28.7791214,34.6749062 27.9897335,34.6099013 C28.3634748,34.0392201 29.8032083,34.2360118 30.471619,34.4667127"></path>
                <path id="Fill-102" fill="#231F1F" sketch:type="MSShapeGroup" d="M30.741308,35.7551579 C29.8664808,35.7742596 28.7793139,35.7567868 27.9480207,35.6870434 C28.4396298,35.1588598 30.1740326,35.490844 30.741308,35.7551579"></path>
                <path d="M23.8149062,39.281002 C23.9401777,40.3795706 24.3756663,41.4926505 24.3213228,42.6957601 C23.8377098,42.8589388 23.559773,43.001535 22.9116486,43.0007947 C22.8658934,41.9781885 22.7290721,40.4151086 22.7700888,39.4403307 C23.0888944,39.4615054 23.5588845,39.2127394 23.8149062,39.281002" id="Fill-104" fill="#DCD9D8" sketch:type="MSShapeGroup"></path>
                <path d="M22.4046693,23.0904788 C21.9654788,23.377152 21.5914413,23.7353455 21.1695755,24.0415647 C20.2340375,24.0877641 19.7236229,23.9767078 19.0364067,23.4394916 C19.0476604,23.3964018 19.1166634,23.4156515 19.1193287,23.3627887 C20.120612,23.8087907 21.393465,23.1808045 22.4046693,23.0904788" id="Fill-106" fill="#F0D6B7" sketch:type="MSShapeGroup"></path>
                <path d="M17.1480059,29.9163672 C17.4229812,28.7242152 18.5009674,28.1067423 19.4800395,27.4501777 C20.4903554,28.7325074 21.1050148,30.381767 21.7815696,31.9731293 C20.1828036,31.4911451 18.5492399,30.7091609 17.1480059,29.9163672" id="Fill-108" fill="#81B0C4" sketch:type="MSShapeGroup"></path>
                <g id="Group-112">
                    <mask id="mask-4" sketch:name="Clip 111" fill="white">
                        <use xlink:href="#path-3"></use>
                    </mask>
                    <g id="Clip-111"></g>
                    <path d="M26.7356861,31.9253751 C28.2325765,31.1812981 31.0292695,29.9225123 31.967769,31.9281885 C32.3141165,32.6676752 32.7202863,33.9171323 32.8997532,34.680459 C33.1531096,35.7569645 32.625074,38.0201431 31.5183613,38.3814462 C30.5409181,38.7005479 29.4002962,38.6812981 28.2229516,38.4445262 C28.0843534,38.3291757 27.9299112,38.1282379 27.8219645,37.9187117 C26.9813425,37.8861352 26.1941757,37.9640227 25.5300592,38.3094817 C25.5929911,38.9312488 25.172458,39.0309033 24.7781343,39.1589882 C24.4858342,40.3179714 25.3628825,41.8314462 25.1529121,42.8881096 C25.0032083,43.640923 24.076999,43.75731 23.3962981,43.8981293 C23.3740869,44.3164413 23.4260612,44.6657502 23.4725568,45.0196496 C23.3167818,45.5932922 22.6186081,45.9197976 21.9570089,45.9997581 C19.7806022,46.2611106 16.4757157,46.3788302 14.3823791,45.6258687 C13.7982231,44.1927986 13.3378578,42.4498075 12.8512833,40.8137266 C10.8094768,41.0318411 9.15814413,39.9326802 7.60128332,39.2127394 C7.06229023,38.9627887 6.3165844,38.825079 6.11535044,38.3961056 C5.92003949,37.9806071 5.99985192,37.1847038 5.95157947,36.4323346 C5.82823297,34.5116535 5.72280355,32.6590869 5.21535044,30.6925025 C4.98775913,29.8101234 4.59076999,29.0312488 4.31386969,28.1808539 C4.05784798,27.3927986 3.61080948,26.4187611 3.49397828,25.6329269 C3.32117473,24.4681688 4.41781836,24.4033119 5.11910168,23.8985242 C6.20345508,23.1180207 7.05444225,22.686382 8.22852912,21.9819891 C8.57635735,21.7733514 9.6248766,21.2453159 9.74422507,21.0020286 C9.98144126,20.5198963 9.33731491,19.8400839 9.16495558,19.4620484 C8.89249753,18.8644176 8.75049358,18.3566683 8.71140178,17.7668855 C7.72640671,17.6111106 6.97996051,17.0250296 6.52877591,16.3640227 C5.78277394,15.2703406 5.26525173,13.2463031 5.91085884,11.7069151 C5.96135242,11.5856417 6.21396841,11.3472409 6.25113524,11.1612586 C6.32472853,10.7944768 6.11298124,10.3068657 6.09980257,9.91683613 C6.03198421,7.9160464 6.43830207,6.19215696 7.7851925,5.58860316 C8.33203356,3.41027147 10.2891412,2.68588845 12.1331194,1.60331194 C12.8224087,1.19877098 13.5821816,0.940083909 14.3669793,0.651337611 C17.1818855,-0.384595262 21.5006417,-0.189432379 23.8369694,1.57739882 C24.8275913,2.32665844 26.4109576,3.908692 26.9773445,5.05405232 C28.4733465,8.0778924 28.3670286,13.1315449 27.3207305,16.8098766 C27.1800592,17.3037068 26.9761599,18.0297187 26.6912636,18.6229072 C26.492695,19.0370731 25.8753702,19.865997 25.9502962,20.2317423 C26.0274432,20.609926 27.3578973,21.6199457 27.6429418,21.894921 C28.156614,22.3905281 29.1324284,23.0481293 29.2115005,23.6735982 C29.2964956,24.3387512 28.9183119,25.2491165 28.7265548,25.8913179 C28.0867226,28.0344077 27.461846,30.0150592 26.7356861,31.9253751 M23.1669299,2.39047878 C21.2514314,1.30997532 18.0090326,0.497043435 15.9715202,1.51269003 C14.3274432,2.33258144 12.1049852,3.68880059 11.3471372,5.4075074 C12.0549358,7.06639191 11.137463,8.58623396 11.0789733,10.2699951 C11.0478776,11.165997 11.5008391,11.9482774 11.5354886,12.9236476 C11.2930898,13.3233021 10.553307,13.372463 10.0409674,13.3450691 C9.86860809,12.4822359 9.56683119,11.5123445 8.6780849,11.4149112 C7.42077986,11.2774975 6.50167818,12.3180207 6.44437315,13.4054837 C6.37670286,14.6842596 7.42655479,16.8038055 8.91456071,16.656767 C9.48923988,16.5999062 9.63065153,16.0237463 10.2568608,16.0296693 C10.5961007,16.7069645 9.73311945,16.9196002 9.64427443,17.4041017 C9.62117473,17.529077 9.71594274,18.0181688 9.77087858,18.247537 C10.0411155,19.3641708 10.6436328,20.809383 11.2366732,21.6594817 C11.9893386,22.7380602 13.4681639,22.9003504 15.0590819,23.006076 C15.3430898,22.3939339 16.3898322,22.4445755 17.0720138,22.6046446 C16.2543435,22.2809526 15.4945706,21.496155 14.8649556,20.801387 C14.1416091,20.0044472 13.4087858,19.149462 13.371767,18.1077542 C14.7387957,20.0042991 15.8683119,21.6606663 18.3538993,22.4946249 C20.2348963,23.1257206 22.4314413,22.2055824 23.8765054,21.1906762 C24.4762093,20.7688105 24.8342547,20.0995114 25.2605627,19.486925 C26.8551826,17.1926505 27.5995558,13.9179714 27.4360809,10.7441313 C27.3687068,9.435 27.3715202,8.13060711 26.9324778,7.25000494 C26.4734452,6.32912636 24.9208786,5.50523692 24.0119941,6.33815893 C23.8436328,5.44274926 24.767769,4.88880059 25.853307,5.21115992 C25.0794669,4.2116535 24.2671273,3.01135735 23.1669299,2.39047878 M13.5599704,1.89857354 C11.7146594,2.42187068 9.34930898,3.76269003 8.59101678,5.42053801 C9.17828233,5.33524679 9.5857848,5.03909674 10.1652024,5.00237414 C10.3842053,4.98815893 10.6708786,5.09403258 10.922458,5.03169299 C11.4238401,4.90730997 11.8468904,3.78297631 12.2252221,3.36466436 C12.5939289,2.95612537 13.0372655,2.78169299 13.3406713,2.4092843 C13.5353899,2.31525666 13.8235439,2.32162389 13.8346496,2.02902764 C13.7500987,1.93870188 13.6611056,1.86984699 13.5599704,1.89857354 M7.72699901,7.10444719 C6.91154985,8.00133761 7.08228036,9.68213722 7.1810464,10.877843 C8.65468904,9.95074531 10.6103159,10.9509921 10.5918065,12.527695 C11.295311,12.5088894 10.8546397,11.6488697 10.7274432,11.094921 C10.3116486,9.28544423 11.4281343,7.3196002 10.7780849,5.6648618 C9.51604146,5.76066634 8.47922014,6.27626357 7.72699901,7.10444719 M24.0740375,22.2762142 C25.7848963,21.4466979 26.0931885,25.3767572 25.4225568,26.6427986 C25.5260612,27.0203899 25.8827739,27.1649112 26.0283317,27.5044472 C25.0735439,29.2148618 24.0131787,30.8112586 23.0389931,32.5012389 C23.7636723,32.0502024 24.7987167,32.420538 25.6514808,32.083075 C25.9631787,31.9597285 26.1886969,31.2463031 26.4247285,30.6754738 C27.0738894,29.1048421 27.7551826,27.1249309 28.0585884,25.6262636 C28.126999,25.2848026 28.3135735,24.5407256 28.2718164,24.2367275 C28.1971866,23.6925518 27.4588845,23.2890474 27.0832182,22.9526209 C26.3914116,22.331002 25.9556269,21.784309 25.2340573,21.2031145 C24.941461,21.6347532 24.3133268,21.9249803 24.0740375,22.2762142 M11.6395854,23.6324334 C11.4719645,23.5127887 10.3371175,22.0363327 10.1817868,22.0976357 C8.1284304,22.907458 6.20848963,24.3078036 4.49259625,25.6320385 C6.12852912,29.142157 6.78894373,33.4425518 6.90547878,37.5874679 C8.77936821,38.4637759 10.4253702,39.7274482 12.9682626,39.8592349 C12.6738894,37.7773001 12.4051333,35.919847 12.2382527,33.9597779 C11.599309,33.6904294 10.6827246,33.97192 10.0847976,33.8761155 C10.0799112,33.1557305 10.9981244,33.5605676 11.0745311,33.0760661 C11.1321323,32.7095805 10.5692991,32.6818904 10.7524679,32.104694 C11.2200888,32.2746841 11.4654492,32.6499062 11.9638697,32.7908736 C12.4194965,31.7943287 11.9576505,30.0311994 12.0230997,29.1982774 C12.035538,29.0417621 12.1012833,28.3317423 12.4514808,28.4562734 C12.7615499,28.5664413 12.4338598,30.3446742 12.467769,31.1330257 C12.4987167,31.8593337 12.3799605,32.5619497 12.6741856,33.0180207 C15.1314906,32.6835192 17.6283317,32.4673297 20.2870188,32.3943287 C19.7021224,32.1433416 19.0073544,31.9059773 18.2455084,31.4765597 C17.8325271,31.2437858 16.5305035,30.7592843 16.4113031,30.3670336 C16.2213228,29.7420089 16.9101678,29.4089882 17.0280355,28.8731046 C15.7877591,29.5496594 15.5456565,28.2248322 15.2523198,27.2863327 C14.9865252,26.436234 14.8350444,25.8011402 14.7698914,25.3108638 C13.7015301,24.8014857 12.5591313,24.2855923 11.6395854,23.6324334 M25.1592794,25.1940326 C25.1304047,24.5916634 24.9721125,23.3527196 24.5997038,23.1357897 C23.8180158,22.6794225 22.4286278,24.0571125 21.8400296,24.2670829 C21.903998,24.4514363 22.0097236,24.5974383 22.0178677,24.8331737 C22.3659921,24.7475864 22.7899309,24.806076 23.0915597,24.9545953 C22.742843,24.993539 22.3557749,24.9910217 22.125074,25.1570138 C22.0403751,25.4014857 22.1458045,25.7348026 22.089536,26.0743386 C22.9175716,26.308001 23.8634748,26.432384 24.9105133,26.4630355 C25.1139684,26.1979812 25.1832675,25.6937858 25.1592794,25.1940326 M19.1192991,23.3626407 C19.1166338,23.4155035 19.0476308,23.3962537 19.0363771,23.4393435 C19.7235933,23.9765597 20.234156,24.087616 21.1695459,24.0412685 C21.5914116,23.7351974 21.9654492,23.377152 22.4046397,23.0903307 C21.3935834,23.1808045 20.1205824,23.8087907 19.1192991,23.3626407 M12.538845,23.1079516 C12.0045903,23.6502024 14.03692,24.3892448 14.684304,24.4292251 C14.6806022,24.0859872 14.8799112,23.7625913 14.8397828,23.5163425 C14.0709773,23.3814462 13.0609576,23.4704393 12.538845,23.1079516 M18.6864758,24.2245854 C18.0429418,23.8729072 17.0758638,23.489689 16.2445706,23.3312488 C15.2141165,23.1340128 15.3108095,24.736925 15.3544916,25.6928973 C15.388845,26.450153 15.7824284,27.2506466 15.9536032,27.7533613 C16.0340079,27.9882083 16.051925,28.2374186 16.2527147,28.2840622 C16.6075025,28.3666881 17.7780355,27.8986229 18.1117966,27.7166387 C18.8172261,27.3320879 19.3645114,26.7212784 19.9636229,26.3111106 C19.9714709,26.1115054 19.9790227,25.9120484 19.9870188,25.7124432 C19.6267522,25.5331244 19.2105133,25.4056318 18.6817374,25.3825321 C19.0403751,25.2020286 19.5681145,25.204694 19.8949161,24.9898371 C19.8981737,24.9098766 19.9014314,24.8303603 19.9042448,24.7509921 C19.3073544,24.705385 19.0799112,24.4395903 18.6864758,24.2245854 M20.342843,24.7683169 C20.3019743,25.2227591 20.4076999,25.3715745 20.4993583,25.8925025 C21.992843,26.3592349 21.7320829,23.8421076 20.342843,24.7683169 M21.5588351,26.373154 C21.1754689,26.3318411 20.8501481,26.8138253 20.3514314,26.6054837 C20.2374136,26.7316436 20.133613,26.868465 20.0172261,26.9918115 C21.1180158,28.3187117 21.6183613,30.2008934 22.4687562,31.7602715 C22.9249753,30.2624926 22.8724087,28.6216732 22.9729516,26.986925 C22.346002,27.026461 21.9981737,26.4197976 21.5588351,26.373154 M23.4497532,27.0449704 C23.3856367,28.6366288 23.2040967,30.7243386 22.7798618,31.9715745 C23.7918065,30.6831737 24.607848,29.1828776 25.4607601,27.7221175 C25.0972359,27.1385538 24.3371668,26.6296199 23.4497532,27.0449704 M21.7816881,31.9730553 C21.1049852,30.381693 20.4903258,28.7325814 19.4800099,27.4501037 C18.5010859,28.1068164 17.4230997,28.7241412 17.1479763,29.9162932 C18.5492103,30.7090869 20.1827739,31.4912192 21.7816881,31.9730553 M30.7408193,37.8320879 C31.7041955,37.5982774 32.3098223,36.4182675 32.0404738,35.2064215 C31.8596742,34.3920089 31.5376111,32.8583959 31.1928924,32.3373198 C30.9382034,31.9521767 30.2477295,31.4476851 29.6962981,31.8005479 C28.7992596,32.3749309 27.219003,32.5416634 26.5651037,33.2368756 C26.8930898,34.3289289 26.9948174,35.8289289 27.1301579,37.21269 C28.2506417,37.2827295 29.6292201,36.9043978 30.5612043,37.3058292 C29.9105627,37.51654 29.066387,37.5181688 28.5044423,37.8252764 C28.9639191,38.0470928 30.039388,38.0023741 30.7408193,37.8320879 M25.7647581,33.2855923 C25.4572063,33.2152567 25.099309,33.2829269 24.8055281,33.2885538 C24.9435341,34.6638746 25.2786278,36.1816436 25.3964956,37.625227 C25.8586377,37.6394423 26.1056269,37.4216239 26.4857354,37.3480306 C26.5061698,36.0809526 26.3749753,34.3351481 25.7647581,33.2855923 M22.478381,33.5577542 C22.4555775,35.2446249 22.5538993,36.9088401 22.6827246,38.59808 C23.3305528,38.5007947 23.7701876,38.4359378 24.3718164,38.3038549 C24.1766535,36.677695 24.2004936,34.8477838 23.8023198,33.4092349 C23.3423988,33.4135291 22.9372655,33.4039042 22.478381,33.5577542 M12.6799605,33.8969941 C13.1074531,37.8252764 13.7262586,41.1273495 14.8614018,44.6059279 C17.3808983,45.3710316 20.4179171,45.4376654 22.6446693,44.7473396 C22.2361303,42.7841609 22.4145607,40.3937858 22.1757157,38.2985242 C21.9955084,36.7237463 22.087463,35.1393435 21.8404738,33.5327295 C19.1419546,32.9715252 15.3281343,33.4016831 12.6799605,33.8969941 M22.7702369,39.4403307 C22.7293682,40.4151086 22.8660415,41.9781885 22.9117966,43.0007947 C23.5600691,43.0018312 23.8377098,42.8590869 24.3214709,42.6957601 C24.3761106,41.4926505 23.9403258,40.3795706 23.8150543,39.281002 C23.5588845,39.2127394 23.0888944,39.4615054 22.7702369,39.4403307" id="Fill-110" fill="#231F1F" sketch:type="MSShapeGroup" mask="url(#mask-4)"></path>
                </g>
                <path d="M16.7493287,17.0923297 C16.8306219,16.9842349 17.2770681,16.8200197 17.9016486,17.1209082 C17.9016486,17.1209082 17.1612734,17.2441066 17.2230207,18.4787562 L16.9145805,18.4168608 C16.9144324,18.4168608 16.5954788,17.2975617 16.7493287,17.0923297" id="Fill-113" fill="#F8E4CD" sketch:type="MSShapeGroup"></path>
                <path d="M22.1588796,27.7020977 C22.1588796,27.8894126 22.0071027,28.0413376 21.8196397,28.0413376 C21.6323248,28.0413376 21.4802517,27.8895607 21.4802517,27.7020977 C21.4802517,27.5147828 21.6323248,27.3625617 21.8196397,27.3625617 C22.0069546,27.3625617 22.1588796,27.5147828 22.1588796,27.7020977" id="Fill-115" fill="#1D1919" sketch:type="MSShapeGroup"></path>
                <path d="M22.4981491,29.2753949 C22.4981491,29.4627098 22.3462241,29.6146347 22.1587611,29.6146347 C21.9714462,29.6146347 21.8193731,29.4628578 21.8193731,29.2753949 C21.8193731,29.08808 21.9714462,28.9358588 22.1587611,28.9358588 C22.3462241,28.9358588 22.4981491,29.08808 22.4981491,29.2753949" id="Fill-117" fill="#1D1919" sketch:type="MSShapeGroup"></path>
                <path d="M58.0618756,15.4729516 C57.7147878,15.5164857 57.4198223,15.5597236 57.1769793,15.6032577 C56.9339882,15.6467917 56.6607897,15.7072063 56.3569398,15.7853899 C56.0009674,15.8808983 55.7733761,16.0504442 55.6737216,16.2932873 C55.5740671,16.5364265 55.5240178,16.8143633 55.5240178,17.1269497 L55.5240178,27.3115499 C55.5240178,28.2494571 55.3352221,29.1090326 54.9579269,29.8904245 C54.5804837,30.6719645 54.0617769,31.3273445 53.402695,31.8567127 C52.7345805,32.3779368 51.9884304,32.7709279 51.1642448,33.035538 C50.3397631,33.3002962 49.459309,33.4328233 48.5222902,33.4328233 C46.8998322,33.4328233 45.5918855,33.0423495 44.5984501,32.2615499 C43.6048667,31.4806022 43.1083712,30.4092794 43.1083712,29.0469891 C43.1083712,28.2401283 43.3359625,27.5721619 43.7915893,27.0427937 C44.2470681,26.5135735 44.8737216,26.2489635 45.6721422,26.2489635 C46.4268806,26.2489635 47.0274729,26.4700395 47.4745114,26.9126357 C47.9212537,27.355232 48.1446989,27.9017769 48.1446989,28.5524186 C48.1446989,29.107848 47.951461,29.6216683 47.5655775,30.0946199 C47.1795459,30.5675716 46.7391708,31.0036525 46.2446002,31.4024186 L46.2446002,31.5716683 C46.3229319,31.7452122 46.4924778,31.892843 46.7535341,32.0142646 C47.0142942,32.1358342 47.2797927,32.1963968 47.5497335,32.1963968 C48.5936624,32.1963968 49.4135538,31.8229516 50.0095558,31.0763574 C50.6055577,30.329615 50.9037808,29.2008391 50.9037808,27.6898815 L50.9037808,17.2572557 C50.9037808,16.9446693 50.8558045,16.6842053 50.7597038,16.4757157 C50.6636032,16.2675222 50.4326061,16.0850938 50.0667127,15.9288746 C49.8052122,15.8158934 49.4892201,15.720385 49.1187364,15.6423495 C48.7481046,15.5641658 48.4407009,15.5077493 48.1968213,15.4729516 L48.1968213,14.4578973 L58.0617275,14.4578973 L58.0617275,15.4729516 L58.0618756,15.4729516 Z" id="Fill-119" fill="#000000" sketch:type="MSShapeGroup"></path>
                <path d="M68.5254195,24.8694225 C68.5254195,24.3489388 68.4993583,23.8152764 68.447384,23.2687315 C68.3952616,22.7221866 68.3041955,22.2752962 68.1738894,21.9282083 C68.0264067,21.5205577 67.8244324,21.2125617 67.5688549,21.0042201 C67.3128332,20.7960267 66.9895854,20.6917818 66.5991115,20.6917818 C65.9311451,20.6917818 65.3974827,21.0301333 64.9984205,21.7068361 C64.5993583,22.383539 64.3824284,23.455306 64.3476308,24.9213968 L68.5254195,24.8694225 Z M73.4968904,29.8149803 C73.1931885,30.3095508 72.8268509,30.7759872 72.3971372,31.2141412 C71.9677196,31.6521471 71.4795163,32.0275173 70.9329714,32.3398075 C70.3514808,32.6695706 69.763771,32.9189289 69.1695459,33.0881787 C68.5751728,33.2572804 67.8918065,33.3418312 67.1195953,33.3418312 C65.8354886,33.3418312 64.7268509,33.159847 63.7945706,32.7952863 C62.861846,32.4308736 62.0917078,31.9408934 61.4844521,31.3247532 C60.8771964,30.7089092 60.4237907,29.982305 60.1245311,29.1449408 C59.8252715,28.3077246 59.6755676,27.3989882 59.6755676,26.4184353 C59.6755676,25.533539 59.8383021,24.6856614 60.1636229,23.8742103 C60.4890918,23.0630553 60.9510859,22.3405972 61.5496051,21.7072804 C62.1396841,21.0912883 62.8837611,20.5924235 63.7816881,20.210538 C64.6797631,19.8289487 65.6838598,19.6379319 66.7944225,19.6379319 C68.0090819,19.6379319 69.0068115,19.7857108 69.7877591,20.0805281 C70.5687068,20.3754936 71.2150543,20.7832922 71.7269497,21.3037759 C72.2215202,21.7983465 72.5816387,22.3819102 72.807157,23.0541708 C73.0328233,23.7267275 73.1455084,24.4317127 73.1455084,25.1691264 L73.1455084,26.0149309 L64.3479269,26.0149309 C64.3479269,27.7937562 64.6905726,29.14731 65.3760118,30.0755923 C66.0614511,31.0040227 67.1503949,31.4680898 68.6425469,31.4680898 C69.4581441,31.4680898 70.1912636,31.2447927 70.8420533,30.7977542 C71.492843,30.3510118 72.0481244,29.784921 72.5078973,29.0993337 L73.4968904,29.8149803 Z" id="Fill-121" fill="#000000" sketch:type="MSShapeGroup"></path>
                <path d="M91.9253455,32.9252517 L84.1035785,32.9252517 L84.1035785,31.9752024 C84.268386,31.9578776 84.4681392,31.9361106 84.7022458,31.9100494 C84.9363524,31.8838401 85.1143386,31.8407502 85.2359082,31.7798914 C85.4180405,31.6845311 85.5483465,31.5454886 85.626234,31.3633564 C85.7041214,31.1813722 85.7433613,30.9123198 85.7433613,30.5566436 L85.7433613,24.4658736 C85.7433613,23.5809773 85.5801826,22.915232 85.2538253,22.4681935 C84.9277641,22.0214511 84.4469645,21.7980059 83.8117226,21.7980059 C83.4637463,21.7980059 83.1399062,21.8499803 82.8396101,21.9542251 C82.5396101,22.0581737 82.2458292,22.2100987 81.9585637,22.4097038 C81.7063919,22.5833959 81.5039733,22.7609378 81.3519003,22.9433662 C81.1995311,23.1254985 81.0712981,23.2861599 80.9669052,23.4249062 L80.9669052,30.4134551 C80.9669052,30.717305 81.0101431,30.9712537 81.0970632,31.1748569 C81.1836871,31.3787562 81.3267275,31.5327542 81.5264808,31.6368509 C81.665079,31.7148865 81.8389191,31.7844817 82.0469645,31.8450444 C82.2551579,31.9059033 82.4589092,31.9489931 82.6586624,31.9752024 L82.6586624,32.9252517 L74.7458292,32.9252517 L74.7458292,31.9752024 C74.9626111,31.9578776 75.1817621,31.9340375 75.4031343,31.9035341 C75.6243583,31.8731787 75.813154,31.8318657 75.9693731,31.7798914 C76.2470138,31.6845311 76.4378825,31.5370484 76.5419793,31.3372952 C76.646076,31.1379862 76.6981984,30.8775222 76.6981984,30.5564956 L76.6981984,22.9820138 C76.6981984,22.7132577 76.6286032,22.4483514 76.4900049,22.1881836 C76.3512586,21.9278677 76.1691264,21.7153801 75.94346,21.5504245 C75.7872409,21.4464758 75.5898569,21.3598519 75.351308,21.2902567 C75.112463,21.2208095 74.8502221,21.1731293 74.5639931,21.1472162 L74.5639931,20.1970188 L80.7717423,19.8586673 L80.9670533,20.0539783 L80.9670533,21.9410464 L81.0190276,21.9410464 C81.2618707,21.7242646 81.5569842,21.4640967 81.9040721,21.1600987 C82.2508638,20.8565449 82.5720385,20.6092596 82.8670039,20.4182428 C83.1877345,20.2100494 83.6088598,20.0323593 84.1293435,19.8845805 C84.6498272,19.7370977 85.2051086,19.6635044 85.7951876,19.6635044 C87.209304,19.6635044 88.2699654,20.0649358 88.9771718,20.8673544 C89.68423,21.669921 90.0378332,22.7348766 90.0378332,24.0623692 L90.0378332,30.4396644 C90.0378332,30.7608391 90.0853653,31.0167127 90.1808736,31.2074334 C90.276382,31.3984501 90.4542201,31.550227 90.714536,31.6629121 C90.8531343,31.723771 91.0247532,31.7844817 91.2285044,31.8450444 C91.4322557,31.9059033 91.6644373,31.9491412 91.9247532,31.9752024 L91.9247532,32.9252517 L91.9253455,32.9252517 Z" id="Fill-123" fill="#000000" sketch:type="MSShapeGroup"></path>
                <path d="M109.833184,32.9252517 L103.698731,32.9252517 C102.944585,31.6013129 102.255444,30.4783119 101.631456,29.556693 C101.007172,28.6353702 100.417685,27.7805331 99.862848,26.9927739 L99.0962636,27.6413425 L99.0962636,30.47846 C99.0962636,30.7908983 99.1417226,31.04692 99.2327887,31.246229 C99.3238549,31.4459822 99.4996199,31.593465 99.7599358,31.6888253 C99.916155,31.7584205 100.098287,31.8189832 100.306629,31.8709576 C100.514822,31.9229319 100.723016,31.9578776 100.931209,31.9750543 L100.931209,32.9251037 L92.8492744,32.9251037 L92.8492744,31.9750543 C93.0676851,31.9577295 93.2857996,31.9338894 93.5043583,31.903386 C93.722769,31.8730306 93.9149704,31.8317177 94.0808144,31.7797433 C94.3600839,31.684383 94.5503603,31.5369003 94.6509033,31.3371471 C94.7512981,31.1378381 94.8014956,30.8773741 94.8014956,30.5561994 L94.8014956,16.0452912 C94.8014956,15.7589141 94.7384156,15.4618756 94.6126999,15.1538796 C94.4868361,14.8460316 94.3023346,14.6137019 94.0596397,14.4574827 C93.8946841,14.3535341 93.6473988,14.2669102 93.3177838,14.1973149 C92.9880207,14.1278677 92.688613,14.0846298 92.4197088,14.067157 L92.4197088,13.1171076 L98.9003603,12.7787562 L99.0961155,12.9869497 L99.0961155,26.4172063 C99.7372804,25.8444521 100.458554,25.1809279 101.259936,24.4261895 C102.061614,23.6714511 102.705,23.0468707 103.190538,22.5523001 C103.476915,22.2573346 103.634911,22.0340375 103.665415,21.8822606 C103.695622,21.7303356 103.711022,21.6371964 103.711022,21.6023988 C103.711022,21.4461797 103.573904,21.3160217 103.300114,21.211925 C103.026027,21.1079763 102.613786,21.0167621 102.063243,20.9385785 L102.063243,20.0145903 L108.674645,20.0145903 L108.674645,20.9126654 C107.808258,21.1556565 107.147695,21.3833959 106.693105,21.5958835 C106.238514,21.8085192 105.742463,22.0926752 105.205247,22.4482034 C104.850015,22.682458 104.506037,22.9281145 104.172868,23.1847285 C103.839847,23.4414906 103.457073,23.7613327 103.024546,24.1442547 C103.873312,25.3757947 104.657073,26.5158243 105.375977,27.5650839 C106.094882,28.6144916 106.848287,29.724462 107.636491,30.8951431 C107.904803,31.3027937 108.238416,31.575844 108.637034,31.7145903 C109.035652,31.8534847 109.434418,31.9404047 109.833036,31.9747581 L109.833036,32.9252517 L109.833184,32.9252517 Z" id="Fill-125" fill="#000000" sketch:type="MSShapeGroup"></path>
                <path d="M116.301264,15.1736476 C116.301264,15.8331737 116.047463,16.3949704 115.54001,16.8588894 C115.032409,17.3231046 114.431668,17.5552863 113.737493,17.5552863 C113.034729,17.5552863 112.429694,17.3231046 111.921945,16.8588894 C111.414492,16.3948223 111.160691,15.8328776 111.160691,15.1736476 C111.160691,14.5144176 111.414492,13.9503998 111.921945,13.4817423 C112.429546,13.0130849 113.034729,12.7788302 113.737493,12.7788302 C114.440405,12.7788302 115.043366,13.013233 115.546525,13.4817423 C116.049536,13.9503998 116.301264,14.5144176 116.301264,15.1736476 L116.301264,15.1736476 Z M118.20151,32.9253258 L109.976239,32.9253258 L109.976239,31.9751283 C110.201905,31.9579516 110.423129,31.9361846 110.640059,31.9099753 C110.856693,31.8839141 111.043564,31.8408243 111.199487,31.7799654 C111.477127,31.6758687 111.672438,31.5261649 111.785123,31.3308539 C111.89766,31.1355429 111.954373,30.8777443 111.954373,30.5564215 L111.954373,22.9820879 C111.954373,22.6785341 111.884778,22.4115548 111.74618,22.1815943 C111.607285,21.9519299 111.433741,21.7674284 111.225696,21.6285341 C111.069477,21.5245854 110.833001,21.4247828 110.516417,21.3292744 C110.199536,21.2339141 109.911086,21.1730553 109.650918,21.1471422 L109.650918,20.1970928 L116.027917,19.8587414 L116.223228,20.0540523 L116.223228,30.3874679 C116.223228,30.6911698 116.288381,30.9492646 116.418391,31.1619003 C116.548549,31.374536 116.735123,31.5328282 116.977966,31.6367769 C117.151658,31.7149605 117.342379,31.7845558 117.550721,31.8451185 C117.758914,31.9059773 117.975696,31.9490671 118.20151,31.9751283 L118.20151,32.9253258 Z" id="Fill-127" fill="#000000" sketch:type="MSShapeGroup"></path>
                <path d="M136.577739,32.9252517 L128.755972,32.9252517 L128.755972,31.9752024 C128.92078,31.9578776 129.120533,31.9361106 129.35464,31.9100494 C129.588746,31.8838401 129.766732,31.8407502 129.888302,31.7798914 C130.070434,31.6845311 130.20074,31.5454886 130.278628,31.3633564 C130.356515,31.1813722 130.395755,30.9123198 130.395755,30.5566436 L130.395755,24.4658736 C130.395755,23.5809773 130.232577,22.915232 129.906219,22.4681935 C129.58001,22.0214511 129.099358,21.7980059 128.464116,21.7980059 C128.11614,21.7980059 127.7923,21.8499803 127.492004,21.9542251 C127.192004,22.0581737 126.898223,22.2100987 126.610958,22.4097038 C126.358638,22.5833959 126.156367,22.7609378 126.004294,22.9433662 C125.851925,23.1254985 125.723692,23.2861599 125.619299,23.4249062 L125.619299,30.4134551 C125.619299,30.717305 125.662537,30.9712537 125.749309,31.1748569 C125.835933,31.3787562 125.979121,31.5327542 126.178727,31.6368509 C126.317473,31.7148865 126.491165,31.7844817 126.69921,31.8450444 C126.907552,31.9059033 127.111303,31.9489931 127.311056,31.9752024 L127.311056,32.9252517 L119.398223,32.9252517 L119.398223,31.9752024 C119.615005,31.9578776 119.834156,31.9340375 120.055528,31.9035341 C120.276752,31.8731787 120.465548,31.8318657 120.621767,31.7798914 C120.899408,31.6845311 121.090128,31.5370484 121.194373,31.3372952 C121.29847,31.1379862 121.350592,30.8775222 121.350592,30.5564956 L121.350592,22.9820138 C121.350592,22.7132577 121.280997,22.4483514 121.142399,22.1881836 C121.003504,21.9278677 120.821372,21.7153801 120.595854,21.5504245 C120.439635,21.4464758 120.242251,21.3598519 120.003702,21.2902567 C119.765005,21.2208095 119.502616,21.1731293 119.216239,21.1472162 L119.216239,20.1970188 L125.424136,19.8586673 L125.619447,20.0539783 L125.619447,21.9410464 L125.671422,21.9410464 C125.914265,21.7242646 126.209378,21.4640967 126.556318,21.1600987 C126.903258,20.8565449 127.224432,20.6092596 127.519398,20.4182428 C127.840128,20.2100494 128.261254,20.0323593 128.781737,19.8845805 C129.302221,19.7370977 129.857502,19.6635044 130.447581,19.6635044 C131.861698,19.6635044 132.922359,20.0649358 133.629566,20.8673544 C134.336624,21.669921 134.690079,22.7348766 134.690079,24.0623692 L134.690079,30.4396644 C134.690079,30.7608391 134.737759,31.0167127 134.833268,31.2074334 C134.928776,31.3984501 135.106614,31.550227 135.366782,31.6629121 C135.505528,31.723771 135.676999,31.7844817 135.880898,31.8450444 C136.08465,31.9059033 136.316683,31.9491412 136.577147,31.9752024 L136.577147,32.9252517 L136.577739,32.9252517 Z" id="Fill-129" fill="#000000" sketch:type="MSShapeGroup"></path>
                <path d="M143.813796,33.3678184 C142.972137,33.3678184 142.150025,33.2441757 141.347606,32.9968904 C140.545039,32.7496051 139.922532,32.4873643 139.479936,32.2095755 L139.08961,33.0944719 L138.074556,33.0944719 L137.905454,28.2399803 L138.855503,28.2399803 C138.985661,28.630306 139.202295,29.0708292 139.506293,29.5609576 C139.809995,30.0510859 140.157083,30.491461 140.547409,30.8820829 C140.955207,31.2724087 141.421496,31.6021718 141.94657,31.8712241 C142.471496,32.1402764 143.033292,32.2747285 143.631811,32.2747285 C144.421199,32.2747285 145.009057,32.1207305 145.395237,31.8127345 C145.78112,31.5048865 145.974358,31.0297137 145.974358,30.3876604 C145.974358,30.0407206 145.887586,29.7544916 145.714191,29.5286772 C145.540499,29.3031589 145.30195,29.107848 144.998396,28.9430405 C144.660044,28.7694965 144.289116,28.6220138 143.885612,28.5004442 C143.482108,28.3791708 142.985464,28.2316881 142.395385,28.057848 C141.805306,27.8844521 141.300074,27.708539 140.879245,27.5307009 C140.458416,27.3530109 140.022335,27.0731491 139.571446,26.6912636 C139.18112,26.3529121 138.868682,25.9454097 138.634427,25.4680158 C138.400173,24.9910661 138.283193,24.4226061 138.283193,23.76308 C138.283193,22.5398322 138.797162,21.550691 139.825395,20.7959526 C140.853628,20.0410661 142.200518,19.6636229 143.866362,19.6636229 C144.65575,19.6636229 145.382502,19.7440276 146.046175,19.9043929 C146.709995,20.0650543 147.267498,20.2408193 147.718534,20.4316881 L147.991881,19.6639191 L148.981022,19.6639191 L149.189215,24.1018756 L148.278258,24.1018756 C147.97426,23.1996545 147.453776,22.421076 146.716362,21.765844 C145.978949,21.1107601 145.185118,20.7830701 144.334872,20.7830701 C143.666609,20.7830701 143.141831,20.9219645 142.760094,21.1996051 C142.378208,21.4773939 142.18734,21.8632774 142.18734,22.357848 C142.18734,23.0173741 142.466609,23.4946199 143.025296,23.7894373 C143.583835,24.0846989 144.365523,24.3620434 145.370212,24.6223593 C146.920558,25.0215696 148.055257,25.5658934 148.774309,26.2556269 C149.493213,26.9455084 149.852591,27.8238894 149.852591,28.8909181 C149.852591,30.3139191 149.294941,31.4158934 148.18038,32.1965449 C147.065079,32.9773445 145.609798,33.3678184 143.813796,33.3678184" id="Fill-131" fill="#000000" sketch:type="MSShapeGroup"></path>
            </g>
        </g>
    </g>
</svg>