<?xml version="1.0" encoding="UTF-8" standalone="no"?>
<svg width="28px" height="28px" viewBox="0 0 28 28" version="1.1" xmlns="http://www.w3.org/2000/svg" xmlns:xlink="http://www.w3.org/1999/xlink" xmlns:sketch="http://www.bohemiancoding.com/sketch/ns">
    <!-- Generator: Sketch 3.3.3 (12072) - http://www.bohemiancoding.com/sketch -->
    <title>linkedin copy</title>
    <desc>Created with Sketch.</desc>
    <defs></defs>
    <g id="05-Blog" stroke="none" stroke-width="1" fill="none" fill-rule="evenodd" sketch:type="MSPage">
        <g id="05-blog-details" sketch:type="MSArtboardGroup" transform="translate(-980.000000, -492.000000)" fill="#007BB6">
            <g id="Group" sketch:type="MSLayerGroup" transform="translate(979.000000, 492.000000)">
                <path d="M1.45416667,9.115 L7.15333333,9.115 L7.15333333,27.4525 L1.45416667,27.4525 L1.45416667,9.115 Z M4.30583333,0 C2.47916667,0 1,1.48083333 1,3.30333333 C1,5.1275 2.47916667,6.60833333 4.30583333,6.60833333 C6.1275,6.60833333 7.60833333,5.1275 7.60833333,3.30333333 C7.60833333,1.48083333 6.1275,0 4.30583333,0 L4.30583333,0 Z M21.6633333,8.65916667 C18.8908333,8.65916667 17.0316667,10.1791667 16.2708333,11.6208333 L16.195,11.6208333 L16.195,9.115 L10.7283333,9.115 L10.7283333,27.4525 L16.4225,27.4525 L16.4225,18.3808333 C16.4225,15.9891667 16.8783333,13.6733333 19.8433333,13.6733333 C22.7658333,13.6733333 22.805,16.4083333 22.805,18.535 L22.805,27.4525 L28.5,27.4525 L28.5,17.3941667 C28.5,12.4575 27.435,8.65916667 21.6633333,8.65916667 L21.6633333,8.65916667 Z" id="linkedin-copy" sketch:type="MSShapeGroup"></path>
            </g>
        </g>
    </g>
</svg>