<?xml version="1.0" encoding="iso-8859-1"?>
<!-- Generator: Adobe Illustrator 16.0.0, SVG Export Plug-In . SVG Version: 6.00 Build 0)  -->
<!DOCTYPE svg PUBLIC "-//W3C//DTD SVG 1.1//EN" "http://www.w3.org/Graphics/SVG/1.1/DTD/svg11.dtd">
<svg version="1.1" id="Layer_1" xmlns="http://www.w3.org/2000/svg" xmlns:xlink="http://www.w3.org/1999/xlink" x="0px" y="0px"
	 width="900px" height="200px" viewBox="0 0 900 200" style="enable-background:new 0 0 900 200;" xml:space="preserve">
<path style="fill-rule:evenodd;clip-rule:evenodd;fill:#3C6AAB;" d="M35.974,99.963c21.095-21.26,42.183-42.528,63.29-63.776
	c3.944-3.97,5.331-3.963,9.333,0.011c8.281,8.223,16.486,16.521,24.823,24.686c1.82,1.783,2.677,3.602,2.697,6.189
	c0.083,11.037,0.312,22.073,0.621,33.106c0.069,2.458-0.364,3.313-3.131,2.922c-11.854-1.669-23.758-2.975-35.607-4.672
	c-2.808-0.402-4.799-0.019-6.63,2.189c-3.083,3.713-9.365,6.573-9.153,10.63c0.186,3.567,5.812,6.905,9.133,10.248
	c17.672,17.788,35.271,35.65,53.159,53.219c3.401,3.34,3.199,5.14-0.207,7.954c-3.267,2.701-6.072,5.96-9.105,8.947
	c-4.149,4.089-5.086,4.102-9.282-0.014c-28.82-28.27-57.625-56.553-86.449-84.819c-1.099-1.078-2.326-2.027-3.492-3.036
	C35.974,102.486,35.974,101.225,35.974,99.963z"/>
<path style="fill-rule:evenodd;clip-rule:evenodd;fill:#FEC045;" d="M132.499,4.385c4.946,5.931,10.843,10.903,16.365,16.253
	c25.92,25.115,51.83,50.241,77.729,75.377c4.649,4.513,4.656,5.394-0.047,9.827c-20.181,19.026-40.363,38.051-60.606,57.011
	c-4.165,3.901-5.397,3.771-9.363-0.319c-12.397-12.786-24.763-25.601-37.13-38.416c-0.745-0.772-1.386-1.644-2.054-2.443
	c0.926-1.684,2.342-0.994,3.449-0.928c10.688,0.64,21.378,1.262,32.048,2.127c3.325,0.27,4.459-0.624,4.206-4.049
	c-0.673-9.105-1.096-18.231-1.548-27.353c-0.13-2.616-0.02-5.247-0.02-8.884c5.58,5.417,10.612,10.271,15.609,15.161
	c4.056,3.969,8.105,7.945,12.08,11.993c1.306,1.329,2.324,1.916,3.838,0.247c2.754-3.031,5.534-6.057,8.518-8.854
	c2.168-2.033,1.327-3.322-0.389-4.98c-13.822-13.366-27.613-26.763-41.375-40.189c-11.959-11.667-23.829-23.425-35.84-35.038
	c-2.074-2.005-2.152-3.321-0.063-5.335c3.734-3.6,7.219-7.457,10.809-11.207C129.976,4.385,131.237,4.385,132.499,4.385z"/>
<path style="fill-rule:evenodd;clip-rule:evenodd;fill:#3C6AAB;" d="M346.331,87.069c-1.933,1.118-2.253,2.731-2.941,4.039
	c-7.11,13.51-14.383,26.941-21.131,40.631c-2.078,4.217-5.194,2.968-8.264,3.302c-2.978,0.324-4.797-0.549-6.268-3.458
	c-6.816-13.483-13.912-26.825-20.915-40.213c-0.704-1.347-1.456-2.667-2.997-3.908c0,1.47,0,2.939,0,4.409
	c0,18.6-0.1,37.201,0.087,55.799c0.036,3.563-0.903,4.698-4.457,4.42c-4.074-0.318-8.198-0.218-12.287-0.022
	c-2.572,0.123-3.149-0.859-3.145-3.262c0.067-31.367,0.089-62.735-0.025-94.103c-0.011-3.085,1.11-3.725,3.846-3.604
	c5.652,0.25,12.124-1.403,16.741,0.845c4.477,2.179,5.616,9.063,8.17,13.904c7.319,13.877,14.525,27.813,21.824,41.816
	c2.002-1.286,2.46-3.229,3.312-4.845c8.372-15.869,16.729-31.748,24.949-47.697c1.454-2.82,3.062-4.342,6.484-4.061
	c4.071,0.335,8.205,0.289,12.284,0.015c3.508-0.234,4.577,0.891,4.537,4.487c-0.188,17.022-0.084,34.046-0.084,51.07
	c0,13.556-0.108,27.112,0.075,40.666c0.048,3.524-0.601,5.246-4.575,4.774c-4.944-0.587-11.622,2.1-14.436-1.091
	c-2.456-2.785-0.76-9.292-0.771-14.154c-0.036-15.605-0.014-31.21-0.013-46.815C346.331,89.139,346.331,88.263,346.331,87.069z"/>
<path style="fill-rule:evenodd;clip-rule:evenodd;fill:#3C6AAB;" d="M664.247,100.325c14.601,6.536,20.67,18.042,17.197,32.128
	c-2.214,8.975-8.554,14.039-16.803,17.099c-4.306,1.596-8.791,2.459-13.41,2.46c-15.453,0.005-30.907-0.07-46.358,0.068
	c-3.002,0.027-4.009-0.678-3.996-3.871c0.121-31.063,0.123-62.127-0.004-93.19c-0.014-3.218,1.009-3.958,4.011-3.934
	c15.926,0.121,31.853,0.038,47.779,0.063c12.071,0.02,20.425,6.124,24.006,17.469c3.593,11.375-0.247,23.329-9.576,29.802
	C666.33,98.947,665.552,99.452,664.247,100.325z M637.08,135.285c0-0.017,0-0.033,0-0.05c4.401,0,8.812,0.171,13.204-0.039
	c7.193-0.346,12.192-5.818,12.144-12.986c-0.05-7.33-4.886-13.057-11.894-13.293c-8.952-0.3-17.923-0.037-26.882-0.136
	c-2.263-0.024-3.018,0.78-2.982,3.017c0.104,6.76,0.123,13.522-0.008,20.28c-0.047,2.443,0.727,3.342,3.213,3.252
	C628.271,135.172,632.678,135.285,637.08,135.285z M635.882,67.945c-3.936,0-7.878,0.157-11.802-0.053
	c-2.775-0.149-3.488,0.927-3.424,3.537c0.154,6.291,0.116,12.591,0.015,18.884c-0.035,2.127,0.451,3.105,2.847,3.065
	c8.023-0.131,16.06,0.144,24.076-0.129c6.667-0.229,11.098-5.684,11.02-12.864c-0.081-7.311-4.462-12.155-11.401-12.412
	C643.44,67.833,639.658,67.948,635.882,67.945z"/>
<path style="fill-rule:evenodd;clip-rule:evenodd;fill:#3C6AAB;" d="M863.471,152.017c-5.97,0-11.805-0.128-17.628,0.057
	c-2.672,0.085-4.242-0.713-5.645-3.106c-5.411-9.239-11.166-18.277-16.604-27.503c-1.46-2.477-3.104-3.556-6.01-3.374
	c-3.925,0.244-7.888,0.22-11.816,0.008c-2.804-0.151-3.455,0.978-3.418,3.566c0.127,8.827-0.084,17.659,0.118,26.483
	c0.072,3.129-0.875,4.115-3.972,3.932c-4.242-0.251-8.516-0.206-12.765-0.011c-2.584,0.119-3.138-0.886-3.133-3.273
	c0.066-31.373,0.09-62.749-0.028-94.121c-0.011-3.131,1.195-3.599,3.877-3.579c13.716,0.102,27.435-0.135,41.147,0.1
	c14.368,0.246,26.831,10.658,30.659,25.124c3.76,14.201-1.688,28.696-13.9,36.133c-2.598,1.582-2.576,2.648-1.13,4.991
	c6.862,11.125,13.547,22.355,20.287,33.556C863.573,151.103,863.506,151.285,863.471,152.017z M802.401,84.865
	c0,4.401,0.1,8.807-0.041,13.204c-0.073,2.285,0.767,2.973,2.987,2.935c6.601-0.111,13.204-0.011,19.808-0.044
	c8.729-0.044,14.198-6.057,14.331-15.694c0.134-9.684-5.554-16.528-14.046-16.69c-6.443-0.123-12.894,0.096-19.334-0.086
	c-2.809-0.08-3.95,0.63-3.771,3.646C802.587,76.365,802.399,80.621,802.401,84.865z"/>
<path style="fill-rule:evenodd;clip-rule:evenodd;fill:#FEC045;" d="M429.981,152.14c-27.396-0.047-48.905-22.609-48.801-51.195
	c0.102-28.161,22.206-51.012,49.351-51.019c26.659-0.006,49.02,23.497,49.063,51.568
	C479.636,129.542,457.454,152.186,429.981,152.14z M401.121,101.067c-0.001,6.673,1.429,12.948,4.152,18.224
	c9.412,18.232,33.302,21.179,46.171,5.694c10.711-12.885,10.934-33.656,0.502-46.924c-11.489-14.613-33.607-13.999-44.25,1.24
	C403.133,85.836,400.977,93.106,401.121,101.067z"/>
<path style="fill-rule:evenodd;clip-rule:evenodd;fill:#FEC045;" d="M488.114,101.036c0.068-28.376,22.303-51.228,49.732-51.11
	c26.539,0.114,48.897,23.976,48.68,51.95c-0.22,28.112-22.393,50.406-49.992,50.264
	C509.446,151.998,488.046,129.412,488.114,101.036z M508.029,101.908c-0.287,5.313,1.16,11.429,4.083,17.099
	c4.901,9.507,12.652,15.201,23.495,15.849c10.864,0.651,19.17-4.064,25.073-13.085c8.153-12.46,7.805-30.216-0.767-42.343
	c-10.476-14.822-31.464-16.139-43.35-2.578C510.615,83.638,508.017,91.773,508.029,101.908z"/>
<path style="fill-rule:evenodd;clip-rule:evenodd;fill:#3C6AAB;" d="M697.474,101.352c0-15.289,0.068-30.576-0.059-45.862
	c-0.025-3.029,0.394-4.462,3.993-4.431c20.329,0.172,40.66,0.13,60.991,0.03c2.954-0.015,4.354,0.617,4.059,3.916
	c-0.293,3.283-0.249,6.627-0.01,9.919c0.218,3.02-1.021,3.7-3.815,3.676c-13.554-0.12-27.111,0.118-40.659-0.157
	c-4.089-0.083-5.074,1.219-4.823,5.04c0.328,5.021,0.245,10.088,0.019,15.121c-0.137,3.039,0.744,4.05,3.905,4
	c11.502-0.183,23.011,0.05,34.512-0.147c3.364-0.059,4.219,1.001,4.212,4.268c-0.022,11.828,0.098,11.829-11.665,11.829
	c-9.141,0-18.283,0.082-27.422-0.053c-2.603-0.038-3.614,0.628-3.537,3.399c0.182,6.455,0.209,12.926-0.01,19.381
	c-0.103,3.02,0.988,3.671,3.803,3.645c14.025-0.13,28.054,0.04,42.078-0.133c3.327-0.041,5.012,0.504,4.523,4.297
	c-0.537,4.16,1.764,9.751-0.963,12.174c-2.329,2.069-7.771,0.729-11.836,0.738c-17.652,0.037-35.306-0.088-52.954,0.104
	c-3.533,0.037-4.479-0.862-4.432-4.42C697.592,132.242,697.474,116.797,697.474,101.352z"/>
</svg>
