<?xml version="1.0" encoding="UTF-8" standalone="no"?>
<svg width="32px" height="32px" viewBox="0 0 32 32" version="1.1" xmlns="http://www.w3.org/2000/svg" xmlns:xlink="http://www.w3.org/1999/xlink" xmlns:sketch="http://www.bohemiancoding.com/sketch/ns">
    <!-- Generator: Sketch 3.3.3 (12072) - http://www.bohemiancoding.com/sketch -->
    <title>Imported Layers</title>
    <desc>Created with Sketch.</desc>
    <defs></defs>
    <g id="05-Blog" stroke="none" stroke-width="1" fill="none" fill-rule="evenodd" sketch:type="MSPage">
        <g id="05-blog-details" sketch:type="MSArtboardGroup" transform="translate(-979.000000, -682.000000)" fill="#CB2027">
            <g id="Group" sketch:type="MSLayerGroup" transform="translate(979.000000, 492.000000)">
                <path d="M31.6929672,202.859447 C31.4904563,201.840359 31.1899561,200.844136 30.7947331,199.874043 C30.3962437,198.90395 29.9062978,197.986118 29.3183628,197.117281 C28.733694,196.25171 28.0706339,195.435133 27.3291824,194.667551 C26.5648668,193.929366 25.7482903,193.266306 24.8794529,192.678371 C24.0106155,192.090436 23.0993161,191.60049 22.1422885,191.205267 C21.1852608,190.810044 20.1890375,190.509544 19.1568848,190.303766 C18.1247321,190.101255 17.0697152,190 15.9983668,190 C14.9270185,190 13.8818006,190.101255 12.8594468,190.303766 C11.8403593,190.509544 10.844136,190.810044 9.87404307,191.205267 C8.90395019,191.60049 7.9861182,192.090436 7.12054711,192.678371 C6.25170971,193.266306 5.4351332,193.929366 4.6708176,194.667551 C3.92936613,195.435133 3.26630601,196.25171 2.67837093,197.117281 C2.09370215,197.986118 1.60048995,198.90395 1.20526692,199.874043 C0.810043891,200.844136 0.509543738,201.840359 0.307032765,202.859447 C0.101255486,203.881801 0,204.927018 0,205.998367 C0,207.069715 0.101255486,208.121466 0.307032765,209.156885 C0.509543738,210.189037 0.810043891,211.185261 1.20526692,212.142288 C1.60048995,213.099316 2.09370215,214.010615 2.67837093,214.879453 C3.26630601,215.745024 3.92936613,216.5616 4.6708176,217.329182 C5.4351332,218.067368 6.25170971,218.733694 7.12054711,219.318363 C7.9861182,219.906298 8.90395019,220.396244 9.87404307,220.791467 C10.844136,221.18669 11.8403593,221.48719 12.8594468,221.692967 C13.8818006,221.895478 14.9270185,221.996734 15.9983668,221.996734 C17.0697152,221.996734 18.1247321,221.895478 19.1568848,221.692967 C20.1890375,221.48719 21.1852608,221.18669 22.1422885,220.791467 C23.0993161,220.396244 24.0106155,219.906298 24.8794529,219.318363 C25.7482903,218.733694 26.5648668,218.067368 27.3291824,217.329182 C28.0706339,216.5616 28.733694,215.745024 29.3183628,214.879453 C29.9062978,214.010615 30.3962437,213.099316 30.7947331,212.142288 C31.1899561,211.185261 31.4904563,210.189037 31.6929672,209.156885 C31.8954782,208.121466 32,207.069715 32,205.998367 C32,204.927018 31.8954782,203.881801 31.6929672,202.859447 L31.6929672,202.859447 Z M28.8610799,211.358375 C28.1718894,213.040523 27.1626008,214.533224 25.8364806,215.836481 C24.5364908,217.162601 23.0437889,218.171889 21.358375,218.857814 C19.6729611,219.55027 17.9124222,219.893233 16.0767582,219.893233 C14.8453608,219.893233 13.6694907,219.687455 12.5164846,219.386955 C12.754925,218.880678 12.9705012,218.354802 13.1272839,217.786465 C13.2808002,217.149536 13.4473819,216.499541 13.6270287,215.836481 C13.8034092,215.17342 13.9699908,214.507094 14.1235072,213.844034 C14.1496376,213.82117 14.1627029,213.768909 14.1627029,213.690518 C14.3652138,213.870164 14.5579259,214.049811 14.7375727,214.229458 C14.9139533,214.405839 15.1066653,214.57242 15.3091763,214.725937 C15.9722364,215.183219 16.6744922,215.454323 17.4159437,215.529448 C18.1541288,215.604573 18.9086455,215.568643 19.6729611,215.415127 C20.8716954,215.160355 21.9201796,214.680208 22.8118812,213.977952 C23.706849,213.278963 24.4580994,212.403593 25.0721649,211.358375 C25.7842197,210.10738 26.2708993,208.810656 26.5256711,207.471471 C26.780443,206.132285 26.8196387,204.760437 26.6399918,203.355925 C26.4864755,202.082066 26.0781872,200.938859 25.4151271,199.932837 C24.752067,198.923548 23.8962948,198.061243 22.8510769,197.349189 C21.9332449,196.686128 20.9500868,196.199449 19.9048688,195.892416 C18.8563846,195.585383 17.7589058,195.435133 16.6124324,195.435133 C15.4626927,195.435133 14.345616,195.555987 13.2612024,195.797693 C12.1767888,196.0394 11.1381035,196.467286 10.1418802,197.081351 C9.25017863,197.617026 8.45319996,198.267021 7.75094417,199.031336 C7.04868837,199.798918 6.48035113,200.644891 6.04593243,201.575789 C5.61478003,202.509952 5.34041033,203.496376 5.22282331,204.544861 C5.1085026,205.590079 5.19342656,206.661427 5.47432888,207.758906 C5.6507094,208.500357 5.93161172,209.176483 6.31376952,209.787282 C6.69919363,210.401347 7.24793304,210.897826 7.95998775,211.279984 C8.44666735,211.587016 8.77656425,211.681739 8.95621109,211.567419 C9.13585792,211.453098 9.26324385,211.165663 9.33836889,210.705114 L9.37756456,210.705114 C9.5049505,210.146575 9.58007553,209.767684 9.60620598,209.578238 C9.63233643,209.385526 9.44289068,209.022966 9.03133612,208.487292 C8.64917832,207.951618 8.4205369,207.370215 8.34541186,206.746351 C8.26702052,206.11922 8.26702052,205.501888 8.34541186,204.887823 C8.49566194,203.613963 8.89088496,202.503419 9.53108094,201.559457 C10.1680106,200.615495 11.0237828,199.808717 12.0951312,199.145657 C12.5556803,198.864755 13.0456262,198.655711 13.5682352,198.51526 C14.0908441,198.374809 14.6199857,198.280086 15.1556599,198.227825 C15.8448505,198.1527 16.5275084,198.139635 17.2036338,198.188629 C17.8797591,198.24089 18.5395529,198.407472 19.1764826,198.688374 C20.2739614,199.122793 21.123201,199.75319 21.720935,200.582831 C22.3219353,201.412473 22.67143,202.411963 22.7759518,203.587833 C22.8510769,204.633051 22.8118812,205.655405 22.6583648,206.648362 C22.5048484,207.644585 22.2141472,208.614678 21.7797285,209.55864 C21.5249566,210.120445 21.2113912,210.649587 20.8422987,211.146065 C20.4699398,211.64581 20.0061243,212.047566 19.4443197,212.351332 C18.934776,212.60937 18.4219659,212.753088 17.9124222,212.792283 C17.4028784,212.831479 16.8933347,212.710626 16.3805247,212.429723 C15.8709809,212.148821 15.5149536,211.766663 15.3091763,211.279984 C15.1066653,210.79657 15.0805349,210.260896 15.2340512,209.672961 C15.4136981,209.009901 15.6031438,208.353373 15.8089211,207.700112 C16.0114321,207.050117 16.1910789,206.39359 16.3445953,205.73053 C16.4458508,205.397367 16.5144432,205.060937 16.5536389,204.717975 C16.5928345,204.371746 16.5993672,204.022252 16.5732367,203.662958 C16.4981117,202.59161 16.063693,201.95468 15.2732469,201.748903 C14.4795346,201.546392 13.790344,201.621517 13.2056752,201.98081 C12.670001,202.310707 12.2682454,202.718996 12.0004083,203.205675 C11.7325712,203.689088 11.559457,204.224763 11.4810656,204.812698 C11.3798101,205.374502 11.3536797,205.933041 11.4059406,206.494845 C11.4582015,207.05665 11.5986526,207.605389 11.8272941,208.141064 C11.8534245,208.219455 11.8664897,208.301113 11.8664897,208.392569 C11.8664897,208.480759 11.8534245,208.562417 11.8272941,208.640808 C11.4941309,210.042054 11.1642339,211.453098 10.8310707,212.870675 C10.5011738,214.284985 10.1680106,215.696029 9.83811371,217.100541 C9.74012453,217.482699 9.69439624,217.874656 9.64866796,218.269879 C8.42380321,217.626416 7.27732979,216.855568 6.27784016,215.836481 C4.97458406,214.533224 3.97509442,213.040523 3.27283862,211.358375 C2.57058283,209.672961 2.22108809,207.912422 2.22108809,206.076758 C2.22108809,204.211697 2.57058283,202.438093 3.27283862,200.755946 C3.97509442,199.070532 4.97458406,197.57783 6.27784016,196.27784 C7.57782995,194.974584 9.0705318,193.971828 10.7559457,193.272839 C12.4380933,192.570583 14.2116975,192.217822 16.0767582,192.217822 C17.9124222,192.217822 19.6729611,192.570583 21.358375,193.272839 C23.0437889,193.971828 24.5364908,194.974584 25.8364806,196.27784 C27.1626008,197.57783 28.1718894,199.070532 28.8610799,200.755946 C29.5502705,202.438093 29.8932326,204.211697 29.8932326,206.076758 C29.8932326,207.912422 29.5502705,209.672961 28.8610799,211.358375 L28.8610799,211.358375 Z" id="Imported-Layers" sketch:type="MSShapeGroup"></path>
            </g>
        </g>
    </g>
</svg>