<?xml version="1.0" encoding="UTF-8" standalone="no"?>
<svg width="128px" height="35px" viewBox="0 0 128 35" version="1.1" xmlns="http://www.w3.org/2000/svg" xmlns:xlink="http://www.w3.org/1999/xlink" xmlns:sketch="http://www.bohemiancoding.com/sketch/ns">
    <!-- Generator: Sketch 3.4 (15575) - http://www.bohemiancoding.com/sketch -->
    <title>Page 1</title>
    <desc>Created with Sketch.</desc>
    <defs>
        <path id="path-1" d="M0,0.129177398 L127.968715,0.129177398 L127.968715,34.4809461 L0,34.4809461"></path>
    </defs>
    <g id="Careers-i3" stroke="none" stroke-width="1" fill="none" fill-rule="evenodd" sketch:type="MSPage">
        <g sketch:type="MSArtboardGroup" transform="translate(-68.000000, -3266.000000)" id="Page-1">
            <g sketch:type="MSLayerGroup" transform="translate(68.000000, 3266.000000)">
                <g id="Group-3">
                    <mask id="mask-2" sketch:name="Clip 2" fill="white">
                        <use xlink:href="#path-1"></use>
                    </mask>
                    <g id="Clip-2"></g>
                    <path d="M29.5108457,13.5700016 C29.6378365,14.1380121 28.9419942,15.6795627 28.8065934,15.972903 C26.1890691,21.6403932 22.1090481,25.1927716 16.1293792,27.0757677 C14.4586512,27.6018965 11.9787143,28.415815 10.2879706,28.9399254 C10.4497787,29.2119043 13.1446749,28.8566665 13.8094003,28.8571711 C16.942625,28.8588531 19.9251427,29.2692604 23.0657682,29.0349582 C29.5601283,28.5502066 33.2961808,24.4548794 33.6951506,18.0029057 C33.916165,14.4295022 33.4754817,11.1708005 32.5545882,7.75197267 C32.2276079,6.53807516 31.9029824,5.32098187 31.4019154,4.09379658 C28.3741519,8.45487937 25.1132636,10.736677 20.6272084,11.619221 C18.478625,12.0420752 16.0203858,11.75479 13.8509456,11.995652 C9.10973141,12.5221172 5.76222024,15.6910003 5.15081419,20.2399622 C4.85932405,22.4097388 5.50857503,24.591794 7.17745283,26.1706849 C7.69870381,26.6638465 8.12744494,26.8217861 8.9208431,26.6199464 C10.7634712,26.1511737 12.7897735,25.7824799 14.6379522,25.3357414 C19.1002912,24.2569083 22.793621,22.0679569 25.989416,18.7485351 C27.1553766,17.537497 28.5891112,15.1855601 29.5108457,13.5700016 M6.22796531,30.555652 C7.71939238,30.7628741 8.25948173,29.9010187 8.25796794,28.9399254 C8.25679054,28.0984221 7.6426933,27.482811 6.8080862,27.4484983 C5.79468279,27.4067848 4.86083784,28.6085719 5.37502444,29.7555259 C-0.581937451,24.3093866 -2.25199264,13.9405456 3.78368673,6.44421971 C9.71945545,-0.92780657 21.668533,-2.51897608 29.7290008,5.2970975 C30.4968326,4.39840631 30.9556815,3.3133498 31.5743201,2.18876636 C32.5428142,4.98710539 33.3362124,7.71429593 33.9402176,10.4934602 C34.7324384,14.1380121 34.8942465,17.6357256 34.0265041,21.3171133 C32.0831243,29.5629372 24.2968221,35.1903958 15.8809482,34.4086034 C12.3754975,34.0829687 9.10148962,32.8191159 6.22796531,30.555652" id="Fill-1" fill="#6DB33F" sketch:type="MSShapeGroup" mask="url(#mask-2)"></path>
                </g>
                <path d="M124.167956,17.2815811 C124.213033,16.8698281 124.114132,16.3457177 123.989496,15.8281671 C123.484897,13.7317256 121.87287,12.2648557 119.805527,12.0081829 C117.922531,11.7743853 116.066447,12.7652499 115.187772,14.5564089 C114.281848,16.4027375 114.30506,18.2943117 115.185081,20.1418176 C115.752418,21.3330081 116.709139,22.1366665 117.992166,22.4977913 C121.18342,23.3958097 124.142053,20.9515311 124.167956,17.2815811 M124.067541,11.5410922 C124.067541,11.0248873 124.047861,10.7458439 124.070905,10.4705009 C124.159378,9.42093456 124.801228,8.65932615 125.819004,8.62198581 C126.884045,8.58262707 127.734968,9.0730975 127.9104,10.149744 C127.955141,10.424246 127.964224,10.7068216 127.964392,10.9856967 C127.967756,14.657497 127.97297,18.3294654 127.962542,22.0012657 C127.959683,23.0096231 127.877937,24.016635 127.628834,24.9982486 C126.811551,28.217087 124.788276,30.1974707 121.177533,30.6613656 C118.253212,31.0369556 115.364045,30.7767506 112.682941,29.4935548 C111.516476,28.9354681 111.000608,27.982112 111.485023,27.037334 C111.940003,26.1500804 112.866784,25.9262066 113.938048,26.4577177 C116.169722,27.5648084 118.676739,28.19438 121.117149,27.5002197 C122.936397,26.9828373 123.912629,25.2053025 124.012203,23.1371185 C123.660329,23.5105219 123.405506,23.8284194 123.104093,24.093334 C119.504786,27.2563301 114.046032,26.3870739 111.75717,21.9896599 C109.622379,17.8882775 110.535872,13.5460331 113.260035,10.8736757 C115.977974,8.20754166 120.76107,7.57073745 123.561596,11.0063853 C123.662516,11.1300121 123.780928,11.2393419 124.067541,11.5410922" id="Fill-4" fill="#6DB33F" sketch:type="MSShapeGroup"></path>
                <path d="M66.783958,22.8208357 C68.3389645,22.8480841 69.4095558,22.1991695 70.3264126,21.2325256 C72.0933509,19.3697135 72.2176505,15.8725046 70.58359,13.7750539 C69.0464126,11.802071 66.2505966,11.3514639 64.1963732,12.7962996 C62.7575926,13.808021 62.1000999,15.4848042 61.9485519,17.1748752 C61.6764047,20.2095348 64.1237109,22.8215085 66.783958,22.8208357 M62.036184,23.2467175 C62.036184,25.2419028 62.0535085,27.0569461 62.0299606,28.8713167 C62.0146544,30.0352589 61.4284783,30.8152011 60.4014507,30.8947595 C59.1468489,30.991979 58.1867648,30.1432431 58.1828962,28.8805677 C58.164226,22.7720578 58.1778502,16.8739658 58.1924836,10.7652878 C58.195343,9.55189488 59.0994166,8.65219448 60.2263548,8.65118528 C61.3290723,8.65017608 62.026092,9.45013403 62.0945493,10.6361104 C62.1086781,10.8815138 62.123816,11.3761892 62.123816,11.6870223 C64.9435164,6.9101498 72.2793798,8.02884625 74.5884258,13.0006623 C75.9861656,16.0102602 76.0198055,19.0550118 74.4716951,22.0207096 C72.411753,25.966339 67.3697976,27.3395217 63.8752799,24.8814507 C63.2995322,24.4764258 62.671138,23.8730933 62.036184,23.2467175" id="Fill-6" fill="#6DB33F" sketch:type="MSShapeGroup"></path>
                <path d="M98.1042796,11.3433062 C98.1939301,11.2634113 98.3804636,10.9091827 98.4667501,10.8112904 C100.309378,8.72325887 102.499507,8.27887516 105.064048,8.94309593 C107.4725,9.56661235 109.143397,11.6349645 109.209163,14.4893141 C109.282666,17.6817451 109.245157,20.8773719 109.225142,24.0713167 C109.217909,25.2160841 108.343775,25.9914849 107.224069,25.9906439 C106.072574,25.9898029 105.332159,24.9092878 105.326776,23.713724 C105.315507,21.2201629 105.32829,18.7264336 105.318703,16.2327043 C105.317021,15.786975 105.293977,15.3345177 105.214251,14.8971984 C104.835129,12.8153903 103.806419,12.1173614 101.736217,12.1832957 C99.9021666,12.241661 98.2724794,13.4500079 98.0580247,15.3651301 C97.8363375,17.3460184 98.0045372,19.3393535 97.967365,21.3268016 C97.9512179,22.1950486 97.9835122,23.0644731 97.9589551,23.9323837 C97.9246423,25.1430854 97.1859091,25.9682733 96.0438329,25.9615453 C94.8862823,25.9546491 94.158482,25.2098607 94.155959,23.9720788 C94.1470444,19.5729829 94.1493992,15.1740552 94.1547816,10.7751275 C94.1562954,9.52170302 94.8403637,8.66001577 95.9282796,8.642523 C97.2116436,8.62183443 97.8005109,9.67644678 97.9444899,10.9418134 C97.9599643,11.0763732 97.9258197,11.2253982 98.1042796,11.3433062" id="Fill-8" fill="#6DB33F" sketch:type="MSShapeGroup"></path>
                <path d="M50.5056378,25.9906943 C48.6080084,25.9906943 46.2807968,25.4871043 44.3941004,24.2286339 C43.5640347,23.6750886 43.1514407,22.6125708 43.6457798,21.84558 C44.1061424,21.1310675 45.0827101,20.853538 45.8934329,21.3492226 C47.1500531,22.117559 48.5622581,22.7757246 50.0385472,22.9548573 C50.774421,23.0440032 51.5037351,23.0207916 52.1987364,22.7504946 C52.8188888,22.5092962 53.1401503,22.0112568 53.2203816,21.320124 C53.3031359,20.6077982 53.0888494,20.3240452 52.5139427,19.9918507 C51.6083553,19.4684131 50.6772016,19.1082975 49.6883553,18.8095748 C48.8046339,18.54281 47.844718,18.3897482 47.0163343,17.9695853 C45.4512357,17.1758507 44.3384263,15.9357141 44.2879664,14.1099059 C44.2334696,12.1421372 45.037128,10.5105997 46.7399821,9.52679947 C48.5373645,8.4885025 50.5527338,8.54182181 52.5198297,8.94297819 C53.5922712,9.16180604 54.6795143,9.6401661 55.6397666,10.1721819 C56.5177693,10.6587837 56.6205393,11.4523501 56.2271201,12.27081 C55.8454749,13.0647127 55.0783159,13.256965 54.1545629,12.8255327 C53.0858218,12.3263159 51.790011,11.7746208 50.3889072,11.745354 C48.9876352,11.7162555 47.9325183,12.2341424 47.7908941,13.0882607 C47.6654171,13.8444867 48.3893488,14.7177798 49.6093014,15.2006812 C50.4143054,15.5194197 51.2484079,15.7634775 52.0646812,16.0539585 C52.6696957,16.2692541 53.2844657,16.4685708 53.8650912,16.7388678 C56.3243396,17.8836352 57.0062213,19.1187259 56.7233093,21.5535853 C56.4737009,23.7031779 54.5047548,25.9906943 50.5056378,25.9906943" id="Fill-10" fill="#6DB33F" sketch:type="MSShapeGroup"></path>
                <path d="M80.8060972,11.2199317 C81.6496189,10.0997214 82.8996794,9.0208883 84.2506597,8.73864915 C85.0344704,8.5749908 85.9136505,8.6390749 86.4983127,9.32247043 C86.9909698,9.89838633 87.089703,10.5737083 86.8453088,11.2924258 C86.6170618,11.9637109 86.0418187,12.3557845 85.3599369,12.4752063 C82.3232589,13.0068857 80.7776715,15.8899974 80.8163574,18.5791748 C80.8400736,20.2314008 80.8254402,21.8842996 80.816862,23.536862 C80.8150118,23.8991643 80.8382234,24.1748436 80.7768305,24.5310907 C80.6328515,25.3693982 79.7930302,25.9432957 78.9670013,26.0198265 C78.0043942,26.1091406 77.3531248,25.5372615 77.0404415,24.677088 C76.8532352,24.1620604 76.8969671,23.6273535 76.8967989,23.0968515 C76.8956216,19.0353325 76.891753,14.9738134 76.8986491,10.9122943 C76.9010039,9.48091459 77.6747227,8.71426018 78.8502707,8.68028384 C79.8152326,8.65236268 80.5517792,9.14619711 80.7768305,10.0815558 C80.8282996,10.2950013 80.7477319,10.8695716 80.8060972,11.2199317" id="Fill-12" fill="#6DB33F" sketch:type="MSShapeGroup"></path>
                <path d="M92.2135212,17.4157876 C92.2135212,19.5450281 92.2182307,21.6742686 92.2120074,23.8035091 C92.2078024,25.2039401 91.4890849,26.0035616 90.2550034,26.0042344 C89.0372373,26.0049072 88.3450954,25.1968757 88.344759,23.7660005 C88.3434134,19.4794302 88.343077,15.1928599 88.3449272,10.9062896 C88.3454318,9.53697556 89.0414423,8.70859185 90.2057209,8.6803343 C91.4026302,8.65123574 92.2051112,9.5100636 92.2109982,10.8598665 C92.2204173,13.0451175 92.2135212,15.2305367 92.2135212,17.4157876" id="Fill-14" fill="#6DB33F" sketch:type="MSShapeGroup"></path>
                <path d="M92.1931185,4.13061551 C92.1831947,5.26310434 91.3605298,6.05027911 90.2076888,6.03043154 C89.1228005,6.01176137 88.3083774,5.19481524 88.2999674,4.11665493 C88.2915574,3.03681261 89.1877256,2.13559842 90.2640357,2.14148541 C91.3620436,2.1475406 92.2028741,3.01461025 92.1931185,4.13061551" id="Fill-16" fill="#6DB33F" sketch:type="MSShapeGroup"></path>
            </g>
        </g>
    </g>
</svg>