<?xml version="1.0" encoding="utf-8"?>
<!-- Generator: Adobe Illustrator 17.0.0, SVG Export Plug-In . SVG Version: 6.00 Build 0)  -->
<!DOCTYPE svg PUBLIC "-//W3C//DTD SVG 1.1//EN" "http://www.w3.org/Graphics/SVG/1.1/DTD/svg11.dtd">
<svg version="1.1" id="Layer_1" xmlns="http://www.w3.org/2000/svg" xmlns:xlink="http://www.w3.org/1999/xlink" x="0px" y="0px"
	 width="100px" height="69px" viewBox="0 0 100 69" enable-background="new 0 0 100 69" xml:space="preserve">
<g>
	<g>
		<polygon fill="#848682" points="50,0 0,0 0,16.552 16.552,16.552 16.552,50.69 33.448,50.69 33.448,16.552 50,16.552 		"/>
		<rect x="66.552" y="0" fill="#848682" width="33.448" height="16.552"/>
		<polygon fill="#848682" points="66.552,33.259 66.552,16.552 50,16.552 50,50.69 100,50.69 100,33.283 		"/>
	</g>
	<path fill="#848682" d="M6.897,57.587v10.345H4.139V57.587H0.001v-2.069h10.345v2.069H6.897z"/>
	<path fill="#848682" d="M18.093,63.794h-5.737c0.091,1.379,1.06,2.012,1.973,2.012c0.695,0,1.278-0.154,1.645-0.575l1.79,1.549
		c-0.767,0.986-2.156,1.578-3.435,1.578c-2.759,0-4.513-1.942-4.513-4.975c0-2.942,1.845-5,4.276-5c2.558,0,4.038,2.065,4.038,4.807
		C18.13,63.555,18.112,63.794,18.093,63.794z M13.965,60.696c-0.914,0-1.48,0.338-1.572,1.718h3.289
		C15.609,61.035,15.097,60.696,13.965,60.696z"/>
	<path fill="#848682" d="M24.141,68.384c-2.503,0-4.495-2.047-4.495-4.988c0-2.942,1.937-5.006,4.604-5.006
		c1.827,0,2.997,0.895,3.801,2.12l-1.662,1.681c-0.567-0.804-1.169-1.371-2.192-1.371c-1.206,0-1.992,1.005-1.992,2.576
		c0,1.535,0.785,2.559,1.992,2.559c0.986,0,1.608-0.438,2.266-1.224l1.608,1.517C27.138,67.489,26.041,68.384,24.141,68.384
		L24.141,68.384z"/>
	<path fill="#848682" d="M35.517,67.931v-4.938c0-1.717-0.328-2.228-1.37-2.228s-1.388,0.512-1.388,2.175v4.992h-2.758V56.125
		l2.758-1.262v4.368c0-0.457,1.105-0.84,2.11-0.84c2.448,0,3.407,1.681,3.407,4.385v5.157L35.517,67.931L35.517,67.931z"/>
	<path fill="#848682" d="M48.35,59.12c-0.457-0.877-1.188-1.389-2.338-1.389c-1.918,0-3.015,1.682-3.015,4.056
		c0,2.302,1.115,4.056,3.033,4.056c1.152,0,1.828-0.493,2.503-1.626l2.156,1.278c-0.877,1.809-2.412,2.887-4.732,2.887
		c-3.344,0-5.592-2.559-5.592-6.597c0-3.892,2.338-6.596,5.682-6.596c2.412,0,3.874,1.169,4.677,2.832L48.35,59.12L48.35,59.12z"/>
	<path fill="#848682" d="M57.742,61.532c-0.402-0.366-0.809-0.622-1.375-0.622c-0.986,0-1.539,0.422-1.539,2.083v4.938H52.07v-9.655
		h2.758v0.954c0.69-0.457,0.992-0.84,1.887-0.84c0.822,0,1.399,0.328,1.728,0.676L57.742,61.532z"/>
	<path fill="#848682" d="M65.862,67.845v-0.302c-0.69,0.457-1.105,0.84-2.11,0.84c-2.448,0-3.407-1.682-3.407-4.385v-5.723h2.069
		v5.503c0,1.718,0.673,2.229,1.715,2.229c1.04,0,1.733-0.512,1.733-2.175v-5.558h2.758v9.655h-2.867L65.862,67.845L65.862,67.845z"
		/>
	<path fill="#848682" d="M75.862,67.931v-4.938c0-1.717-0.156-2.228-1.198-2.228c-1.04,0-1.216,0.512-1.216,2.175v4.992H70.69
		v-9.655h2.758v0.954c0-0.457,0.933-0.84,1.938-0.84c2.448,0,3.235,1.681,3.235,4.385v5.157L75.862,67.931L75.862,67.931z"/>
	<path fill="#848682" d="M85.294,68.384c-2.503,0-4.495-2.047-4.495-4.988c0-2.942,1.937-5.006,4.604-5.006
		c1.828,0,2.997,0.895,3.801,2.12l-1.662,1.681c-0.567-0.804-1.169-1.371-2.192-1.371c-1.207,0-1.992,1.005-1.992,2.576
		c0,1.535,0.785,2.559,1.992,2.559c0.985,0,1.608-0.438,2.266-1.224l1.608,1.517C88.29,67.489,87.195,68.384,85.294,68.384
		L85.294,68.384z"/>
	<path fill="#848682" d="M96.552,68.183v-5.19c0-1.717-0.328-2.228-1.37-2.228c-1.04,0-1.388,0.512-1.388,2.175v4.992h-2.758V56.124
		l2.758-1.262v4.368c0-0.457,1.105-0.84,2.11-0.84c2.448,0,3.407,1.681,3.407,4.385v5.157h-2.694L96.552,68.183L96.552,68.183z"/>
</g>
</svg>
