<?xml version="1.0" encoding="iso-8859-1"?>
<!-- Generator: Adobe Illustrator 16.0.0, SVG Export Plug-In . SVG Version: 6.00 Build 0)  -->
<!DOCTYPE svg PUBLIC "-//W3C//DTD SVG 1.1//EN" "http://www.w3.org/Graphics/SVG/1.1/DTD/svg11.dtd">
<svg version="1.1" id="Layer_1" xmlns:sketch="http://www.bohemiancoding.com/sketch/ns"
	 xmlns="http://www.w3.org/2000/svg" xmlns:xlink="http://www.w3.org/1999/xlink" x="0px" y="0px" width="435px" height="136px"
	 viewBox="0 0 435 136" style="enable-background:new 0 0 435 136;" xml:space="preserve">
<title>Rectangle 52 + 10x faster</title>
<desc>Created with Sketch.</desc>
<linearGradient id="Rectangle-52_1_" gradientUnits="userSpaceOnUse" x1="-21.3875" y1="156.5469" x2="-20.3977" y2="156.5469" gradientTransform="matrix(431 0 0 -132 9219.6445 20732.5)">
	<stop  offset="0" style="stop-color:#74BDFC"/>
	<stop  offset="1" style="stop-color:#428BCA"/>
</linearGradient>
<path id="Rectangle-52" style="fill:none;stroke:url(#Rectangle-52_1_);stroke-width:2;" d="M81.916,2.402h271
	c44.184,0,80,29.549,80,66l0,0c0,36.452-35.816,66-80,66h-271c-44.184,0-80-29.549-80-66l0,0
	C1.916,31.951,37.732,2.402,81.916,2.402z"/>
<g>
	<path style="fill:#FFF100;" d="M210.216,55.592c-3.72-0.559-6.78-0.84-9.18-0.84c-2.4,0-4.301,0.641-5.7,1.92
		c-1.4,1.281-2.101,2.82-2.101,4.621c0,1.08,0.391,1.879,1.17,2.398c0.78,0.521,2.521,1.102,5.221,1.74
		c2.7,0.641,4.66,1.381,5.88,2.221c1.219,0.84,1.83,2.28,1.83,4.321c0,3.479-1.21,6.149-3.63,8.01
		c-2.42,1.858-5.512,2.789-9.271,2.789c-2.76,0-5.42-0.32-7.979-0.959l-1.32-0.302l0.66-2.879c3.68,0.64,6.76,0.959,9.24,0.959
		c2.479,0,4.54-0.577,6.18-1.739c1.64-1.158,2.46-2.879,2.46-5.16c0-1.279-0.42-2.168-1.26-2.67c-0.84-0.5-2.58-1.06-5.221-1.681
		c-2.64-0.619-4.56-1.359-5.76-2.219c-1.2-0.861-1.8-2.211-1.8-4.051c0-3.039,1.089-5.539,3.271-7.5
		c2.18-1.959,4.97-2.939,8.369-2.939c2.641,0,5.4,0.26,8.28,0.779l1.44,0.301L210.216,55.592z"/>
	<path style="fill:#FFF100;" d="M220.656,82.771c-5.001,0-7.5-2.82-7.5-8.459c0-5.24,1.261-10.222,3.78-14.939
		c1.2-2.281,2.79-4.15,4.77-5.611c1.979-1.459,4.149-2.189,6.511-2.189c2.16,0,5.34,0.359,9.54,1.08l2.1,0.359l-4.56,19.5
		c-0.562,2.24-1.04,4.92-1.44,8.041l-0.239,1.559l-3.479,0.121c0.601-3.721,0.979-6,1.14-6.84c-0.159,0.199-0.369,0.472-0.629,0.81
		c-0.262,0.342-0.78,0.932-1.561,1.771c-0.78,0.84-1.57,1.58-2.37,2.219c-0.801,0.642-1.761,1.23-2.88,1.771
		C222.715,82.502,221.655,82.771,220.656,82.771z M235.716,55.652c-2.88-0.6-5.431-0.9-7.649-0.9c-2.221,0-4.229,1.102-6.03,3.301
		c-1.8,2.199-3.109,4.75-3.931,7.648c-0.819,2.902-1.229,5.502-1.229,7.801c0,2.301,0.369,3.891,1.109,4.77
		c0.74,0.881,1.851,1.32,3.331,1.32c1.479,0,3.079-0.699,4.8-2.1c1.72-1.401,3.141-2.799,4.261-4.199l1.68-2.16L235.716,55.652z"/>
	<path style="fill:#FFF100;" d="M245.796,52.172h3.54l0.84,26.881h2.1l13.682-26.881h3.778l-15.54,30h-7.379L245.796,52.172z"/>
	<path style="fill:#FFF100;" d="M268.476,82.172l6.96-30h3.601l-6.96,30H268.476z M276.995,45.213l1.141-4.801h3.6l-1.08,4.801
		H276.995z"/>
	<path style="fill:#FFF100;" d="M299.734,51.572c2.28,0,4.021,0.66,5.222,1.979c1.198,1.32,1.8,3.021,1.8,5.1
		c0,2.08-0.4,4.799-1.2,8.16l-3.6,15.359h-3.54l3.54-15.119c0.759-3.24,1.14-5.74,1.14-7.5c0-3.16-1.5-4.74-4.5-4.74
		c-1.32,0-2.82,0.621-4.5,1.859c-1.68,1.24-3.04,2.501-4.08,3.78l-1.5,1.86l-4.62,19.859h-3.6l6.96-30h3.479l-1.26,5.82
		c2-2.68,4.38-4.58,7.14-5.699C297.694,51.813,298.734,51.572,299.734,51.572z"/>
	<path style="fill:#FFF100;" d="M317.193,96.393c-3.119,0-5.59-0.711-7.409-2.131c-1.82-1.42-2.729-3.311-2.729-5.67
		c0-3.4,2.7-6.539,8.1-9.42c-0.6-0.6-0.898-1.359-0.898-2.279s0.26-1.869,0.779-2.85s1.06-1.75,1.619-2.311l0.78-0.9
		c-2.76-1.24-4.14-3.49-4.14-6.75s1.089-6.159,3.27-8.699c2.18-2.54,5.09-3.811,8.73-3.811c1.839,0,3.42,0.24,4.739,0.721
		l0.659,0.239l8.881-0.36l-0.721,3.181h-5.819c0.76,1.161,1.141,2.62,1.141,4.38c0,3-1.11,5.76-3.33,8.279
		c-2.221,2.519-5.331,3.781-9.33,3.781l-1.8-0.121c-1.4,1.762-2.102,3.111-2.102,4.051c0,0.94,0.37,1.56,1.11,1.859
		s2.499,0.621,5.28,0.961c2.778,0.34,4.858,1.029,6.239,2.068c1.38,1.041,2.069,2.66,2.069,4.861c0,2.959-1.38,5.52-4.14,7.68
		C325.411,95.313,321.754,96.393,317.193,96.393z M312.514,83.852c-1.32,1.279-1.979,2.67-1.979,4.17s0.601,2.75,1.801,3.75
		c1.199,1,3.129,1.5,5.79,1.5c2.658,0,5.1-0.698,7.318-2.1c2.221-1.4,3.33-3.221,3.33-5.459c0-1.361-0.46-2.332-1.38-2.91
		c-0.921-0.58-2.631-1.01-5.13-1.291c-2.5-0.279-4.19-0.6-5.07-0.959C315.394,81.473,313.834,82.572,312.514,83.852z
		 M321.993,68.732c2.8,0,4.959-0.949,6.479-2.851c1.52-1.9,2.28-3.791,2.28-5.67c0-1.881-0.44-3.271-1.32-4.17
		c-0.88-0.9-2.45-1.351-4.71-1.351s-4.15,0.95-5.67,2.851c-1.521,1.9-2.28,3.91-2.28,6.029
		C316.773,67.014,318.514,68.732,321.993,68.732z"/>
	<path style="fill:#FFF100;" d="M361.893,55.592c-3.72-0.559-6.779-0.84-9.18-0.84c-2.401,0-4.302,0.641-5.7,1.92
		c-1.4,1.281-2.101,2.82-2.101,4.621c0,1.08,0.391,1.879,1.17,2.398c0.78,0.521,2.521,1.102,5.221,1.74
		c2.7,0.641,4.66,1.381,5.881,2.221c1.219,0.84,1.829,2.28,1.829,4.321c0,3.479-1.21,6.149-3.63,8.01
		c-2.42,1.859-5.512,2.789-9.271,2.789c-2.76,0-5.421-0.32-7.979-0.959l-1.32-0.302l0.66-2.879c3.68,0.64,6.76,0.959,9.24,0.959
		c2.479,0,4.539-0.577,6.18-1.739c1.641-1.158,2.461-2.879,2.461-5.16c0-1.279-0.42-2.168-1.261-2.67
		c-0.84-0.5-2.58-1.06-5.221-1.681c-2.641-0.619-4.561-1.359-5.76-2.219c-1.2-0.861-1.801-2.211-1.801-4.051
		c0-3.039,1.09-5.539,3.271-7.5c2.181-1.959,4.971-2.939,8.37-2.939c2.641,0,5.4,0.26,8.279,0.779l1.44,0.301L361.893,55.592z"/>
	<g>
		<path style="fill:#FFF100;" d="M72.614,76.644c2.825,1.95,5.742,2.926,8.75,2.926c1.239,0,2.434-0.155,3.582-0.465
			s2.165-0.798,3.049-1.463c0.884-0.665,1.59-1.513,2.119-2.543c0.528-1.03,0.793-2.265,0.793-3.705c0-2.734-0.962-4.794-2.885-6.18
			c-1.923-1.385-4.753-2.078-8.49-2.078h-3.117v-3.035h2.871c3.391,0,5.942-0.67,7.656-2.01c1.713-1.34,2.57-3.295,2.57-5.865
			c0-2.315-0.634-4.079-1.9-5.291c-1.267-1.212-3.167-1.818-5.701-1.818c-2.625,0-5.214,0.894-7.766,2.68v-3.527
			c2.734-1.477,5.569-2.215,8.504-2.215c1.385,0,2.716,0.191,3.992,0.574c1.276,0.383,2.393,0.962,3.35,1.736
			c0.957,0.775,1.723,1.741,2.297,2.898c0.574,1.158,0.861,2.511,0.861,4.061c0,5.232-2.589,8.577-7.766,10.035v0.109
			c1.276,0.146,2.47,0.46,3.582,0.943c1.112,0.483,2.078,1.13,2.898,1.941c0.82,0.812,1.467,1.777,1.941,2.898
			c0.474,1.121,0.711,2.374,0.711,3.76c0,1.859-0.347,3.509-1.039,4.949c-0.693,1.44-1.641,2.652-2.844,3.637
			s-2.611,1.731-4.225,2.242s-3.332,0.766-5.154,0.766c-3.318,0-6.198-0.702-8.641-2.105V76.644z"/>
		<path style="fill:#FFF100;" d="M113.137,82.577c-1.878,0-3.555-0.419-5.031-1.258s-2.73-2.073-3.76-3.705
			c-1.03-1.632-1.814-3.659-2.352-6.084c-0.538-2.425-0.807-5.223-0.807-8.395c0-6.963,1.098-12.218,3.295-15.764
			c2.196-3.545,5.364-5.318,9.502-5.318c7.875,0,11.813,6.699,11.813,20.098c0,3.318-0.283,6.244-0.848,8.777
			c-0.565,2.534-1.39,4.667-2.475,6.398c-1.085,1.731-2.411,3.04-3.979,3.924C116.928,82.135,115.142,82.577,113.137,82.577z
			 M113.766,45.116c-2.917,0-5.141,1.477-6.672,4.43s-2.297,7.392-2.297,13.316c0,5.469,0.733,9.62,2.201,12.455
			c1.467,2.835,3.641,4.252,6.521,4.252c1.403,0,2.647-0.369,3.732-1.107c1.084-0.738,1.991-1.823,2.721-3.254
			c0.729-1.431,1.28-3.204,1.654-5.318c0.374-2.114,0.561-4.548,0.561-7.301C122.188,50.94,119.38,45.116,113.766,45.116z"/>
		<path style="fill:#FFF100;" d="M139.469,62.179c-1.386,0-2.634-0.237-3.746-0.711c-1.112-0.474-2.056-1.144-2.83-2.01
			c-0.775-0.866-1.367-1.9-1.777-3.104s-0.615-2.543-0.615-4.02c0-1.622,0.228-3.071,0.684-4.348
			c0.456-1.276,1.094-2.356,1.914-3.24c0.82-0.884,1.805-1.559,2.953-2.023s2.424-0.697,3.828-0.697
			c1.367,0,2.598,0.228,3.691,0.684c1.094,0.456,2.023,1.112,2.789,1.969c0.766,0.857,1.354,1.9,1.764,3.131s0.615,2.63,0.615,4.197
			c0,1.477-0.224,2.835-0.67,4.074c-0.447,1.24-1.071,2.311-1.873,3.213c-0.802,0.902-1.773,1.609-2.912,2.119
			C142.144,61.924,140.872,62.179,139.469,62.179z M139.77,44.651c-0.948,0-1.81,0.173-2.584,0.52
			c-0.775,0.347-1.427,0.843-1.955,1.49c-0.529,0.647-0.939,1.44-1.23,2.379c-0.292,0.939-0.438,2.001-0.438,3.186
			c0,2.279,0.533,4.074,1.6,5.387s2.557,1.969,4.471,1.969c0.966,0,1.823-0.178,2.57-0.533c0.747-0.355,1.376-0.861,1.887-1.518
			c0.51-0.656,0.902-1.449,1.176-2.379s0.41-1.969,0.41-3.117c0-2.388-0.529-4.215-1.586-5.482
			C143.032,45.285,141.593,44.651,139.77,44.651z M140.043,82.495h-3.309l24.363-39.758h3.281L140.043,82.495z M161.864,82.55
			c-1.367,0-2.607-0.237-3.719-0.711c-1.112-0.474-2.056-1.14-2.83-1.996c-0.775-0.856-1.372-1.892-1.791-3.104
			c-0.419-1.212-0.629-2.557-0.629-4.033c0-1.604,0.228-3.044,0.684-4.32c0.456-1.276,1.094-2.36,1.914-3.254
			c0.82-0.893,1.809-1.577,2.967-2.051c1.157-0.474,2.429-0.711,3.814-0.711c1.367,0,2.598,0.228,3.691,0.684
			c1.094,0.456,2.023,1.112,2.789,1.969c0.766,0.857,1.354,1.91,1.764,3.158c0.41,1.249,0.615,2.657,0.615,4.225
			c0,1.477-0.224,2.835-0.67,4.074c-0.447,1.239-1.071,2.311-1.873,3.213c-0.802,0.902-1.773,1.604-2.912,2.105
			C164.538,82.299,163.267,82.55,161.864,82.55z M162.164,65.05c-0.948,0-1.805,0.173-2.57,0.52
			c-0.766,0.347-1.417,0.843-1.955,1.49c-0.538,0.647-0.953,1.44-1.244,2.379c-0.292,0.938-0.438,2.001-0.438,3.186
			c0,1.13,0.141,2.151,0.424,3.063c0.282,0.911,0.684,1.682,1.203,2.311s1.153,1.112,1.9,1.449c0.747,0.337,1.595,0.506,2.543,0.506
			c0.948,0,1.795-0.173,2.543-0.52c0.747-0.347,1.381-0.848,1.9-1.504s0.92-1.449,1.203-2.379c0.282-0.93,0.424-1.978,0.424-3.145
			c0-2.406-0.529-4.233-1.586-5.482C165.454,65.674,164.005,65.05,162.164,65.05z"/>
	</g>
</g>
</svg>
