<?xml version="1.0" encoding="iso-8859-1"?>
<!-- Generator: Adobe Illustrator 16.0.0, SVG Export Plug-In . SVG Version: 6.00 Build 0)  -->
<!DOCTYPE svg PUBLIC "-//W3C//DTD SVG 1.1//EN" "http://www.w3.org/Graphics/SVG/1.1/DTD/svg11.dtd">
<svg version="1.1" id="Layer_1" xmlns:sketch="http://www.bohemiancoding.com/sketch/ns"
	 xmlns="http://www.w3.org/2000/svg" xmlns:xlink="http://www.w3.org/1999/xlink" x="0px" y="0px" width="435px" height="136px"
	 viewBox="0 0 435 136" style="enable-background:new 0 0 435 136;" xml:space="preserve">
<title>Rectangle 52 + 10x faster</title>
<desc>Created with Sketch.</desc>
<linearGradient id="Rectangle-52_1_" gradientUnits="userSpaceOnUse" x1="58.4077" y1="329.4648" x2="59.3975" y2="329.4648" gradientTransform="matrix(431 0 0 132 -25172 -43421)">
	<stop  offset="0" style="stop-color:#74BDFC"/>
	<stop  offset="1" style="stop-color:#428BCA"/>
</linearGradient>
<path id="Rectangle-52" style="fill:none;stroke:url(#Rectangle-52_1_);stroke-width:2;" d="M81.916,2.402h271
	c44.184,0,80,29.549,80,66l0,0c0,36.451-35.816,66-80,66h-271c-44.183,0-80-29.549-80-66l0,0
	C1.916,31.951,37.732,2.402,81.916,2.402z"/>
<g>
	<path style="fill:#FFF100;" d="M97.478,82.172h-25.32v-3.9l11.58-12.18c2-2.078,3.459-3.66,4.38-4.74
		c0.919-1.079,1.75-2.359,2.49-3.84c0.74-1.479,1.11-2.959,1.11-4.439c0-2.559-0.701-4.359-2.1-5.4
		c-1.401-1.039-3.581-1.56-6.54-1.56c-2.601,0-5.5,0.341-8.7,1.021l-1.56,0.299l-0.36-3.84c3.8-1.08,7.719-1.619,11.76-1.619
		c4.04,0,7.089,0.85,9.15,2.55c2.06,1.7,3.09,4.39,3.09,8.069c0,2.801-0.621,5.241-1.86,7.32c-1.24,2.08-3.381,4.58-6.42,7.5
		l-10.56,10.74h19.86V82.172z"/>
	<path style="fill:#FFF100;" d="M130.237,42.572v4.2h-19.26l-1.08,12.899c3.08-1.639,6.18-2.459,9.3-2.459
		c8.4,0,12.6,3.899,12.6,11.699c0,4.48-1.161,7.9-3.48,10.26c-2.32,2.361-5.58,3.541-9.78,3.541c-3.36,0-7.08-0.441-11.16-1.32
		l-1.98-0.42l0.54-3.66c4.6,0.881,8.47,1.32,11.61,1.32c3.14,0,5.509-0.811,7.11-2.432c1.599-1.619,2.4-3.889,2.4-6.809
		s-0.73-4.99-2.19-6.211c-1.46-1.219-3.531-1.83-6.21-1.83c-1.44,0-2.95,0.201-4.53,0.6c-1.581,0.4-2.79,0.801-3.63,1.201l-1.26,0.6
		l-3.18-0.6l1.08-20.58H130.237z"/>
	<path style="fill:#FFF100;" d="M143.497,41.973c4.4,0,6.6,2.76,6.6,8.279c0,2.841-0.58,4.961-1.74,6.36
		c-1.161,1.401-2.781,2.101-4.86,2.101c-2.08,0-3.7-0.699-4.86-2.101c-1.161-1.399-1.74-3.52-1.74-6.36
		C136.897,44.732,139.097,41.973,143.497,41.973z M140.557,50.252c0,3.601,0.99,5.4,2.97,5.4s2.97-1.8,2.97-5.4
		c0-1.8-0.23-3.119-0.69-3.959c-0.46-0.841-1.221-1.261-2.28-1.261c-1.061,0-1.821,0.42-2.28,1.261
		C140.787,47.133,140.557,48.452,140.557,50.252z M144.517,82.412l12.3-41.1l2.88,0.96l-12.3,40.979L144.517,82.412z
		 M153.997,74.252c0-5.48,2.19-8.221,6.57-8.221s6.57,2.762,6.57,8.281c0,2.801-0.58,4.91-1.74,6.33
		c-1.161,1.42-2.781,2.129-4.86,2.129c-2.08,0-3.69-0.709-4.83-2.129C154.567,79.223,153.997,77.092,153.997,74.252z
		 M157.597,74.252c0,3.641,0.98,5.461,2.94,5.461c1.12,0,1.899-0.441,2.34-1.32c0.439-0.879,0.66-2.24,0.66-4.08
		s-0.22-3.17-0.66-3.99c-0.441-0.82-1.2-1.23-2.28-1.23s-1.851,0.41-2.31,1.23C157.827,71.143,157.597,72.451,157.597,74.252z"/>
	<path style="fill:#FFF100;" d="M210.216,55.592c-3.72-0.559-6.78-0.84-9.18-0.84s-4.3,0.641-5.7,1.92
		c-1.4,1.281-2.1,2.82-2.1,4.621c0,1.08,0.39,1.879,1.17,2.398c0.78,0.521,2.52,1.102,5.22,1.74c2.7,0.641,4.66,1.381,5.88,2.221
		c1.219,0.84,1.83,2.279,1.83,4.32c0,3.479-1.21,6.15-3.63,8.01c-2.42,1.859-5.511,2.789-9.27,2.789c-2.76,0-5.42-0.32-7.98-0.959
		l-1.32-0.301l0.66-2.879c3.68,0.639,6.76,0.959,9.24,0.959c2.479,0,4.54-0.578,6.18-1.74c1.64-1.158,2.46-2.879,2.46-5.16
		c0-1.279-0.42-2.168-1.26-2.67c-0.84-0.5-2.58-1.059-5.22-1.68c-2.64-0.619-4.56-1.359-5.76-2.219c-1.2-0.861-1.8-2.211-1.8-4.051
		c0-3.039,1.089-5.539,3.27-7.5c2.18-1.959,4.97-2.939,8.37-2.939c2.64,0,5.4,0.26,8.28,0.779l1.44,0.301L210.216,55.592z"/>
	<path style="fill:#FFF100;" d="M220.656,82.771c-5.001,0-7.5-2.82-7.5-8.459c0-5.24,1.26-10.221,3.78-14.939
		c1.2-2.281,2.79-4.15,4.769-5.611c1.98-1.459,4.15-2.189,6.511-2.189c2.16,0,5.34,0.359,9.54,1.08l2.1,0.359l-4.56,19.5
		c-0.561,2.24-1.04,4.92-1.44,8.041l-0.24,1.559l-3.479,0.121c0.601-3.721,0.979-6,1.14-6.84c-0.16,0.199-0.37,0.471-0.629,0.809
		c-0.262,0.342-0.781,0.932-1.561,1.771c-0.78,0.84-1.57,1.58-2.37,2.219c-0.801,0.641-1.761,1.23-2.88,1.771
		C222.715,82.502,221.655,82.771,220.656,82.771z M235.716,55.652c-2.88-0.6-5.431-0.9-7.649-0.9c-2.221,0-4.23,1.102-6.031,3.301
		c-1.799,2.199-3.109,4.75-3.93,7.648c-0.82,2.902-1.229,5.502-1.229,7.801c0,2.301,0.369,3.891,1.11,4.77
		c0.74,0.881,1.85,1.32,3.331,1.32c1.479,0,3.079-0.699,4.799-2.1s3.141-2.799,4.261-4.199l1.68-2.16L235.716,55.652z"/>
	<path style="fill:#FFF100;" d="M245.796,52.172h3.54l0.84,26.881h2.1l13.681-26.881h3.779l-15.54,30h-7.379L245.796,52.172z"/>
	<path style="fill:#FFF100;" d="M268.476,82.172l6.96-30h3.6l-6.96,30H268.476z M276.995,45.213l1.141-4.801h3.6l-1.08,4.801
		H276.995z"/>
	<path style="fill:#FFF100;" d="M299.734,51.572c2.28,0,4.021,0.66,5.221,1.98c1.199,1.32,1.8,3.02,1.8,5.1s-0.4,4.799-1.2,8.16
		l-3.6,15.359h-3.54l3.54-15.119c0.759-3.24,1.14-5.74,1.14-7.5c0-3.16-1.5-4.74-4.5-4.74c-1.32,0-2.82,0.621-4.5,1.859
		c-1.68,1.24-3.04,2.501-4.08,3.78l-1.5,1.86l-4.62,19.859h-3.6l6.96-30h3.479l-1.26,5.82c2-2.68,4.38-4.58,7.14-5.699
		C297.694,51.813,298.734,51.572,299.734,51.572z"/>
	<path style="fill:#FFF100;" d="M317.193,96.393c-3.119,0-5.59-0.711-7.409-2.131c-1.821-1.42-2.73-3.311-2.73-5.67
		c0-3.4,2.7-6.539,8.1-9.42c-0.6-0.6-0.899-1.359-0.899-2.279s0.26-1.869,0.78-2.85c0.519-0.98,1.059-1.75,1.619-2.311l0.78-0.9
		c-2.76-1.24-4.14-3.49-4.14-6.75s1.089-6.159,3.27-8.699c2.18-2.54,5.09-3.811,8.73-3.811c1.839,0,3.42,0.24,4.74,0.721
		l0.659,0.239l8.881-0.36l-0.721,3.181h-5.819c0.759,1.161,1.14,2.62,1.14,4.38c0,3-1.11,5.76-3.33,8.279s-5.331,3.781-9.33,3.781
		l-1.8-0.121c-1.4,1.762-2.101,3.111-2.101,4.051s0.37,1.559,1.11,1.859s2.499,0.621,5.28,0.961c2.779,0.34,4.859,1.029,6.24,2.068
		c1.38,1.041,2.069,2.66,2.069,4.861c0,2.959-1.38,5.52-4.14,7.68S321.754,96.393,317.193,96.393z M312.514,83.852
		c-1.32,1.279-1.979,2.67-1.979,4.17s0.6,2.75,1.8,3.75s3.129,1.5,5.79,1.5c2.659,0,5.1-0.699,7.319-2.1
		c2.221-1.4,3.33-3.221,3.33-5.459c0-1.361-0.46-2.332-1.38-2.91c-0.921-0.58-2.631-1.01-5.13-1.291c-2.5-0.279-4.19-0.6-5.07-0.959
		C315.394,81.473,313.834,82.572,312.514,83.852z M321.994,68.732c2.799,0,4.959-0.949,6.479-2.85c1.52-1.9,2.28-3.791,2.28-5.67
		c0-1.881-0.44-3.271-1.32-4.17c-0.88-0.9-2.45-1.351-4.71-1.351s-4.15,0.95-5.67,2.851c-1.521,1.9-2.28,3.91-2.28,6.029
		C316.773,67.014,318.514,68.732,321.994,68.732z"/>
	<path style="fill:#FFF100;" d="M361.893,55.592c-3.72-0.559-6.779-0.84-9.18-0.84s-4.301,0.641-5.7,1.92
		c-1.4,1.281-2.1,2.82-2.1,4.621c0,1.08,0.39,1.879,1.17,2.398c0.78,0.521,2.521,1.102,5.22,1.74c2.7,0.641,4.66,1.381,5.881,2.221
		c1.219,0.84,1.829,2.279,1.829,4.32c0,3.479-1.21,6.15-3.63,8.01s-5.511,2.789-9.27,2.789c-2.76,0-5.421-0.32-7.98-0.959
		l-1.32-0.301l0.66-2.879c3.68,0.639,6.76,0.959,9.24,0.959c2.479,0,4.539-0.578,6.18-1.74c1.641-1.158,2.461-2.879,2.461-5.16
		c0-1.279-0.42-2.168-1.261-2.67c-0.84-0.5-2.58-1.059-5.22-1.68c-2.641-0.619-4.561-1.359-5.76-2.219
		c-1.2-0.861-1.801-2.211-1.801-4.051c0-3.039,1.09-5.539,3.271-7.5c2.18-1.959,4.97-2.939,8.37-2.939c2.64,0,5.4,0.26,8.279,0.779
		l1.44,0.301L361.893,55.592z"/>
</g>
</svg>
