<?xml version="1.0" encoding="UTF-8" standalone="no"?>
<svg width="32px" height="26px" viewBox="0 0 32 26" version="1.1" xmlns="http://www.w3.org/2000/svg" xmlns:xlink="http://www.w3.org/1999/xlink" xmlns:sketch="http://www.bohemiancoding.com/sketch/ns">
    <!-- Generator: Sketch 3.3.3 (12072) - http://www.bohemiancoding.com/sketch -->
    <title>twitter copy</title>
    <desc>Created with Sketch.</desc>
    <defs></defs>
    <g id="05-Blog" stroke="none" stroke-width="1" fill="none" fill-rule="evenodd" sketch:type="MSPage">
        <g id="05-blog-details" sketch:type="MSArtboardGroup" transform="translate(-979.000000, -621.000000)" fill="#00ACED">
            <g id="Group" sketch:type="MSLayerGroup" transform="translate(979.000000, 492.000000)">
                <path d="M28.2290526,133.112 C29.584,132.299368 30.6256842,131.012632 31.1157895,129.48 C29.8467368,130.232 28.4421053,130.778526 26.9465263,131.073263 C25.7490526,129.797474 24.0429474,129 22.1541053,129 C18.5288421,129 15.5890526,131.938947 15.5890526,135.565053 C15.5890526,136.079579 15.6471579,136.580632 15.7591579,137.060632 C10.3031579,136.786947 5.46526316,134.173895 2.22736842,130.201684 C1.66231579,131.170947 1.33894737,132.298526 1.33894737,133.501895 C1.33894737,135.779789 2.49768421,137.789053 4.25936842,138.966316 C3.18315789,138.932632 2.17094737,138.637053 1.28589474,138.145263 C1.28505263,138.173053 1.28505263,138.2 1.28505263,138.227789 C1.28505263,141.408421 3.54778947,144.061895 6.55157895,144.665684 C6.00084211,144.815579 5.42063158,144.895579 4.82189474,144.895579 C4.39831579,144.895579 3.98736842,144.854316 3.58652632,144.777684 C4.42189474,147.385684 6.84631579,149.284632 9.71957895,149.336842 C7.472,151.098526 4.64168421,152.147789 1.56547368,152.147789 C1.03578947,152.147789 0.512842105,152.116632 0,152.056 C2.90526316,153.918737 6.35621053,155.005895 10.0631579,155.005895 C22.1389474,155.005895 28.7427368,145.001684 28.7427368,136.326316 C28.7427368,136.041684 28.736,135.758737 28.7233684,135.476632 C30.0067368,134.551158 31.1191579,133.394947 32,132.077895 C30.8218947,132.600842 29.5570526,132.953684 28.2290526,133.112 Z" id="twitter-copy" sketch:type="MSShapeGroup"></path>
            </g>
        </g>
    </g>
</svg>