<?xml version="1.0" encoding="UTF-8" standalone="no"?>
<svg width="152px" height="31px" viewBox="0 0 152 31" version="1.1" xmlns="http://www.w3.org/2000/svg" xmlns:xlink="http://www.w3.org/1999/xlink" xmlns:sketch="http://www.bohemiancoding.com/sketch/ns">
    <!-- Generator: Sketch 3.3.3 (12072) - http://www.bohemiancoding.com/sketch -->
    <title>Imported Layers</title>
    <desc>Created with Sketch.</desc>
    <defs></defs>
    <g id="01-Home" stroke="none" stroke-width="1" fill="none" fill-rule="evenodd" sketch:type="MSPage">
        <g id="11-footer-logos" sketch:type="MSArtboardGroup" transform="translate(-30.000000, -474.000000)" fill="#848682">
            <path d="M83.0829317,482.469516 L83.0829317,478.952745 L68.4578882,478.952745 L68.4578882,482.469516 L73.5494161,482.469516 L73.5494161,496.353441 L68.4578882,496.353441 L68.4578882,499.870211 L83.0829317,499.870211 L83.0829317,496.353441 L77.528795,496.353441 L77.528795,482.469516 L83.0829317,482.469516 L83.0829317,482.469516 Z M107.379329,482.515776 L101.548571,482.515776 L101.548571,488.254957 C101.548571,488.254957 104.695255,488.162435 107.286807,488.162435 C109.87836,488.162435 110.526012,487.60636 110.526012,485.014807 C110.526012,482.053168 107.379329,482.515776 107.379329,482.515776 L107.379329,482.515776 Z M90.533764,504.822012 L120.800646,504.822012 L120.800646,474 L90.533764,474 L90.533764,504.822012 Z M114.691379,494.733366 L114.691379,499.546385 L110.526012,499.546385 L110.526012,495.010932 C110.526012,495.010932 110.526012,491.494161 108.119503,491.494161 C105.713938,491.494161 101.548571,491.586683 101.548571,491.586683 L101.548571,499.639851 L97.4757267,499.639851 L97.4757267,478.90554 L109.508273,478.90554 C109.508273,478.90554 114.691379,478.627975 114.691379,484.274634 C114.691379,489.920348 111.544696,490.198857 111.544696,490.198857 C111.544696,490.198857 114.691379,490.382957 114.691379,494.733366 L114.691379,494.733366 Z M126.353839,478.999006 L126.353839,482.423255 L129.222957,482.423255 L129.222957,496.399702 L126.353839,496.399702 L126.353839,499.82395 L144.033043,499.82395 L144.033043,493.067975 L140.515329,493.067975 L140.515329,496.399702 L133.018236,496.399702 L133.018236,490.753988 L138.571429,490.753988 L138.571429,487.328795 L133.018236,487.328795 L133.018236,482.423255 L140.237764,482.423255 L140.237764,485.755925 L144.033043,485.755925 L144.033043,478.999006 L126.353839,478.999006 L126.353839,478.999006 Z M168.098137,482.423255 L161.803826,482.423255 L161.803826,496.30718 L168.375702,496.30718 C171.522385,496.30718 171.614907,492.234335 171.614907,492.234335 L171.614907,486.866186 C171.614907,482.145689 168.098137,482.423255 168.098137,482.423255 L168.098137,482.423255 Z M150.789019,504.822012 L181.055901,504.822012 L181.055901,474 L150.789019,474 L150.789019,504.822012 Z M168.560745,499.917416 C160.97113,499.917416 157.545938,500.008994 157.545938,500.008994 L157.545938,478.999006 L166.524323,478.999006 C166.524323,478.999006 175.780273,477.980323 175.780273,486.311056 L175.780273,492.141814 C175.780273,492.141814 176.149416,499.917416 168.560745,499.917416 L168.560745,499.917416 Z M30,504.822012 L60.266882,504.822012 L60.266882,474 L30,474 L30,504.822012 Z M54.0660373,499.731429 L48.8819876,499.731429 L45.5502609,484.64472 L41.9400248,499.82395 L36.849441,499.82395 L32.5915528,478.999006 L36.7569193,478.999006 L39.6269814,494.825888 L43.328795,478.999006 L47.8642484,479.091528 L51.5670062,495.103453 L54.3436025,478.999006 L58.3229814,478.999006 L54.0660373,499.731429 L54.0660373,499.731429 Z" id="Imported-Layers" sketch:type="MSShapeGroup"></path>
        </g>
    </g>
</svg>