<?xml version="1.0" encoding="UTF-8" standalone="no"?>
<svg width="153px" height="30px" viewBox="0 0 153 30" version="1.1" xmlns="http://www.w3.org/2000/svg" xmlns:xlink="http://www.w3.org/1999/xlink" xmlns:sketch="http://www.bohemiancoding.com/sketch/ns">
    <!-- Generator: Sketch 3.3.3 (12072) - http://www.bohemiancoding.com/sketch -->
    <title>Imported Layers</title>
    <desc>Created with Sketch.</desc>
    <defs></defs>
    <g id="01-Home" stroke="none" stroke-width="1" fill="none" fill-rule="evenodd" sketch:type="MSPage">
        <g id="11-footer-logos" sketch:type="MSArtboardGroup" transform="translate(-549.000000, -472.000000)" fill="#848682">
            <g id="Imported-Layers" sketch:type="MSLayerGroup" transform="translate(549.000000, 472.000000)">
                <path d="M42.1434224,7.78019255 C41.4031304,7.85431677 38.320323,8.54519255 37.2844845,8.76661491 C36.1745217,9.0631118 26.0394596,16.8927205 25.3713913,18.8170994 C25.2231429,19.4804161 25.1509193,20.5058012 25.1509193,21.4675155 L25.0748944,23.0231739 C25.0748944,24.131236 25.385646,25.9187702 25.5319938,26.8804845 C26.1991118,27.025882 31.0228882,26.8994907 31.9085776,27.0496398 L31.8021429,29.0348385 C30.9345093,28.9749689 24.8088075,28.9892236 21.3078634,28.9892236 C19.5345839,28.9892236 13.8232174,29.1821366 12.0708447,29.1289193 L12.3987019,27.2387516 C13.3613665,27.1646273 17.3460186,27.4117081 18.2212547,26.4861056 C18.6574472,26.0280559 18.5149006,25.5367453 18.5149006,22.8730248 L18.5149006,21.6176646 C18.5149006,21.0237205 18.5149006,19.9137578 18.3714037,18.8798199 C17.9979317,17.7679565 9.06976398,6.62081366 6.7766646,4.84563354 C6.11239752,4.62326087 1.93863354,4.20607453 0.90089441,3.98180124 L0.84957764,2.27884472 C1.36749689,2.01940994 6.00976398,2.34251553 10.5132857,2.17431056 C13.4697019,2.06502484 20.223559,2.17431056 21.0579317,2.27314286 L20.8441118,3.77463354 C19.9565217,3.99890683 15.6810745,4.07873292 14.5720621,4.37713043 C17.457205,8.66588199 22.019646,14.1928882 23.4973789,16.3396398 C24.3108447,15.1536522 31.4666832,10.2319938 31.6871553,8.53093789 C30.5771925,8.31046584 26.9023416,7.78019255 26.3102981,7.78019255 L25.9586832,5.84250932 C26.967913,5.68380745 32.2639938,5.84250932 34.899205,5.84250932 C37.1694969,5.84250932 42.0265342,5.84250932 43.4073354,5.95559627 L42.1434224,7.78019255" id="Fill-1" sketch:type="MSShapeGroup"></path>
                <path d="M42.1434224,7.78019255 C41.4031304,7.85431677 38.320323,8.54519255 37.2844845,8.76661491 C36.1745217,9.0631118 26.0394596,16.8927205 25.3713913,18.8170994 C25.2231429,19.4804161 25.1509193,20.5058012 25.1509193,21.4675155 L25.0748944,23.0231739 C25.0748944,24.131236 25.385646,25.9187702 25.5319938,26.8804845 C26.1991118,27.025882 31.0228882,26.8994907 31.9085776,27.0496398 L31.8021429,29.0348385 C30.9345093,28.9749689 24.8088075,28.9892236 21.3078634,28.9892236 C19.5345839,28.9892236 13.8232174,29.1821366 12.0708447,29.1289193 L12.3987019,27.2387516 C13.3613665,27.1646273 17.3460186,27.4117081 18.2212547,26.4861056 C18.6574472,26.0280559 18.5149006,25.5367453 18.5149006,22.8730248 L18.5149006,21.6176646 C18.5149006,21.0237205 18.5149006,19.9137578 18.3714037,18.8798199 C17.9979317,17.7679565 9.06976398,6.62081366 6.7766646,4.84563354 C6.11239752,4.62326087 1.93863354,4.20607453 0.90089441,3.98180124 L0.84957764,2.27884472 C1.36749689,2.01940994 6.00976398,2.34251553 10.5132857,2.17431056 C13.4697019,2.06502484 20.223559,2.17431056 21.0579317,2.27314286 L20.8441118,3.77463354 C19.9565217,3.99890683 15.6810745,4.07873292 14.5720621,4.37713043 C17.457205,8.66588199 22.019646,14.1928882 23.4973789,16.3396398 C24.3108447,15.1536522 31.4666832,10.2319938 31.6871553,8.53093789 C30.5771925,8.31046584 26.9023416,7.78019255 26.3102981,7.78019255 L25.9586832,5.84250932 C26.967913,5.68380745 32.2639938,5.84250932 34.899205,5.84250932 C37.1694969,5.84250932 42.0265342,5.84250932 43.4073354,5.95559627 L42.1434224,7.78019255" id="Fill-2" sketch:type="MSShapeGroup"></path>
                <path d="M57.4358199,28.207118 C57.1070124,28.1634037 53.4036522,28.1634037 52.0485093,28.1634037 C51.2559503,28.1634037 47.2180807,28.1405963 46.5167516,28.1405963 L46.7277205,26.4062795 C47.6590248,26.358764 49.3961925,25.9805404 50.1897019,25.8883602 C49.6755839,24.7232795 47.9840311,21.0218199 47.6124596,20.321441 C46.6317391,20.321441 43.1089379,20.4335776 42.1291677,20.6188882 C41.9419565,20.945795 40.6058199,22.2543727 40.3739441,24.0305031 C41.0268075,24.1682981 42.2793168,24.437236 43.0243602,24.5313168 L42.7497205,26.3017453 C41.9562112,26.2561304 38.7954783,26.3492609 38.0475839,26.3017453 C37.3481553,26.3017453 34.1018944,26.3093478 33.4955963,26.4034286 L34.0686335,24.5313168 C34.816528,24.437236 36.5346894,23.9050621 37.1885031,23.7634658 C38.1692236,22.365559 42.7041056,13.5001118 43.0747267,12.659087 C42.4693789,12.5193913 41.4382919,12.0328323 40.7863789,11.9378012 L40.6960994,10.6577329 C41.4896087,10.7071491 45.4314969,10.8221366 45.8486832,10.8059814 C46.7856894,10.7556149 50.269528,10.7746211 51.0601863,10.7271056 L50.7665404,11.9853168 C50.0661615,12.0328323 48.9295901,12.3730435 48.2757764,12.5108385 C48.6026832,13.491559 49.9017578,16.649441 50.881528,18.9815031 C51.6275217,20.6597516 52.8667267,23.9525776 54.0308571,25.8636522 C54.8234161,26.0033478 56.6442112,26.5374224 57.4823851,26.5849379 L57.5299006,27.0496398 L57.4358199,28.207118 L57.4358199,28.207118 Z M45.2385839,13.3718199 L45.1910683,13.0810248 C44.3528944,15.036764 42.9264783,18.1157702 42.647087,18.8636646 L47.2418385,18.861764 C46.6792547,17.414441 45.6576708,14.5853665 45.2385839,13.3718199 L45.2385839,13.3718199 Z" id="Fill-3" sketch:type="MSShapeGroup"></path>
                <path d="M57.4358199,28.207118 C57.1070124,28.1634037 53.4036522,28.1634037 52.0485093,28.1634037 C51.2559503,28.1634037 47.2180807,28.1405963 46.5167516,28.1405963 L46.7277205,26.4062795 C47.6590248,26.358764 49.3961925,25.9805404 50.1897019,25.8883602 C49.6755839,24.7232795 47.9840311,21.0218199 47.6124596,20.321441 C46.6317391,20.321441 43.1089379,20.4335776 42.1291677,20.6188882 C41.9419565,20.945795 40.6058199,22.2543727 40.3739441,24.0305031 C41.0268075,24.1682981 42.2793168,24.437236 43.0243602,24.5313168 L42.7497205,26.3017453 C41.9562112,26.2561304 38.7954783,26.3492609 38.0475839,26.3017453 C37.3481553,26.3017453 34.1018944,26.3093478 33.4955963,26.4034286 L34.0686335,24.5313168 C34.816528,24.437236 36.5346894,23.9050621 37.1885031,23.7634658 C38.1692236,22.365559 42.7041056,13.5001118 43.0747267,12.659087 C42.4693789,12.5193913 41.4382919,12.0328323 40.7863789,11.9378012 L40.6960994,10.6577329 C41.4896087,10.7071491 45.4314969,10.8221366 45.8486832,10.8059814 C46.7856894,10.7556149 50.269528,10.7746211 51.0601863,10.7271056 L50.7665404,11.9853168 C50.0661615,12.0328323 48.9295901,12.3730435 48.2757764,12.5108385 C48.6026832,13.491559 49.9017578,16.649441 50.881528,18.9815031 C51.6275217,20.6597516 52.8667267,23.9525776 54.0308571,25.8636522 C54.8234161,26.0033478 56.6442112,26.5374224 57.4823851,26.5849379 L57.5299006,27.0496398 L57.4358199,28.207118 L57.4358199,28.207118 Z M45.2385839,13.3718199 L45.1910683,13.0810248 C44.3528944,15.036764 42.9264783,18.1157702 42.647087,18.8636646 L47.2418385,18.861764 C46.6792547,17.414441 45.6576708,14.5853665 45.2385839,13.3718199 L45.2385839,13.3718199 Z" id="Fill-4" sketch:type="MSShapeGroup"></path>
                <path d="M84.7543975,23.4080497 C84.1053354,23.3605342 81.0120745,23.366236 79.4317081,23.4080497 C78.1620932,23.4451118 75.1467578,23.2949627 73.7146398,23.3557826 L73.6034534,21.5977081 C74.0966646,21.545441 77.1851739,21.3354224 77.779118,21.2375404 C77.9729814,20.2995839 77.8798509,18.9643975 77.8798509,17.8278261 L77.8038261,15.7580497 C76.2196584,15.7580497 65.7567391,16.3025776 65.3110435,16.3519938 L64.5460435,16.4508261 C64.5460435,19.2722981 64.6942919,20.1646398 64.8919565,21.2004783 C65.7339317,21.3487267 68.7530683,21.545441 69.394528,21.6461739 L69.3574658,23.5639006 C68.6152733,23.5144845 63.9730062,23.5639006 62.5361366,23.5639006 C60.8056211,23.5639006 56.5928944,23.5249379 55.6045714,23.5762547 L55.7404658,21.5977081 C56.5311242,21.545441 59.5236522,21.2536957 60.1670124,21.1529627 C60.2658447,19.8662422 60.3152609,17.8373292 60.3152609,15.7105342 L60.3152609,13.0857764 C60.3152609,12.197236 60.2658447,9.62379503 60.2183292,8.73335404 C59.5711677,8.63737267 56.5786398,8.43590683 55.6910497,8.38459006 L55.5304472,6.88880124 C56.1243913,6.93726708 60.2572919,6.82513043 62.4335031,6.82513043 C64.4624161,6.82513043 69.0638199,6.86409317 69.6083478,6.81467702 L69.4458447,8.38459006 C68.504087,8.43590683 65.3889689,8.68013665 64.844441,8.78086957 C64.6942919,9.52306211 64.5460435,10.1664224 64.5460435,12.5421988 L64.4719193,13.7795031 C65.3623602,13.7795031 76.4030683,13.7376894 77.779118,13.5428758 L77.779118,11.8351677 C77.779118,9.6570559 78.1164783,7.30408696 77.8693975,6.6597764 C77.3248696,6.51247826 74.3741553,6.09909317 73.4333478,6.0477764 L73.5663913,4.46740994 C74.1603354,4.51872671 76.9390435,4.50067081 79.0164224,4.55198758 C81.1935839,4.55198758 84.358118,4.64036646 84.9986273,4.54153416 L84.8570311,5.84440994 C84.2117702,5.89192547 81.3456335,6.61701242 81.3456335,6.61701242 C81.3456335,6.61701242 81.1460683,7.97120497 81.2895652,9.92409317 C81.4093043,11.545323 81.4482671,14.7288634 81.4482671,14.7288634 C81.5280932,18.277323 81.7457143,21.1406087 81.549,21.2907578 C81.3123727,21.4694161 83.8211925,21.6214658 84.5139689,21.7202981 L84.7829068,22.1935528 L84.7543975,23.4080497" id="Fill-5" sketch:type="MSShapeGroup"></path>
                <path d="M84.7543975,23.4080497 C84.1053354,23.3605342 81.0120745,23.366236 79.4317081,23.4080497 C78.1620932,23.4451118 75.1467578,23.2949627 73.7146398,23.3557826 L73.6034534,21.5977081 C74.0966646,21.545441 77.1851739,21.3354224 77.779118,21.2375404 C77.9729814,20.2995839 77.8798509,18.9643975 77.8798509,17.8278261 L77.8038261,15.7580497 C76.2196584,15.7580497 65.7567391,16.3025776 65.3110435,16.3519938 L64.5460435,16.4508261 C64.5460435,19.2722981 64.6942919,20.1646398 64.8919565,21.2004783 C65.7339317,21.3487267 68.7530683,21.545441 69.394528,21.6461739 L69.3574658,23.5639006 C68.6152733,23.5144845 63.9730062,23.5639006 62.5361366,23.5639006 C60.8056211,23.5639006 56.5928944,23.5249379 55.6045714,23.5762547 L55.7404658,21.5977081 C56.5311242,21.545441 59.5236522,21.2536957 60.1670124,21.1529627 C60.2658447,19.8662422 60.3152609,17.8373292 60.3152609,15.7105342 L60.3152609,13.0857764 C60.3152609,12.197236 60.2658447,9.62379503 60.2183292,8.73335404 C59.5711677,8.63737267 56.5786398,8.43590683 55.6910497,8.38459006 L55.5304472,6.88880124 C56.1243913,6.93726708 60.2572919,6.82513043 62.4335031,6.82513043 C64.4624161,6.82513043 69.0638199,6.86409317 69.6083478,6.81467702 L69.4458447,8.38459006 C68.504087,8.43590683 65.3889689,8.68013665 64.844441,8.78086957 C64.6942919,9.52306211 64.5460435,10.1664224 64.5460435,12.5421988 L64.4719193,13.7795031 C65.3623602,13.7795031 76.4030683,13.7376894 77.779118,13.5428758 L77.779118,11.8351677 C77.779118,9.6570559 78.1164783,7.30408696 77.8693975,6.6597764 C77.3248696,6.51247826 74.3741553,6.09909317 73.4333478,6.0477764 L73.5663913,4.46740994 C74.1603354,4.51872671 76.9390435,4.50067081 79.0164224,4.55198758 C81.1935839,4.55198758 84.358118,4.64036646 84.9986273,4.54153416 L84.8570311,5.84440994 C84.2117702,5.89192547 81.3456335,6.61701242 81.3456335,6.61701242 C81.3456335,6.61701242 81.1460683,7.97120497 81.2895652,9.92409317 C81.4093043,11.545323 81.4482671,14.7288634 81.4482671,14.7288634 C81.5280932,18.277323 81.7457143,21.1406087 81.549,21.2907578 C81.3123727,21.4694161 83.8211925,21.6214658 84.5139689,21.7202981 L84.7829068,22.1935528 L84.7543975,23.4080497" id="Fill-6" sketch:type="MSShapeGroup"></path>
                <path d="M110.277839,15.1422484 C110.511615,21.1862236 104.993161,24.1825528 97.8249689,24.1825528 C94.8409938,24.1825528 91.2098571,23.6152174 88.1108944,21.7554596 C85.6914037,20.306236 85.291323,18.4217702 85.291323,16.0659503 C85.291323,11.2022609 90.591205,7.16724224 98.700205,7.2176087 C101.787764,7.2176087 104.763186,7.69181366 107.168422,9.56392547 C109.313273,11.2374224 109.677242,12.071795 110.06972,13.9030435 L110.277839,15.1422484 L110.277839,15.1422484 Z M106.296988,15.5546832 C106.475646,10.5541491 102.562267,9.22276398 97.6178012,9.56202484 C95.0301056,9.74068323 89.7653851,11.1081801 89.7653851,15.5546832 C89.7653851,19.9527205 93.8051553,22.3303975 99.1934161,21.8599938 C103.364329,21.4979255 105.550043,19.9631739 106.09077,17.8278261 L106.296988,15.5546832 L106.296988,15.5546832 Z" id="Fill-7" sketch:type="MSShapeGroup"></path>
                <path d="M110.277839,15.1422484 C110.511615,21.1862236 104.993161,24.1825528 97.8249689,24.1825528 C94.8409938,24.1825528 91.2098571,23.6152174 88.1108944,21.7554596 C85.6914037,20.306236 85.291323,18.4217702 85.291323,16.0659503 C85.291323,11.2022609 90.591205,7.16724224 98.700205,7.2176087 C101.787764,7.2176087 104.763186,7.69181366 107.168422,9.56392547 C109.313273,11.2374224 109.677242,12.071795 110.06972,13.9030435 L110.277839,15.1422484 L110.277839,15.1422484 Z M106.296988,15.5546832 C106.475646,10.5541491 102.562267,9.22276398 97.6178012,9.56202484 C95.0301056,9.74068323 89.7653851,11.1081801 89.7653851,15.5546832 C89.7653851,19.9527205 93.8051553,22.3303975 99.1934161,21.8599938 C103.364329,21.4979255 105.550043,19.9631739 106.09077,17.8278261 L106.296988,15.5546832 L106.296988,15.5546832 Z" id="Fill-8" sketch:type="MSShapeGroup"></path>
                <path d="M146.443807,18.7543789 L143.241261,18.4398261 C143.583373,16.8223975 143.286876,4.38568323 143.260267,3.05714907 L143.095863,0.447596273 C143.986304,0.622453416 143.854211,0.530273292 147.619342,0.924652174 C149.91054,1.16508075 150.209888,1.26771429 150.964435,1.29812422 L149.978012,4.39613665 C149.141739,6.87359627 146.705143,17.9238075 146.443807,18.7543789 M144.236236,25.3238758 L142.522826,25.174677 L142.501919,21.4570621 L144.671478,21.7279006 L146.618665,21.8172298 L146.082689,25.4569193 L144.236236,25.3238758" id="Fill-9" sketch:type="MSShapeGroup"></path>
                <path d="M146.443807,18.7543789 L143.241261,18.4398261 C143.583373,16.8223975 143.286876,4.38568323 143.260267,3.05714907 L143.095863,0.447596273 C143.986304,0.622453416 143.854211,0.530273292 147.619342,0.924652174 C149.91054,1.16508075 150.209888,1.26771429 150.964435,1.29812422 L149.978012,4.39613665 C149.141739,6.87359627 146.705143,17.9238075 146.443807,18.7543789 L146.443807,18.7543789 Z M144.236236,25.3238758 L142.522826,25.174677 L142.501919,21.4570621 L144.671478,21.7279006 L146.618665,21.8172298 L146.082689,25.4569193 L144.236236,25.3238758 L144.236236,25.3238758 Z" id="Fill-10" sketch:type="MSShapeGroup"></path>
                <path d="M140.325708,12.6885466 C140.748596,18.3457453 134.215211,23.047882 126.032087,23.047882 C122.630925,23.047882 119.728677,22.6325963 116.37123,20.4126708 C113.608677,18.5861739 112.291547,17.0020062 111.945634,13.8859379 C111.333634,8.36368323 117.99246,3.72331677 127.250385,3.78318634 C130.773186,3.78318634 134.174348,4.31916149 136.915994,6.46116149 C139.367795,8.3703354 139.797335,10.1844783 140.244932,12.2770621 L140.325708,12.6885466 L140.325708,12.6885466 Z M136.056913,13.4896584 C136.393323,8.05578261 131.159963,6.07723602 125.516068,6.46306211 C122.563453,6.66452795 117.045,8.41119876 117.045,13.4896584 C117.045,18.5082484 121.662559,21.0360745 127.81582,20.4991491 C132.575925,20.0848137 134.557323,18.292528 135.641627,15.8625839 C135.641627,15.8625839 135.95428,15.1422484 136.056913,13.4896584 L136.056913,13.4896584 Z" id="Fill-11" sketch:type="MSShapeGroup"></path>
                <path d="M140.325708,12.6885466 C140.748596,18.3457453 134.215211,23.047882 126.032087,23.047882 C122.630925,23.047882 119.728677,22.6325963 116.37123,20.4126708 C113.608677,18.5861739 112.291547,17.0020062 111.945634,13.8859379 C111.333634,8.36368323 117.99246,3.72331677 127.250385,3.78318634 C130.773186,3.78318634 134.174348,4.31916149 136.915994,6.46116149 C139.367795,8.3703354 139.797335,10.1844783 140.244932,12.2770621 L140.325708,12.6885466 L140.325708,12.6885466 Z M136.056913,13.4896584 C136.393323,8.05578261 131.159963,6.07723602 125.516068,6.46306211 C122.563453,6.66452795 117.045,8.41119876 117.045,13.4896584 C117.045,18.5082484 121.662559,21.0360745 127.81582,20.4991491 C132.575925,20.0848137 134.557323,18.292528 135.641627,15.8625839 C135.641627,15.8625839 135.95428,15.1422484 136.056913,13.4896584 L136.056913,13.4896584 Z" id="Fill-12" sketch:type="MSShapeGroup"></path>
                <path d="M150.396149,21.8495404 C151.380671,21.8495404 152.212193,22.631646 152.212193,23.6665342 C152.212193,24.700472 151.380671,25.4787764 150.396149,25.4787764 C149.404975,25.4787764 148.581056,24.700472 148.581056,23.6665342 C148.581056,22.631646 149.404975,21.8495404 150.396149,21.8495404 L150.396149,21.8495404 Z M150.396149,25.2155404 C151.22577,25.2155404 151.891938,24.5436708 151.891938,23.6665342 C151.891938,22.7884472 151.22577,22.114677 150.396149,22.114677 C149.563677,22.114677 148.905112,22.7884472 148.905112,23.6665342 C148.905112,24.5436708 149.563677,25.2155404 150.396149,25.2155404 L150.396149,25.2155404 Z M149.707174,22.6021863 L150.504484,22.6021863 C151.006248,22.6021863 151.243826,22.8036522 151.243826,23.2084845 C151.243826,23.5924099 151.003398,23.7530124 150.685994,23.785323 L151.294193,24.7232795 L150.946379,24.7232795 L150.372391,23.8109814 L150.027429,23.8109814 L150.027429,24.7232795 L149.707174,24.7232795 L149.707174,22.6021863 L149.707174,22.6021863 Z M150.027429,23.546795 L150.359087,23.546795 C150.646081,23.546795 150.923571,23.5334907 150.923571,23.1913789 C150.923571,22.9005839 150.671739,22.864472 150.451267,22.864472 L150.027429,22.864472 L150.027429,23.546795 L150.027429,23.546795 Z" id="Fill-13" sketch:type="MSShapeGroup"></path>
                <path d="M150.396149,21.8495404 C151.380671,21.8495404 152.212193,22.631646 152.212193,23.6665342 C152.212193,24.700472 151.380671,25.4787764 150.396149,25.4787764 C149.404975,25.4787764 148.581056,24.700472 148.581056,23.6665342 C148.581056,22.631646 149.404975,21.8495404 150.396149,21.8495404 L150.396149,21.8495404 Z M150.396149,25.2155404 C151.22577,25.2155404 151.891938,24.5436708 151.891938,23.6665342 C151.891938,22.7884472 151.22577,22.114677 150.396149,22.114677 C149.563677,22.114677 148.905112,22.7884472 148.905112,23.6665342 C148.905112,24.5436708 149.563677,25.2155404 150.396149,25.2155404 L150.396149,25.2155404 Z M149.707174,22.6021863 L150.504484,22.6021863 C151.006248,22.6021863 151.243826,22.8036522 151.243826,23.2084845 C151.243826,23.5924099 151.003398,23.7530124 150.685994,23.785323 L151.294193,24.7232795 L150.946379,24.7232795 L150.372391,23.8109814 L150.027429,23.8109814 L150.027429,24.7232795 L149.707174,24.7232795 L149.707174,22.6021863 L149.707174,22.6021863 Z M150.027429,23.546795 L150.359087,23.546795 C150.646081,23.546795 150.923571,23.5334907 150.923571,23.1913789 C150.923571,22.9005839 150.671739,22.864472 150.451267,22.864472 L150.027429,22.864472 L150.027429,23.546795 L150.027429,23.546795 Z" id="Fill-14" sketch:type="MSShapeGroup"></path>
            </g>
        </g>
    </g>
</svg>