<?xml version="1.0" encoding="utf-8"?>
<!-- Generator: Adobe Illustrator 17.0.0, SVG Export Plug-In . SVG Version: 6.00 Build 0)  -->
<!DOCTYPE svg PUBLIC "-//W3C//DTD SVG 1.1//EN" "http://www.w3.org/Graphics/SVG/1.1/DTD/svg11.dtd">
<svg version="1.1" id="Layer_1" xmlns:sketch="http://www.bohemiancoding.com/sketch/ns"
	 xmlns="http://www.w3.org/2000/svg" xmlns:xlink="http://www.w3.org/1999/xlink" x="0px" y="0px" width="540px" height="380px"
	 viewBox="0 0 540 380" enable-background="new 0 0 540 380" xml:space="preserve">
<g>
	<g>
		<circle id="Oval-32-Copy" sketch:type="MSShapeGroup" fill="#03ACED" cx="365" cy="190" r="70">
		</circle>
		<path id="Imported-Layers" sketch:type="MSShapeGroup" fill="none" stroke="#FFFFFF" stroke-width="2" d="M402.307,163
			c0,0-7.663,3.51-11.287,3.748c-2.625-2.424-5.638-3.453-9.419-3.453c-3.204,0-5.658,0.904-6.16,1.103
			c-4.916,1.744-8.239,5.41-9.618,10.601c-0.427,1.607-0.599,2.886-0.651,4.113c-15.345,0-25.288-14.955-25.288-14.955
			c-7.894,11.125-1.359,18.957-1.359,18.957c-0.082-0.01-2.837-0.387-2.837-0.387s-1.066,9.051,4.908,14.245
			c0,0-1.056-0.102-1.955-0.102c0.917,9.754,9.657,11.726,9.811,11.776c-5.748,3.818-17.454,1.895-17.454,1.895
			s6.093,11.148,23.584,11.148c33.324,0,42.129-28.356,42.129-40.199c6.438-5.445,9.076-13.627,9.076-13.627l-5.415,1.957
			c1.361-2.75,1.937-6.821,1.937-6.821h-0.002"/>
	</g>
	<g>
		<circle id="Oval-32" sketch:type="MSShapeGroup" fill="#3B5998" cx="175" cy="190" r="70">
		</circle>
		<path id="Path-1" sketch:type="MSShapeGroup" fill="none" stroke="#FFFFFF" stroke-width="2" d="M167.702,225.364v-32.005H157
			v-12.526h10.651l-0.004-10.95c0,0-0.35-12.449,12.853-14.746c5.818-0.458,12.5,0.384,12.5,0.384l-0.086,11.278l-7.147,0.024
			c0,0-6.106-0.456-5.312,6.288l-0.01,7.587l12.178,0.078l-1.717,12.558l-10.505-0.069v32.099H167.702z"/>
	</g>
</g>
</svg>
