<?xml version="1.0" encoding="UTF-8" standalone="no"?>
<svg width="20px" height="38px" viewBox="0 0 20 38" version="1.1" xmlns="http://www.w3.org/2000/svg" xmlns:xlink="http://www.w3.org/1999/xlink" xmlns:sketch="http://www.bohemiancoding.com/sketch/ns">
    <!-- Generator: Sketch 3.3.3 (12072) - http://www.bohemiancoding.com/sketch -->
    <title>Imported Layers</title>
    <desc>Created with Sketch.</desc>
    <defs></defs>
    <g id="01-Home" stroke="none" stroke-width="1" fill="none" fill-rule="evenodd" sketch:type="MSPage">
        <g id="11-footer" sketch:type="MSArtboardGroup" transform="translate(-364.000000, -1168.000000)" stroke="#212121" stroke-width="2">
            <g id="footer" sketch:type="MSLayerGroup" transform="translate(-131.000000, 687.000000)">
                <path d="M500.37619,517.270476 L500.37619,500.720952 L496,500.720952 L496,494.761905 L500.37619,494.761905 L500.37619,489.672381 C500.37619,485.673333 502.960952,482 508.917143,482 C511.329524,482 513.112381,482.231429 513.112381,482.231429 L512.972381,487.795238 C512.972381,487.795238 511.153333,487.778095 509.168571,487.778095 C507.020952,487.778095 506.67619,488.767619 506.67619,490.410476 C506.67619,491.709524 506.67619,487.642857 506.67619,494.761905 L513.142857,494.761905 L512.861905,500.720952 L506.67619,500.720952 L506.67619,517.270476 L500.37619,517.270476 L500.37619,517.270476 Z" id="Imported-Layers" sketch:type="MSShapeGroup"></path>
            </g>
        </g>
    </g>
</svg>