<?xml version="1.0" encoding="iso-8859-1"?>
<!-- Generator: Adobe Illustrator 16.0.0, SVG Export Plug-In . SVG Version: 6.00 Build 0)  -->
<!DOCTYPE svg PUBLIC "-//W3C//DTD SVG 1.1//EN" "http://www.w3.org/Graphics/SVG/1.1/DTD/svg11.dtd">
<svg version="1.1" id="Layer_1" xmlns="http://www.w3.org/2000/svg" xmlns:xlink="http://www.w3.org/1999/xlink" x="0px" y="0px"
	 width="36px" height="36px" viewBox="0 0 36 36" style="enable-background:new 0 0 36 36;" xml:space="preserve">
<g>
	<path style="fill-rule:evenodd;clip-rule:evenodd;" d="M18.616,5.916c0.18,0.238,0.411,0.453,0.532,0.717
		c1.11,2.414,1.113,4.777-0.583,6.923c-0.674,0.852-1.538,1.571-2.391,2.258c-1.239,0.999-1.28,2.233-0.045,3.251
		c1.021,0.841,2.051,1.674,3.021,2.571c2.601,2.403,2.783,5.976,0.474,8.666c-1.467,1.709-3.34,2.823-5.486,3.361
		c-3.084,0.772-6.177,0.69-9.185-0.449c-1.93-0.73-3.232-2.102-3.755-4.1c-0.595-2.272,0.716-4.936,3.011-6.271
		c1.726-1.005,3.645-1.378,5.59-1.646c0.617-0.084,1.237-0.146,2.005-0.237c-0.875-1.194-1.072-2.436-0.724-3.826
		c-0.258-0.023-0.464-0.065-0.669-0.057c-3.18,0.121-5.918-1.655-6.898-4.481C2.484,9.628,3.575,6.129,6.112,4.344
		c1.625-1.142,3.462-1.713,5.431-1.738c3.529-0.044,7.06-0.013,10.59-0.011c0.102,0,0.203,0.033,0.534,0.088
		c-1.061,0.594-1.944,1.091-2.831,1.587c-0.061-0.084-0.122-0.169-0.184-0.253c0.415-0.29,0.83-0.58,1.4-0.979
		c-0.407-0.033-0.635-0.067-0.862-0.067c-2.758-0.004-5.516-0.014-8.273,0.001C10.266,2.983,8.69,3.363,7.228,4.133
		c-2.693,1.42-4.045,4.182-3.598,7.281c0.368,2.548,2.545,4.747,5.305,5.214c0.879,0.149,1.805,0.023,2.843,0.023
		c-0.952,1.779-0.394,3.248,0.833,4.643c-1.423,0.181-2.749,0.243-4.02,0.539c-1.383,0.322-2.769,0.744-4.055,1.336
		c-1.431,0.659-2.33,1.925-2.844,3.405c-0.75,2.161,0.363,4.681,2.572,5.854c2.002,1.063,4.183,1.329,6.411,1.31
		c2.884-0.025,5.479-0.894,7.691-2.769c1.821-1.541,2.813-3.439,2.351-5.903c-0.21-1.121-0.737-2.085-1.564-2.852
		c-0.989-0.919-1.995-1.826-3.057-2.657c-1.72-1.347-1.71-2.868,0.002-4.196c0.818-0.635,1.604-1.367,2.231-2.187
		c1.505-1.966,1.521-4.116,0.49-6.312c-0.125-0.267-0.275-0.521-0.415-0.782C18.476,6.026,18.547,5.971,18.616,5.916z"/>
	<path style="fill-rule:evenodd;clip-rule:evenodd;" d="M12.429,22.17c0.873-0.22,1.714,0.211,2.496,0.904
		c0.721,0.639,1.556,1.156,2.23,1.837c1.984,2,1.641,4.734-0.735,6.261c-2.886,1.854-7.581,1.513-10.16-0.739
		c-2.068-1.805-2.005-4.824,0.137-6.543C7.799,22.764,9.781,22.179,12.429,22.17z M12.275,22.578
		c-2.088,0.043-3.89,0.369-5.444,1.502c-2.152,1.567-2.253,4.353-0.246,6.085c2.503,2.161,7.142,2.401,9.83,0.511
		c1.901-1.339,2.198-3.601,0.616-5.286c-0.673-0.716-1.534-1.251-2.262-1.92C13.988,22.752,13.123,22.398,12.275,22.578z"/>
	<path style="fill-rule:evenodd;clip-rule:evenodd;" d="M34,10.588c-1.198,0-2.325,0.025-3.45-0.01
		c-0.575-0.019-0.782,0.179-0.766,0.757c0.034,1.127,0.011,2.255,0.011,3.447c-0.76,0-1.462,0-2.316,0
		c0-1.055-0.041-2.145,0.015-3.229c0.04-0.75-0.183-1.03-0.963-0.982c-1.065,0.065-2.138,0.016-3.259,0.016c0-0.79,0-1.489,0-2.315
		c1.136,0,2.256-0.034,3.372,0.013c0.651,0.027,0.878-0.18,0.849-0.841c-0.049-1.098-0.014-2.2-0.014-3.367c0.752,0,1.452,0,2.315,0
		c0,1.027,0.051,2.089-0.017,3.145c-0.053,0.823,0.184,1.134,1.047,1.069C31.86,8.213,32.906,8.272,34,8.272
		C34,9.057,34,9.757,34,10.588z M23.681,10.225c1.426,0,2.762,0,4.194,0c0,1.442,0,2.782,0,4.138c0.553,0,1.002,0,1.546,0
		c0-1.104,0.043-2.148-0.015-3.188c-0.042-0.759,0.212-1.02,0.975-0.977c1.059,0.058,2.124,0.015,3.206,0.015
		c0-0.584,0-1.015,0-1.578c-1.399,0-2.76,0-4.215,0c0-1.467,0-2.804,0-4.158c-0.535,0-0.966,0-1.513,0c0,1.402,0,2.765,0,4.209
		c-1.456,0-2.798,0-4.179,0C23.681,9.205,23.681,9.637,23.681,10.225z"/>
	<path style="fill-rule:evenodd;clip-rule:evenodd;" d="M16.229,11.504c-0.175,0.59-0.335,1.587-0.753,2.461
		c-0.928,1.936-2.981,2.585-4.89,1.593c-2.122-1.104-3.139-3.01-3.604-5.266C6.708,8.964,6.807,7.655,7.325,6.397
		c0.977-2.371,3.338-3.158,5.497-1.771C15.163,6.129,16.013,8.451,16.229,11.504z M15.801,11.321
		c-0.175-2.743-0.999-4.929-3.196-6.361c-1.88-1.226-4.008-0.585-4.834,1.499C7.427,7.327,7.257,8.336,7.295,9.27
		c0.09,2.214,0.958,4.128,2.771,5.494c2.116,1.593,4.494,0.858,5.344-1.642C15.629,12.479,15.703,11.788,15.801,11.321z"/>
</g>
</svg>
