<?xml version="1.0" encoding="iso-8859-1"?>
<!-- Generator: Adobe Illustrator 16.0.0, SVG Export Plug-In . SVG Version: 6.00 Build 0)  -->
<!DOCTYPE svg PUBLIC "-//W3C//DTD SVG 1.1//EN" "http://www.w3.org/Graphics/SVG/1.1/DTD/svg11.dtd">
<svg version="1.1" id="Layer_1" xmlns="http://www.w3.org/2000/svg" xmlns:xlink="http://www.w3.org/1999/xlink" x="0px" y="0px"
	 width="36px" height="36px" viewBox="0 0 36 36" style="enable-background:new 0 0 36 36;" xml:space="preserve">
<g>
	<path style="fill-rule:evenodd;clip-rule:evenodd;fill:#050404;" d="M11.313,19.436c-0.268-0.479-0.48-0.945-0.529-1.463
		c-0.018-0.194-0.014-0.393-0.04-0.585c-0.028-0.199,0.185-0.45,0.007-0.571c-0.145-0.097-0.402-0.027-0.61-0.031
		c-3.024-0.04-5.573-2.036-6.179-4.952C3.483,9.53,4.281,7.572,5.887,5.929c1.299-1.329,2.938-2.013,4.737-2.355
		c0.94-0.178,1.89-0.228,2.846-0.225c3.083,0.007,6.167,0.002,9.25,0.002c0.11,0,0.22,0,0.443,0
		c-0.705,0.384-1.316,0.718-1.928,1.052c-0.406,0.221-0.81,0.451-1.22,0.665c-0.688,0.359-1.313,0.916-2.291,0.651
		c0.672,0.794,1.185,1.533,1.451,2.406c0.746,2.451,0.159,4.884-2.182,6.743c-0.393,0.311-0.808,0.595-1.155,0.961
		c-0.678,0.715-0.655,1.301,0.108,1.917c0.865,0.697,1.782,1.331,2.608,2.079c1.065,0.966,1.883,2.073,2.1,3.545
		c0.277,1.89-0.28,3.526-1.518,4.938c-1.389,1.588-3.202,2.443-5.226,2.883c-2.387,0.519-4.78,0.537-7.147-0.099
		C5.288,30.698,3.972,29.999,3,28.771c-1.499-1.897-1.295-4.54,0.487-6.403c1.252-1.311,2.838-1.989,4.557-2.415
		c0.937-0.232,1.888-0.383,2.851-0.452C11.026,19.49,11.154,19.461,11.313,19.436z M12.727,28.924
		c0.717,0.006,1.918-0.148,2.994-0.823c1.578-0.989,1.85-2.924,0.609-4.313c-0.509-0.569-1.153-0.979-1.729-1.468
		c-0.74-0.628-1.535-0.898-2.515-0.774c-1.26,0.16-2.524,0.271-3.691,0.825c-0.828,0.395-1.528,0.928-1.843,1.833
		c-0.486,1.4,0.114,2.883,1.511,3.721C9.338,28.689,10.748,28.913,12.727,28.924z M15.074,11.172c-0.01-0.733-0.298-1.872-0.82-2.95
		c-0.398-0.822-0.91-1.564-1.701-2.066C10.813,5.051,8.6,6.03,8.313,8.069c-0.281,1.995,0.262,3.801,1.494,5.383
		c0.551,0.709,1.294,1.16,2.217,1.206C13.903,14.75,15.081,13.577,15.074,11.172z"/>
	<path style="fill-rule:evenodd;clip-rule:evenodd;fill:#050404;" d="M29.167,14.583c0,0.893-0.007,1.786,0.005,2.679
		c0.002,0.202-0.048,0.271-0.26,0.265c-0.648-0.013-1.298-0.021-1.944,0.004c-0.287,0.011-0.303-0.107-0.302-0.338
		c0.008-1.761-0.002-3.522,0.011-5.284c0.002-0.269-0.055-0.344-0.335-0.341c-1.737,0.015-3.475,0.001-5.211,0.014
		c-0.27,0.002-0.354-0.053-0.342-0.335c0.024-0.611,0.021-1.224,0.001-1.834c-0.01-0.271,0.056-0.343,0.335-0.341
		c1.736,0.015,3.475,0.001,5.212,0.014c0.269,0.002,0.343-0.055,0.34-0.335c-0.015-1.688,0-3.376-0.014-5.064
		c-0.002-0.269,0.054-0.353,0.336-0.341c0.622,0.024,1.248,0.019,1.87,0.002c0.236-0.006,0.306,0.054,0.305,0.298
		c-0.013,1.701,0,3.401-0.014,5.101c-0.002,0.269,0.055,0.344,0.335,0.341c1.688-0.015,3.376-0.001,5.064-0.014
		c0.27-0.002,0.354,0.053,0.342,0.335c-0.024,0.624-0.018,1.248-0.003,1.872c0.008,0.236-0.053,0.305-0.296,0.303
		c-1.701-0.011-3.401,0-5.103-0.013c-0.269-0.002-0.347,0.055-0.341,0.335C29.18,12.797,29.167,13.69,29.167,14.583z"/>
</g>
</svg>
