<?xml version="1.0" encoding="iso-8859-1"?>
<!-- Generator: Adobe Illustrator 16.0.0, SVG Export Plug-In . SVG Version: 6.00 Build 0)  -->
<!DOCTYPE svg PUBLIC "-//W3C//DTD SVG 1.1//EN" "http://www.w3.org/Graphics/SVG/1.1/DTD/svg11.dtd">
<svg version="1.1" id="Layer_1" xmlns="http://www.w3.org/2000/svg" xmlns:xlink="http://www.w3.org/1999/xlink" x="0px" y="0px"
	 width="36px" height="36px" viewBox="0 0 36 36" style="enable-background:new 0 0 36 36;" xml:space="preserve">
<g>
	<path style="fill-rule:evenodd;clip-rule:evenodd;" d="M1.727,17.761c0-2.452-0.101-4.908,0.025-7.353
		c0.163-3.178,1.469-5.79,4.322-7.446c1.27-0.737,2.671-1.181,4.118-1.196c5.085-0.057,10.177-0.169,15.255,0.02
		c4.864,0.18,8.283,3.676,8.435,8.547c0.156,4.989,0.157,9.992,0.001,14.981c-0.153,4.931-3.708,8.445-8.636,8.583
		c-4.945,0.138-9.9,0.138-14.845,0c-4.961-0.138-8.436-3.675-8.656-8.645C1.636,22.759,1.727,20.257,1.727,17.761z M17.866,31.24
		c0.002-0.071,0.002-0.142,0.003-0.213c2.314,0,4.631,0.071,6.942-0.016c3.791-0.144,6.095-2.369,6.185-6.154
		c0.11-4.694,0.114-9.396-0.003-14.091c-0.094-3.764-2.396-6.038-6.139-6.115c-4.695-0.097-9.395-0.081-14.09,0.004
		c-2.173,0.039-4.164,0.79-5.216,2.867c-0.502,0.992-0.861,2.171-0.883,3.273c-0.094,4.696-0.118,9.396-0.014,14.091
		c0.079,3.52,1.979,5.628,5.46,6.021C12.677,31.196,15.28,31.141,17.866,31.24z"/>
	<path style="fill-rule:evenodd;clip-rule:evenodd;" d="M26.174,17.812c0.017,4.571-3.772,8.364-8.352,8.363
		c-4.557-0.001-8.307-3.728-8.348-8.297c-0.041-4.577,3.717-8.371,8.315-8.395C22.38,9.461,26.157,13.213,26.174,17.812z
		 M17.793,23.228c3.016,0.013,5.423-2.375,5.43-5.387c0.005-2.99-2.351-5.379-5.336-5.41c-3.023-0.03-5.438,2.335-5.461,5.35
		C12.402,20.798,14.783,23.214,17.793,23.228z"/>
	<path style="fill-rule:evenodd;clip-rule:evenodd;" d="M26.516,7.224c1.096,0.01,1.937,0.883,1.912,1.987
		c-0.024,1.055-0.892,1.889-1.954,1.88c-1.084-0.009-1.938-0.898-1.914-1.99C24.584,8.045,25.449,7.215,26.516,7.224z"/>
</g>
</svg>
