<?xml version="1.0" encoding="UTF-8" standalone="no"?>
<svg width="35px" height="35px" viewBox="0 0 35 35" version="1.1" xmlns="http://www.w3.org/2000/svg" xmlns:xlink="http://www.w3.org/1999/xlink" xmlns:sketch="http://www.bohemiancoding.com/sketch/ns">
    <!-- Generator: Sketch 3.3.3 (12072) - http://www.bohemiancoding.com/sketch -->
    <title>Imported Layers</title>
    <desc>Created with Sketch.</desc>
    <defs></defs>
    <g id="01-Home" stroke="none" stroke-width="1" fill="none" fill-rule="evenodd" sketch:type="MSPage">
        <g id="11-footer" sketch:type="MSArtboardGroup" transform="translate(-280.000000, -1167.000000)" stroke="#212121" stroke-width="2">
            <g id="footer" sketch:type="MSLayerGroup" transform="translate(-131.000000, 687.000000)">
                <path d="M412.529861,491.634167 L419.178889,491.634167 L419.178889,513.027917 L412.529861,513.027917 L412.529861,491.634167 Z M415.856806,481 C413.725694,481 412,482.727639 412,484.853889 C412,486.982083 413.725694,488.709722 415.856806,488.709722 C417.982083,488.709722 419.709722,486.982083 419.709722,484.853889 C419.709722,482.727639 417.982083,481 415.856806,481 L415.856806,481 Z M436.107222,491.102361 C432.872639,491.102361 430.703611,492.875694 429.815972,494.557639 L429.7275,494.557639 L429.7275,491.634167 L423.349722,491.634167 L423.349722,513.027917 L429.992917,513.027917 L429.992917,502.444306 C429.992917,499.654028 430.524722,496.952222 433.983889,496.952222 C437.393472,496.952222 437.439167,500.143056 437.439167,502.624167 L437.439167,513.027917 L444.083333,513.027917 L444.083333,501.293194 C444.083333,495.53375 442.840833,491.102361 436.107222,491.102361 L436.107222,491.102361 Z" id="Imported-Layers" sketch:type="MSShapeGroup"></path>
            </g>
        </g>
    </g>
</svg>