<?xml version="1.0" encoding="iso-8859-1"?>
<!-- Generator: Adobe Illustrator 16.0.0, SVG Export Plug-In . SVG Version: 6.00 Build 0)  -->
<!DOCTYPE svg PUBLIC "-//W3C//DTD SVG 1.1//EN" "http://www.w3.org/Graphics/SVG/1.1/DTD/svg11.dtd">
<svg version="1.1" id="Layer_1" xmlns="http://www.w3.org/2000/svg" xmlns:xlink="http://www.w3.org/1999/xlink" x="0px" y="0px"
	 width="36px" height="36px" viewBox="0 0 36 36" style="enable-background:new 0 0 36 36;" xml:space="preserve">
<g>
	<path style="fill-rule:evenodd;clip-rule:evenodd;" d="M33.844,18.014c-0.002,8.743-7.097,15.843-15.823,15.834
		C9.23,33.839,2.16,26.766,2.155,17.992c-0.005-8.745,7.149-15.89,15.98-15.84C26.783,2.201,33.847,9.298,33.844,18.014z
		 M18.011,4.072C10.317,4.066,4.088,10.275,4.068,17.969c-0.02,7.704,6.201,13.952,13.904,13.967
		c7.702,0.016,13.949-6.211,13.96-13.913C31.942,10.318,25.715,4.078,18.011,4.072z"/>
	<path style="fill-rule:evenodd;clip-rule:evenodd;" d="M17.016,20.55c-0.212,0.862-0.407,1.682-0.614,2.497
		c-0.289,1.139-0.887,2.122-1.563,3.063c-0.041,0.057-0.127,0.08-0.193,0.119c-0.036-0.079-0.092-0.154-0.105-0.236
		c-0.265-1.616-0.069-3.197,0.33-4.772c0.306-1.205,0.555-2.425,0.816-3.642c0.028-0.131-0.002-0.285-0.042-0.417
		c-0.241-0.811-0.281-1.621,0.002-2.429c0.15-0.426,0.385-0.797,0.769-1.056c0.871-0.586,1.926-0.095,1.936,0.952
		c0.006,0.596-0.141,1.199-0.267,1.789c-0.126,0.592-0.318,1.17-0.47,1.757c-0.148,0.574-0.033,1.093,0.417,1.495
		c0.458,0.407,0.996,0.454,1.564,0.262c0.468-0.157,0.821-0.468,1.109-0.854c0.679-0.914,0.946-1.975,1.073-3.083
		c0.08-0.7,0.106-1.401-0.086-2.088c-0.377-1.351-1.272-2.157-2.641-2.429c-1.988-0.395-4.027,0.448-4.916,2.472
		c-0.368,0.838-0.535,1.72-0.339,2.622c0.087,0.401,0.287,0.788,0.494,1.147c0.133,0.232,0.217,0.427,0.125,0.689
		c-0.064,0.183-0.088,0.38-0.136,0.569c-0.09,0.357-0.254,0.432-0.589,0.266c-0.684-0.339-1.133-0.899-1.375-1.602
		c-0.698-2.032-0.351-3.913,0.973-5.582c1.344-1.694,3.18-2.334,5.297-2.287c2.609,0.059,4.822,1.754,5.292,4.305
		c0.439,2.387-0.046,4.625-1.803,6.435c-0.771,0.796-1.758,1.17-2.872,1.161C18.314,21.664,17.588,21.313,17.016,20.55z"/>
</g>
</svg>
