<?xml version="1.0" encoding="UTF-8" standalone="no"?>
<svg width="36px" height="29px" viewBox="0 0 36 29" version="1.1" xmlns="http://www.w3.org/2000/svg" xmlns:xlink="http://www.w3.org/1999/xlink" xmlns:sketch="http://www.bohemiancoding.com/sketch/ns">
    <!-- Generator: Sketch 3.3.3 (12072) - http://www.bohemiancoding.com/sketch -->
    <title>Imported Layers</title>
    <desc>Created with Sketch.</desc>
    <defs></defs>
    <g id="01-Home" stroke="none" stroke-width="1" fill="none" fill-rule="evenodd" sketch:type="MSPage">
        <g id="11-footer" sketch:type="MSArtboardGroup" transform="translate(-435.000000, -1175.000000)" stroke="#212121" stroke-width="2" stroke-linecap="round" stroke-linejoin="round">
            <g id="footer" sketch:type="MSLayerGroup" transform="translate(-131.000000, 687.000000)">
                <path d="M596.149565,493.246087 C597.548696,492.406957 598.624348,491.078261 599.130435,489.495652 C597.82,490.272174 596.369565,490.836522 594.825217,491.14087 C593.588696,489.823478 591.826957,489 589.876522,489 C586.133043,489 583.097391,492.034783 583.097391,495.77913 C583.097391,496.310435 583.157391,496.827826 583.273043,497.323478 C577.63913,497.04087 572.643478,494.342609 569.3,490.24087 C568.716522,491.241739 568.382609,492.406087 568.382609,493.648696 C568.382609,496.00087 569.57913,498.075652 571.398261,499.291304 C570.286957,499.256522 569.241739,498.951304 568.327826,498.443478 C568.326957,498.472174 568.326957,498.5 568.326957,498.528696 C568.326957,501.813043 570.663478,504.553043 573.765217,505.176522 C573.196522,505.331304 572.597391,505.413913 571.97913,505.413913 C571.541739,505.413913 571.117391,505.371304 570.703478,505.292174 C571.566087,507.985217 574.069565,509.946087 577.036522,510 C574.715652,511.81913 571.793043,512.902609 568.616522,512.902609 C568.069565,512.902609 567.529565,512.870435 567,512.807826 C570,514.731304 573.563478,515.853913 577.391304,515.853913 C589.86087,515.853913 596.68,505.523478 596.68,496.565217 C596.68,496.271304 596.673043,495.97913 596.66,495.687826 C597.985217,494.732174 599.133913,493.538261 600.043478,492.178261 C598.826957,492.718261 597.52087,493.082609 596.149565,493.246087 Z" id="Imported-Layers" sketch:type="MSShapeGroup"></path>
            </g>
        </g>
    </g>
</svg>